<?xml version="1.0" encoding="utf-8"?>
<!-- Generator: Adobe Illustrator 25.2.3, SVG Export Plug-In . SVG Version: 6.00 Build 0)  -->
<svg version="1.1" id="Layer_1" xmlns="http://www.w3.org/2000/svg" xmlns:xlink="http://www.w3.org/1999/xlink" x="0px" y="0px"
	 viewBox="0 0 400 400" style="enable-background:new 0 0 400 400;" xml:space="preserve">
<style type="text/css">
	.st0{fill:#00C1DE;}
	.st1{fill:#2FBBDD;}
	.st2{fill:#FFFFFF;}
	.st3{fill:#C10230;}
	.st4{fill:none;}
</style>
<path class="st0" d="M400,400L400,400c-0.1,0-0.2,0-0.2,0H400z"/>
<rect class="st1" width="400" height="400"/>
<g>
	<g>
		<path class="st2" d="M62.2,16.3v5.8h0.2c1.5-2.2,3.4-3.9,5.6-5.1c2.2-1.2,4.7-1.8,7.5-1.8c2.7,0,5.2,0.5,7.4,1.6
			c2.2,1,3.9,2.9,5.1,5.5c1.3-1.9,3-3.5,5.2-5c2.2-1.4,4.8-2.2,7.7-2.2c2.3,0,4.4,0.3,6.3,0.8c1.9,0.6,3.6,1.4,5,2.6
			c1.4,1.2,2.5,2.8,3.2,4.8c0.8,2,1.2,4.3,1.2,7.1v28.6h-11.8V34.8c0-1.4-0.1-2.8-0.2-4.1c-0.1-1.3-0.4-2.4-0.9-3.3
			c-0.5-0.9-1.2-1.7-2.2-2.2c-1-0.6-2.3-0.8-3.9-0.8c-1.7,0-3,0.3-4,1c-1,0.6-1.8,1.5-2.4,2.5c-0.6,1-1,2.2-1.2,3.5
			c-0.2,1.3-0.3,2.6-0.3,3.9v23.8H77.9v-24c0-1.3,0-2.5-0.1-3.8c-0.1-1.2-0.3-2.4-0.7-3.4c-0.4-1-1.1-1.9-2.1-2.5
			c-1-0.6-2.4-1-4.3-1c-0.6,0-1.3,0.1-2.2,0.4c-0.9,0.2-1.8,0.7-2.6,1.4c-0.9,0.7-1.6,1.7-2.2,3c-0.6,1.3-0.9,3-0.9,5.1v24.8H51.1
			V16.3H62.2z"/>
		<path class="st2" d="M133.2,48.8c1.8,1.7,4.3,2.6,7.6,2.6c2.4,0,4.4-0.6,6.1-1.8c1.7-1.2,2.8-2.4,3.1-3.8h10.3
			c-1.7,5.1-4.2,8.8-7.6,11c-3.4,2.2-7.6,3.3-12.4,3.3c-3.4,0-6.4-0.5-9.1-1.6c-2.7-1.1-5-2.6-6.9-4.6c-1.9-2-3.3-4.4-4.3-7.1
			c-1-2.8-1.5-5.8-1.5-9.1c0-3.2,0.5-6.2,1.6-8.9c1-2.8,2.5-5.1,4.5-7.2c1.9-2,4.2-3.6,6.9-4.8c2.7-1.2,5.6-1.7,8.9-1.7
			c3.6,0,6.8,0.7,9.5,2.1c2.7,1.4,4.9,3.3,6.7,5.7c1.7,2.4,3,5.1,3.8,8.1c0.8,3,1,6.2,0.8,9.5h-30.9
			C130.4,44.4,131.4,47.1,133.2,48.8z M146.5,26.3c-1.4-1.5-3.5-2.3-6.4-2.3c-1.9,0-3.4,0.3-4.7,1c-1.2,0.6-2.2,1.4-3,2.4
			c-0.7,0.9-1.3,1.9-1.6,3c-0.3,1-0.5,2-0.5,2.8h19.1C148.8,30.1,147.9,27.9,146.5,26.3z"/>
		<path class="st2" d="M174.3,16.3v7.9h0.2c0.6-1.3,1.3-2.6,2.2-3.7c0.9-1.1,2-2.1,3.2-2.9c1.2-0.8,2.5-1.4,3.9-1.9
			c1.4-0.4,2.8-0.7,4.3-0.7c0.8,0,1.6,0.1,2.6,0.4v10.9c-0.6-0.1-1.2-0.2-2-0.3c-0.8-0.1-1.5-0.1-2.2-0.1c-2.2,0-4,0.4-5.5,1.1
			c-1.5,0.7-2.7,1.7-3.6,2.9c-0.9,1.2-1.6,2.7-1.9,4.3c-0.4,1.7-0.6,3.4-0.6,5.4v19.3h-11.8V16.3H174.3z"/>
		<path class="st2" d="M192.5,9.7V0h11.8v9.7H192.5z M204.3,16.3v42.8h-11.8V16.3H204.3z"/>
		<path class="st2" d="M233.1,31.4v10.1h-24.9V31.4H233.1z"/>
		<path class="st2" d="M46,82.8c1.2-1.8,2.8-3.3,4.6-4.4c1.9-1.1,4-1.9,6.3-2.4c2.3-0.5,4.7-0.7,7.1-0.7c2.2,0,4.3,0.2,6.5,0.5
			c2.2,0.3,4.2,0.9,6,1.8c1.8,0.9,3.3,2.1,4.5,3.7c1.2,1.6,1.7,3.7,1.7,6.2v22.3c0,1.9,0.1,3.8,0.3,5.5c0.2,1.8,0.6,3.1,1.2,4H72.4
			c-0.2-0.7-0.4-1.3-0.5-2c-0.1-0.7-0.2-1.4-0.3-2.1c-1.9,1.9-4.1,3.3-6.6,4.1c-2.5,0.8-5.1,1.2-7.8,1.2c-2,0-3.9-0.2-5.7-0.7
			c-1.8-0.5-3.3-1.3-4.6-2.3c-1.3-1-2.4-2.4-3.1-4c-0.7-1.6-1.1-3.5-1.1-5.7c0-2.4,0.4-4.4,1.3-6c0.9-1.6,2-2.8,3.3-3.8
			c1.4-0.9,2.9-1.6,4.6-2.1c1.7-0.5,3.5-0.8,5.3-1.1c1.8-0.3,3.5-0.5,5.2-0.7c1.7-0.2,3.2-0.4,4.6-0.7c1.3-0.3,2.4-0.8,3.1-1.4
			c0.8-0.6,1.1-1.6,1.1-2.8c0-1.3-0.2-2.3-0.6-3c-0.4-0.7-1-1.3-1.7-1.7c-0.7-0.4-1.5-0.7-2.4-0.8c-0.9-0.1-1.9-0.2-2.9-0.2
			c-2.3,0-4.1,0.5-5.5,1.5c-1.3,1-2.1,2.6-2.3,5H44C44.1,86.9,44.8,84.6,46,82.8z M69.2,99.4c-0.7,0.2-1.5,0.5-2.4,0.6
			c-0.9,0.2-1.8,0.3-2.7,0.4c-0.9,0.1-1.9,0.2-2.8,0.4c-0.9,0.2-1.8,0.4-2.6,0.7c-0.9,0.3-1.6,0.6-2.2,1.1c-0.6,0.5-1.1,1.1-1.5,1.8
			c-0.4,0.7-0.6,1.6-0.6,2.7c0,1,0.2,1.9,0.6,2.6c0.4,0.7,0.9,1.3,1.6,1.7c0.7,0.4,1.4,0.7,2.3,0.9c0.9,0.2,1.8,0.2,2.7,0.2
			c2.3,0,4.1-0.4,5.4-1.2c1.3-0.8,2.2-1.7,2.8-2.8c0.6-1.1,1-2.2,1.1-3.3c0.1-1.1,0.2-2,0.2-2.6v-4.4C70.6,98.8,70,99.1,69.2,99.4z"
			/>
		<path class="st2" d="M98.2,76.5v6h0.2c1.5-2.5,3.4-4.3,5.8-5.4c2.4-1.1,4.8-1.7,7.3-1.7c3.1,0,5.7,0.4,7.7,1.3
			c2,0.9,3.6,2,4.8,3.6c1.2,1.5,2,3.4,2.4,5.5c0.5,2.2,0.7,4.6,0.7,7.2v26.3h-11.8V95.1c0-3.5-0.6-6.2-1.7-7.9
			c-1.1-1.7-3.1-2.6-5.9-2.6c-3.2,0-5.5,1-7,2.9c-1.4,1.9-2.2,5-2.2,9.4v22.4H87.1V76.5H98.2z"/>
	</g>
	<g>
		<path class="st3" d="M219,197.4c-2.8,1.2-5.7,1.8-8.5,1.8c-4.5,0-8.6-0.8-12.2-2.4c-3.6-1.6-6.7-3.7-9.1-6.5
			c-2.5-2.8-4.4-6-5.7-9.7c-1.3-3.7-2-7.7-2-12c0-4.4,0.7-8.5,2-12.3c1.3-3.8,3.2-7.1,5.7-9.9c2.5-2.8,5.5-5,9.1-6.6
			c3.6-1.6,7.7-2.4,12.2-2.4c3,0,6,0.5,8.8,1.4c2.8,0.9,5.4,2.2,7.7,4c2.3,1.8,4.2,3.9,5.7,6.5c1.5,2.6,2.4,5.6,2.7,8.9h-12.4
			c-0.8-3.3-2.3-5.8-4.5-7.4c-2.2-1.7-4.9-2.5-8-2.5c-2.9,0-5.4,0.6-7.4,1.7c-2,1.1-3.7,2.6-5,4.6c-1.3,1.9-2.2,4.1-2.8,6.5
			c-0.6,2.4-0.9,4.9-0.9,7.5c0,2.5,0.3,4.9,0.9,7.2c0.6,2.3,1.5,4.5,2.8,6.3c1.3,1.9,2.9,3.4,5,4.5c2,1.1,4.5,1.7,7.4,1.7
			c4.3,0,7.6-1.1,10-3.3c2.3-2.2,3.7-5.3,4.1-9.5h-13.1v-9.7h24.8v31.9H228l-1.3-6.7C224.3,194.2,221.8,196.2,219,197.4z"/>
		<path class="st3" d="M240.6,167.2c1-2.8,2.5-5.2,4.5-7.1c1.9-2,4.2-3.5,7-4.6c2.7-1.1,5.7-1.6,9.1-1.6c3.4,0,6.4,0.5,9.1,1.6
			s5.1,2.6,7,4.6c1.9,2,3.4,4.3,4.5,7.1c1,2.8,1.6,5.9,1.6,9.3c0,3.4-0.5,6.5-1.6,9.3c-1,2.8-2.5,5.1-4.5,7.1c-1.9,2-4.3,3.5-7,4.5
			c-2.7,1-5.8,1.6-9.1,1.6c-3.4,0-6.4-0.5-9.1-1.6c-2.7-1-5-2.6-7-4.5c-1.9-2-3.4-4.3-4.5-7.1c-1-2.8-1.6-5.8-1.6-9.3
			C239.1,173.1,239.6,170,240.6,167.2z M251.3,181.5c0.3,1.6,0.9,3.1,1.7,4.4c0.8,1.3,1.9,2.3,3.2,3.1c1.3,0.8,3,1.2,5,1.2
			c2,0,3.7-0.4,5-1.2c1.4-0.8,2.4-1.8,3.2-3.1c0.8-1.3,1.4-2.8,1.7-4.4c0.3-1.6,0.5-3.3,0.5-5c0-1.7-0.2-3.4-0.5-5
			c-0.3-1.7-0.9-3.1-1.7-4.4c-0.8-1.3-1.9-2.3-3.2-3.1c-1.4-0.8-3-1.2-5-1.2c-2,0-3.6,0.4-5,1.2c-1.3,0.8-2.4,1.8-3.2,3.1
			c-0.8,1.3-1.4,2.7-1.7,4.4c-0.3,1.7-0.5,3.3-0.5,5C250.8,178.2,251,179.9,251.3,181.5z"/>
		<path class="st3" d="M294.7,197.9L280,155.1h12.3l9,29.2h0.2l9-29.2h11.7l-14.5,42.8H294.7z"/>
		<path class="st3" d="M345,170.2v10.1h-24.9v-10.1H345z"/>
		<path class="st3" d="M216.6,247.8c1.8,1.7,4.3,2.6,7.6,2.6c2.4,0,4.4-0.6,6.1-1.8c1.7-1.2,2.8-2.4,3.1-3.8h10.3
			c-1.7,5.1-4.2,8.8-7.6,11c-3.4,2.2-7.6,3.3-12.4,3.3c-3.4,0-6.4-0.5-9.1-1.6c-2.7-1.1-5-2.6-6.9-4.6c-1.9-2-3.3-4.4-4.3-7.1
			c-1-2.8-1.5-5.8-1.5-9.1c0-3.2,0.5-6.2,1.6-8.9c1-2.8,2.5-5.1,4.5-7.2c1.9-2,4.2-3.6,6.9-4.8c2.7-1.2,5.6-1.7,8.9-1.7
			c3.6,0,6.8,0.7,9.5,2.1c2.7,1.4,4.9,3.3,6.7,5.7c1.7,2.4,3,5.1,3.8,8.1c0.8,3,1,6.2,0.8,9.5h-30.9
			C213.9,243.3,214.9,246.1,216.6,247.8z M229.9,225.3c-1.4-1.5-3.5-2.3-6.4-2.3c-1.9,0-3.4,0.3-4.7,1c-1.2,0.6-2.2,1.4-3,2.4
			c-0.7,0.9-1.3,1.9-1.6,3c-0.3,1-0.5,2-0.5,2.8h19.1C232.3,229.1,231.3,226.9,229.9,225.3z"/>
		<path class="st3" d="M257.8,215.3v7.9h0.2c0.6-1.3,1.3-2.6,2.2-3.7c0.9-1.1,2-2.1,3.2-2.9c1.2-0.8,2.5-1.4,3.9-1.9
			c1.4-0.4,2.8-0.7,4.3-0.7c0.8,0,1.6,0.1,2.6,0.4v10.9c-0.6-0.1-1.2-0.2-2-0.3c-0.8-0.1-1.5-0.1-2.2-0.1c-2.2,0-4,0.4-5.5,1.1
			c-1.5,0.7-2.7,1.7-3.6,2.9c-0.9,1.2-1.6,2.7-1.9,4.3c-0.4,1.7-0.6,3.4-0.6,5.4v19.3h-11.8v-42.8H257.8z"/>
		<path class="st3" d="M287,215.3v6h0.2c1.5-2.5,3.4-4.3,5.8-5.4c2.4-1.1,4.8-1.7,7.3-1.7c3.1,0,5.7,0.4,7.7,1.3
			c2,0.9,3.6,2,4.8,3.6c1.2,1.5,2,3.4,2.4,5.5c0.5,2.2,0.7,4.6,0.7,7.2v26.3h-11.8v-24.2c0-3.5-0.6-6.2-1.7-7.9
			c-1.1-1.7-3.1-2.6-5.9-2.6c-3.2,0-5.5,1-7,2.9c-1.4,1.9-2.2,5-2.2,9.4v22.4h-11.8v-42.8H287z"/>
		<path class="st3" d="M344.7,230.4v10.1h-24.9v-10.1H344.7z"/>
		<path class="st3" d="M228.7,275.5v5.8h0.2c1.5-2.2,3.4-3.9,5.6-5.1c2.2-1.2,4.7-1.8,7.5-1.8c2.7,0,5.2,0.5,7.4,1.6
			c2.2,1,3.9,2.9,5.1,5.5c1.3-1.9,3-3.5,5.2-5c2.2-1.4,4.8-2.2,7.7-2.2c2.3,0,4.4,0.3,6.3,0.8c1.9,0.6,3.6,1.4,5,2.6
			c1.4,1.2,2.5,2.8,3.2,4.8c0.8,2,1.2,4.3,1.2,7.1v28.6h-11.8V294c0-1.4-0.1-2.8-0.2-4.1c-0.1-1.3-0.4-2.4-0.9-3.3
			c-0.5-0.9-1.2-1.7-2.2-2.2c-1-0.6-2.3-0.8-3.9-0.8c-1.7,0-3,0.3-4,1c-1,0.6-1.8,1.5-2.4,2.5c-0.6,1-1,2.2-1.2,3.5
			c-0.2,1.3-0.3,2.6-0.3,3.9v23.8h-11.8v-24c0-1.3,0-2.5-0.1-3.8c-0.1-1.2-0.3-2.4-0.7-3.4c-0.4-1-1.1-1.9-2.1-2.5
			c-1-0.6-2.4-1-4.3-1c-0.6,0-1.3,0.1-2.2,0.4c-0.9,0.2-1.8,0.7-2.6,1.4c-0.9,0.7-1.6,1.7-2.2,3c-0.6,1.3-0.9,3-0.9,5.1v24.8h-11.8
			v-42.8H228.7z"/>
		<path class="st3" d="M299.7,308c1.8,1.7,4.3,2.6,7.6,2.6c2.4,0,4.4-0.6,6.1-1.8c1.7-1.2,2.8-2.4,3.1-3.8h10.3
			c-1.7,5.1-4.2,8.8-7.6,11c-3.4,2.2-7.6,3.3-12.4,3.3c-3.4,0-6.4-0.5-9.1-1.6c-2.7-1.1-5-2.6-6.9-4.6c-1.9-2-3.3-4.4-4.3-7.1
			c-1-2.8-1.5-5.8-1.5-9.1c0-3.2,0.5-6.2,1.6-8.9c1-2.8,2.5-5.1,4.5-7.2c1.9-2,4.2-3.6,6.9-4.8c2.7-1.2,5.6-1.7,8.9-1.7
			c3.6,0,6.8,0.7,9.5,2.1c2.7,1.4,4.9,3.3,6.7,5.7c1.7,2.4,3,5.1,3.8,8.1c0.8,3,1,6.2,0.8,9.5h-30.9
			C297,303.5,297.9,306.3,299.7,308z M313,285.5c-1.4-1.5-3.5-2.3-6.4-2.3c-1.9,0-3.4,0.3-4.7,1c-1.2,0.6-2.2,1.4-3,2.4
			c-0.7,0.9-1.3,1.9-1.6,3c-0.3,1-0.5,2-0.5,2.8h19.1C315.4,289.3,314.4,287,313,285.5z"/>
		<path class="st3" d="M340.9,275.5v6h0.2c1.5-2.5,3.4-4.3,5.8-5.4c2.4-1.1,4.8-1.7,7.3-1.7c3.1,0,5.7,0.4,7.7,1.3
			c2,0.9,3.6,2,4.8,3.6c1.2,1.5,2,3.4,2.4,5.5c0.5,2.2,0.7,4.6,0.7,7.2v26.3h-11.8v-24.2c0-3.5-0.6-6.2-1.7-7.9
			c-1.1-1.7-3.1-2.6-5.9-2.6c-3.2,0-5.5,1-7,2.9c-1.4,1.9-2.2,5-2.2,9.4v22.4h-11.8v-42.8H340.9z"/>
		<path class="st3" d="M397,275.5v7.9h-8.6v21.2c0,2,0.3,3.3,1,4c0.7,0.7,2,1,4,1c0.7,0,1.3,0,1.9-0.1c0.6-0.1,1.2-0.1,1.7-0.2v9.1
			c-1,0.2-2.1,0.3-3.3,0.3c-1.2,0.1-2.4,0.1-3.6,0.1c-1.8,0-3.5-0.1-5.2-0.4c-1.6-0.2-3.1-0.7-4.3-1.4c-1.2-0.7-2.2-1.7-2.9-3.1
			c-0.7-1.3-1.1-3.1-1.1-5.2v-25.2h-7.1v-7.9h7.1v-12.8h11.8v12.8H397z"/>
	</g>
	<g>
		<polygon class="st4" points="24.2,14.6 24,14.6 16.3,36.2 31.6,36.2 		"/>
		<path class="st2" d="M8.3,59.1l4.6-13.2H35l4.5,13.2H53L30.9,0H17.5L0,46.4v12.7H8.3z M24,14.6h0.2l7.4,21.7H16.3L24,14.6z"/>
		<path class="st2" d="M26.8,109.2c-1.5,1.6-3.7,2.4-6.5,2.4c-1.8,0-3.4-0.4-4.6-1.2c-1.3-0.8-2.3-1.9-3-3.2
			c-0.7-1.3-1.3-2.7-1.6-4.3c-0.3-1.6-0.5-3.2-0.5-4.7c0-1.6,0.2-3.2,0.5-4.8c0.3-1.6,0.9-3.1,1.7-4.5c0.8-1.4,1.8-2.5,3.1-3.3
			c1.3-0.9,2.8-1.3,4.7-1.3c5,0,7.9,2.5,8.7,7.4h11.5c-0.2-2.8-0.8-5.1-2-7.2c-1.2-2-2.7-3.7-4.5-5c-1.8-1.4-3.9-2.4-6.3-3
			c-2.3-0.7-4.8-1-7.3-1c-3.5,0-6.6,0.6-9.3,1.7c-2.7,1.2-5,2.8-6.9,4.8c-1.9,2.1-3.3,4.5-4.3,7.4c-0.1,0.3-0.2,0.6-0.3,0.9v16
			c0.1,0.4,0.3,0.8,0.4,1.1c1,2.7,2.5,5,4.4,6.9c1.9,1.9,4.2,3.4,6.8,4.5c2.7,1.1,5.6,1.6,8.8,1.6c5.7,0,10.3-1.5,14-4.5
			c3.6-3,5.8-7.3,6.6-13H29.7C29.3,105.5,28.4,107.7,26.8,109.2z"/>
	</g>
	<g>
		<path class="st3" d="M299.2,375c-0.1,2.9,0.2,5.6,1.1,7.9c0.8,2.4,2,4.4,3.6,6c1.6,1.6,3.6,2.9,5.9,3.8c2.3,0.9,5,1.3,7.9,1.3
			c2.3,0,4.6-0.3,6.8-1c2.2-0.7,4.1-1.7,5.8-3c1.7-1.3,3-3,4-4.9c1-2,1.5-4.2,1.5-6.7c0-3-0.6-5.5-1.8-7.5c-1.2-2-2.8-3.5-4.9-4.6
			c-2-1.1-4.3-1.8-6.8-2.2c-2.5-0.4-5.1-0.5-7.8-0.3v-3c2.3,0.1,4.7,0,7-0.3c2.4-0.3,4.5-1,6.4-2c1.9-1,3.4-2.4,4.6-4.2
			c1.2-1.8,1.8-4,1.8-6.8c0-2.2-0.5-4.1-1.5-5.8c-1-1.7-2.3-3-4-4c-1.6-1-3.4-1.8-5.4-2.3c-2-0.5-3.9-0.8-5.8-0.8
			c-2.8,0-5.2,0.5-7.3,1.4c-2.1,0.9-3.8,2.2-5.2,3.8c-1.4,1.6-2.4,3.5-3.2,5.7c-0.7,2.2-1.2,4.6-1.3,7.3h-3.5c0-3.1,0.5-6,1.4-8.6
			c0.9-2.6,2.3-4.8,4.1-6.7c1.8-1.8,3.9-3.3,6.4-4.3c2.5-1,5.3-1.6,8.4-1.6c2.6,0,5.1,0.3,7.5,0.9c2.4,0.6,4.6,1.6,6.4,2.8
			c1.9,1.3,3.4,2.9,4.5,5c1.2,2,1.7,4.4,1.7,7.3c0,1.9-0.3,3.7-0.9,5.3c-0.6,1.7-1.4,3.1-2.5,4.4c-1.1,1.3-2.4,2.3-3.9,3.2
			c-1.5,0.8-3.2,1.4-5.1,1.6v0.2c2.1,0.2,4.1,0.8,5.8,1.7c1.7,0.9,3.2,2.1,4.4,3.5c1.2,1.4,2.1,3.1,2.8,5c0.6,1.9,1,3.9,1,6
			c0,3.1-0.6,5.8-1.7,8.2c-1.2,2.3-2.7,4.3-4.7,5.8s-4.3,2.7-6.9,3.5c-2.6,0.8-5.4,1.1-8.4,1.1c-3.5,0-6.6-0.5-9.4-1.5
			c-2.8-1-5.1-2.4-7.1-4.3c-1.9-1.9-3.4-4.2-4.3-6.9c-0.9-2.7-1.3-5.9-1.2-9.4H299.2z"/>
		<path class="st3" d="M345.3,372.8v0.6c0,2.8,0.4,5.4,1.1,7.9c0.7,2.5,1.8,4.7,3.3,6.6c1.4,1.9,3.3,3.4,5.4,4.5
			c2.2,1.1,4.7,1.7,7.6,1.7c4.7,0,8.5-1.2,11.2-3.7c2.8-2.5,4.7-5.9,5.7-10.3h3.5c-1,5.5-3.3,9.7-6.8,12.7c-3.5,2.9-8,4.4-13.7,4.4
			c-3.5,0-6.5-0.6-9.1-1.9c-2.6-1.3-4.8-3-6.5-5.2c-1.7-2.2-3-4.7-3.9-7.7c-0.9-3-1.3-6.2-1.3-9.6c0-3.3,0.4-6.5,1.3-9.5
			c0.9-3,2.2-5.7,4-8c1.8-2.3,4-4.1,6.7-5.5c2.7-1.4,5.8-2.1,9.4-2.1c3.3,0,6.2,0.6,8.8,1.8s4.7,2.9,6.4,5c1.7,2.1,3,4.6,3.9,7.3
			c0.9,2.8,1.3,5.8,1.3,9c0,0.3,0,0.7,0,1.1c0,0.4,0,0.7,0,1H345.3z M380,369.7c-0.1-2.6-0.6-5-1.3-7.3c-0.7-2.3-1.8-4.3-3.3-6.1
			c-1.4-1.7-3.2-3.1-5.2-4.2c-2.1-1-4.4-1.6-7-1.6c-2.8,0-5.3,0.5-7.5,1.6c-2.1,1.1-4,2.5-5.4,4.2c-1.5,1.7-2.6,3.8-3.4,6.1
			c-0.8,2.3-1.3,4.7-1.5,7.2H380z"/>
		<path class="st3" d="M392.3,386.4h4.7v9.5h-4.7V386.4z"/>
	</g>
</g>
</svg>
