<?xml version="1.0" encoding="utf-8"?>
<!-- Generator: Adobe Illustrator 16.0.0, SVG Export Plug-In . SVG Version: 6.00 Build 0)  -->
<!DOCTYPE svg PUBLIC "-//W3C//DTD SVG 1.1 Tiny//EN" "http://www.w3.org/Graphics/SVG/1.1/DTD/svg11-tiny.dtd">
<svg version="1.1" baseProfile="tiny" id="Layer_1" xmlns="http://www.w3.org/2000/svg" xmlns:xlink="http://www.w3.org/1999/xlink"
	 x="0px" y="0px" width="400px" height="400px" viewBox="0 0 400 400" xml:space="preserve">
<g>
	<rect fill="#5E6062" width="400" height="400"/>
	<path fill="#F47641" d="M82.168,18.988v7.488h0.312c1.869-3.12,4.298-5.39,7.277-6.812c2.98-1.42,6.032-2.132,9.152-2.132
		c3.952,0,7.191,0.538,9.725,1.612c2.529,1.076,4.523,2.566,5.979,4.472c1.456,1.908,2.478,4.229,3.065,6.968
		c0.59,2.74,0.887,5.772,0.887,9.1v33.072h-14.77V42.388c0-4.436-0.693-7.748-2.08-9.932c-1.389-2.184-3.849-3.276-7.385-3.276
		c-4.021,0-6.934,1.196-8.736,3.588c-1.802,2.392-2.703,6.328-2.703,11.804v28.184H68.125V18.988H82.168L82.168,18.988z"/>
	<path fill="#F47641" d="M122.936,35.524c0.209-3.466,1.074-6.344,2.602-8.632c1.523-2.288,3.467-4.125,5.824-5.512
		c2.354-1.386,5.008-2.374,7.956-2.964c2.944-0.588,5.908-0.884,8.892-0.884c2.704,0,5.442,0.192,8.217,0.572
		c2.771,0.382,5.305,1.127,7.592,2.236c2.287,1.11,4.16,2.652,5.615,4.628c1.457,1.976,2.187,4.594,2.187,7.852v27.976
		c0,2.428,0.138,4.75,0.416,6.968c0.274,2.22,0.763,3.884,1.456,4.992h-14.979c-0.277-0.832-0.504-1.68-0.676-2.548
		c-0.174-0.866-0.295-1.75-0.363-2.652c-2.356,2.428-5.133,4.126-8.318,5.096c-3.189,0.97-6.448,1.456-9.776,1.456
		c-2.565,0-4.958-0.312-7.176-0.936c-2.222-0.624-4.16-1.594-5.824-2.912c-1.664-1.316-2.964-2.979-3.899-4.992
		c-0.937-2.01-1.402-4.402-1.402-7.176c0-3.05,0.535-5.564,1.609-7.54c1.074-1.976,2.461-3.552,4.16-4.731
		c1.699-1.178,3.641-2.062,5.824-2.652c2.184-0.588,4.385-1.056,6.604-1.404c2.221-0.346,4.402-0.624,6.555-0.832
		c2.146-0.208,4.057-0.52,5.72-0.936c1.664-0.416,2.979-1.022,3.952-1.82c0.971-0.796,1.42-1.958,1.352-3.484
		c0-1.594-0.26-2.86-0.777-3.796c-0.521-0.936-1.216-1.664-2.08-2.184c-0.867-0.52-1.872-0.866-3.018-1.04
		c-1.145-0.172-2.377-0.26-3.69-0.26c-2.912,0-5.2,0.624-6.864,1.872s-2.636,3.328-2.912,6.24H122.936L122.936,35.524z
		 M157.047,46.444c-0.623,0.556-1.403,0.988-2.34,1.3c-0.936,0.312-1.941,0.572-3.016,0.78c-1.076,0.208-2.202,0.382-3.382,0.52
		c-1.18,0.14-2.356,0.312-3.534,0.52c-1.109,0.208-2.202,0.486-3.275,0.832c-1.076,0.348-2.012,0.815-2.809,1.404
		c-0.8,0.59-1.439,1.336-1.926,2.236c-0.484,0.902-0.729,2.046-0.729,3.432c0,1.318,0.242,2.428,0.729,3.328
		c0.484,0.902,1.146,1.612,1.978,2.132c0.832,0.521,1.802,0.884,2.912,1.092c1.106,0.208,2.253,0.312,3.433,0.312
		c2.912,0,5.164-0.484,6.76-1.456c1.596-0.97,2.771-2.132,3.535-3.484c0.765-1.352,1.23-2.721,1.404-4.108
		c0.172-1.386,0.26-2.496,0.26-3.328V46.444z"/>
	<path fill="#F47641" d="M206.509,18.988v9.88h-10.814v26.624c0,2.496,0.416,4.16,1.248,4.992s2.495,1.248,4.99,1.248
		c0.832,0,1.628-0.034,2.394-0.104c0.762-0.068,1.489-0.172,2.185-0.312v11.44c-1.249,0.208-2.637,0.346-4.16,0.416
		c-1.524,0.068-3.017,0.104-4.472,0.104c-2.289,0-4.456-0.156-6.5-0.468c-2.047-0.312-3.849-0.918-5.408-1.82
		c-1.561-0.9-2.792-2.185-3.69-3.848c-0.901-1.664-1.354-3.848-1.354-6.552v-31.72h-8.941v-9.88h8.941V2.868h14.771v16.12H206.509
		L206.509,18.988z"/>
	<path fill="#F47641" d="M236.105,38.02v12.688H204.8V38.02H236.105z"/>
	<path fill="#F47641" d="M5.635,108.224c1.316-3.5,3.188-6.482,5.616-8.944c2.427-2.46,5.339-4.368,8.735-5.72
		c3.396-1.352,7.211-2.028,11.44-2.028s8.06,0.676,11.491,2.028c3.434,1.352,6.359,3.26,8.788,5.72
		c2.426,2.462,4.299,5.444,5.616,8.944c1.313,3.502,1.976,7.402,1.976,11.7c0,4.3-0.66,8.182-1.976,11.648
		c-1.317,3.467-3.19,6.432-5.616,8.892c-2.429,2.462-5.354,4.352-8.788,5.668c-3.434,1.316-7.264,1.977-11.491,1.977
		c-4.229,0-8.045-0.659-11.44-1.977c-3.396-1.317-6.31-3.206-8.735-5.668c-2.428-2.46-4.3-5.425-5.616-8.892
		c-1.316-3.467-1.976-7.349-1.976-11.648C3.659,115.626,4.316,111.726,5.635,108.224z M19.051,126.216
		c0.416,2.046,1.127,3.884,2.133,5.513c1.004,1.629,2.34,2.93,4.004,3.899c1.664,0.972,3.744,1.456,6.24,1.456
		c2.495,0,4.592-0.484,6.291-1.456c1.698-0.97,3.051-2.271,4.057-3.899c1.004-1.629,1.717-3.467,2.133-5.513
		c0.416-2.044,0.624-4.142,0.624-6.292c0-2.148-0.208-4.264-0.624-6.344s-1.129-3.917-2.133-5.512
		c-1.006-1.594-2.357-2.894-4.057-3.9c-1.699-1.004-3.796-1.508-6.291-1.508c-2.496,0-4.576,0.504-6.24,1.508
		c-1.664,1.006-3,2.306-4.004,3.9c-1.006,1.596-1.717,3.432-2.133,5.512s-0.623,4.195-0.623,6.344
		C18.428,122.074,18.635,124.171,19.051,126.216z"/>
	<path fill="#F47641" d="M76.344,92.988v7.28h0.208c1.94-2.772,4.28-4.922,7.021-6.448c2.736-1.524,5.875-2.288,9.412-2.288
		c3.396,0,6.5,0.66,9.308,1.976c2.808,1.318,4.94,3.64,6.396,6.968c1.595-2.356,3.761-4.437,6.5-6.24
		c2.736-1.802,5.979-2.704,9.725-2.704c2.842,0,5.477,0.348,7.904,1.04c2.426,0.694,4.506,1.804,6.238,3.328
		c1.731,1.526,3.084,3.52,4.057,5.98c0.971,2.462,1.457,5.426,1.457,8.892v35.984H129.8v-30.472c0-1.802-0.069-3.5-0.208-5.096
		c-0.14-1.594-0.52-2.98-1.145-4.16c-0.623-1.178-1.543-2.114-2.756-2.808c-1.215-0.692-2.859-1.04-4.939-1.04
		s-3.762,0.4-5.044,1.196c-1.284,0.798-2.288,1.838-3.017,3.12c-0.729,1.284-1.215,2.74-1.455,4.368
		c-0.244,1.63-0.364,3.276-0.364,4.94v29.952H96.102v-30.16c0-1.594-0.033-3.172-0.104-4.732c-0.07-1.56-0.364-2.998-0.884-4.316
		c-0.521-1.316-1.39-2.374-2.603-3.172c-1.213-0.796-3-1.196-5.354-1.196c-0.693,0-1.612,0.156-2.756,0.468
		c-1.146,0.312-2.256,0.902-3.328,1.768c-1.076,0.868-1.994,2.116-2.756,3.744c-0.766,1.63-1.146,3.762-1.146,6.396v31.2H62.404
		V92.988H76.344z"/>
	<path fill="#F47641" d="M168.258,162.771c-2.844,1.872-6.795,2.809-11.854,2.809c-1.525,0-3.033-0.053-4.523-0.156
		c-1.492-0.104-3-0.227-4.523-0.363v-12.168c1.387,0.138,2.809,0.275,4.265,0.415c1.456,0.139,2.912,0.173,4.368,0.104
		c1.938-0.208,3.38-0.973,4.314-2.288c0.938-1.317,1.404-2.774,1.404-4.368c0-1.178-0.209-2.288-0.625-3.328l-18.824-50.44h15.705
		l12.168,36.816h0.207l11.752-36.816h15.289l-22.465,60.424C173.318,157.779,171.101,160.9,168.258,162.771z"/>
	<path fill="#F47641" d="M170.691,231.499c4.645,0,8.596,0.676,11.854,2.028c3.259,1.352,5.91,3.137,7.957,5.354
		c2.043,2.221,3.535,4.75,4.472,7.592c0.938,2.846,1.403,5.791,1.403,8.842c0,2.98-0.468,5.91-1.403,8.789
		c-0.937,2.877-2.429,5.426-4.472,7.644c-2.047,2.22-4.698,4.004-7.957,5.356c-3.26,1.352-7.211,2.025-11.854,2.025h-17.16v26.624
		h-16.328v-74.256L170.691,231.499L170.691,231.499z M166.219,266.443c1.873,0,3.675-0.141,5.408-0.416
		c1.732-0.277,3.258-0.814,4.576-1.612c1.314-0.796,2.375-1.925,3.172-3.38c0.797-1.456,1.196-3.362,1.196-5.721
		c0-2.355-0.399-4.266-1.196-5.722s-1.855-2.582-3.172-3.38c-1.318-0.797-2.844-1.334-4.576-1.611
		c-1.733-0.275-3.535-0.414-5.408-0.414h-12.688v22.256H166.219z"/>
	<path fill="#F47641" d="M212.354,231.499v27.976h0.312c1.873-3.117,4.265-5.39,7.177-6.812c2.912-1.421,5.754-2.132,8.528-2.132
		c3.951,0,7.189,0.537,9.724,1.609c2.53,1.076,4.524,2.566,5.979,4.475c1.457,1.906,2.479,4.229,3.066,6.968
		s0.887,5.772,0.887,9.101v33.071h-14.771v-30.368c0-4.436-0.694-7.748-2.08-9.932c-1.388-2.184-3.849-3.276-7.384-3.276
		c-4.021,0-6.934,1.196-8.736,3.589c-1.804,2.393-2.703,6.327-2.703,11.805v28.185h-14.769V231.5L212.354,231.499L212.354,231.499z"
		/>
	<path fill="#F47641" d="M271.351,321.771c-2.844,1.869-6.796,2.808-11.854,2.808c-1.525,0-3.033-0.052-4.523-0.156
		s-3-0.226-4.521-0.364v-12.168c1.385,0.141,2.807,0.276,4.264,0.416c1.455,0.141,2.912,0.172,4.367,0.104
		c1.941-0.207,3.381-0.972,4.316-2.287c0.936-1.317,1.402-2.772,1.402-4.368c0-1.179-0.208-2.288-0.624-3.328l-18.823-50.438h15.703
		l12.168,36.814h0.208l11.753-36.814h15.286l-22.463,60.424C276.41,316.779,274.193,319.898,271.351,321.771z"/>
	<path fill="#F47641" d="M311.202,292.391c0.658,1.146,1.508,2.08,2.548,2.811c1.04,0.728,2.236,1.266,3.588,1.609
		c1.354,0.35,2.756,0.521,4.212,0.521c1.04,0,2.133-0.12,3.276-0.364c1.144-0.241,2.184-0.624,3.12-1.145
		c0.936-0.521,1.716-1.212,2.34-2.08c0.624-0.865,0.937-1.957,0.937-3.275c0-2.219-1.475-3.882-4.421-4.991
		c-2.945-1.106-7.056-2.219-12.323-3.328c-2.148-0.483-4.246-1.057-6.291-1.717c-2.047-0.656-3.865-1.522-5.461-2.6
		c-1.596-1.074-2.878-2.428-3.849-4.057c-0.972-1.629-1.456-3.623-1.456-5.979c0-3.467,0.677-6.31,2.028-8.526
		c1.351-2.219,3.137-3.97,5.354-5.254c2.22-1.281,4.714-2.184,7.487-2.703c2.772-0.521,5.616-0.778,8.528-0.778
		s5.734,0.276,8.476,0.832c2.738,0.555,5.185,1.489,7.332,2.808c2.148,1.318,3.937,3.067,5.356,5.252
		c1.42,2.186,2.27,4.94,2.548,8.27h-14.04c-0.208-2.844-1.283-4.768-3.225-5.771c-1.941-1.005-4.229-1.509-6.863-1.509
		c-0.832,0-1.734,0.053-2.704,0.155c-0.972,0.104-1.855,0.33-2.652,0.677c-0.798,0.349-1.474,0.851-2.025,1.509
		c-0.558,0.659-0.832,1.544-0.832,2.651c0,1.317,0.482,2.393,1.456,3.225c0.97,0.832,2.233,1.509,3.796,2.027
		c1.56,0.521,3.344,0.987,5.354,1.403c2.013,0.416,4.059,0.867,6.138,1.353c2.146,0.485,4.245,1.076,6.293,1.769
		c2.044,0.694,3.862,1.612,5.46,2.758c1.594,1.145,2.876,2.564,3.848,4.265c0.97,1.699,1.456,3.796,1.456,6.291
		c0,3.537-0.712,6.5-2.132,8.894c-1.422,2.394-3.276,4.315-5.564,5.771c-2.288,1.457-4.905,2.479-7.852,3.067
		c-2.948,0.588-5.946,0.885-8.996,0.885c-3.12,0-6.172-0.312-9.152-0.938c-2.979-0.624-5.634-1.664-7.956-3.119
		c-2.322-1.457-4.229-3.381-5.72-5.771c-1.492-2.395-2.306-5.393-2.444-8.996h14.04
		C310.214,289.879,310.542,291.247,311.202,292.391z"/>
	<path fill="#F47641" d="M348.859,243.667v-12.168h14.768v12.168H348.859z M363.627,251.986v53.769h-14.768v-53.769H363.627
		L363.627,251.986z"/>
	<path fill="#F47641" d="M399.82,271.02v12.688h-31.307V271.02H399.82z"/>
	<path fill="#F47641" d="M136.152,348.223c1.314-3.5,3.188-6.48,5.614-8.943c2.429-2.459,5.341-4.367,8.735-5.721
		c3.396-1.353,7.211-2.027,11.441-2.027c4.228,0,8.059,0.677,11.489,2.027c3.435,1.354,6.36,3.262,8.788,5.721
		c2.428,2.463,4.299,5.443,5.616,8.943c1.315,3.502,1.978,7.401,1.978,11.699c0,4.301-0.66,8.182-1.978,11.648
		s-3.188,6.432-5.616,8.892c-2.428,2.462-5.354,4.353-8.788,5.668c-3.433,1.316-7.264,1.978-11.489,1.978
		c-4.23,0-8.045-0.659-11.441-1.978c-3.396-1.317-6.309-3.206-8.735-5.668c-2.428-2.46-4.3-5.425-5.614-8.892
		c-1.317-3.469-1.978-7.351-1.978-11.648C134.177,355.624,134.835,351.725,136.152,348.223z M149.568,366.214
		c0.416,2.046,1.127,3.884,2.133,5.513c1.004,1.631,2.34,2.932,4.004,3.899c1.664,0.972,3.744,1.456,6.24,1.456
		c2.494,0,4.592-0.484,6.291-1.456c1.696-0.97,3.051-2.271,4.057-3.899c1.004-1.629,1.716-3.467,2.132-5.513
		c0.416-2.044,0.624-4.142,0.624-6.292c0-2.146-0.208-4.264-0.624-6.344s-1.128-3.916-2.132-5.512
		c-1.006-1.597-2.358-2.896-4.057-3.9c-1.699-1.004-3.797-1.508-6.291-1.508c-2.496,0-4.576,0.504-6.24,1.508
		c-1.664,1.006-3,2.307-4.004,3.9c-1.006,1.596-1.717,3.432-2.133,5.512s-0.623,4.195-0.623,6.344
		C148.945,362.072,149.152,364.17,149.568,366.214z"/>
	<path fill="#F47641" d="M207.818,312.498v74.256H193.05v-74.256H207.818z"/>
	<path fill="#F47641" d="M213.029,348.223c1.313-3.5,3.188-6.48,5.613-8.943c2.428-2.459,5.34-4.367,8.736-5.721
		c3.396-1.353,7.21-2.027,11.439-2.027c4.229,0,8.061,0.677,11.49,2.027c3.434,1.354,6.36,3.262,8.788,5.721
		c2.428,2.463,4.298,5.443,5.616,8.943c1.316,3.502,1.975,7.401,1.975,11.699c0,4.301-0.656,8.182-1.975,11.648
		s-3.188,6.432-5.616,8.892c-2.428,2.462-5.354,4.353-8.788,5.668c-3.432,1.316-7.264,1.978-11.49,1.978
		c-4.229,0-8.043-0.659-11.439-1.978c-3.396-1.315-6.311-3.206-8.736-5.668c-2.428-2.46-4.3-5.425-5.613-8.892
		c-1.318-3.469-1.979-7.351-1.979-11.648C211.053,355.624,211.711,351.725,213.029,348.223z M226.445,366.214
		c0.415,2.046,1.125,3.884,2.131,5.513c1.005,1.631,2.34,2.932,4.004,3.899c1.664,0.972,3.744,1.456,6.24,1.456
		s4.592-0.484,6.293-1.456c1.695-0.97,3.049-2.271,4.055-3.899c1.005-1.629,1.717-3.467,2.133-5.513
		c0.416-2.044,0.624-4.142,0.624-6.292c0-2.146-0.208-4.264-0.624-6.344s-1.128-3.916-2.133-5.512
		c-1.006-1.597-2.357-2.896-4.055-3.9c-1.701-1.004-3.797-1.508-6.293-1.508s-4.576,0.504-6.24,1.508
		c-1.664,1.006-2.999,2.307-4.004,3.9c-1.006,1.596-1.716,3.432-2.131,5.512c-0.416,2.08-0.625,4.195-0.625,6.344
		C225.82,362.072,226.029,364.17,226.445,366.214z"/>
	<g>
		<path fill="#F47641" d="M145.555,201.967c-0.232,0.141-0.56,0.207-0.976,0.207c-0.354,0-0.632-0.098-0.84-0.295
			s-0.312-0.521-0.312-0.969c-0.374,0.447-0.809,0.771-1.305,0.969c-0.496,0.198-1.031,0.295-1.607,0.295
			c-0.374,0-0.729-0.042-1.062-0.127c-0.336-0.086-0.627-0.219-0.872-0.4c-0.245-0.181-0.44-0.418-0.584-0.711
			c-0.146-0.295-0.216-0.646-0.216-1.062c0-0.47,0.08-0.854,0.238-1.152c0.16-0.298,0.37-0.541,0.634-0.729
			c0.261-0.187,0.56-0.328,0.896-0.424c0.336-0.097,0.68-0.177,1.032-0.24c0.373-0.074,0.728-0.131,1.062-0.168
			s0.635-0.09,0.891-0.16c0.256-0.068,0.459-0.17,0.605-0.304c0.15-0.133,0.227-0.327,0.227-0.584c0-0.299-0.059-0.538-0.168-0.721
			c-0.112-0.182-0.256-0.319-0.434-0.416c-0.177-0.096-0.374-0.159-0.593-0.19c-0.219-0.033-0.435-0.049-0.646-0.049
			c-0.576,0-1.059,0.108-1.44,0.327c-0.383,0.22-0.592,0.633-0.624,1.24h-1.36c0.021-0.512,0.127-0.943,0.319-1.297
			c0.192-0.352,0.448-0.637,0.769-0.854c0.321-0.219,0.688-0.376,1.098-0.473c0.41-0.097,0.851-0.144,1.318-0.144
			c0.373,0,0.744,0.025,1.111,0.08c0.368,0.053,0.701,0.162,1,0.326c0.299,0.166,0.539,0.396,0.721,0.694
			c0.183,0.297,0.271,0.688,0.271,1.165v4.247c0,0.319,0.02,0.553,0.057,0.702c0.037,0.147,0.162,0.224,0.375,0.224
			c0.117,0,0.256-0.021,0.416-0.062V201.967L145.555,201.967z M143.348,197.727c-0.172,0.127-0.396,0.222-0.672,0.279
			c-0.276,0.059-0.566,0.105-0.873,0.144c-0.304,0.036-0.608,0.079-0.92,0.127c-0.309,0.049-0.586,0.125-0.832,0.23
			c-0.245,0.106-0.445,0.257-0.6,0.454c-0.154,0.196-0.232,0.464-0.232,0.804c0,0.224,0.045,0.411,0.137,0.565
			c0.092,0.154,0.207,0.277,0.354,0.374c0.145,0.095,0.312,0.165,0.504,0.207c0.192,0.042,0.396,0.062,0.608,0.062
			c0.446,0,0.832-0.061,1.149-0.184c0.32-0.121,0.582-0.275,0.784-0.461c0.202-0.187,0.354-0.388,0.448-0.605
			c0.096-0.217,0.145-0.422,0.145-0.612V197.727L143.348,197.727z"/>
		<path fill="#F47641" d="M148.117,193.727v1.312h0.031c0.563-1.003,1.461-1.504,2.688-1.504c0.545,0,0.998,0.074,1.36,0.223
			c0.36,0.15,0.654,0.358,0.88,0.625c0.225,0.268,0.381,0.584,0.473,0.951c0.09,0.369,0.136,0.776,0.136,1.225v5.439h-1.358v-5.6
			c0-0.513-0.149-0.918-0.447-1.217c-0.299-0.298-0.71-0.447-1.23-0.447c-0.416,0-0.775,0.063-1.08,0.191
			c-0.306,0.128-0.56,0.311-0.762,0.544c-0.201,0.234-0.354,0.511-0.456,0.824c-0.102,0.314-0.15,0.658-0.15,1.031v4.672h-1.36
			v-8.271L148.117,193.727L148.117,193.727z"/>
		<path fill="#F47641" d="M161.729,201.998v-1.119h-0.031c-0.226,0.459-0.575,0.789-1.058,0.992
			c-0.479,0.202-1.008,0.303-1.584,0.303c-0.64,0-1.195-0.117-1.672-0.352c-0.475-0.235-0.87-0.549-1.185-0.943
			c-0.315-0.394-0.551-0.854-0.711-1.377c-0.16-0.521-0.24-1.076-0.24-1.664c0-0.586,0.077-1.141,0.232-1.664
			c0.152-0.521,0.389-0.979,0.701-1.367c0.314-0.388,0.709-0.698,1.186-0.928c0.475-0.229,1.026-0.344,1.656-0.344
			c0.214,0,0.441,0.021,0.688,0.062s0.49,0.114,0.735,0.217c0.246,0.102,0.479,0.233,0.695,0.399
			c0.22,0.165,0.402,0.371,0.553,0.615h0.031v-4.256h1.359v11.424L161.729,201.998L161.729,201.998z M156.84,199.062
			c0.104,0.367,0.256,0.694,0.464,0.983c0.208,0.287,0.477,0.52,0.8,0.688c0.326,0.172,0.707,0.257,1.146,0.257
			c0.459,0,0.848-0.091,1.168-0.271s0.581-0.419,0.783-0.713c0.203-0.293,0.35-0.626,0.438-1c0.091-0.373,0.138-0.752,0.138-1.135
			c0-0.406-0.049-0.798-0.146-1.177c-0.097-0.378-0.248-0.712-0.456-1c-0.208-0.288-0.478-0.521-0.809-0.696
			c-0.33-0.176-0.73-0.264-1.199-0.264c-0.459,0-0.848,0.091-1.168,0.271c-0.32,0.183-0.576,0.422-0.768,0.721
			c-0.192,0.3-0.331,0.642-0.416,1.023c-0.086,0.385-0.131,0.779-0.131,1.185C156.688,198.318,156.738,198.694,156.84,199.062z"/>
	</g>
	<g>
		<polygon fill="none" points="35.275,16.804 25.604,44.052 44.844,44.052 35.482,16.804 		"/>
		<path fill="#F47641" d="M44.468,0H26.596L0,70.332v2.424h15.516l5.823-16.536h27.769l5.615,16.536h16.952L44.468,0z
			 M25.604,44.052l9.672-27.248h0.207l9.361,27.248H25.604z"/>
	</g>
	<g>
		<path fill="none" d="M328.17,393.307c1.456,0.139,2.912,0.172,4.368,0.104c1.938-0.208,3.38-0.973,4.314-2.288
			c0.938-1.317,1.403-2.774,1.403-4.368c0-1.178-0.208-2.288-0.624-3.328l-16.718-44.798v44.694c0,2.147-0.295,4.607-0.883,7.384
			c-0.592,2.771-1.855,5.356-3.797,7.748c-0.436,0.534-0.917,1.048-1.438,1.546h9.107v-7.109
			C325.292,393.027,326.714,393.166,328.17,393.307z"/>
		<path fill="none" d="M304.172,347.65c-0.971-1.525-2.254-2.738-3.848-3.643c-1.598-0.898-3.605-1.352-6.031-1.352
			c-2.08,0-3.865,0.416-5.355,1.248s-2.738,1.959-3.742,3.38c-1.008,1.422-1.734,3.052-2.186,4.888
			c-0.453,1.838-0.678,3.764-0.678,5.771c0,1.94,0.191,3.865,0.572,5.771c0.381,1.907,1.041,3.624,1.977,5.147
			c0.938,1.524,2.166,2.772,3.691,3.744c1.523,0.973,3.432,1.457,5.721,1.457c2.08,0,3.916-0.416,5.512-1.248
			s2.912-1.941,3.951-3.328c1.041-1.389,1.82-2.965,2.342-4.732s0.779-3.622,0.779-5.562c0-2.219-0.209-4.315-0.625-6.291
			C305.836,350.924,305.143,349.176,304.172,347.65z"/>
		<path fill="#F47641" d="M316.236,398.454c1.939-2.394,3.207-4.978,3.797-7.748c0.588-2.774,0.883-5.233,0.883-7.384v-44.694
			l-2.105-5.642h-11.934v7.176h-0.209c-1.803-3.12-4.039-5.338-6.707-6.656c-2.67-1.314-5.771-1.977-9.309-1.977
			c-3.744,0-7.057,0.729-9.934,2.185s-5.287,3.416-7.229,5.876c-1.941,2.462-3.416,5.305-4.42,8.527
			c-1.006,3.225-1.508,6.57-1.508,10.037c0,3.676,0.432,7.158,1.301,10.451c0.865,3.295,2.234,6.172,4.105,8.633
			c1.873,2.461,4.266,4.402,7.178,5.822c2.91,1.424,6.379,2.133,10.398,2.133c3.258,0,6.359-0.678,9.311-2.027
			c2.943-1.352,5.215-3.448,6.811-6.292h0.209v7.071c0.068,3.812-0.85,6.969-2.756,9.465c-1.908,2.496-4.939,3.744-9.1,3.744
			c-2.639,0-4.959-0.538-6.971-1.612c-2.012-1.075-3.361-3-4.057-5.772H269.33c0.209,3.053,1.057,5.67,2.549,7.854
			c0.587,0.86,1.251,1.641,1.957,2.378h40.961C315.319,399.502,315.803,398.988,316.236,398.454z M306.098,364.758
			c-0.521,1.77-1.301,3.346-2.342,4.732c-1.039,1.387-2.355,2.496-3.951,3.328s-3.432,1.248-5.512,1.248
			c-2.289,0-4.195-0.484-5.721-1.457c-1.525-0.972-2.756-2.219-3.691-3.744c-0.936-1.523-1.596-3.24-1.977-5.147
			c-0.381-1.905-0.572-3.829-0.572-5.771c0-2.012,0.225-3.936,0.678-5.771c0.449-1.836,1.178-3.466,2.186-4.888
			c1.004-1.421,2.252-2.548,3.744-3.38c1.488-0.832,3.273-1.248,5.354-1.248c2.426,0,4.436,0.451,6.031,1.352
			c1.594,0.902,2.877,2.115,3.848,3.643c0.971,1.524,1.664,3.273,2.08,5.252c0.416,1.976,0.625,4.072,0.625,6.291
			C306.877,361.136,306.617,362.99,306.098,364.758z"/>
		<path fill="#F47641" d="M337.634,383.426c0.416,1.04,0.624,2.15,0.624,3.328c0,1.594-0.468,3.051-1.401,4.368
			c-0.938,1.315-2.378,2.08-4.316,2.288c-1.456,0.068-2.912,0.033-4.368-0.104c-1.456-0.141-2.878-0.277-4.264-0.416V400h23.943
			c1.437-1.736,2.644-3.928,3.614-6.59l22.464-60.424h-15.288L346.89,369.8h-0.208l-12.168-36.813h-13.598v5.642L337.634,383.426z"
			/>
		<polygon fill="#F47641" points="320.916,332.986 318.811,332.986 320.916,338.628 		"/>
	</g>
</g>
</svg>
