<?xml version="1.0" encoding="utf-8"?>
<!-- Generator: Adobe Illustrator 21.1.0, SVG Export Plug-In . SVG Version: 6.00 Build 0)  -->
<!DOCTYPE svg PUBLIC "-//W3C//DTD SVG 1.1//EN" "http://www.w3.org/Graphics/SVG/1.1/DTD/svg11.dtd" [
	<!ENTITY ns_extend "http://ns.adobe.com/Extensibility/1.0/">
	<!ENTITY ns_ai "http://ns.adobe.com/AdobeIllustrator/10.0/">
	<!ENTITY ns_graphs "http://ns.adobe.com/Graphs/1.0/">
	<!ENTITY ns_vars "http://ns.adobe.com/Variables/1.0/">
	<!ENTITY ns_imrep "http://ns.adobe.com/ImageReplacement/1.0/">
	<!ENTITY ns_sfw "http://ns.adobe.com/SaveForWeb/1.0/">
	<!ENTITY ns_custom "http://ns.adobe.com/GenericCustomNamespace/1.0/">
	<!ENTITY ns_adobe_xpath "http://ns.adobe.com/XPath/1.0/">
]>
<svg version="1.1" id="Layer_1" xmlns:x="&ns_extend;" xmlns:i="&ns_ai;" xmlns:graph="&ns_graphs;"
	 xmlns="http://www.w3.org/2000/svg" xmlns:xlink="http://www.w3.org/1999/xlink" x="0px" y="0px" viewBox="0 0 400 400"
	 style="enable-background:new 0 0 400 400;" xml:space="preserve">
<style type="text/css">
	.st0{fill:#232E66;}
	.st1{fill:#76AE43;}
	.st2{fill:none;}
	.st3{fill:#77AF42;}
	.st4{fill:#00246A;}
	.st5{fill:#002E6D;}
</style>
<metadata>
	<sfw  xmlns="&ns_sfw;">
		<slices></slices>
		<sliceSourceBounds  bottomLeftOrigin="true" height="400.1" width="400" x="0" y="-0.1"></sliceSourceBounds>
	</sfw>
</metadata>
<title>physics AP</title>
<rect class="st0" width="400" height="400"/>
<path class="st1" d="M116,157.9v43.4h0.5c2.6-4.5,6.5-8.2,11.1-10.6c4.1-2.1,8.6-3.2,13.2-3.3c6.1,0,11.2,0.8,15.1,2.5
	c3.6,1.5,6.8,3.9,9.3,6.9c2.4,3.2,4,6.9,4.8,10.8c1,4.6,1.4,9.4,1.4,14.1V273h-22.9v-47.1c0-6.9-1.1-12-3.2-15.4s-6-5.1-11.4-5.1
	c-6.2,0-10.8,1.9-13.6,5.6c-2.8,3.7-4.2,9.8-4.2,18.3V273H93.1V157.9H116z"/>
<path class="st1" d="M207.5,297.9c-4.4,2.9-10.5,4.4-18.4,4.4c-2.4,0-4.7-0.1-7-0.2c-2.3-0.2-4.6-0.4-7-0.6v-18.9l6.6,0.6
	c2.3,0.2,4.5,0.3,6.8,0.2c2.6-0.1,5.1-1.4,6.7-3.5c1.4-2,2.2-4.3,2.2-6.8c0-1.8-0.3-3.5-1-5.2l-29.2-78.2h24.4l18.9,57.1h0.3
	l18.2-57.1h23.7l-34.8,93.7C215.3,290.1,211.9,295,207.5,297.9z"/>
<path class="st1" d="M269.3,252.3c1,1.7,2.4,3.2,4,4.3c1.7,1.2,3.6,2,5.6,2.5c2.1,0.5,4.3,0.8,6.5,0.8c1.7,0,3.4-0.2,5.1-0.6
	c1.7-0.3,3.3-0.9,4.8-1.8c1.4-0.8,2.7-1.9,3.6-3.2c1-1.5,1.5-3.3,1.5-5.1c0-3.4-2.3-6-6.9-7.7c-6.2-2.2-12.6-3.9-19.1-5.2
	c-3.3-0.7-6.6-1.6-9.8-2.7c-3-0.9-5.8-2.3-8.5-4c-2.4-1.6-4.5-3.8-6-6.3c-1.6-2.8-2.4-6-2.3-9.3c0-5.4,1.1-9.8,3.1-13.2
	c2-3.4,4.9-6.2,8.3-8.1c3.6-2.1,7.5-3.5,11.6-4.2c4.4-0.8,8.8-1.2,13.2-1.2c4.4,0,8.8,0.4,13.1,1.3c4,0.8,7.9,2.2,11.4,4.3
	c3.3,2.1,6.2,4.8,8.3,8.1c2.4,3.9,3.7,8.3,4,12.9h-21.8c-0.3-4.4-2-7.4-5-9c-3.3-1.6-7-2.4-10.6-2.3c-1.4,0-2.8,0.1-4.2,0.2
	c-1.4,0.1-2.8,0.5-4.1,1c-1.2,0.5-2.3,1.3-3.1,2.3c-0.9,1.2-1.4,2.6-1.3,4.1c-0.1,1.9,0.8,3.8,2.3,5c1.7,1.4,3.7,2.5,5.9,3.1
	c2.7,0.9,5.5,1.6,8.3,2.2c3.1,0.7,6.3,1.4,9.5,2.1c3.3,0.7,6.6,1.7,9.8,2.7c3,1,5.9,2.4,8.5,4.3c2.5,1.7,4.5,4,6,6.6
	c1.6,3,2.4,6.4,2.3,9.8c0,5.5-1.1,10.1-3.3,13.8c-2.1,3.6-5.1,6.7-8.6,9c-3.7,2.3-7.9,3.9-12.2,4.8c-4.6,0.9-9.3,1.4-14,1.4
	c-4.8,0-9.5-0.5-14.2-1.5c-4.4-0.9-8.5-2.5-12.3-4.8c-3.6-2.3-6.6-5.4-8.9-9c-2.3-3.7-3.6-8.4-3.8-14h21.8
	C267.7,248.1,268.2,250.3,269.3,252.3z"/>
<path class="st1" d="M374.3,219.1v19.7h-48.5v-19.7H374.3z"/>
<path class="st1" d="M37.6,122.6c-0.8-0.6-1.8-0.9-2.9-0.8c-0.8,0-1.7,0.2-2.4,0.5c-0.7,0.3-1.2,0.8-1.7,1.4c-0.5,0.6-0.8,1.3-1,2.1
	c-0.2,0.8-0.3,1.6-0.3,2.4c0,0.9,0.1,1.7,0.3,2.6c0.2,0.8,0.5,1.5,1,2.1c0.4,0.6,1,1.1,1.7,1.4c0.8,0.4,1.6,0.6,2.4,0.5
	c0.6,0,1.3-0.1,1.8-0.3c0.5-0.2,1-0.6,1.4-1c0.4-0.4,0.7-0.9,0.9-1.4c0.2-0.6,0.4-1.2,0.4-1.8h2.1c-0.1,1.8-0.8,3.4-2.1,4.7
	c-1.3,1.2-3,1.8-4.8,1.7c-1.1,0-2.2-0.2-3.2-0.6c-0.9-0.4-1.7-1-2.3-1.7c-0.6-0.8-1.1-1.7-1.4-2.6c-0.3-1.1-0.5-2.1-0.5-3.2
	c0-1.1,0.2-2.2,0.5-3.2c0.3-1,0.8-1.9,1.4-2.7c0.6-0.8,1.4-1.4,2.4-1.8c1-0.5,2.1-0.7,3.2-0.7c0.8,0,1.6,0.1,2.3,0.3
	c0.7,0.2,1.4,0.6,2,1c0.6,0.4,1.1,1,1.4,1.6c0.4,0.7,0.7,1.4,0.8,2.2h-2.1C39,124.1,38.5,123.2,37.6,122.6z"/>
<path class="st1" d="M43.5,128.1c0.2-0.7,0.6-1.4,1.1-1.9c0.5-0.5,1.1-1,1.8-1.3c1.5-0.6,3.3-0.6,4.8,0c0.7,0.3,1.3,0.7,1.7,1.3
	c0.5,0.6,0.8,1.2,1.1,1.9c0.2,0.8,0.4,1.6,0.4,2.4c0,0.8-0.1,1.6-0.4,2.4c-0.2,0.7-0.6,1.3-1.1,1.9c-0.5,0.5-1.1,1-1.8,1.3
	c-1.5,0.6-3.3,0.6-4.8,0c-0.7-0.3-1.3-0.7-1.8-1.3c-0.5-0.6-0.8-1.2-1.1-1.9c-0.2-0.8-0.4-1.6-0.3-2.4
	C43.1,129.7,43.3,128.9,43.5,128.1z M45.4,132.3c0.2,0.5,0.4,1,0.8,1.4c0.3,0.4,0.7,0.6,1.1,0.8c0.9,0.4,1.9,0.4,2.8,0
	c0.4-0.2,0.8-0.5,1.1-0.8c0.3-0.4,0.6-0.9,0.8-1.4c0.4-1.2,0.4-2.5,0-3.7c-0.2-0.5-0.4-1-0.8-1.4c-0.3-0.4-0.7-0.6-1.1-0.8
	c-0.9-0.4-1.9-0.4-2.8,0c-0.4,0.2-0.8,0.5-1.1,0.8c-0.3,0.4-0.6,0.9-0.8,1.4C45,129.8,45,131.1,45.4,132.3L45.4,132.3z"/>
<path class="st1" d="M58.5,120.4v15.8h-1.9v-15.8C56.6,120.4,58.5,120.4,58.5,120.4z"/>
<path class="st1" d="M63.4,120.4v15.8h-1.9v-15.8H63.4z"/>
<path class="st1" d="M74.4,135.5c-0.9,0.7-2.1,1-3.2,1c-0.8,0-1.6-0.1-2.4-0.4c-0.7-0.3-1.2-0.7-1.7-1.2c-0.5-0.6-0.8-1.2-1-1.9
	c-0.2-0.8-0.4-1.6-0.4-2.4c0-0.8,0.1-1.6,0.4-2.4c0.2-0.7,0.6-1.3,1.1-1.9c0.5-0.5,1.1-1,1.7-1.2c0.7-0.3,1.4-0.4,2.2-0.4
	c0.9,0,1.8,0.2,2.5,0.6c0.7,0.4,1.2,1,1.6,1.6c0.4,0.7,0.7,1.4,0.8,2.1c0.2,0.7,0.2,1.5,0.2,2.2h-8.6c0,0.5,0,1,0.2,1.4
	c0.1,0.4,0.3,0.9,0.6,1.2c0.3,0.4,0.7,0.6,1.1,0.8c0.5,0.2,1.1,0.3,1.6,0.3c0.7,0,1.4-0.2,2-0.6c0.5-0.4,0.9-1,1-1.7h1.9
	C76,133.7,75.4,134.8,74.4,135.5z M74,128.1c-0.2-0.4-0.4-0.7-0.7-1c-0.3-0.3-0.6-0.5-1-0.7c-0.4-0.2-0.9-0.3-1.3-0.2
	c-0.5,0-0.9,0.1-1.3,0.2c-0.4,0.2-0.7,0.4-1,0.7c-0.3,0.3-0.5,0.6-0.7,1c-0.2,0.4-0.3,0.8-0.3,1.2h6.6
	C74.3,128.9,74.2,128.5,74,128.1z"/>
<path class="st1" d="M86.8,139.4c-1.1,1-2.5,1.5-4,1.4c-0.5,0-1.1-0.1-1.6-0.2c-0.5-0.1-1-0.3-1.5-0.6c-0.4-0.2-0.8-0.6-1.1-1
	c-0.3-0.5-0.5-1-0.5-1.6H80c0,0.3,0.1,0.6,0.3,0.9c0.2,0.2,0.4,0.4,0.7,0.6c0.3,0.2,0.6,0.3,0.9,0.3c0.3,0.1,0.7,0.1,1,0.1
	c0.5,0,1-0.1,1.5-0.4c0.4-0.2,0.8-0.5,1.1-0.9c0.3-0.4,0.5-0.9,0.6-1.4c0.1-0.6,0.2-1.2,0.2-1.8v-0.8l0,0c-0.3,0.7-0.8,1.2-1.5,1.6
	c-0.7,0.3-1.4,0.5-2.1,0.5c-0.8,0-1.5-0.1-2.2-0.5c-0.6-0.3-1.2-0.7-1.6-1.2c-0.5-0.5-0.8-1.2-1-1.8c-0.2-0.7-0.3-1.5-0.3-2.2
	c0-0.7,0.1-1.4,0.3-2.1c0.2-0.7,0.5-1.4,0.9-2c0.4-0.6,1-1.1,1.6-1.4c0.8-0.4,1.6-0.6,2.5-0.6c0.7,0,1.4,0.2,2,0.5
	c0.6,0.3,1.1,0.8,1.4,1.4l0,0v-1.6h1.8v10.5C88.2,136.7,87.8,138.2,86.8,139.4z M84.4,134.3c0.4-0.2,0.8-0.6,1.1-1
	c0.3-0.4,0.5-0.9,0.6-1.4c0.1-0.5,0.2-1.1,0.2-1.6c0-0.5-0.1-1-0.2-1.5c-0.1-0.5-0.3-0.9-0.6-1.3c-0.3-0.4-0.6-0.7-1-0.9
	c-0.5-0.2-1-0.4-1.5-0.3c-0.5,0-1.1,0.1-1.6,0.3c-0.4,0.2-0.8,0.5-1.1,0.9c-0.3,0.4-0.5,0.9-0.6,1.3c-0.1,0.5-0.2,1-0.2,1.6
	c0,0.5,0,1,0.2,1.6c0.1,0.5,0.3,1,0.5,1.4c0.2,0.4,0.6,0.8,1,1c0.5,0.3,1,0.4,1.6,0.4C83.4,134.7,84,134.6,84.4,134.3L84.4,134.3z"
	/>
<path class="st1" d="M99.1,135.5c-0.9,0.7-2.1,1-3.2,1c-0.8,0-1.6-0.1-2.4-0.4c-0.7-0.3-1.2-0.7-1.7-1.2c-0.5-0.6-0.8-1.2-1-1.9
	c-0.2-0.8-0.4-1.6-0.4-2.4c0-0.8,0.1-1.6,0.4-2.4c0.2-0.7,0.6-1.3,1.1-1.9c0.5-0.5,1.1-1,1.7-1.2c0.7-0.3,1.4-0.4,2.2-0.4
	c0.9,0,1.8,0.2,2.5,0.6c0.7,0.4,1.2,1,1.6,1.6c0.4,0.7,0.7,1.4,0.8,2.1c0.2,0.7,0.2,1.5,0.2,2.2h-8.6c0,0.5,0,1,0.2,1.4
	c0.1,0.4,0.3,0.8,0.6,1.2c0.3,0.4,0.7,0.6,1.1,0.8c0.5,0.2,1.1,0.3,1.6,0.3c0.7,0,1.4-0.2,2-0.6c0.5-0.4,0.9-1,1-1.7h1.9
	C100.6,133.7,100,134.8,99.1,135.5z M98.6,128.1c-0.2-0.4-0.4-0.7-0.7-1c-0.3-0.3-0.6-0.5-1-0.7c-0.4-0.2-0.9-0.3-1.3-0.2
	c-0.5,0-0.9,0.1-1.3,0.2c-0.4,0.2-0.7,0.4-1,0.7c-0.3,0.3-0.5,0.6-0.7,1c-0.2,0.4-0.3,0.8-0.3,1.2h6.6
	C98.9,128.9,98.8,128.5,98.6,128.1L98.6,128.1z"/>
<path class="st2" d="M59.9,180.7c-2.2-1.3-4.6-2.1-7.1-2.5c-2.8-0.4-5.6-0.7-8.4-0.6H24.8V212h19.7c2.8,0,5.6-0.2,8.4-0.6
	c2.5-0.4,4.9-1.2,7.1-2.5c2.1-1.3,3.8-3.1,4.9-5.2c2.5-5.7,2.5-12.1,0-17.7C63.7,183.7,62,181.9,59.9,180.7z"/>
<path class="st1" d="M89.1,181.1c-1.4-4.4-3.8-8.4-6.9-11.8c-3.5-3.6-7.7-6.5-12.3-8.3c-5.1-2.1-11.2-3.1-18.4-3.1H0V273h24.8v-41.3
	h26.6c7.2,0,13.3-1,18.4-3.1c4.7-1.8,8.9-4.7,12.3-8.3c3.1-3.4,5.5-7.4,6.9-11.9C92,199.4,92.6,189.9,89.1,181.1z M64.9,203.7
	c-1.1,2.2-2.8,4-4.9,5.2c-2.2,1.3-4.6,2.1-7.1,2.5c-2.8,0.4-5.6,0.6-8.4,0.6H24.8v-34.5h19.7c2.8,0,5.6,0.2,8.4,0.6
	c2.5,0.4,4.9,1.2,7.1,2.5c2.1,1.3,3.8,3.1,4.9,5.2C67.3,191.6,67.3,198,64.9,203.7L64.9,203.7z"/>
<rect y="282.9" class="st1" width="22.7" height="18.9"/>
<rect y="314.6" class="st1" width="22.7" height="83.4"/>
<path class="st1" d="M73.4,400c9.5-0.6,17.4-3.4,23.7-8.6c7.1-5.8,11.4-14.2,12.9-25.3H87.9c-0.8,5.2-2.6,9.3-5.6,12.3
	c-3,3.1-7.2,4.6-12.7,4.6c-3.2,0.1-6.3-0.7-9-2.4c-2.4-1.6-4.5-3.7-5.9-6.2c-1.5-2.6-2.6-5.5-3.1-8.5c-0.6-3-1-6.1-1-9.2
	c0-3.2,0.4-6.3,1-9.4c0.6-3.1,1.7-6,3.3-8.7c1.5-2.6,3.5-4.8,6-6.5c2.7-1.7,5.9-2.6,9.2-2.5c9.8,0,15.4,4.8,16.9,14.4h22.4
	c-0.3-9.5-5-18.3-12.7-23.8c-3.7-2.7-7.9-4.7-12.3-5.9c-4.6-1.3-9.4-2-14.3-1.9c-6.2-0.1-12.3,1-18.1,3.4c-5.1,2.1-9.7,5.4-13.4,9.4
	c-3.7,4.2-6.6,9-8.3,14.4c-1.9,5.8-2.9,11.9-2.8,18c-0.1,5.9,1,11.7,3.1,17.2c1.9,5,4.8,9.6,8.6,13.5c3.8,3.9,8.3,6.9,13.3,8.8
	c4.4,1.7,9.1,2.8,13.9,3H73.4L73.4,400z"/>
<path class="st1" d="M152.7,400c3.4-0.2,6.7-0.6,10.1-1.3c4.3-0.8,8.5-2.4,12.2-4.7c3.6-2.3,6.5-5.4,8.6-9c2.2-3.7,3.3-8.3,3.3-13.8
	c0.1-3.4-0.7-6.8-2.3-9.8c-1.5-2.6-3.5-4.9-6-6.6c-2.6-1.8-5.5-3.3-8.5-4.3c-3.2-1.1-6.5-2-9.8-2.7c-3.2-0.8-6.4-1.5-9.5-2.1
	c-2.8-0.6-5.6-1.3-8.3-2.2c-2.1-0.7-4.1-1.7-5.9-3.1c-1.5-1.2-2.3-3.1-2.3-5c-0.1-1.5,0.4-2.9,1.3-4.1c0.9-1,1.9-1.8,3.1-2.3
	c1.3-0.5,2.7-0.9,4.1-1c1.4-0.2,2.8-0.2,4.2-0.2c3.7-0.1,7.3,0.7,10.6,2.3c3,1.6,4.7,4.6,5,9h21.8c-0.2-4.5-1.6-8.9-4-12.8
	c-2.1-3.3-5-6.1-8.3-8.1c-3.5-2.1-7.3-3.6-11.3-4.4c-4.3-0.9-8.7-1.3-13.1-1.3c-4.4,0-8.9,0.4-13.2,1.2c-4.1,0.7-8,2.1-11.6,4.2
	c-3.4,2-6.3,4.8-8.3,8.1c-2.1,3.4-3.2,7.8-3.2,13.2c-0.1,3.2,0.7,6.4,2.3,9.3c1.5,2.5,3.6,4.7,6,6.3c2.6,1.7,5.5,3.1,8.5,4
	c3.2,1,6.4,1.9,9.8,2.7c6.5,1.3,12.9,3,19.1,5.2c4.6,1.7,6.9,4.3,6.9,7.7c0.1,1.8-0.4,3.6-1.5,5.1c-1,1.3-2.2,2.4-3.6,3.2
	c-1.5,0.8-3.1,1.4-4.8,1.8c-1.7,0.4-3.4,0.6-5.1,0.6c-2.2,0-4.4-0.3-6.5-0.8c-2-0.5-3.9-1.3-5.6-2.5c-1.6-1.1-3-2.6-3.9-4.4
	c-1.1-2-1.6-4.1-1.5-6.4h-21.8c0.2,5.6,1.5,10.3,3.8,14c2.2,3.6,5.3,6.7,8.9,9c3.8,2.3,8,4,12.3,4.8c3.4,0.7,6.8,1.2,10.3,1.3
	L152.7,400L152.7,400z"/>
<rect x="216" y="340" class="st3" width="184" height="36"/>
<path class="st4" d="M239.8,358.3c0.2-0.7,0.5-1.3,1-1.8c0.4-0.5,1-0.9,1.6-1.2c1.4-0.6,3-0.6,4.4,0c0.6,0.3,1.2,0.7,1.6,1.2
	c0.5,0.5,0.8,1.1,1,1.8c0.2,0.7,0.3,1.4,0.3,2.2c0,0.7-0.1,1.5-0.3,2.2c-0.2,0.6-0.6,1.2-1,1.8c-0.4,0.5-1,0.9-1.6,1.2
	c-1.4,0.6-3,0.6-4.4,0c-0.6-0.3-1.2-0.7-1.6-1.2c-0.4-0.5-0.8-1.1-1-1.8c-0.2-0.7-0.3-1.4-0.3-2.2
	C239.4,359.8,239.6,359,239.8,358.3z M241.6,362.2c0.1,0.5,0.4,0.9,0.7,1.2c0.3,0.3,0.7,0.6,1.1,0.8c0.8,0.4,1.8,0.4,2.6,0
	c0.4-0.2,0.8-0.4,1.1-0.8c0.3-0.4,0.6-0.8,0.7-1.2c0.3-1.1,0.3-2.3,0-3.4c-0.2-0.5-0.4-0.9-0.7-1.3c-0.3-0.3-0.7-0.6-1.1-0.8
	c-0.8-0.4-1.8-0.4-2.6,0c-0.4,0.2-0.8,0.4-1.1,0.8c-0.3,0.4-0.6,0.8-0.7,1.3C241.2,359.9,241.2,361.1,241.6,362.2L241.6,362.2z"/>
<path class="st4" d="M253.4,355.2v2.2l0,0c0.3-0.8,0.9-1.4,1.6-1.9c0.7-0.4,1.5-0.6,2.3-0.6v1.9c-0.6,0-1.2,0.1-1.8,0.3
	c-0.5,0.2-0.9,0.5-1.2,0.8c-0.3,0.4-0.5,0.9-0.7,1.4c-0.1,0.6-0.2,1.2-0.2,1.8v4.7h-1.8v-10.6H253.4L253.4,355.2z"/>
<path class="st4" d="M270.8,351.1l5.7,14.7h-2.2l-1.6-4.4h-6.2l-1.6,4.4h-2l5.7-14.7H270.8L270.8,351.1z M272.2,359.7l-2.5-6.8l0,0
	l-2.5,6.8H272.2L272.2,359.7z"/>
<path class="st4" d="M284.4,351.1c1.2-0.1,2.4,0.3,3.4,1.1c1.5,1.9,1.5,4.5,0,6.4c-0.9,0.8-2.1,1.2-3.4,1.1h-4.5v6h-2v-14.7H284.4
	L284.4,351.1z M283.8,358.1c0.9,0.1,1.7-0.2,2.4-0.7c0.5-0.5,0.8-1.3,0.8-2c0-0.7-0.2-1.5-0.8-2c-0.7-0.5-1.6-0.8-2.4-0.7h-3.8v5.4
	L283.8,358.1L283.8,358.1z"/>
<path class="st4" d="M290.3,352.9c0.2-0.5,0.6-1,1-1.4c0.4-0.4,0.9-0.7,1.4-0.9c2.3-1,4.9,0.1,5.9,2.4c0.2,0.6,0.4,1.2,0.4,1.8
	c0,0.6-0.1,1.2-0.4,1.8c-0.2,0.5-0.6,1-1,1.4c-0.4,0.4-0.9,0.7-1.4,0.9c-1.1,0.4-2.4,0.4-3.5,0c-0.5-0.2-1-0.5-1.4-0.9
	c-0.4-0.4-0.8-0.9-1-1.4c-0.2-0.6-0.4-1.2-0.4-1.8C290,354.1,290.1,353.5,290.3,352.9z M291.1,356.2c0.2,0.5,0.4,0.9,0.8,1.2
	c0.3,0.3,0.7,0.6,1.2,0.8c0.5,0.2,1,0.3,1.5,0.3c0.5,0,1-0.1,1.5-0.3c0.4-0.2,0.8-0.5,1.2-0.8c0.3-0.4,0.6-0.8,0.8-1.2
	c0.2-0.5,0.3-1,0.3-1.5c0-0.5-0.1-1-0.3-1.5c-0.4-0.9-1.1-1.6-2-2c-0.5-0.2-1-0.3-1.5-0.3c-1.5,0-2.9,0.9-3.4,2.3
	c-0.2,0.5-0.3,1-0.3,1.5C290.8,355.2,290.9,355.7,291.1,356.2z M294.8,352.1c0.5,0,1,0.1,1.4,0.4c0.3,0.3,0.5,0.7,0.5,1.1
	c0,0.4-0.1,0.7-0.4,1c-0.3,0.2-0.6,0.4-1,0.4l1.5,2.3h-0.9l-1.4-2.3h-0.9v2.2h-0.8V352L294.8,352.1L294.8,352.1z M294.4,354.4h0.5
	c0.2,0,0.3,0,0.4-0.1c0.1-0.1,0.2-0.1,0.3-0.3c0.1-0.1,0.1-0.3,0.1-0.5c0-0.1,0-0.3-0.1-0.4c-0.1-0.1-0.2-0.2-0.3-0.2
	c-0.1-0.1-0.2-0.1-0.4-0.1h-0.4h-1.1v1.7L294.4,354.4L294.4,354.4z"/>
<path class="st4" d="M315.5,353.2c-0.8-0.5-1.7-0.8-2.7-0.8c-0.8,0-1.6,0.1-2.2,0.5c-0.6,0.3-1.1,0.8-1.5,1.3
	c-0.4,0.6-0.7,1.2-0.9,1.9c-0.2,0.7-0.3,1.5-0.3,2.2c0,0.8,0.1,1.6,0.3,2.4c0.2,0.7,0.5,1.4,0.9,2c0.4,0.6,0.9,1,1.5,1.3
	c0.7,0.3,1.5,0.5,2.3,0.5c0.6,0,1.2-0.1,1.7-0.3c0.5-0.2,0.9-0.5,1.3-0.9c0.4-0.4,0.7-0.8,0.9-1.4c0.2-0.5,0.3-1.1,0.4-1.7h2
	c-0.1,1.6-0.8,3.2-1.9,4.3c-1.2,1.1-2.8,1.6-4.4,1.5c-1,0-2.1-0.2-3-0.6c-0.8-0.4-1.5-0.9-2.1-1.6c-0.6-0.7-1-1.5-1.3-2.4
	c-0.3-1-0.4-2-0.4-3c0-1,0.1-2,0.5-3c0.3-0.9,0.7-1.7,1.3-2.5c0.6-0.7,1.3-1.3,2.2-1.6c0.9-0.4,2-0.6,3-0.6c0.7,0,1.5,0.1,2.2,0.3
	c0.7,0.2,1.3,0.5,1.8,0.9c0.5,0.4,1,0.9,1.3,1.5c0.4,0.6,0.6,1.3,0.7,2.1h-2C316.8,354.6,316.3,353.8,315.5,353.2z"/>
<path class="st4" d="M320.9,358.3c0.2-0.7,0.5-1.3,1-1.8c0.4-0.5,1-0.9,1.6-1.2c1.4-0.6,3-0.6,4.5,0c0.6,0.3,1.2,0.7,1.6,1.2
	c0.5,0.5,0.8,1.1,1,1.8c0.2,0.7,0.3,1.4,0.3,2.2c0,0.7-0.1,1.5-0.3,2.2c-0.2,0.6-0.6,1.2-1,1.8c-0.4,0.5-1,0.9-1.6,1.2
	c-1.4,0.6-3,0.6-4.5,0c-0.6-0.3-1.2-0.7-1.6-1.2c-0.4-0.5-0.8-1.1-1-1.8c-0.2-0.7-0.3-1.4-0.3-2.2
	C320.6,359.8,320.7,359,320.9,358.3z M322.7,362.2c0.1,0.5,0.4,0.9,0.7,1.2c0.3,0.3,0.7,0.6,1.1,0.8c0.8,0.4,1.8,0.4,2.6,0
	c0.4-0.2,0.8-0.4,1.1-0.8c0.3-0.4,0.6-0.8,0.7-1.2c0.3-1.1,0.3-2.3,0-3.4c-0.2-0.5-0.4-0.9-0.7-1.3c-0.3-0.3-0.7-0.6-1.1-0.8
	c-0.8-0.4-1.8-0.4-2.6,0c-0.4,0.2-0.8,0.4-1.1,0.8c-0.3,0.4-0.6,0.8-0.7,1.3C322.3,359.9,322.3,361.1,322.7,362.2L322.7,362.2z"/>
<path class="st4" d="M340.1,365.8v-1.7l0,0c-0.3,0.6-0.8,1.1-1.4,1.5c-0.6,0.3-1.3,0.5-2,0.5c-0.6,0-1.2-0.1-1.8-0.3
	c-0.4-0.2-0.8-0.4-1.1-0.8c-0.3-0.4-0.5-0.8-0.6-1.2c-0.1-0.5-0.2-1-0.2-1.6v-7h1.8v7.2c0,0.6,0.2,1.1,0.6,1.6
	c0.4,0.4,1,0.6,1.6,0.6c0.5,0,0.9-0.1,1.4-0.2c0.4-0.2,0.7-0.4,1-0.7c0.3-0.3,0.5-0.7,0.6-1.1c0.1-0.4,0.2-0.9,0.2-1.3v-6h1.8v10.6
	L340.1,365.8L340.1,365.8z"/>
<path class="st4" d="M346,355.2v2.2l0,0c0.3-0.8,0.9-1.4,1.6-1.9c0.7-0.4,1.5-0.6,2.3-0.6v1.9c-0.6,0-1.2,0.1-1.8,0.3
	c-0.5,0.2-0.9,0.5-1.2,0.8c-0.3,0.4-0.5,0.9-0.7,1.4c-0.1,0.6-0.2,1.2-0.2,1.8v4.7h-1.8v-10.6H346z"/>
<path class="st4" d="M352.5,363.4c0.2,0.3,0.4,0.5,0.6,0.6c0.3,0.2,0.6,0.3,0.9,0.3c0.3,0.1,0.7,0.1,1,0.1c0.3,0,0.6,0,0.9-0.1
	c0.3,0,0.6-0.1,0.8-0.2c0.2-0.1,0.5-0.3,0.6-0.5c0.2-0.2,0.3-0.5,0.2-0.8c0-0.4-0.2-0.8-0.5-1c-0.4-0.3-0.8-0.5-1.3-0.6
	c-0.5-0.1-1.1-0.3-1.7-0.4c-0.6-0.1-1.1-0.3-1.7-0.5c-0.5-0.2-0.9-0.5-1.3-0.9c-0.4-0.5-0.5-1-0.5-1.6c0-0.5,0.1-1,0.4-1.4
	c0.2-0.4,0.5-0.7,0.9-0.9c0.4-0.2,0.8-0.4,1.3-0.5c0.5-0.1,0.9-0.2,1.4-0.2c0.6,0,1.1,0,1.7,0.1c0.5,0.1,0.9,0.3,1.4,0.5
	c0.4,0.2,0.7,0.6,0.9,1c0.3,0.5,0.4,1.1,0.4,1.6h-1.8c0-0.6-0.3-1.1-0.8-1.4c-0.2-0.1-0.5-0.2-0.8-0.3c-0.3-0.1-0.6-0.1-0.9-0.1
	c-0.3,0-0.5,0-0.8,0.1c-0.3,0-0.5,0.1-0.7,0.2c-0.2,0.1-0.4,0.2-0.5,0.4c-0.1,0.2-0.2,0.4-0.2,0.7c0,0.3,0.1,0.6,0.3,0.8
	c0.2,0.2,0.5,0.4,0.8,0.5c0.4,0.1,0.7,0.3,1.1,0.3l1.2,0.3c0.4,0.1,0.9,0.2,1.3,0.4c0.4,0.1,0.8,0.3,1.1,0.5
	c0.3,0.2,0.6,0.5,0.8,0.9c0.2,0.4,0.3,0.8,0.3,1.3c0,0.6-0.1,1.1-0.4,1.6c-0.3,0.4-0.6,0.7-1,1c-0.5,0.3-0.9,0.4-1.5,0.5
	c-0.6,0.1-1.1,0.2-1.7,0.2c-0.6,0-1.1-0.1-1.7-0.2c-0.5-0.1-1-0.3-1.4-0.6c-0.4-0.3-0.8-0.7-1-1.1c-0.3-0.5-0.4-1.1-0.4-1.7h1.8
	C352.2,362.8,352.4,363.1,352.5,363.4z"/>
<path class="st4" d="M369,365.1c-0.9,0.6-1.9,0.9-3,0.9c-0.8,0-1.5-0.1-2.2-0.4c-0.6-0.3-1.1-0.7-1.6-1.1c-0.5-0.5-0.8-1.1-1-1.8
	c-0.2-0.7-0.3-1.5-0.4-2.2c0-0.8,0.1-1.5,0.4-2.2c0.2-0.6,0.6-1.2,1-1.8c0.4-0.5,1-0.9,1.6-1.1c0.6-0.3,1.3-0.4,2-0.4
	c0.8,0,1.6,0.2,2.4,0.6c0.6,0.4,1.1,0.9,1.5,1.5c0.4,0.6,0.6,1.3,0.8,2c0.1,0.7,0.2,1.3,0.2,2h-8c0,0.4,0,0.9,0.2,1.3
	c0.1,0.4,0.3,0.8,0.6,1.1c0.3,0.3,0.6,0.6,1,0.8c0.5,0.2,1,0.3,1.5,0.3c0.6,0,1.3-0.1,1.8-0.5c0.5-0.4,0.8-0.9,0.9-1.6h1.7
	C370.2,363.5,369.8,364.4,369,365.1z M368.6,358.3c-0.1-0.4-0.4-0.7-0.6-1c-0.3-0.3-0.6-0.5-1-0.6c-0.4-0.2-0.8-0.2-1.2-0.2
	c-0.4,0-0.8,0.1-1.2,0.2c-0.4,0.2-0.7,0.4-0.9,0.6c-0.3,0.3-0.5,0.6-0.6,1c-0.2,0.4-0.2,0.8-0.3,1.2h6.1
	C368.8,359.1,368.7,358.7,368.6,358.3L368.6,358.3z"/>
<path class="st4" d="M373.9,363.4c0.2,0.3,0.4,0.5,0.6,0.6c0.3,0.2,0.6,0.3,0.9,0.3c0.3,0.1,0.7,0.1,1,0.1c0.3,0,0.6,0,0.9-0.1
	c0.3,0,0.6-0.1,0.8-0.2c0.2-0.1,0.5-0.3,0.6-0.5c0.2-0.2,0.3-0.5,0.2-0.8c0-0.4-0.2-0.8-0.5-1c-0.4-0.3-0.8-0.5-1.3-0.6
	c-0.5-0.1-1.1-0.3-1.7-0.4c-0.6-0.1-1.1-0.3-1.7-0.5c-0.5-0.2-0.9-0.5-1.3-0.9c-0.4-0.5-0.5-1-0.5-1.6c0-0.5,0.1-1,0.4-1.4
	c0.2-0.4,0.5-0.7,0.9-0.9c0.4-0.2,0.8-0.4,1.3-0.5c0.5-0.1,0.9-0.2,1.4-0.2c0.6,0,1.1,0,1.7,0.1c0.5,0.1,0.9,0.3,1.4,0.5
	c0.4,0.2,0.7,0.6,0.9,1c0.3,0.5,0.4,1.1,0.4,1.6h-1.8c0-0.6-0.3-1.1-0.8-1.4c-0.2-0.1-0.5-0.2-0.8-0.3c-0.3-0.1-0.6-0.1-0.9-0.1
	c-0.3,0-0.5,0-0.8,0.1c-0.3,0-0.5,0.1-0.7,0.2c-0.2,0.1-0.4,0.2-0.5,0.4c-0.1,0.2-0.2,0.4-0.2,0.7c0,0.3,0.1,0.6,0.3,0.8
	c0.2,0.2,0.5,0.4,0.8,0.5c0.4,0.1,0.7,0.3,1.1,0.3l1.2,0.3c0.4,0.1,0.9,0.2,1.3,0.4c0.4,0.1,0.8,0.3,1.1,0.5
	c0.3,0.2,0.6,0.5,0.8,0.9c0.2,0.4,0.3,0.8,0.3,1.3c0,0.6-0.1,1.1-0.4,1.6c-0.3,0.4-0.6,0.7-1,1c-0.5,0.3-0.9,0.4-1.5,0.5
	c-0.5,0.1-1.1,0.2-1.6,0.1c-0.6,0-1.1-0.1-1.7-0.2c-0.5-0.1-1-0.3-1.4-0.6c-0.4-0.3-0.8-0.7-1-1.1c-0.3-0.5-0.4-1.1-0.4-1.7h1.8
	C373.6,362.8,373.7,363.1,373.9,363.4z"/>
<g>
	<path class="st5" d="M232.6,356.6v-1.6h1.7v-1.6c0-0.9,0.2-1.5,0.7-2c0.5-0.4,1.2-0.7,2.1-0.7c0.2,0,0.3,0,0.5,0
		c0.2,0,0.4,0.1,0.5,0.1v1.5c-0.1-0.1-0.3-0.1-0.5-0.1c-0.2,0-0.3,0-0.5,0c-0.4,0-0.7,0.1-0.9,0.2c-0.2,0.2-0.3,0.5-0.3,1v1.5h1.9
		v1.6H236v9.2h-1.6v-9.2H232.6z"/>
</g>
</svg>
