<?xml version="1.0" encoding="utf-8"?>
<!-- Generator: Adobe Illustrator 16.0.0, SVG Export Plug-In . SVG Version: 6.00 Build 0)  -->
<!DOCTYPE svg PUBLIC "-//W3C//DTD SVG 1.1 Tiny//EN" "http://www.w3.org/Graphics/SVG/1.1/DTD/svg11-tiny.dtd">
<svg version="1.1" baseProfile="tiny" id="Layer_1" xmlns="http://www.w3.org/2000/svg" xmlns:xlink="http://www.w3.org/1999/xlink"
	 x="0px" y="0px" width="400px" height="400px" viewBox="0 0 400 400" xml:space="preserve">
<g>
	<rect fill="#222E65" width="400" height="399.999"/>
	<rect x="53.793" fill="#FFFFFF" width="19.537" height="0.053"/>
	<path fill="#FFFFFF" d="M7.438,82.133c6.597,5.809,15.907,8.711,27.938,8.711c11.863,0,21.156-2.924,27.876-8.773
		c6.72-5.849,10.079-14.787,10.079-26.817v-55.2H53.794v55.2c0,6.638-1.328,11.511-3.981,14.622
		c-2.656,3.111-7.467,4.666-14.437,4.666c-3.981,0-7.155-0.559-9.521-1.68c-2.363-1.119-4.211-2.57-5.537-4.355
		c-1.328-1.783-2.199-3.836-2.613-6.16c-0.416-2.32-0.622-4.686-0.622-7.093v-55.2H0v70.953C1.648,75.51,4.127,79.219,7.438,82.133z
		"/>
	<rect x="78.434" y="69.689" fill="#FFFFFF" width="19.537" height="19.165"/>
	<path fill="#FFFFFF" d="M15.898,199.262c4.604,1.201,9.354,1.807,14.25,1.807c6.056,0,11.387-0.707,15.99-2.115
		c4.604-1.41,8.463-3.38,11.573-5.912c3.111-2.529,5.454-5.537,7.031-9.021c1.574-3.484,2.364-7.26,2.364-11.324
		c0-4.979-1.06-9.063-3.175-12.258c-2.114-3.193-4.626-5.744-7.527-7.654c-2.904-1.907-5.83-3.297-8.773-4.168
		c-2.946-0.871-5.248-1.474-6.907-1.805c-5.559-1.411-10.06-2.57-13.502-3.484c-3.443-0.912-6.141-1.824-8.089-2.738
		c-1.95-0.912-3.257-1.907-3.919-2.986c-0.666-1.078-0.996-2.488-0.996-4.23c0-1.908,0.414-3.484,1.244-4.73
		c0.828-1.244,1.887-2.28,3.174-3.11c1.285-0.828,2.717-1.409,4.293-1.742c1.575-0.331,3.152-0.497,4.729-0.497
		c2.405,0,4.624,0.207,6.657,0.621c2.033,0.416,3.836,1.121,5.414,2.115c1.574,0.996,2.84,2.365,3.795,4.107
		c0.953,1.742,1.514,3.941,1.681,6.596h18.916c0-5.143-0.978-9.52-2.925-13.129c-1.95-3.609-4.585-6.574-7.902-8.898
		c-3.318-2.32-7.114-4.001-11.387-5.039c-4.273-1.037-8.731-1.556-13.379-1.556c-3.98,0-7.963,0.54-11.945,1.618
		c-3.98,1.078-7.55,2.737-10.702,4.977c-2.276,1.617-4.233,3.53-5.882,5.73v28.529c1.076,1.329,2.279,2.529,3.643,3.572
		c2.488,1.909,5.309,3.465,8.463,4.666c3.15,1.204,6.387,2.221,9.705,3.049c3.235,0.914,6.43,1.742,9.582,2.489
		c3.152,0.747,5.975,1.618,8.463,2.613c2.489,0.994,4.5,2.239,6.035,3.732c1.534,1.493,2.303,3.443,2.303,5.849
		c0,2.24-0.582,4.087-1.741,5.538c-1.164,1.453-2.614,2.595-4.356,3.422c-1.742,0.83-3.607,1.392-5.6,1.681
		c-1.991,0.293-3.857,0.436-5.6,0.436c-2.573,0-5.062-0.311-7.468-0.933c-2.407-0.622-4.502-1.575-6.284-2.862
		c-1.785-1.285-3.217-2.965-4.293-5.04c-1.08-2.073-1.617-4.604-1.617-7.591H0v20.779c1.13,1.182,2.364,2.262,3.704,3.237
		C7.229,196.172,11.295,198.061,15.898,199.262z"/>
	<rect x="70.691" y="179.911" fill="#FFFFFF" width="19.537" height="19.165"/>
	<polygon fill="#F37640" points="225.864,235.895 189.899,235.895 189.899,201.797 170.362,201.797 170.362,290.65 189.899,290.65 
		189.899,252.323 225.864,252.323 225.864,290.65 245.402,290.65 245.402,201.797 225.864,201.797 	"/>
	<rect x="253.341" y="201.797" fill="#F37640" width="17.671" height="14.562"/>
	<rect x="253.341" y="226.312" fill="#F37640" width="17.671" height="64.338"/>
	<path fill="#F37640" d="M327.634,257.361c-1.91-1.368-4.087-2.467-6.533-3.297c-2.446-0.828-4.958-1.534-7.527-2.115
		c-2.489-0.579-4.938-1.12-7.343-1.618c-2.406-0.497-4.543-1.058-6.408-1.681c-1.867-0.621-3.381-1.432-4.543-2.426
		c-1.162-0.996-1.741-2.281-1.741-3.857c0-1.326,0.33-2.385,0.995-3.174c0.663-0.787,1.473-1.389,2.427-1.805
		c0.953-0.414,2.011-0.686,3.174-0.811c1.16-0.124,2.239-0.188,3.235-0.188c3.15,0,5.89,0.604,8.213,1.806
		c2.322,1.202,3.607,3.506,3.855,6.905h16.803c-0.332-3.981-1.352-7.278-3.051-9.894c-1.699-2.612-3.839-4.708-6.407-6.285
		c-2.572-1.573-5.497-2.694-8.773-3.358c-3.276-0.662-6.658-0.996-10.143-0.996c-3.485,0-6.889,0.312-10.204,0.935
		c-3.319,0.622-6.308,1.701-8.96,3.235c-2.656,1.535-4.79,3.63-6.408,6.283c-1.618,2.655-2.428,6.058-2.428,10.205
		c0,2.82,0.58,5.207,1.741,7.155c1.16,1.949,2.694,3.566,4.604,4.854c1.907,1.285,4.085,2.322,6.533,3.109
		c2.446,0.79,4.956,1.476,7.528,2.055c6.305,1.326,11.22,2.654,14.745,3.981c3.524,1.327,5.288,3.318,5.288,5.974
		c0,1.576-0.373,2.884-1.119,3.92c-0.746,1.037-1.681,1.867-2.801,2.488c-1.119,0.622-2.364,1.079-3.73,1.368
		c-1.37,0.292-2.678,0.437-3.92,0.437c-1.743,0-3.424-0.204-5.04-0.621c-1.618-0.414-3.051-1.059-4.294-1.93
		c-1.244-0.871-2.264-1.992-3.05-3.359c-0.789-1.368-1.183-3.006-1.183-4.915h-16.8c0.165,4.313,1.14,7.901,2.925,10.764
		c1.783,2.863,4.062,5.165,6.845,6.907c2.777,1.742,5.951,2.986,9.521,3.732c3.564,0.746,7.219,1.119,10.951,1.119
		c3.648,0,7.235-0.354,10.765-1.058c3.525-0.705,6.658-1.931,9.395-3.672c2.738-1.742,4.957-4.044,6.658-6.906
		c1.7-2.862,2.553-6.407,2.553-10.641c0-2.986-0.58-5.494-1.741-7.528C331.075,260.432,329.542,258.73,327.634,257.361z"/>
	<path fill="#F37640" d="M361.096,275.967c-0.996-0.996-1.492-2.986-1.492-5.975v-31.857h12.94v-11.822h-12.94v-19.287h-17.673
		v19.287h-10.699v11.822h10.699v37.956c0,3.235,0.539,5.851,1.618,7.841c1.078,1.99,2.551,3.526,4.418,4.604
		c1.866,1.079,4.022,1.805,6.473,2.178c2.444,0.373,5.039,0.562,7.775,0.562c1.743,0,3.526-0.045,5.354-0.125
		c1.822-0.084,3.482-0.25,4.978-0.498v-13.688c-0.83,0.167-1.701,0.292-2.612,0.373c-0.912,0.084-1.865,0.124-2.86,0.124
		C364.082,277.459,362.091,276.962,361.096,275.967z"/>
	<rect x="368.013" y="249.086" fill="#F37640" width="31.987" height="15.182"/>
	<path fill="#F37640" d="M223.997,320.954c-2.905-2.943-6.408-5.228-10.516-6.845c-4.106-1.618-8.691-2.428-13.751-2.428
		c-5.062,0-9.625,0.81-13.688,2.428c-4.066,1.617-7.551,3.899-10.453,6.845c-2.905,2.944-5.146,6.514-6.721,10.702
		c-1.576,4.188-2.364,8.855-2.364,14s0.788,9.79,2.364,13.938c1.575,4.149,3.813,7.696,6.721,10.641
		c2.902,2.945,6.387,5.209,10.453,6.783c4.063,1.574,8.627,2.363,13.688,2.363c5.06,0,9.645-0.789,13.751-2.363
		c4.105-1.574,7.608-3.838,10.516-6.783c2.904-2.942,5.144-6.489,6.72-10.641c1.576-4.146,2.365-8.793,2.365-13.938
		s-0.789-9.812-2.365-14C229.141,327.467,226.901,323.898,223.997,320.954z M214.664,353.186c-0.497,2.446-1.35,4.646-2.551,6.596
		c-1.203,1.949-2.821,3.507-4.854,4.667c-2.034,1.163-4.543,1.741-7.527,1.741c-2.986,0-5.478-0.578-7.469-1.741
		c-1.99-1.16-3.589-2.718-4.791-4.667c-1.202-1.948-2.053-4.147-2.551-6.596c-0.498-2.447-0.746-4.957-0.746-7.528
		c0-2.57,0.248-5.104,0.746-7.593c0.498-2.487,1.349-4.687,2.551-6.597c1.202-1.907,2.801-3.463,4.791-4.666
		c1.991-1.202,4.48-1.804,7.469-1.804c2.985,0,5.493,0.602,7.527,1.804c2.032,1.203,3.65,2.759,4.854,4.666
		c1.201,1.91,2.054,4.107,2.551,6.597c0.497,2.488,0.746,5.021,0.746,7.593S215.161,350.738,214.664,353.186z"/>
	<path fill="#F37640" d="M278.018,313.424v-1.119c-1.41-0.414-2.694-0.623-3.855-0.623c-2.24,0-4.398,0.332-6.471,0.996
		c-2.075,0.664-4.026,1.6-5.852,2.801c-1.826,1.203-3.443,2.654-4.854,4.354c-1.412,1.701-2.531,3.546-3.359,5.538h-0.249v-11.947
		h-16.8v64.34h17.67v-28.996c0-2.902,0.29-5.602,0.872-8.091c0.579-2.487,1.556-4.666,2.924-6.532
		c1.369-1.865,3.173-3.338,5.413-4.418c2.241-1.076,4.979-1.617,8.214-1.617c1.077,0,2.197,0.062,3.36,0.188
		c1.16,0.125,2.156,0.271,2.984,0.436v-6.467l-3.299-8.84L278.018,313.424L278.018,313.424z"/>
	<polygon fill="#F37640" points="274.719,313.424 278.018,322.264 278.018,313.424 	"/>
	<g>
		<path fill="#F37640" d="M305.83,396.926c3.4-2.238,6.056-5.973,7.964-11.199l26.881-72.303h-18.294l-14.062,44.055h-0.25
			l-14.561-44.055h-15.493v8.84l19.228,51.518c0.498,1.244,0.746,2.572,0.746,3.981c0,1.906-0.561,3.648-1.682,5.229
			c-1.119,1.573-2.843,2.487-5.164,2.735c-1.741,0.082-3.482,0.041-5.228-0.125c-1.741-0.166-3.442-0.332-5.104-0.496v14.561
			c1.403,0.127,2.785,0.232,4.163,0.335h11.541C300.294,399.541,303.405,398.523,305.83,396.926z"/>
	</g>
</g>
</svg>
