<?xml version="1.0" encoding="utf-8"?>
<!-- Generator: Adobe Illustrator 16.0.0, SVG Export Plug-In . SVG Version: 6.00 Build 0)  -->
<!DOCTYPE svg PUBLIC "-//W3C//DTD SVG 1.1 Tiny//EN" "http://www.w3.org/Graphics/SVG/1.1/DTD/svg11-tiny.dtd">
<svg version="1.1" baseProfile="tiny" id="Layer_1" xmlns="http://www.w3.org/2000/svg" xmlns:xlink="http://www.w3.org/1999/xlink"
	 x="0px" y="0px" width="400px" height="400px" viewBox="0 0 400 400" xml:space="preserve">
<g>
	<rect fill="#76AE43" width="400" height="400"/>
	<g>
		<path fill="#5E6062" d="M221.415,86.829c4.59,0,8.777,0.406,12.561,1.216c3.781,0.811,7.023,2.14,9.729,3.984
			c2.7,1.847,4.797,4.301,6.282,7.362c1.483,3.062,2.228,6.845,2.228,11.347c0,4.863-1.104,8.915-3.31,12.157
			s-5.469,5.899-9.794,7.97c5.942,1.712,10.377,4.707,13.308,8.982c2.927,4.279,4.39,9.435,4.39,15.467
			c0,4.862-0.947,9.074-2.838,12.63c-1.892,3.56-4.434,6.464-7.632,8.715c-3.197,2.251-6.844,3.917-10.939,4.997
			c-4.099,1.08-8.309,1.621-12.634,1.621h-46.737v-96.45h45.39v0.002H221.415z M218.714,125.869c3.781,0,6.887-0.9,9.317-2.703
			c2.435-1.8,3.648-4.728,3.648-8.78c0-2.25-0.406-4.097-1.216-5.539c-0.812-1.439-1.896-2.567-3.242-3.377
			c-1.351-0.811-2.904-1.372-4.66-1.688c-1.76-0.314-3.581-0.472-5.474-0.472h-19.855v22.559H218.714z M219.928,166.799
			c2.072,0,4.055-0.203,5.945-0.607c1.891-0.405,3.553-1.08,4.997-2.026c1.438-0.945,2.585-2.229,3.442-3.851
			c0.854-1.62,1.283-3.69,1.283-6.214c0-4.951-1.396-8.486-4.188-10.604c-2.79-2.114-6.484-3.174-11.077-3.174h-23.099V166.8
			L219.928,166.799L219.928,166.799z"/>
		<path fill="#5E6062" d="M261.467,102.634V86.829h19.181v15.805H261.467z M280.646,113.44v69.838h-19.181V113.44H280.646z"/>
		<path fill="#5E6062" d="M287.615,133.229c1.711-4.546,4.142-8.419,7.296-11.616c3.146-3.196,6.935-5.674,11.349-7.43
			c4.408-1.757,9.361-2.634,14.859-2.634c5.491,0,10.469,0.877,14.926,2.634c4.458,1.756,8.259,4.233,11.412,7.43
			c3.154,3.197,5.585,7.07,7.296,11.616c1.711,4.55,2.565,9.614,2.565,15.198s-0.854,10.627-2.565,15.128
			c-1.711,4.504-4.142,8.354-7.296,11.551c-3.153,3.197-6.954,5.651-11.412,7.361c-4.457,1.71-9.435,2.566-14.926,2.566
			c-5.498,0-10.451-0.856-14.859-2.566c-4.414-1.71-8.2-4.164-11.349-7.361c-3.154-3.195-5.585-7.047-7.296-11.551
			c-1.712-4.501-2.566-9.544-2.566-15.128S285.903,137.779,287.615,133.229z M305.044,156.599c0.539,2.658,1.458,5.046,2.766,7.16
			c1.309,2.117,3.042,3.807,5.201,5.065c2.162,1.263,4.865,1.892,8.107,1.892c3.241,0,5.964-0.629,8.17-1.892
			c2.207-1.26,3.962-2.948,5.269-5.065c1.304-2.114,2.231-4.502,2.771-7.16c0.539-2.653,0.812-5.379,0.812-8.171
			c0-2.79-0.271-5.539-0.812-8.241c-0.539-2.701-1.469-5.087-2.771-7.159c-1.307-2.07-3.062-3.759-5.269-5.065
			c-2.206-1.306-4.929-1.959-8.17-1.959c-3.242,0-5.945,0.654-8.107,1.959c-2.159,1.306-3.896,2.995-5.201,5.065
			c-1.308,2.072-2.227,4.458-2.766,7.159c-0.544,2.702-0.812,5.451-0.812,8.241C304.232,151.22,304.5,153.944,305.044,156.599z"/>
		<path fill="#5E6062" d="M193.722,193.258v96.449H174.54v-96.449H193.722L193.722,193.258z"/>
		<path fill="#5E6062" d="M200.688,239.658c1.712-4.545,4.144-8.418,7.296-11.617c3.15-3.191,6.937-5.672,11.351-7.426
			c4.409-1.76,9.36-2.637,14.857-2.637c5.492,0,10.47,0.877,14.928,2.637c4.458,1.754,8.259,4.232,11.414,7.426
			c3.151,3.199,5.584,7.072,7.294,11.617c1.711,4.549,2.565,9.613,2.565,15.197s-0.854,10.627-2.565,15.131
			c-1.71,4.502-4.143,8.353-7.294,11.55c-3.155,3.198-6.956,5.653-11.414,7.358c-4.458,1.709-9.436,2.568-14.928,2.568
			c-5.497,0-10.448-0.859-14.857-2.568c-4.414-1.705-8.198-4.16-11.351-7.358c-3.152-3.197-5.584-7.048-7.296-11.55
			c-1.709-4.504-2.564-9.547-2.564-15.131C198.122,249.271,198.979,244.207,200.688,239.658z M218.117,263.027
			c0.539,2.656,1.459,5.045,2.767,7.158c1.308,2.119,3.042,3.807,5.201,5.068c2.162,1.26,4.864,1.893,8.105,1.893
			s5.966-0.633,8.17-1.893c2.207-1.264,3.962-2.949,5.271-5.068c1.304-2.113,2.229-4.502,2.771-7.158
			c0.539-2.654,0.812-5.381,0.812-8.172c0-2.789-0.271-5.539-0.812-8.237c-0.54-2.702-1.468-5.089-2.771-7.16
			c-1.309-2.069-3.062-3.761-5.271-5.069c-2.204-1.303-4.929-1.957-8.17-1.957s-5.943,0.654-8.105,1.957
			c-2.159,1.311-3.896,3-5.201,5.069c-1.308,2.071-2.228,4.458-2.767,7.16c-0.545,2.698-0.812,5.448-0.812,8.237
			C217.307,257.646,217.572,260.373,218.117,263.027z"/>
		<path fill="#5E6062" d="M339.894,294.84c-0.768,3.604-2.409,6.959-4.93,10.065c-2.521,3.104-6.172,5.741-10.945,7.901
			c-4.771,2.158-11.163,3.242-19.18,3.242c-3.425,0-6.911-0.429-10.469-1.283c-3.56-0.857-6.801-2.188-9.729-3.984
			c-2.925-1.803-5.358-4.121-7.295-6.954c-1.934-2.84-3.038-6.241-3.311-10.203h19.05c0.897,3.603,2.651,6.103,5.27,7.5
			c2.608,1.396,5.628,2.09,9.049,2.09c5.404,0,9.345-1.618,11.82-4.858c2.477-3.242,3.666-7.34,3.577-12.295v-9.186h-0.268
			c-2.075,3.693-5.021,6.416-8.853,8.17c-3.83,1.76-7.854,2.637-12.089,2.637c-5.224,0-9.725-0.921-13.506-2.767
			c-3.782-1.849-6.892-4.371-9.323-7.567c-2.431-3.192-4.209-6.933-5.336-11.209c-1.129-4.277-1.688-8.804-1.688-13.58
			c0-4.5,0.65-8.848,1.959-13.029c1.303-4.19,3.219-7.885,5.74-11.077c2.519-3.199,5.646-5.745,9.391-7.636
			c3.732-1.894,8.035-2.836,12.898-2.836c4.594,0,8.622,0.855,12.09,2.566c3.466,1.71,6.37,4.594,8.714,8.645h0.268v-9.318h18.237
			v65.379C341.041,288.044,340.656,291.238,339.894,294.84z M313.618,271.605c2.068-1.078,3.785-2.52,5.132-4.32
			c1.354-1.803,2.368-3.852,3.042-6.147c0.677-2.296,1.012-4.706,1.012-7.229c0-2.878-0.268-5.605-0.812-8.171
			c-0.539-2.566-1.439-4.842-2.698-6.824c-1.263-1.979-2.931-3.553-5-4.725c-2.07-1.172-4.683-1.76-7.835-1.76
			c-2.698,0-5.021,0.543-6.956,1.622c-1.938,1.079-3.559,2.548-4.86,4.39c-1.308,1.849-2.255,3.967-2.84,6.35
			c-0.587,2.391-0.879,4.89-0.879,7.499c0,2.522,0.248,5.021,0.744,7.495c0.495,2.479,1.351,4.709,2.564,6.688
			c1.217,1.981,2.813,3.603,4.798,4.864c1.979,1.259,4.457,1.892,7.429,1.892C309.16,273.229,311.548,272.686,313.618,271.605z"/>
		<g>
			<rect x="362.344" y="138.16" fill="#5E6062" width="37.656" height="16.479"/>
			<path fill="#5E6062" d="M392.844,219.871l-15.266,47.816h-0.27l-15.807-47.816h-20.398l24.452,65.516
				c0.539,1.353,0.81,2.79,0.81,4.32c0,2.07-0.608,3.962-1.823,5.677c-1.216,1.706-3.086,2.698-5.604,2.97
				c-1.893,0.09-3.781,0.045-5.674-0.137c-1.895-0.179-3.74-0.359-5.538-0.539v15.809c1.979,0.181,3.938,0.335,5.875,0.472
				c1.937,0.136,3.895,0.204,5.877,0.204c6.57,0,11.704-1.221,15.396-3.65c3.693-2.431,6.572-6.482,8.646-12.156L400,254.033v-34.16
				h-7.156V219.871z"/>
		</g>
	</g>
</g>
</svg>
