<?xml version="1.0" encoding="utf-8"?>
<!-- Generator: Adobe Illustrator 16.0.0, SVG Export Plug-In . SVG Version: 6.00 Build 0)  -->
<!DOCTYPE svg PUBLIC "-//W3C//DTD SVG 1.1 Tiny//EN" "http://www.w3.org/Graphics/SVG/1.1/DTD/svg11-tiny.dtd">
<svg version="1.1" baseProfile="tiny" id="Layer_1" xmlns="http://www.w3.org/2000/svg" xmlns:xlink="http://www.w3.org/1999/xlink"
	 x="0px" y="0px" width="400px" height="400px" viewBox="0 0 400 400" xml:space="preserve">
<rect fill="#232E66" width="400" height="400.001"/>
<path fill="#76AE43" d="M116.003,157.86v43.385h0.483c2.9-4.84,6.611-8.359,11.129-10.564c4.518-2.202,8.923-3.308,13.228-3.308
	c6.127,0,11.152,0.835,15.08,2.501c3.923,1.669,7.015,3.979,9.273,6.938c2.256,2.955,3.845,6.56,4.758,10.805
	c0.913,4.249,1.37,8.949,1.37,14.111v51.289h-22.902v-47.097c0-6.878-1.075-12.017-3.224-15.401
	c-2.156-3.388-5.972-5.082-11.451-5.082c-6.237,0-10.755,1.855-13.551,5.564c-2.8,3.71-4.193,9.812-4.193,18.305v43.711H93.099
	V157.86H116.003z"/>
<path fill="#76AE43" d="M207.494,297.855c-4.408,2.9-10.536,4.354-18.385,4.354c-2.365,0-4.705-0.078-7.018-0.24
	c-2.312-0.16-4.648-0.351-7.019-0.564v-18.871c2.148,0.215,4.354,0.431,6.616,0.646c2.255,0.213,4.517,0.271,6.772,0.161
	c3.007-0.321,5.239-1.508,6.693-3.548c1.453-2.044,2.176-4.304,2.176-6.775c0-1.826-0.32-3.55-0.968-5.158l-29.194-78.228h24.356
	l18.871,57.097h0.323l18.225-57.097h23.708l-34.838,93.709C215.343,290.115,211.906,294.954,207.494,297.855z"/>
<path fill="#76AE43" d="M269.302,252.293c1.024,1.771,2.338,3.225,3.952,4.354c1.611,1.133,3.466,1.963,5.563,2.502
	c2.096,0.539,4.271,0.803,6.531,0.803c1.61,0,3.312-0.186,5.08-0.562c1.775-0.373,3.388-0.97,4.841-1.771
	c1.45-0.807,2.66-1.883,3.628-3.229c0.968-1.345,1.45-3.037,1.45-5.08c0-3.438-2.281-6.021-6.854-7.742
	c-4.572-1.715-10.943-3.439-19.11-5.161c-3.335-0.748-6.588-1.64-9.76-2.661c-3.171-1.021-5.994-2.363-8.467-4.032
	c-2.475-1.666-4.463-3.761-5.966-6.289c-1.509-2.524-2.262-5.618-2.262-9.271c0-5.377,1.049-9.786,3.147-13.229
	c2.093-3.438,4.86-6.153,8.302-8.143c3.442-1.989,7.312-3.392,11.613-4.194c4.299-0.807,8.711-1.212,13.227-1.212
	c4.52,0,8.896,0.434,13.146,1.291c4.25,0.862,8.037,2.315,11.373,4.354c3.331,2.045,6.1,4.758,8.305,8.147
	c2.205,3.386,3.524,7.657,3.952,12.82H299.22c-0.32-4.405-1.989-7.394-4.996-8.95c-3.013-1.56-6.561-2.339-10.646-2.339
	c-1.288,0-2.689,0.078-4.192,0.238c-1.506,0.162-2.88,0.515-4.109,1.049c-1.237,0.539-2.289,1.317-3.147,2.339
	c-0.862,1.024-1.292,2.395-1.292,4.114c0,2.043,0.753,3.709,2.26,5.002c1.506,1.287,3.472,2.334,5.89,3.143
	c2.418,0.807,5.187,1.532,8.305,2.177c3.119,0.646,6.292,1.349,9.518,2.101c3.331,0.752,6.584,1.666,9.759,2.74
	c3.17,1.074,5.991,2.5,8.466,4.271c2.473,1.773,4.463,3.979,5.97,6.615c1.506,2.635,2.256,5.888,2.256,9.758
	c0,5.484-1.101,10.081-3.302,13.79c-2.207,3.708-5.08,6.692-8.632,8.95c-3.549,2.259-7.608,3.848-12.176,4.762
	c-4.571,0.908-9.224,1.37-13.95,1.37c-4.843,0-9.573-0.486-14.196-1.455c-4.623-0.968-8.734-2.578-12.337-4.839
	c-3.604-2.256-6.562-5.24-8.871-8.95c-2.312-3.709-3.577-8.358-3.788-13.951h21.771
	C267.769,248.395,268.277,250.518,269.302,252.293z"/>
<path fill="#76AE43" d="M374.331,219.15v19.676h-48.547V219.15H374.331z"/>
<g>
	<path fill="#76AE43" d="M37.63,122.604c-0.806-0.56-1.764-0.842-2.871-0.842c-0.946,0-1.756,0.177-2.43,0.532
		c-0.672,0.354-1.228,0.832-1.662,1.431c-0.438,0.599-0.758,1.282-0.965,2.052c-0.207,0.768-0.312,1.566-0.312,2.395
		c0,0.902,0.104,1.756,0.312,2.562s0.526,1.509,0.965,2.106c0.437,0.599,0.994,1.076,1.674,1.432
		c0.681,0.354,1.494,0.531,2.439,0.531c0.694,0,1.312-0.114,1.852-0.343c0.539-0.23,1.005-0.548,1.398-0.954
		c0.391-0.407,0.696-0.892,0.919-1.453c0.222-0.561,0.354-1.168,0.398-1.818h2.106c-0.206,1.996-0.896,3.548-2.062,4.657
		c-1.17,1.108-2.767,1.663-4.791,1.663c-1.228,0-2.3-0.212-3.217-0.633c-0.916-0.42-1.677-1.001-2.283-1.74
		c-0.605-0.739-1.062-1.611-1.363-2.616c-0.303-1.007-0.455-2.085-0.455-3.238c0-1.153,0.163-2.236,0.488-3.249
		c0.324-1.012,0.802-1.896,1.43-2.65c0.629-0.754,1.412-1.349,2.352-1.784c0.939-0.437,2.016-0.655,3.229-0.655
		c0.828,0,1.611,0.111,2.351,0.332c0.739,0.223,1.397,0.549,1.974,0.977c0.578,0.43,1.058,0.965,1.441,1.607
		c0.385,0.645,0.637,1.387,0.754,2.229h-2.105C38.957,124.009,38.436,123.167,37.63,122.604z"/>
	<path fill="#76AE43" d="M43.495,128.117c0.237-0.732,0.592-1.367,1.065-1.908c0.473-0.539,1.057-0.965,1.752-1.274
		c0.693-0.312,1.492-0.466,2.396-0.466c0.916,0,1.717,0.154,2.405,0.466c0.688,0.31,1.268,0.735,1.74,1.274
		c0.474,0.541,0.828,1.176,1.064,1.908c0.236,0.731,0.355,1.519,0.355,2.361c0,0.842-0.119,1.626-0.355,2.351
		c-0.236,0.726-0.592,1.356-1.064,1.896c-0.474,0.539-1.054,0.961-1.74,1.264c-0.688,0.303-1.489,0.454-2.405,0.454
		c-0.901,0-1.701-0.151-2.396-0.454c-0.695-0.303-1.279-0.725-1.752-1.264c-0.475-0.54-0.828-1.171-1.065-1.896
		c-0.236-0.725-0.354-1.508-0.354-2.351C43.141,129.635,43.259,128.848,43.495,128.117z M45.414,132.33
		c0.186,0.54,0.439,0.991,0.766,1.353c0.325,0.362,0.705,0.641,1.143,0.832c0.436,0.192,0.896,0.288,1.387,0.288
		c0.486,0,0.949-0.096,1.386-0.288c0.437-0.191,0.815-0.47,1.145-0.832c0.323-0.361,0.579-0.812,0.765-1.353
		c0.184-0.54,0.277-1.156,0.277-1.852c0-0.694-0.094-1.312-0.277-1.852c-0.186-0.54-0.439-0.994-0.765-1.365
		c-0.327-0.368-0.708-0.648-1.145-0.842c-0.437-0.191-0.897-0.288-1.386-0.288c-0.489,0-0.951,0.097-1.387,0.288
		c-0.438,0.192-0.816,0.474-1.143,0.842c-0.324,0.371-0.58,0.825-0.766,1.365c-0.186,0.539-0.275,1.157-0.275,1.852
		S45.229,131.79,45.414,132.33z"/>
	<path fill="#76AE43" d="M58.487,120.365V136.2H56.6v-15.835H58.487z"/>
	<path fill="#76AE43" d="M63.409,120.365V136.2h-1.884v-15.835H63.409z"/>
	<path fill="#76AE43" d="M74.454,135.468c-0.856,0.65-1.938,0.975-3.237,0.975c-0.917,0-1.713-0.147-2.385-0.443
		c-0.673-0.295-1.237-0.71-1.697-1.241c-0.457-0.533-0.801-1.168-1.028-1.908c-0.229-0.738-0.357-1.544-0.389-2.416
		c0-0.872,0.133-1.671,0.398-2.396c0.267-0.725,0.64-1.354,1.12-1.885c0.479-0.533,1.048-0.947,1.707-1.242
		c0.656-0.295,1.378-0.443,2.162-0.443c1.021,0,1.864,0.211,2.539,0.631c0.673,0.422,1.212,0.958,1.616,1.608
		c0.407,0.651,0.688,1.36,0.845,2.13c0.154,0.768,0.219,1.5,0.188,2.195h-8.581c-0.018,0.503,0.043,0.979,0.176,1.431
		c0.134,0.45,0.348,0.851,0.645,1.197c0.296,0.348,0.673,0.624,1.133,0.831c0.457,0.208,0.996,0.311,1.618,0.311
		c0.8,0,1.452-0.185,1.963-0.553c0.51-0.371,0.846-0.933,1.009-1.688h1.862C75.865,133.849,75.312,134.817,74.454,135.468z
		 M74,128.105c-0.172-0.399-0.398-0.742-0.688-1.031c-0.291-0.288-0.632-0.518-1.021-0.688c-0.392-0.17-0.825-0.255-1.298-0.255
		c-0.487,0-0.927,0.085-1.319,0.255c-0.392,0.17-0.728,0.403-1.009,0.698c-0.282,0.297-0.503,0.64-0.665,1.032
		c-0.162,0.391-0.26,0.809-0.287,1.252h6.586C74.271,128.925,74.17,128.504,74,128.105z"/>
	<path fill="#76AE43" d="M86.852,139.437c-0.856,0.932-2.201,1.396-4.035,1.396c-0.531,0-1.075-0.059-1.632-0.177
		c-0.554-0.118-1.058-0.309-1.508-0.574c-0.451-0.269-0.823-0.615-1.12-1.044c-0.295-0.43-0.459-0.952-0.486-1.575h1.885
		c0.016,0.342,0.123,0.63,0.322,0.866c0.197,0.236,0.441,0.429,0.731,0.575c0.287,0.149,0.602,0.256,0.939,0.323
		c0.341,0.066,0.667,0.099,0.978,0.099c0.62,0,1.146-0.106,1.576-0.319c0.428-0.216,0.781-0.512,1.062-0.888
		c0.278-0.376,0.483-0.834,0.608-1.364c0.125-0.532,0.188-1.116,0.188-1.753v-0.752h-0.045c-0.324,0.707-0.817,1.23-1.476,1.562
		c-0.659,0.332-1.354,0.498-2.096,0.498c-0.858,0-1.604-0.155-2.24-0.465c-0.636-0.311-1.169-0.729-1.597-1.253
		c-0.431-0.525-0.751-1.139-0.964-1.842c-0.217-0.701-0.323-1.444-0.323-2.229c0-0.68,0.091-1.378,0.267-2.095
		c0.18-0.719,0.475-1.369,0.89-1.953c0.414-0.584,0.961-1.064,1.642-1.441c0.679-0.376,1.515-0.564,2.506-0.564
		c0.726,0,1.392,0.158,1.996,0.477c0.604,0.318,1.079,0.795,1.419,1.431h0.021v-1.642h1.771v10.489
		C88.136,137.1,87.707,138.505,86.852,139.437z M84.445,134.281c0.436-0.259,0.785-0.599,1.051-1.021
		c0.269-0.422,0.464-0.896,0.589-1.431c0.127-0.532,0.189-1.064,0.189-1.597c0-0.502-0.062-0.998-0.18-1.486
		c-0.119-0.488-0.307-0.928-0.562-1.318c-0.261-0.393-0.599-0.707-1.011-0.943c-0.413-0.236-0.918-0.354-1.51-0.354
		c-0.604,0-1.124,0.114-1.552,0.343s-0.78,0.537-1.054,0.92c-0.273,0.386-0.475,0.83-0.601,1.332
		c-0.127,0.503-0.188,1.027-0.188,1.575c0,0.517,0.051,1.034,0.154,1.552c0.102,0.517,0.278,0.986,0.53,1.408
		c0.252,0.421,0.584,0.761,0.999,1.021c0.412,0.259,0.933,0.39,1.554,0.39C83.479,134.67,84.007,134.54,84.445,134.281z"/>
	<path fill="#76AE43" d="M99.092,135.468c-0.855,0.65-1.937,0.975-3.234,0.975c-0.917,0-1.715-0.147-2.388-0.443
		c-0.672-0.295-1.235-0.71-1.694-1.241c-0.457-0.533-0.804-1.168-1.03-1.908c-0.23-0.738-0.359-1.544-0.389-2.416
		c0-0.872,0.133-1.671,0.398-2.396c0.267-0.725,0.638-1.354,1.118-1.885c0.48-0.533,1.05-0.947,1.709-1.242
		c0.656-0.295,1.378-0.443,2.161-0.443c1.021,0,1.867,0.211,2.54,0.631c0.672,0.422,1.212,0.958,1.618,1.608
		c0.407,0.651,0.688,1.36,0.843,2.13c0.154,0.768,0.219,1.5,0.188,2.195h-8.58c-0.017,0.503,0.046,0.979,0.179,1.431
		c0.133,0.45,0.348,0.851,0.643,1.197c0.295,0.348,0.673,0.624,1.132,0.831c0.458,0.208,0.997,0.311,1.619,0.311
		c0.797,0,1.452-0.185,1.962-0.553c0.511-0.371,0.849-0.933,1.011-1.688h1.861C100.504,133.849,99.95,134.817,99.092,135.468z
		 M98.637,128.105c-0.17-0.399-0.396-0.742-0.687-1.031c-0.289-0.288-0.629-0.518-1.021-0.688c-0.394-0.17-0.823-0.255-1.299-0.255
		c-0.486,0-0.926,0.085-1.317,0.255c-0.395,0.17-0.729,0.403-1.011,0.698c-0.28,0.297-0.504,0.64-0.666,1.032
		c-0.162,0.391-0.258,0.809-0.287,1.252h6.585C98.906,128.925,98.809,128.504,98.637,128.105z"/>
</g>
<g>
	<path fill="none" d="M59.939,180.682c-2.046-1.235-4.409-2.07-7.099-2.5c-2.688-0.429-5.483-0.646-8.387-0.646H24.78v34.514h19.676
		c2.901,0,5.698-0.211,8.387-0.641c2.688-0.431,5.054-1.267,7.099-2.501c2.043-1.236,3.683-2.984,4.918-5.246
		c1.233-2.255,1.854-5.213,1.854-8.867c0-3.653-0.62-6.615-1.854-8.871C63.622,183.664,61.982,181.919,59.939,180.682z"/>
	<path fill="#76AE43" d="M89.053,181.083c-1.451-4.405-3.766-8.332-6.935-11.773c-3.174-3.44-7.287-6.209-12.34-8.305
		c-5.058-2.099-11.186-3.146-18.388-3.146H0v115.157h24.78v-41.291h26.61c7.203,0,13.331-1.047,18.388-3.144
		c5.053-2.099,9.166-4.863,12.34-8.31c3.169-3.438,5.481-7.391,6.935-11.853c1.452-4.461,2.179-9.006,2.179-13.629
		C91.229,190.062,90.505,185.495,89.053,181.083z M64.857,203.662c-1.235,2.262-2.875,4.01-4.918,5.246
		c-2.046,1.234-4.409,2.07-7.099,2.501c-2.688,0.43-5.483,0.641-8.387,0.641H24.78v-34.514h19.676c2.901,0,5.698,0.218,8.387,0.646
		c2.688,0.43,5.054,1.265,7.099,2.5c2.043,1.237,3.683,2.981,4.918,5.241c1.233,2.256,1.854,5.218,1.854,8.871
		C66.713,198.449,66.093,201.407,64.857,203.662z"/>
	<rect y="282.857" fill="#76AE43" width="22.704" height="18.867"/>
	<rect y="314.629" fill="#76AE43" width="22.704" height="83.385"/>
</g>
<g>
	<path fill="#76AE43" d="M73.407,400c9.46-0.571,17.354-3.435,23.666-8.6c7.098-5.808,11.396-14.244,12.899-25.322H87.88
		c-0.753,5.163-2.608,9.273-5.562,12.341c-2.96,3.063-7.181,4.597-12.661,4.597c-3.549,0-6.562-0.808-9.033-2.418
		c-2.475-1.613-4.437-3.682-5.888-6.209c-1.45-2.527-2.5-5.349-3.145-8.471c-0.646-3.115-0.969-6.184-0.969-9.193
		c0-3.115,0.323-6.263,0.969-9.437c0.645-3.17,1.746-6.071,3.307-8.709c1.558-2.631,3.572-4.78,6.049-6.45
		c2.472-1.666,5.537-2.5,9.19-2.5c9.784,0,15.432,4.788,16.938,14.355h22.418c-0.323-5.375-1.613-10.023-3.869-13.95
		c-2.26-3.927-5.188-7.207-8.793-9.841c-3.604-2.637-7.688-4.596-12.256-5.889c-4.572-1.291-9.331-1.938-14.274-1.938
		c-6.772,0-12.798,1.13-18.062,3.392c-5.271,2.255-9.732,5.401-13.388,9.435c-3.655,4.031-6.426,8.816-8.307,14.354
		c-1.882,5.54-2.822,11.532-2.822,17.982c0,6.236,1.021,11.963,3.064,17.18c2.041,5.213,4.893,9.702,8.548,13.468
		c3.654,3.767,8.091,6.694,13.308,8.788c4.283,1.723,8.918,2.729,13.894,3.034h4.409L73.407,400L73.407,400z"/>
	<path fill="#76AE43" d="M152.716,400c3.396-0.184,6.75-0.599,10.062-1.258c4.57-0.913,8.632-2.5,12.18-4.762
		c3.549-2.258,6.422-5.24,8.627-8.949c2.207-3.71,3.31-8.307,3.31-13.79c0-3.871-0.753-7.124-2.262-9.757
		c-1.503-2.637-3.491-4.84-5.964-6.615c-2.479-1.771-5.296-3.197-8.467-4.273c-3.175-1.074-6.427-1.986-9.762-2.738
		c-3.228-0.754-6.396-1.452-9.517-2.101c-3.118-0.646-5.886-1.37-8.308-2.177c-2.418-0.809-4.383-1.855-5.886-3.145
		c-1.508-1.291-2.26-2.955-2.26-5c0-1.722,0.432-3.093,1.292-4.115c0.858-1.021,1.906-1.799,3.144-2.338
		c1.236-0.537,2.605-0.888,4.116-1.047c1.504-0.162,2.899-0.24,4.191-0.24c4.084,0,7.632,0.779,10.646,2.339
		c3.009,1.559,4.676,4.543,5.001,8.95h21.771c-0.428-5.162-1.748-9.438-3.951-12.821c-2.201-3.392-4.973-6.104-8.302-8.147
		c-3.337-2.037-7.129-3.49-11.373-4.354c-4.248-0.859-8.631-1.292-13.145-1.292c-4.518,0-8.927,0.405-13.228,1.213
		c-4.303,0.803-8.173,2.205-11.611,4.194c-3.44,1.986-6.211,4.705-8.309,8.144c-2.098,3.44-3.146,7.853-3.146,13.226
		c0,3.653,0.751,6.75,2.258,9.273c1.506,2.527,3.494,4.624,5.969,6.288c2.474,1.671,5.295,3.013,8.466,4.033
		c3.174,1.022,6.424,1.913,9.763,2.661c8.169,1.72,14.542,3.443,19.11,5.162c4.568,1.721,6.855,4.303,6.855,7.738
		c0,2.045-0.485,3.738-1.455,5.082c-0.967,1.348-2.175,2.42-3.628,3.229c-1.45,0.802-3.064,1.396-4.836,1.771
		c-1.777,0.381-3.471,0.564-5.084,0.564c-2.257,0-4.436-0.266-6.531-0.805s-3.951-1.371-5.565-2.5
		c-1.609-1.131-2.931-2.584-3.947-4.355c-1.024-1.775-1.534-3.896-1.534-6.371h-21.772c0.215,5.592,1.479,10.243,3.792,13.951
		c2.312,3.709,5.267,6.695,8.867,8.952c3.604,2.259,7.716,3.869,12.341,4.839c3.374,0.706,6.812,1.148,10.301,1.34h5.017H152.716
		L152.716,400z"/>
</g>
</svg>
