<svg id="Layer_1" data-name="Layer 1" xmlns="http://www.w3.org/2000/svg" viewBox="0 0 401.75 400"><defs><style>.cls-1{fill:#ff7f40;}.cls-2{fill:#fff;}</style></defs><title>entrepreneurship book card</title><rect class="cls-1" x="1.75" width="400" height="400"/><path class="cls-2" d="M60.83,126.26v14.3H20v16.57H57.47v13.21H20v19h41.7v14.3H3V126.26Z" transform="translate(1.35 -0.29)"/><path class="cls-2" d="M80.76,147.6v7.8h.32a17.68,17.68,0,0,1,7.58-7.1,22,22,0,0,1,9.54-2.22,26.07,26.07,0,0,1,10.12,1.68,14.93,14.93,0,0,1,6.23,4.66,18.07,18.07,0,0,1,3.2,7.25,45.51,45.51,0,0,1,.92,9.48V203.6H103.29V172q0-6.93-2.17-10.34t-7.69-3.42q-6.29,0-9.1,3.74t-2.82,12.29V203.6H66.13v-56Z" transform="translate(1.35 -0.29)"/><path class="cls-2" d="M155.71,147.6v10.29H144.44v27.73q0,3.9,1.31,5.2c.86.86,2.6,1.3,5.19,1.3.87,0,1.7,0,2.5-.11a19.66,19.66,0,0,0,2.27-.33V203.6a37.75,37.75,0,0,1-4.33.43c-1.59.07-3.14.11-4.66.11a44.18,44.18,0,0,1-6.77-.49,16,16,0,0,1-5.63-1.89,10.05,10.05,0,0,1-3.85-4,14.28,14.28,0,0,1-1.41-6.82v-33h-9.31V147.6h9.31V130.81h15.38V147.6Z" transform="translate(1.35 -0.29)"/><path class="cls-2" d="M172.28,147.6V158h.22a19.39,19.39,0,0,1,7.15-8.61,20.4,20.4,0,0,1,5.09-2.44,18.26,18.26,0,0,1,5.63-.87,12.06,12.06,0,0,1,3.36.54v14.3c-.72-.14-1.59-.27-2.6-.38a27,27,0,0,0-2.92-.16,16.36,16.36,0,0,0-7.15,1.41,12.51,12.51,0,0,0-4.72,3.84,15.37,15.37,0,0,0-2.54,5.69,30.7,30.7,0,0,0-.76,7V203.6H157.66v-56Z" transform="translate(1.35 -0.29)"/><path class="cls-2" d="M208.9,190.17q3.47,3.36,10,3.35a13.72,13.72,0,0,0,8-2.32q3.36-2.34,4.12-4.93h13.54q-3.24,10.08-10,14.4T218.32,205a32,32,0,0,1-11.92-2.11,24.61,24.61,0,0,1-9-6,27,27,0,0,1-5.69-9.31,34.27,34.27,0,0,1-2-11.92,32.75,32.75,0,0,1,2.06-11.7,27.1,27.1,0,0,1,14.89-15.6,29.14,29.14,0,0,1,11.65-2.27,26.61,26.61,0,0,1,12.45,2.76,25,25,0,0,1,8.72,7.42,30.46,30.46,0,0,1,4.93,10.62,39.24,39.24,0,0,1,1.08,12.46H205.1Q205.43,186.81,208.9,190.17Zm17.38-29.47q-2.76-3-8.4-3a13.42,13.42,0,0,0-6.12,1.25,11.83,11.83,0,0,0-3.9,3.08,11.24,11.24,0,0,0-2.05,3.91,17.9,17.9,0,0,0-.71,3.68h25Q229,163.74,226.28,160.7Z" transform="translate(1.35 -0.29)"/><path class="cls-2" d="M281.68,167.42v13.22h-32.6V167.42Z" transform="translate(1.35 -0.29)"/><path class="cls-2" d="M16,235.12v7.15h.22a16.94,16.94,0,0,1,7.15-6.61,21.94,21.94,0,0,1,9.53-2.06,24.34,24.34,0,0,1,11.37,2.49,23.47,23.47,0,0,1,7.91,6.61,28,28,0,0,1,4.66,9.59,42.54,42.54,0,0,1,1.52,11.42,38.58,38.58,0,0,1-1.52,10.84,27.71,27.71,0,0,1-4.6,9.2,22.86,22.86,0,0,1-7.69,6.4,23.27,23.27,0,0,1-10.78,2.38,21.67,21.67,0,0,1-9.59-2.12,18.13,18.13,0,0,1-7.2-6.22h-.22v26.53H1.36v-75.6Zm20,44.41a12.27,12.27,0,0,0,4.11-4,16.27,16.27,0,0,0,2.23-5.68,33.9,33.9,0,0,0,.64-6.61,31,31,0,0,0-.7-6.6,17.48,17.48,0,0,0-2.33-5.8,12.92,12.92,0,0,0-4.17-4.12,11.71,11.71,0,0,0-6.23-1.57,11.88,11.88,0,0,0-6.33,1.57,12.62,12.62,0,0,0-4.12,4.07,16.69,16.69,0,0,0-2.22,5.74,34.32,34.32,0,0,0-.65,6.71,30.48,30.48,0,0,0,.71,6.61,16.71,16.71,0,0,0,2.27,5.68,12.09,12.09,0,0,0,4.17,4A12.25,12.25,0,0,0,29.63,281,12.22,12.22,0,0,0,36,279.53Z" transform="translate(1.35 -0.29)"/><path class="cls-2" d="M76.75,235.12v10.4H77a19.21,19.21,0,0,1,7.15-8.61,20.4,20.4,0,0,1,5.09-2.44,18.26,18.26,0,0,1,5.63-.87,12.06,12.06,0,0,1,3.36.54v14.3c-.73-.14-1.59-.27-2.6-.38a27.22,27.22,0,0,0-2.93-.16,16.32,16.32,0,0,0-7.14,1.41,12.36,12.36,0,0,0-4.72,3.84,15.45,15.45,0,0,0-2.54,5.69,30.7,30.7,0,0,0-.76,7v25.24H62.13v-56Z" transform="translate(1.35 -0.29)"/><path class="cls-2" d="M113.36,277.69q3.47,3.36,10,3.35a13.72,13.72,0,0,0,8-2.32c2.24-1.55,3.61-3.2,4.12-4.93H149q-3.25,10.08-10,14.4a29.31,29.31,0,0,1-16.24,4.34,31.76,31.76,0,0,1-11.92-2.12,24.61,24.61,0,0,1-9-6,27,27,0,0,1-5.69-9.31,34.27,34.27,0,0,1-2-11.92,32.53,32.53,0,0,1,2.06-11.7,27,27,0,0,1,14.89-15.59,28.93,28.93,0,0,1,11.65-2.28,26.52,26.52,0,0,1,12.45,2.77,24.82,24.82,0,0,1,8.72,7.41,30.64,30.64,0,0,1,4.93,10.62A39.53,39.53,0,0,1,150,266.86h-40.4Q109.9,274.33,113.36,277.69Zm17.39-29.46c-1.85-2-4.64-3-8.4-3a13.42,13.42,0,0,0-6.12,1.25,11.72,11.72,0,0,0-3.9,3.09,11.49,11.49,0,0,0-2.06,3.9,17.82,17.82,0,0,0-.7,3.68h25Q133.51,251.26,130.75,248.23Z" transform="translate(1.35 -0.29)"/><path class="cls-2" d="M168.28,235.12v7.8h.33a17.57,17.57,0,0,1,7.58-7.1,21.9,21.9,0,0,1,9.53-2.22,26.16,26.16,0,0,1,10.13,1.68,15.06,15.06,0,0,1,6.23,4.66,18.06,18.06,0,0,1,3.19,7.25,44.87,44.87,0,0,1,.92,9.49v34.44H190.81V259.49q0-6.93-2.17-10.34c-1.44-2.28-4-3.41-7.69-3.41-4.18,0-7.22,1.24-9.09,3.73s-2.82,6.59-2.82,12.3v29.35H153.66v-56Z" transform="translate(1.35 -0.29)"/><path class="cls-2" d="M228.94,277.69q3.47,3.36,10,3.35a13.7,13.7,0,0,0,8-2.32c2.24-1.55,3.61-3.2,4.12-4.93h13.54q-3.24,10.08-10,14.4a29.35,29.35,0,0,1-16.25,4.34,31.76,31.76,0,0,1-11.92-2.12,24.69,24.69,0,0,1-9-6,27.19,27.19,0,0,1-5.69-9.31,34.27,34.27,0,0,1-2-11.92,32.75,32.75,0,0,1,2.06-11.7,27,27,0,0,1,14.9-15.59,28.88,28.88,0,0,1,11.64-2.28,26.56,26.56,0,0,1,12.46,2.77,24.87,24.87,0,0,1,8.71,7.41,30.66,30.66,0,0,1,4.94,10.62,39.82,39.82,0,0,1,1.08,12.46H225.14Q225.47,274.33,228.94,277.69Zm17.38-29.46q-2.76-3-8.4-3a13.34,13.34,0,0,0-6.11,1.25,11.53,11.53,0,0,0-3.9,3.09,11.15,11.15,0,0,0-2.06,3.9,17.9,17.9,0,0,0-.71,3.68h25Q249.08,251.26,246.32,248.23Z" transform="translate(1.35 -0.29)"/><path class="cls-2" d="M307.14,291.12v-7.8h-.33a17.3,17.3,0,0,1-7.58,7,22.31,22.31,0,0,1-9.53,2.17,26.77,26.77,0,0,1-10.13-1.63,14.55,14.55,0,0,1-6.23-4.6,18.11,18.11,0,0,1-3.19-7.26,44.71,44.71,0,0,1-.92-9.48V235.12h15.38v31.63q0,6.93,2.16,10.34t7.69,3.42q6.29,0,9.1-3.74c1.88-2.5,2.82-6.59,2.82-12.3V235.12h15.38v56Z" transform="translate(1.35 -0.29)"/><path class="cls-2" d="M342.66,235.12v10.4h.22a19.39,19.39,0,0,1,7.15-8.61,20.4,20.4,0,0,1,5.09-2.44,18.26,18.26,0,0,1,5.63-.87,12.06,12.06,0,0,1,3.36.54v14.3c-.72-.14-1.59-.27-2.6-.38a27,27,0,0,0-2.92-.16,16.36,16.36,0,0,0-7.15,1.41,12.51,12.51,0,0,0-4.72,3.84,15.45,15.45,0,0,0-2.54,5.69,30.7,30.7,0,0,0-.76,7v25.24H328v-56Z" transform="translate(1.35 -0.29)"/><path class="cls-2" d="M397.25,254.94v13.22h-32.6V254.94Z" transform="translate(1.35 -0.29)"/><path class="cls-2" d="M14.3,364.72A9,9,0,0,0,17,367.65a11.08,11.08,0,0,0,3.74,1.67,17.13,17.13,0,0,0,4.38.55,16.56,16.56,0,0,0,3.41-.38,11.6,11.6,0,0,0,3.26-1.19,7.44,7.44,0,0,0,2.43-2.17,5.69,5.69,0,0,0,1-3.41q0-3.47-4.61-5.2a93.52,93.52,0,0,0-12.83-3.47c-2.24-.5-4.43-1.1-6.56-1.78a22.45,22.45,0,0,1-5.68-2.71,13.17,13.17,0,0,1-4-4.23A11.94,11.94,0,0,1,0,339.11a16.71,16.71,0,0,1,2.12-8.88,15.42,15.42,0,0,1,5.58-5.48,24.65,24.65,0,0,1,7.79-2.82,49.13,49.13,0,0,1,8.88-.81,44.15,44.15,0,0,1,8.83.87,23.5,23.5,0,0,1,7.64,2.92,17.86,17.86,0,0,1,5.58,5.47A18.43,18.43,0,0,1,49,339H34.4q-.33-4.44-3.36-6a15.45,15.45,0,0,0-7.15-1.56,26.08,26.08,0,0,0-2.82.16,9.17,9.17,0,0,0-2.76.7,5.65,5.65,0,0,0-2.11,1.57,4.16,4.16,0,0,0-.87,2.77A4.2,4.2,0,0,0,16.85,340a11.8,11.8,0,0,0,3.95,2.12,52,52,0,0,0,5.58,1.45q3.15.66,6.39,1.41a64.14,64.14,0,0,1,6.56,1.85A21.48,21.48,0,0,1,45,349.67a13.86,13.86,0,0,1,4,4.44,13,13,0,0,1,1.52,6.55,18,18,0,0,1-2.22,9.26,17.78,17.78,0,0,1-5.8,6,23.78,23.78,0,0,1-8.18,3.19,47.91,47.91,0,0,1-9.36.92,45.68,45.68,0,0,1-9.54-1,25,25,0,0,1-8.28-3.24,18.63,18.63,0,0,1-6-6,18.79,18.79,0,0,1-2.55-9.37H13.27A8.5,8.5,0,0,0,14.3,364.72Z" transform="translate(1.35 -0.29)"/><path class="cls-2" d="M69.49,301.3v29.14h.33a17.8,17.8,0,0,1,7.47-7.09,20,20,0,0,1,8.88-2.23A26.12,26.12,0,0,1,96.3,322.8a15.06,15.06,0,0,1,6.23,4.66,18.06,18.06,0,0,1,3.2,7.26,45.4,45.4,0,0,1,.91,9.48v34.44H91.26V347q0-6.93-2.16-10.34c-1.45-2.28-4-3.41-7.7-3.41q-6.27,0-9.09,3.74t-2.82,12.29v29.35H54.11V301.3Z" transform="translate(1.35 -0.29)"/><path class="cls-2" d="M113.35,314V301.3h15.39V314Zm15.39,8.67v56H113.35v-56Z" transform="translate(1.35 -0.29)"/><path class="cls-2" d="M150.08,322.64v7.15h.21a17.06,17.06,0,0,1,7.15-6.61,22,22,0,0,1,9.54-2.06,24.4,24.4,0,0,1,11.37,2.49,23.46,23.46,0,0,1,7.9,6.62,27.69,27.69,0,0,1,4.66,9.58,42.61,42.61,0,0,1,1.52,11.43,38.56,38.56,0,0,1-1.52,10.83,27.57,27.57,0,0,1-4.6,9.21,22.85,22.85,0,0,1-7.69,6.39,23.25,23.25,0,0,1-10.78,2.38,21.83,21.83,0,0,1-9.59-2.11,18.24,18.24,0,0,1-7.2-6.23h-.21v26.54H135.45V322.64Zm20,44.41a12.37,12.37,0,0,0,4.12-3.95,16.39,16.39,0,0,0,2.22-5.69,33.83,33.83,0,0,0,.65-6.61,31.6,31.6,0,0,0-.7-6.6,17.71,17.71,0,0,0-2.34-5.8,13,13,0,0,0-4.16-4.12,11.73,11.73,0,0,0-6.23-1.56,11.94,11.94,0,0,0-6.34,1.56,12.72,12.72,0,0,0-4.12,4.07,17.1,17.1,0,0,0-2.22,5.74,34.39,34.39,0,0,0-.65,6.71,31,31,0,0,0,.71,6.61,17.05,17.05,0,0,0,2.27,5.69,13.12,13.12,0,0,0,16.79,3.95Z" transform="translate(1.35 -0.29)"/></svg>