<?xml version="1.0" encoding="utf-8"?>
<!-- Generator: Adobe Illustrator 24.1.0, SVG Export Plug-In . SVG Version: 6.00 Build 0)  -->
<svg version="1.1" id="Layer_1" xmlns="http://www.w3.org/2000/svg" xmlns:xlink="http://www.w3.org/1999/xlink" x="0px" y="0px"
	 viewBox="0 0 400 400" style="enable-background:new 0 0 400 400;" xml:space="preserve">
<style type="text/css">
	.st0{fill:#009977;}
	.st1{fill:#FFFFFF;}
</style>
<g>
	<rect class="st0" width="400" height="400"/>
</g>
<path class="st1" d="M365.4,159.9h34.3V146h-34.3V159.9z M304.8,184H321v-30.9c0-12,3.8-16.9,12.5-16.9c7.5,0,10.4,4.8,10.4,14.5
	V184h16.2v-36.3c0-14.6-4.3-24.3-21.5-24.3c-6,0-13.1,3.2-17.2,9.8H321v-30.7h-16.2V184z M302.2,145.8c-1-15-13.8-22.3-27.7-22.3
	c-19.2,0-30.1,13.6-30.1,31.9c0,17.7,12,30.2,29.8,30.2c15.5,0,26.3-8.5,28.4-24.2H287c-1,7.2-5.4,12-12.9,12
	c-10.1,0-13.5-10.1-13.5-18.6c0-8.7,3.4-19.2,13.8-19.2c6.7,0,10.9,3.5,12,10.1h15.8V145.8z M247.5,125.1h-16.8l-12.9,40.4h-0.2
	l-13.3-40.4H187l20.7,55.3c1.8,4.7,0,10.5-5.6,11.1c-3.2,0.1-6.4-0.3-9.5-0.6v13.3c3.3,0.3,6.6,0.6,9.9,0.6
	c11.2,0,16.8-3.9,20.3-13.3L247.5,125.1z M136.6,164.9c0.7,15.6,14,20.7,27.7,20.7c13.5,0,26.9-5,26.9-20.5
	c0-10.9-9.2-14.4-18.7-16.5c-9.2-2.2-18.4-3-18.4-8.8c0-4.8,5.4-5.5,9-5.5c5.8,0,10.6,1.7,11.1,8h15.4c-1.3-14.5-13.1-18.8-26-18.8
	c-12.7,0-25.6,3.9-25.6,18.9c0,10.4,9.3,13.7,18.7,15.7c11.6,2.5,18.4,4.2,18.4,9.1c0,5.7-5.9,7.5-10.6,7.5
	c-6.4,0-12.3-2.9-12.4-9.9h-15.5V164.9z M89.9,116.5h13.9c8.3,0,15.7,1.8,15.7,12.2s-7.4,12.2-15.7,12.2H89.9V116.5z M72,184h17.9
	v-29.2h18.8c20.3,0,28.2-12.9,28.2-26.1c0-13.2-7.9-26.1-28.2-26.1H72V184z"/>
<g>
	<path class="st1" d="M142.2,232.6c1.4-3.8,3.4-7,6-9.6s5.7-4.7,9.4-6.1c3.6-1.4,7.7-2.2,12.3-2.2c4.5,0,8.7,0.7,12.3,2.2
		c3.7,1.5,6.8,3.5,9.4,6.1c2.6,2.6,4.6,5.8,6,9.6s2.1,7.9,2.1,12.6c0,4.6-0.7,8.8-2.1,12.5c-1.4,3.7-3.4,6.9-6,9.5s-5.8,4.7-9.4,6.1
		c-3.7,1.4-7.8,2.1-12.3,2.1s-8.6-0.7-12.3-2.1c-3.6-1.4-6.8-3.4-9.4-6.1c-2.6-2.6-4.6-5.8-6-9.5c-1.4-3.7-2.1-7.9-2.1-12.5
		C140,240.5,140.7,236.3,142.2,232.6z M156.6,251.9c0.4,2.2,1.2,4.2,2.3,5.9c1.1,1.7,2.5,3.1,4.3,4.2c1.8,1,4,1.6,6.7,1.6
		s4.9-0.5,6.8-1.6c1.8-1,3.3-2.4,4.4-4.2c1.1-1.7,1.8-3.7,2.3-5.9s0.7-4.4,0.7-6.8c0-2.3-0.2-4.6-0.7-6.8c-0.4-2.2-1.2-4.2-2.3-5.9
		s-2.5-3.1-4.4-4.2c-1.8-1.1-4.1-1.6-6.8-1.6s-4.9,0.5-6.7,1.6s-3.2,2.5-4.3,4.2s-1.8,3.7-2.3,5.9s-0.7,4.5-0.7,6.8
		C155.9,247.4,156.1,249.7,156.6,251.9z"/>
	<path class="st1" d="M220.8,194.2v79.7h-15.9v-79.7H220.8z"/>
	<path class="st1" d="M228,232.6c1.4-3.8,3.4-7,6-9.6s5.7-4.7,9.4-6.1c3.6-1.4,7.7-2.2,12.3-2.2c4.5,0,8.7,0.7,12.3,2.2
		c3.7,1.5,6.8,3.5,9.4,6.1s4.6,5.8,6,9.6s2.1,7.9,2.1,12.6c0,4.6-0.7,8.8-2.1,12.5c-1.4,3.7-3.4,6.9-6,9.5s-5.8,4.7-9.4,6.1
		c-3.7,1.4-7.8,2.1-12.3,2.1c-4.5,0-8.6-0.7-12.3-2.1c-3.6-1.4-6.8-3.4-9.4-6.1c-2.6-2.6-4.6-5.8-6-9.5c-1.4-3.7-2.1-7.9-2.1-12.5
		C225.9,240.5,226.6,236.3,228,232.6z M242.4,251.9c0.4,2.2,1.2,4.2,2.3,5.9c1.1,1.7,2.5,3.1,4.3,4.2c1.8,1,4,1.6,6.7,1.6
		s4.9-0.5,6.8-1.6c1.8-1,3.3-2.4,4.4-4.2c1.1-1.7,1.8-3.7,2.3-5.9s0.7-4.4,0.7-6.8c0-2.3-0.2-4.6-0.7-6.8c-0.4-2.2-1.2-4.2-2.3-5.9
		c-1.1-1.7-2.5-3.1-4.4-4.2c-1.8-1.1-4.1-1.6-6.8-1.6s-4.9,0.5-6.7,1.6s-3.2,2.5-4.3,4.2s-1.8,3.7-2.3,5.9s-0.7,4.5-0.7,6.8
		C241.8,247.4,242,249.7,242.4,251.9z"/>
	<path class="st1" d="M344.9,278.2c-0.6,3-2,5.8-4.1,8.3c-2.1,2.6-5.1,4.7-9.1,6.5c-3.9,1.8-9.2,2.7-15.8,2.7
		c-2.8,0-5.7-0.4-8.7-1.1c-2.9-0.7-5.6-1.8-8-3.3s-4.4-3.4-6-5.8c-1.6-2.3-2.5-5.2-2.7-8.4h15.7c0.7,3,2.2,5,4.4,6.2
		c2.2,1.1,4.7,1.7,7.5,1.7c4.5,0,7.7-1.3,9.8-4c2-2.7,3-6.1,3-10.2v-7.6h-0.2c-1.7,3.1-4.2,5.3-7.3,6.8c-3.2,1.5-6.5,2.2-10,2.2
		c-4.3,0-8-0.8-11.2-2.3c-3.1-1.5-5.7-3.6-7.7-6.3c-2-2.6-3.5-5.7-4.4-9.3c-0.9-3.5-1.4-7.3-1.4-11.2c0-3.7,0.5-7.3,1.6-10.8
		s2.7-6.5,4.7-9.2c2.1-2.6,4.7-4.7,7.8-6.3c3.1-1.6,6.7-2.3,10.7-2.3c3.8,0,7.1,0.7,10,2.1c2.9,1.4,5.3,3.8,7.2,7.1h0.2V216H346v54
		C345.8,272.6,345.5,275.2,344.9,278.2z M323.2,259c1.7-0.9,3.1-2.1,4.2-3.6s2-3.2,2.5-5.1c0.6-1.9,0.8-3.9,0.8-6
		c0-2.4-0.2-4.6-0.7-6.8c-0.4-2.1-1.2-4-2.2-5.6s-2.4-2.9-4.1-3.9s-3.9-1.4-6.5-1.4c-2.2,0-4.2,0.4-5.8,1.3c-1.6,0.9-2.9,2.1-4,3.6
		s-1.9,3.3-2.3,5.2c-0.5,2-0.7,4-0.7,6.2c0,2.1,0.2,4.2,0.6,6.2s1.1,3.9,2.1,5.5c1,1.6,2.3,3,4,4c1.6,1,3.7,1.6,6.1,1.6
		C319.5,260.3,321.5,259.9,323.2,259z"/>
	<path class="st1" d="M374.3,291.1c-3.1,2-7.3,3-12.7,3c-1.6,0-3.3-0.1-4.9-0.2s-3.2-0.2-4.9-0.4v-13.1c1.5,0.1,3,0.3,4.6,0.4
		s3.1,0.2,4.7,0.1c2.1-0.2,3.6-1,4.6-2.5c1-1.4,1.5-3,1.5-4.7c0-1.3-0.2-2.5-0.7-3.6l-20.2-54.2h16.9l13.1,39.5h0.2l12.6-39.5h16.4
		l-24.1,64.9C379.7,285.8,377.4,289.1,374.3,291.1z"/>
</g>
<path class="st1" d="M397.7,386.4h-6v12.2h6V386.4z M337.2,364.9c0.9-12.1,8.9-24.6,22.3-24.6c13.9,0,22,11.8,22.2,24.6H337.2z
	 M386.2,368.8c0.8-17.4-7.7-32.4-26.7-32.4c-18.3,0-27.1,16.2-26.8,32.9c-0.2,16.8,9.1,30.7,26.8,30.7c14.4,0,23.9-7.8,26.2-22h-4.5
	c-2.1,11.2-10.3,18.1-21.7,18.1c-15,0-22.6-13-22.3-27.3L386.2,368.8L386.2,368.8z M281.3,394.1c0.8-10,12.8-17.3,24.5-25.1
	c11.7-7.8,22.9-16.8,22.9-31.1c0-15-11.5-22.3-25.3-22.3c-16,0-24.8,9.5-25.8,29h4.5c0-14.1,7.1-25.1,22-25.1
	c10.6,0,20.1,7.2,20.1,18.3c0,13.7-11.8,21.3-23.6,29.2c-11.9,7.9-24,16.3-24.9,31.6h54.4v-4.5H281.3z"/>
</svg>
