<?xml version="1.0" encoding="utf-8"?>
<!-- Generator: Adobe Illustrator 16.0.0, SVG Export Plug-In . SVG Version: 6.00 Build 0)  -->
<!DOCTYPE svg PUBLIC "-//W3C//DTD SVG 1.1 Tiny//EN" "http://www.w3.org/Graphics/SVG/1.1/DTD/svg11-tiny.dtd">
<svg version="1.1" baseProfile="tiny" id="Layer_1" xmlns="http://www.w3.org/2000/svg" xmlns:xlink="http://www.w3.org/1999/xlink"
	 x="0px" y="0px" width="400px" height="400px" viewBox="0 0 400 400" xml:space="preserve">
<g>
	<rect x="0" fill="#F4D019" width="400" height="400"/>
	<path fill="#232E66" d="M90.346,106.068c1.896-5.048,4.598-9.348,8.1-12.897c3.498-3.549,7.695-6.3,12.597-8.249
		c4.896-1.949,10.399-2.924,16.499-2.924c6.097,0,11.621,0.975,16.572,2.924c4.946,1.949,9.17,4.7,12.672,8.249
		c3.498,3.55,6.198,7.85,8.098,12.897c1.898,5.05,2.853,10.674,2.853,16.872c0,6.2-0.952,11.798-2.853,16.796
		c-1.897,5.001-4.6,9.276-8.098,12.823c-3.502,3.552-7.726,6.276-12.672,8.175c-4.951,1.897-10.478,2.851-16.572,2.851
		c-6.1,0-11.604-0.952-16.499-2.851c-4.899-1.897-9.099-4.623-12.597-8.175c-3.502-3.547-6.201-7.822-8.1-12.823
		c-1.898-4.998-2.852-10.596-2.852-16.796C87.495,116.742,88.446,111.118,90.346,106.068z M109.692,132.014
		c0.6,2.95,1.623,5.601,3.072,7.949c1.449,2.35,3.375,4.225,5.774,5.623c2.397,1.401,5.397,2.102,8.999,2.102
		c3.598,0,6.621-0.699,9.072-2.102c2.446-1.398,4.396-3.273,5.85-5.623c1.447-2.349,2.474-4.999,3.073-7.949
		c0.601-2.947,0.899-5.974,0.899-9.073c0-3.098-0.301-6.149-0.899-9.148c-0.602-2.999-1.626-5.647-3.073-7.948
		c-1.451-2.299-3.401-4.174-5.85-5.625c-2.451-1.447-5.477-2.174-9.072-2.174c-3.602,0-6.602,0.727-8.999,2.174
		c-2.399,1.451-4.325,3.326-5.774,5.625c-1.449,2.301-2.475,4.949-3.072,7.948c-0.601,2.999-0.899,6.051-0.899,9.148
		C108.792,126.04,109.092,129.066,109.692,132.014z"/>
	<path fill="#232E66" d="M208.432,98.045c-3.396,0-6.25,0.775-8.546,2.324c-2.304,1.552-4.176,3.551-5.626,5.999
		c-1.45,2.45-2.474,5.15-3.074,8.099c-0.599,2.95-0.896,5.875-0.896,8.773c0,2.8,0.3,5.649,0.896,8.549
		c0.603,2.9,1.575,5.525,2.927,7.873c1.351,2.351,3.174,4.274,5.474,5.774c2.299,1.499,5.1,2.25,8.399,2.25
		c5.1,0,9.021-1.425,11.771-4.274c2.748-2.85,4.477-6.673,5.174-11.473h20.549c-1.402,10.3-5.396,18.146-11.998,23.547
		c-6.6,5.396-15.051,8.099-25.346,8.099c-5.801,0-11.125-0.976-15.973-2.926c-4.854-1.949-8.978-4.672-12.373-8.174
		c-3.4-3.498-6.051-7.672-7.948-12.521c-1.898-4.849-2.851-10.173-2.851-15.973c0-5.999,0.875-11.572,2.626-16.723
		c1.748-5.148,4.32-9.598,7.724-13.348c3.396-3.749,7.547-6.673,12.447-8.773c4.896-2.1,10.499-3.148,16.795-3.148
		c4.6,0,9.023,0.6,13.273,1.799c4.248,1.2,8.047,3.025,11.396,5.475c3.35,2.451,6.074,5.499,8.176,9.148
		c2.098,3.65,3.301,7.974,3.602,12.973h-20.85C222.779,102.494,217.531,98.045,208.432,98.045z"/>
	<path fill="#232E66" d="M248.881,72.1V54.553h21.297V72.1H248.881z M270.178,84.098v77.535h-21.297V84.098H270.178z"/>
	<path fill="#232E66" d="M322.367,111.542v18.297h-45.145v-18.297H322.367z"/>
	<path fill="#232E66" d="M105.313,173.137v107.082H84.016V173.137H105.313z"/>
	<path fill="#232E66" d="M112.827,224.652c1.896-5.049,4.597-9.351,8.098-12.898c3.499-3.546,7.698-6.298,12.598-8.25
		c4.897-1.947,10.398-2.922,16.5-2.922c6.098,0,11.62,0.975,16.57,2.922c4.949,1.952,9.171,4.704,12.672,8.25
		c3.499,3.551,6.199,7.852,8.101,12.898c1.896,5.052,2.851,10.675,2.851,16.871c0,6.199-0.952,11.801-2.851,16.797
		c-1.899,5-4.602,9.273-8.101,12.822c-3.501,3.551-7.723,6.274-12.672,8.176c-4.95,1.896-10.475,2.848-16.57,2.848
		c-6.102,0-11.603-0.949-16.5-2.848c-4.897-1.899-9.099-4.625-12.598-8.176c-3.501-3.549-6.2-7.822-8.098-12.822
		c-1.9-4.996-2.852-10.598-2.852-16.797C109.977,235.327,110.926,229.704,112.827,224.652z M132.173,250.598
		c0.599,2.951,1.623,5.604,3.074,7.948c1.448,2.351,3.375,4.228,5.774,5.624c2.397,1.402,5.396,2.102,8.997,2.102
		s6.621-0.697,9.072-2.102c2.448-1.396,4.398-3.273,5.852-5.624c1.445-2.347,2.474-4.997,3.071-7.948
		c0.602-2.947,0.901-5.972,0.901-9.072c0-3.1-0.302-6.149-0.901-9.146c-0.6-3.001-1.626-5.65-3.071-7.95
		c-1.451-2.3-3.401-4.173-5.852-5.622c-2.451-1.451-5.474-2.179-9.072-2.179c-3.601,0-6.6,0.728-8.997,2.179
		c-2.399,1.449-4.326,3.322-5.774,5.622c-1.451,2.3-2.476,4.949-3.074,7.95c-0.6,2.996-0.897,6.048-0.897,9.146
		C131.274,244.626,131.574,247.648,132.173,250.598z"/>
	<path fill="#232E66" d="M267.131,285.916c-0.85,3.999-2.676,7.727-5.471,11.173c-2.801,3.449-6.852,6.375-12.15,8.772
		c-5.299,2.4-12.396,3.601-21.295,3.601c-3.801,0-7.674-0.476-11.623-1.423c-3.951-0.954-7.549-2.426-10.799-4.425
		c-3.25-2.003-5.949-4.575-8.099-7.726c-2.149-3.15-3.373-6.926-3.675-11.322h21.147c0.998,3.996,2.947,6.771,5.846,8.32
		c2.9,1.551,6.248,2.326,10.051,2.326c6,0,10.375-1.798,13.121-5.398c2.75-3.601,4.074-8.149,3.979-13.646v-10.198h-0.301
		c-2.305,4.103-5.576,7.122-9.824,9.074c-4.25,1.948-8.727,2.922-13.422,2.922c-5.801,0-10.799-1.021-14.998-3.07
		c-4.199-2.053-7.648-4.853-10.348-8.399c-2.699-3.548-4.675-7.697-5.925-12.449c-1.253-4.747-1.876-9.771-1.876-15.069
		c0-5.002,0.729-9.824,2.176-14.474c1.448-4.647,3.574-8.748,6.375-12.299c2.797-3.546,6.272-6.373,10.424-8.478
		c4.146-2.098,8.924-3.146,14.318-3.146c5.104,0,9.574,0.95,13.426,2.847c3.85,1.901,7.07,5.103,9.674,9.6h0.301v-10.35h20.244
		v72.59C268.406,278.369,267.98,281.917,267.131,285.916z M237.965,260.12c2.299-1.199,4.197-2.797,5.697-4.8
		c1.498-1.996,2.625-4.271,3.375-6.823c0.748-2.552,1.125-5.226,1.125-8.024c0-3.195-0.301-6.223-0.9-9.072
		c-0.6-2.848-1.6-5.369-3-7.57c-1.398-2.2-3.25-3.951-5.549-5.249c-2.303-1.301-5.201-1.952-8.699-1.952
		c-2.998,0-5.574,0.602-7.723,1.803c-2.15,1.198-3.951,2.823-5.4,4.875c-1.447,2.051-2.5,4.398-3.146,7.047
		c-0.652,2.648-0.977,5.427-0.977,8.323c0,2.8,0.275,5.576,0.824,8.325s1.5,5.227,2.852,7.421c1.352,2.2,3.121,4.002,5.322,5.398
		c2.199,1.401,4.947,2.102,8.248,2.102C233.014,261.921,235.66,261.321,237.965,260.12z"/>
	<path fill="#232E66" d="M305.75,303.314c-4.102,2.695-9.799,4.05-17.098,4.05c-2.201,0-4.375-0.075-6.523-0.229
		c-2.152-0.148-4.326-0.324-6.52-0.521v-17.545c2,0.195,4.049,0.396,6.145,0.6c2.1,0.197,4.199,0.248,6.299,0.148
		c2.799-0.299,4.873-1.402,6.229-3.301c1.348-1.899,2.02-3.998,2.02-6.298c0-1.7-0.299-3.301-0.896-4.8l-27.146-72.738h22.646
		l17.549,53.094h0.299l16.945-53.094h22.047l-32.396,87.137C313.049,296.113,309.848,300.613,305.75,303.314z"/>
	<path fill="#232E66" d="M3.617,385.828c1.899-3.85,4.323-7.35,7.272-10.497c2.948-3.149,6.248-6.075,9.899-8.772
		c3.647-2.701,7.373-5.301,11.172-7.801c3.699-2.496,7.351-5.023,10.948-7.57c3.601-2.553,6.824-5.271,9.673-8.176
		c2.851-2.896,5.123-6.072,6.824-9.521c1.7-3.451,2.55-7.374,2.55-11.773c0-3.5-0.7-6.673-2.1-9.523
		c-1.399-2.849-3.274-5.295-5.625-7.349c-2.351-2.05-5.049-3.622-8.1-4.724s-6.273-1.651-9.674-1.651c-4.7,0-8.8,0.828-12.297,2.478
		c-3.501,1.647-6.4,3.897-8.699,6.748c-2.301,2.851-4.025,6.201-5.174,10.047c-1.149,3.854-1.727,8.023-1.727,12.523H2.864
		c0.601-12.599,3.621-21.869,9.072-27.82c5.449-5.945,13.322-8.924,23.623-8.924c4.397,0,8.549,0.58,12.446,1.729
		c3.899,1.146,7.298,2.896,10.199,5.249c2.896,2.351,5.196,5.299,6.896,8.848c1.698,3.55,2.552,7.724,2.552,12.521
		c0,6.101-1.428,11.476-4.274,16.124c-2.85,4.648-6.45,8.874-10.8,12.671c-4.35,3.801-9.049,7.35-14.098,10.649
		c-5.049,3.297-9.799,6.573-14.246,9.821c-4.451,3.25-8.248,6.648-11.398,10.199c-3.148,3.549-4.926,7.478-5.324,11.774h61.789
		v5.696H0.315C0.618,394.003,1.715,389.677,3.617,385.828z"/>
	<path fill="#232E66" d="M144.891,383.354h7.648v15.449h-7.648V383.354z"/>
	<g>
		<path fill="#232E66" d="M61.932,13.011v13.696h-1.82V13.011H61.932z"/>
		<path fill="#232E66" d="M66.244,16.79v1.571h0.039c0.677-1.201,1.751-1.803,3.222-1.803c0.653,0,1.196,0.09,1.631,0.269
			c0.438,0.179,0.786,0.429,1.058,0.748c0.269,0.319,0.454,0.699,0.563,1.143c0.109,0.441,0.163,0.93,0.163,1.466v6.523h-1.632
			v-6.714c0-0.615-0.178-1.101-0.536-1.458c-0.356-0.359-0.85-0.538-1.476-0.538c-0.5,0-0.935,0.077-1.297,0.23
			c-0.364,0.153-0.669,0.371-0.911,0.651c-0.241,0.283-0.426,0.611-0.549,0.988c-0.118,0.379-0.183,0.79-0.183,1.238v5.602h-1.629
			v-9.917L66.244,16.79L66.244,16.79z"/>
		<path fill="#232E66" d="M79.558,16.79v1.438h-1.976v6.157c0,0.193,0.016,0.346,0.047,0.461c0.033,0.115,0.094,0.206,0.184,0.27
			c0.092,0.065,0.216,0.104,0.375,0.124c0.159,0.021,0.367,0.029,0.623,0.029h0.747v1.439h-1.247c-0.422,0-0.781-0.029-1.082-0.088
			c-0.303-0.056-0.546-0.161-0.729-0.316c-0.186-0.152-0.323-0.369-0.415-0.652c-0.088-0.281-0.132-0.65-0.132-1.112v-6.311h-1.688
			V16.79h1.688v-2.974h1.63v2.974H79.558L79.558,16.79z"/>
		<path fill="#232E66" d="M82.819,16.79v2.089h0.039c0.396-0.805,0.883-1.399,1.458-1.782c0.573-0.385,1.305-0.563,2.187-0.538
			v1.727c-0.652,0-1.209,0.09-1.669,0.27c-0.46,0.178-0.831,0.441-1.112,0.787c-0.28,0.344-0.484,0.762-0.613,1.254
			c-0.129,0.494-0.189,1.061-0.189,1.699v4.412h-1.631v-9.917L82.819,16.79L82.819,16.79z"/>
		<path fill="#232E66" d="M87.52,19.715c0.203-0.633,0.512-1.184,0.922-1.649c0.408-0.467,0.912-0.835,1.515-1.104
			c0.601-0.269,1.293-0.403,2.073-0.403c0.791,0,1.484,0.135,2.08,0.403c0.596,0.269,1.098,0.637,1.506,1.104
			c0.409,0.466,0.717,1.017,0.922,1.649c0.203,0.633,0.307,1.314,0.307,2.043c0,0.729-0.104,1.406-0.307,2.033
			c-0.205,0.627-0.513,1.174-0.922,1.641c-0.408,0.467-0.91,0.83-1.506,1.093s-1.289,0.394-2.08,0.394
			c-0.78,0-1.475-0.131-2.073-0.394s-1.104-0.626-1.515-1.093c-0.411-0.467-0.719-1.014-0.922-1.641s-0.307-1.305-0.307-2.033
			C87.213,21.03,87.315,20.348,87.52,19.715z M89.178,23.358c0.16,0.468,0.38,0.858,0.662,1.172c0.281,0.312,0.61,0.552,0.988,0.719
			c0.376,0.167,0.775,0.248,1.199,0.248c0.422,0,0.818-0.081,1.197-0.248c0.375-0.167,0.706-0.405,0.986-0.719
			c0.281-0.313,0.502-0.704,0.662-1.172c0.159-0.467,0.239-0.999,0.239-1.601c0-0.602-0.08-1.135-0.239-1.604
			c-0.16-0.467-0.381-0.859-0.662-1.178c-0.28-0.32-0.611-0.564-0.986-0.729c-0.379-0.167-0.775-0.251-1.197-0.251
			c-0.424,0-0.823,0.084-1.199,0.251c-0.378,0.164-0.707,0.408-0.988,0.729c-0.282,0.318-0.502,0.711-0.662,1.178
			c-0.16,0.469-0.24,1.002-0.24,1.604C88.938,22.359,89.018,22.892,89.178,23.358z"/>
		<path fill="#232E66" d="M106.067,26.707v-1.343h-0.037c-0.271,0.548-0.691,0.945-1.27,1.188c-0.572,0.241-1.207,0.364-1.896,0.364
			c-0.769,0-1.438-0.142-2.004-0.422c-0.57-0.281-1.043-0.66-1.419-1.132c-0.378-0.475-0.663-1.023-0.855-1.649
			c-0.19-0.627-0.286-1.293-0.286-1.996c0-0.703,0.092-1.367,0.277-1.994c0.185-0.627,0.467-1.174,0.844-1.641
			s0.852-0.838,1.42-1.111c0.569-0.276,1.231-0.414,1.985-0.414c0.256,0,0.53,0.025,0.825,0.076c0.295,0.052,0.587,0.138,0.882,0.26
			c0.294,0.122,0.571,0.281,0.834,0.48c0.263,0.198,0.482,0.443,0.663,0.738h0.037v-5.103h1.632v13.696h-1.632V26.707
			L106.067,26.707z M100.208,23.187c0.123,0.44,0.307,0.834,0.557,1.181c0.248,0.346,0.568,0.619,0.958,0.824
			c0.392,0.203,0.851,0.306,1.373,0.306c0.548,0,1.017-0.107,1.399-0.325c0.384-0.218,0.697-0.502,0.938-0.853
			c0.241-0.353,0.421-0.751,0.526-1.2c0.109-0.447,0.163-0.901,0.163-1.361c0-0.485-0.06-0.955-0.172-1.41
			c-0.116-0.453-0.298-0.854-0.547-1.199c-0.249-0.345-0.571-0.623-0.97-0.834c-0.396-0.212-0.876-0.317-1.438-0.317
			c-0.55,0-1.019,0.109-1.399,0.327c-0.383,0.217-0.689,0.504-0.921,0.863c-0.229,0.357-0.396,0.767-0.499,1.227
			c-0.103,0.461-0.152,0.936-0.152,1.42C100.024,22.295,100.086,22.745,100.208,23.187z"/>
		<path fill="#232E66" d="M116.887,26.707v-1.574h-0.039c-0.346,0.615-0.787,1.066-1.32,1.353c-0.537,0.288-1.172,0.433-1.899,0.433
			c-0.652,0-1.195-0.087-1.632-0.259c-0.436-0.174-0.785-0.419-1.053-0.739c-0.271-0.318-0.459-0.7-0.566-1.141
			c-0.109-0.441-0.164-0.931-0.164-1.469V16.79h1.63v6.713c0,0.613,0.181,1.101,0.539,1.458c0.356,0.357,0.851,0.536,1.479,0.536
			c0.499,0,0.929-0.077,1.294-0.229c0.363-0.153,0.669-0.371,0.91-0.652c0.242-0.281,0.427-0.609,0.547-0.988
			c0.123-0.376,0.184-0.788,0.184-1.236v-5.601h1.631v9.917L116.887,26.707L116.887,26.707z"/>
		<path fill="#232E66" d="M126.893,18.515c-0.406-0.344-0.959-0.518-1.646-0.518c-0.589,0-1.081,0.109-1.479,0.327
			c-0.395,0.217-0.711,0.504-0.947,0.863c-0.236,0.357-0.406,0.77-0.51,1.236c-0.104,0.467-0.152,0.951-0.152,1.448
			c0,0.462,0.055,0.909,0.164,1.344c0.106,0.434,0.275,0.822,0.51,1.159c0.229,0.339,0.529,0.611,0.899,0.816
			c0.37,0.203,0.812,0.306,1.321,0.306c0.809,0,1.438-0.211,1.893-0.632c0.452-0.422,0.729-1.017,0.835-1.785h1.669
			c-0.183,1.229-0.639,2.176-1.373,2.84c-0.735,0.666-1.735,0.998-3.002,0.998c-0.754,0-1.422-0.123-2.004-0.364
			c-0.581-0.244-1.068-0.588-1.458-1.036c-0.392-0.447-0.687-0.982-0.884-1.602c-0.195-0.621-0.297-1.303-0.297-2.044
			s0.098-1.435,0.286-2.081c0.192-0.646,0.483-1.208,0.874-1.688c0.392-0.479,0.879-0.856,1.467-1.13
			c0.591-0.276,1.273-0.414,2.055-0.414c0.562,0,1.09,0.068,1.582,0.202c0.49,0.134,0.929,0.343,1.305,0.623
			c0.378,0.282,0.688,0.636,0.93,1.065c0.243,0.429,0.397,0.936,0.462,1.521h-1.688C127.571,19.346,127.303,18.86,126.893,18.515z"
			/>
		<path fill="#232E66" d="M135.631,16.79v1.438h-1.976v6.157c0,0.193,0.016,0.346,0.048,0.461c0.032,0.115,0.094,0.206,0.182,0.27
			c0.091,0.065,0.215,0.104,0.375,0.124c0.16,0.021,0.367,0.029,0.623,0.029h0.748v1.439h-1.247c-0.422,0-0.783-0.029-1.083-0.088
			c-0.302-0.056-0.545-0.161-0.729-0.316c-0.188-0.152-0.324-0.369-0.414-0.652c-0.089-0.281-0.133-0.65-0.133-1.112v-6.311h-1.689
			V16.79h1.689v-2.974h1.63v2.974H135.631L135.631,16.79z"/>
		<path fill="#232E66" d="M137.465,15.005v-1.994h1.632v1.994H137.465z M139.097,16.79v9.917h-1.632V16.79H139.097z"/>
		<path fill="#232E66" d="M141.451,19.715c0.204-0.633,0.511-1.184,0.92-1.649c0.41-0.467,0.914-0.835,1.515-1.104
			c0.604-0.269,1.293-0.403,2.072-0.403c0.793,0,1.487,0.135,2.082,0.403s1.097,0.637,1.505,1.104
			c0.409,0.466,0.718,1.017,0.922,1.649c0.204,0.632,0.309,1.314,0.309,2.043c0,0.729-0.104,1.406-0.309,2.033
			s-0.513,1.174-0.922,1.641c-0.408,0.467-0.91,0.83-1.505,1.093s-1.289,0.394-2.082,0.394c-0.779,0-1.471-0.131-2.072-0.394
			c-0.601-0.263-1.104-0.626-1.515-1.093c-0.409-0.467-0.716-1.014-0.92-1.641s-0.31-1.305-0.31-2.033
			C141.142,21.03,141.247,20.348,141.451,19.715z M143.109,23.358c0.158,0.468,0.38,0.858,0.663,1.172
			c0.278,0.312,0.607,0.552,0.985,0.719c0.376,0.167,0.777,0.248,1.198,0.248c0.424,0,0.822-0.081,1.199-0.248
			s0.707-0.405,0.986-0.719c0.281-0.314,0.5-0.704,0.661-1.172c0.159-0.467,0.239-0.999,0.239-1.601c0-0.602-0.08-1.135-0.239-1.604
			c-0.161-0.467-0.38-0.859-0.661-1.178c-0.279-0.32-0.609-0.564-0.986-0.729c-0.377-0.167-0.775-0.251-1.199-0.251
			c-0.421,0-0.822,0.084-1.198,0.251c-0.378,0.164-0.707,0.408-0.985,0.729c-0.283,0.318-0.505,0.711-0.663,1.178
			c-0.159,0.469-0.239,1.002-0.239,1.604C142.87,22.359,142.95,22.892,143.109,23.358z"/>
		<path fill="#232E66" d="M154.296,16.79v1.571h0.038c0.678-1.201,1.752-1.803,3.223-1.803c0.652,0,1.196,0.09,1.631,0.269
			c0.438,0.179,0.786,0.429,1.057,0.748c0.27,0.319,0.457,0.699,0.563,1.143c0.109,0.441,0.163,0.93,0.163,1.466v6.523h-1.631
			v-6.714c0-0.615-0.179-1.101-0.536-1.458c-0.356-0.359-0.851-0.538-1.477-0.538c-0.499,0-0.934,0.077-1.296,0.23
			c-0.364,0.153-0.667,0.371-0.911,0.651c-0.242,0.283-0.424,0.611-0.547,0.988c-0.121,0.379-0.185,0.79-0.185,1.238v5.602h-1.629
			v-9.917L154.296,16.79L154.296,16.79z"/>
		<path fill="#232E66" d="M172.999,16.79v1.438h-1.977v6.157c0,0.193,0.017,0.346,0.049,0.461c0.03,0.115,0.094,0.206,0.182,0.27
			c0.091,0.065,0.215,0.104,0.376,0.124c0.159,0.021,0.367,0.029,0.622,0.029h0.748v1.439h-1.247c-0.422,0-0.783-0.029-1.082-0.088
			c-0.302-0.056-0.546-0.161-0.729-0.316c-0.187-0.152-0.322-0.369-0.413-0.652c-0.09-0.281-0.135-0.65-0.135-1.112v-6.311h-1.688
			V16.79h1.688v-2.974h1.632v2.974H172.999L172.999,16.79z"/>
		<path fill="#232E66" d="M174.283,19.715c0.204-0.633,0.511-1.184,0.919-1.649c0.411-0.467,0.915-0.835,1.516-1.104
			c0.604-0.269,1.293-0.403,2.073-0.403c0.792,0,1.487,0.135,2.081,0.403s1.097,0.637,1.506,1.104
			c0.408,0.466,0.717,1.017,0.921,1.649c0.204,0.632,0.309,1.314,0.309,2.043c0,0.729-0.104,1.406-0.309,2.033
			s-0.513,1.174-0.921,1.641c-0.409,0.467-0.912,0.83-1.506,1.093s-1.289,0.394-2.081,0.394c-0.78,0-1.472-0.131-2.073-0.394
			c-0.601-0.263-1.104-0.626-1.516-1.093c-0.408-0.467-0.715-1.014-0.919-1.641s-0.309-1.305-0.309-2.033
			C173.975,21.03,174.079,20.348,174.283,19.715z M175.941,23.358c0.159,0.468,0.381,0.858,0.663,1.172
			c0.279,0.312,0.607,0.552,0.985,0.719c0.377,0.167,0.776,0.248,1.199,0.248s0.821-0.081,1.199-0.248
			c0.376-0.167,0.706-0.405,0.985-0.719c0.281-0.314,0.501-0.704,0.66-1.172c0.161-0.467,0.24-0.999,0.24-1.601
			c0-0.602-0.079-1.135-0.24-1.604c-0.159-0.467-0.379-0.859-0.66-1.178c-0.279-0.32-0.609-0.564-0.985-0.729
			c-0.378-0.167-0.776-0.251-1.199-0.251s-0.822,0.084-1.199,0.251c-0.378,0.164-0.706,0.408-0.985,0.729
			c-0.282,0.318-0.504,0.711-0.663,1.178c-0.159,0.469-0.24,1.002-0.24,1.604C175.701,22.359,175.782,22.892,175.941,23.358z"/>
	</g>
	<g>
		<path fill="#232E66" d="M83.327,115.066c-2.549-3.848-5.572-6.922-9.072-9.223c-3.5-2.299-7.025-3.975-10.572-5.025
			c-3.552-1.049-6.324-1.773-8.324-2.174c-6.699-1.699-12.123-3.099-16.272-4.199c-4.147-1.099-7.399-2.199-9.748-3.299
			c-2.351-1.1-3.923-2.3-4.724-3.6c-0.801-1.299-1.198-3-1.198-5.1c0-2.299,0.498-4.199,1.498-5.698c1-1.501,2.272-2.75,3.825-3.751
			c1.55-0.998,3.271-1.698,5.173-2.099c1.899-0.398,3.8-0.601,5.7-0.601c2.898,0,5.572,0.252,8.021,0.75
			c2.45,0.502,4.625,1.35,6.525,2.55c1.896,1.2,3.423,2.85,4.574,4.949c1.146,2.101,1.82,4.75,2.023,7.948H83.55
			c0-6.197-1.175-11.473-3.522-15.822c-2.352-4.349-5.525-7.922-9.521-10.723c-4.001-2.799-8.575-4.822-13.723-6.074
			C51.633,52.626,46.258,52,40.661,52c-4.799,0-9.6,0.651-14.396,1.95c-4.801,1.3-9.101,3.3-12.897,5.999
			c-3.802,2.7-6.877,6.074-9.224,10.123c-2.353,4.05-3.524,8.826-3.524,14.322c0,4.9,0.923,9.074,2.772,12.523
			c1.851,3.449,4.275,6.324,7.273,8.623c3.002,2.302,6.398,4.176,10.2,5.625c3.798,1.449,7.696,2.676,11.698,3.674
			c3.896,1.102,7.746,2.1,11.547,3c3.799,0.898,7.199,1.949,10.197,3.148c2.999,1.199,5.424,2.7,7.273,4.5
			c1.851,1.799,2.773,4.149,2.773,7.048c0,2.699-0.699,4.926-2.101,6.674c-1.399,1.751-3.146,3.127-5.249,4.124
			c-2.1,1.001-4.349,1.677-6.749,2.025c-2.399,0.352-4.649,0.525-6.748,0.525c-3.101,0-6.1-0.375-8.998-1.125
			c-2.901-0.75-5.426-1.898-7.575-3.449c-2.149-1.549-3.875-3.574-5.174-6.075c-1.301-2.497-1.949-5.548-1.949-9.147H0.315v16.468
			c0.104,0.208,0.192,0.424,0.301,0.629c2.498,4.798,5.871,8.75,10.123,11.848c4.248,3.101,9.148,5.376,14.697,6.823
			c5.549,1.448,11.271,2.176,17.172,2.176c7.298,0,13.723-0.853,19.271-2.551c5.551-1.698,10.199-4.071,13.948-7.123
			c3.749-3.05,6.573-6.674,8.474-10.873c1.897-4.2,2.852-8.749,2.852-13.648C87.153,123.841,85.877,118.917,83.327,115.066z"/>
	</g>
	<g>
		<path fill="none" d="M54.083,224.428c-1.45-2.3-3.401-4.173-5.851-5.623c-2.449-1.451-5.474-2.178-9.071-2.178
			c-3.601,0-6.599,0.727-8.999,2.178c-2.398,1.45-4.325,3.323-5.775,5.623c-1.449,2.299-2.474,4.949-3.072,7.95
			c-0.601,2.996-0.899,6.048-0.899,9.146c0,3.104,0.3,6.127,0.899,9.072c0.6,2.952,1.623,5.604,3.072,7.949
			c1.45,2.352,3.377,4.229,5.775,5.624c2.4,1.401,5.398,2.103,8.999,2.103c3.599,0,6.622-0.698,9.071-2.103
			c2.449-1.396,4.399-3.272,5.851-5.624c1.447-2.347,2.475-4.997,3.073-7.949c0.6-2.945,0.9-5.971,0.9-9.072
			c0-3.099-0.303-6.148-0.9-9.146C56.558,229.377,55.531,226.727,54.083,224.428z"/>
		<path fill="#232E66" d="M76.504,224.652c-1.898-5.049-4.602-9.351-8.099-12.898c-3.501-3.546-7.726-6.298-12.673-8.25
			c-4.95-1.947-10.476-2.922-16.571-2.922c-6.101,0-11.601,0.975-16.499,2.922c-4.898,1.952-9.1,4.704-12.598,8.25
			c-3.5,3.551-6.2,7.852-8.099,12.898c-0.85,2.258-1.497,4.634-1.967,7.119v19.483c0.47,2.474,1.117,4.833,1.967,7.063
			c1.897,5,4.599,9.273,8.099,12.822c3.498,3.551,7.697,6.274,12.598,8.176c4.898,1.896,10.398,2.848,16.499,2.848
			c6.097,0,11.621-0.949,16.571-2.848c4.948-1.899,9.172-4.625,12.673-8.176c3.497-3.549,6.198-7.822,8.099-12.822
			c1.898-4.996,2.852-10.598,2.852-16.797C79.354,235.327,78.403,229.704,76.504,224.652z M57.157,250.598
			c-0.601,2.951-1.626,5.604-3.073,7.948c-1.45,2.351-3.401,4.228-5.851,5.624c-2.449,1.402-5.474,2.102-9.071,2.102
			c-3.601,0-6.599-0.697-8.999-2.102c-2.398-1.396-4.325-3.273-5.775-5.624c-1.449-2.347-2.474-4.997-3.072-7.948
			c-0.601-2.947-0.899-5.972-0.899-9.072c0-3.1,0.3-6.149,0.899-9.146c0.6-3.001,1.623-5.65,3.072-7.95
			c1.45-2.3,3.377-4.173,5.775-5.622c2.4-1.451,5.398-2.179,8.999-2.179c3.599,0,6.622,0.728,9.071,2.179
			c2.449,1.449,4.399,3.322,5.851,5.622c1.447,2.3,2.475,4.949,3.073,7.95c0.6,2.996,0.9,6.048,0.9,9.146
			C58.059,244.626,57.756,247.648,57.157,250.598z"/>
	</g>
	<g>
		<path fill="none" d="M125.901,334.236c-2.357-2.852-5.213-5.121-8.571-6.821c-3.359-1.699-7.193-2.551-11.503-2.551
			c-4.612,0-8.672,0.876-12.183,2.626c-3.51,1.748-6.468,4.046-8.87,6.896c-2.407,2.853-4.262,6.177-5.562,9.974
			c-1.303,3.803-2.105,7.701-2.406,11.699h56.54c-0.203-4.199-0.901-8.175-2.104-11.925
			C130.037,340.385,128.256,337.088,125.901,334.236z"/>
		<path fill="#232E66" d="M137.018,343.087c-1.449-4.551-3.574-8.55-6.373-12.001c-2.801-3.445-6.273-6.171-10.424-8.17
			c-4.148-2-8.924-3.001-14.32-3.001c-5.9,0-11.023,1.124-15.373,3.375c-4.35,2.249-7.976,5.249-10.872,9
			c-2.901,3.746-5.077,8.095-6.524,13.045c-1.45,4.948-2.174,10.125-2.174,15.522c0,5.602,0.697,10.824,2.1,15.673
			c1.398,4.851,3.523,9.051,6.375,12.599c2.85,3.549,6.396,6.35,10.646,8.396c2.391,1.152,5.02,1.972,7.869,2.476h14.505
			c5.921-0.974,10.922-3.158,14.97-6.596c5.646-4.8,9.322-11.701,11.023-20.699h-5.7c-1.705,7.201-4.812,12.823-9.323,16.873
			c-4.51,4.05-10.627,6.073-18.346,6.073c-4.713,0-8.851-0.899-12.406-2.697c-3.559-1.803-6.518-4.251-8.871-7.352
			c-2.356-3.1-4.137-6.694-5.338-10.797c-1.205-4.102-1.807-8.398-1.807-12.898v-0.898h62.39c0-0.398,0.024-0.923,0.075-1.576
			c0.05-0.646,0.075-1.224,0.075-1.725C139.193,352.51,138.467,347.637,137.018,343.087z M76.805,356.061
			c0.301-3.998,1.104-7.896,2.406-11.699c1.303-3.797,3.155-7.121,5.562-9.973c2.402-2.853,5.36-5.148,8.871-6.896
			c3.51-1.75,7.567-2.626,12.182-2.626c4.31,0,8.144,0.852,11.503,2.551c3.358,1.7,6.214,3.972,8.571,6.822
			c2.354,2.851,4.136,6.146,5.339,9.896c1.202,3.75,1.9,7.726,2.104,11.927L76.805,356.061L76.805,356.061z"/>
	</g>
</g>
</svg>
