<?xml version="1.0" encoding="utf-8"?>
<!-- Generator: Adobe Illustrator 24.0.3, SVG Export Plug-In . SVG Version: 6.00 Build 0)  -->
<svg version="1.1" id="Layer_1" xmlns="http://www.w3.org/2000/svg" xmlns:xlink="http://www.w3.org/1999/xlink" x="0px" y="0px"
	 viewBox="0 0 400 400" style="enable-background:new 0 0 400 400;" xml:space="preserve">
<style type="text/css">
	.st0{fill:#213469;}
	.st1{fill:#FFCD00;}
</style>
<g>
	<rect class="st0" width="400" height="400"/>
</g>
<g>
	<path class="st1" d="M179.8,21.5c0-2.4,1.4-3.8,3.1-3.8c1.7,0,3.1,1.4,3.1,3.8c0,2.4-1.4,3.8-3.1,3.8
		C181.2,25.2,179.8,23.9,179.8,21.5 M178,21.5c0,2.9,1.7,5.2,4.9,5.2s4.9-2.3,4.9-5.2c0-2.9-1.7-5.2-4.9-5.2S178,18.5,178,21.5
		 M174.8,13.5h-1.6v3h-1.7v1.5h1.7v6.4c0,1.8,0.7,2.2,2.4,2.2h1.3V25H176c-1,0-1.2-0.1-1.2-0.9v-6.2h2v-1.5h-2V13.5z M156.3,26.5
		h1.6v-5.7c0-1.8,1-3.1,3-3.1c1.3,0,2,0.8,2,2v6.8h1.6v-6.6c0-2.1-0.8-3.7-3.4-3.7c-1.4,0-2.6,0.6-3.3,1.8h0v-1.6h-1.5V26.5z
		 M146.4,21.5c0-2.4,1.4-3.8,3.1-3.8s3.1,1.4,3.1,3.8c0,2.4-1.4,3.8-3.1,3.8S146.4,23.9,146.4,21.5 M144.7,21.5
		c0,2.9,1.7,5.2,4.9,5.2c3.2,0,4.9-2.3,4.9-5.2c0-2.9-1.7-5.2-4.9-5.2C146.4,16.2,144.7,18.5,144.7,21.5 M142.7,12.6H141v2h1.6V12.6
		z M141,26.5h1.6v-10H141V26.5z M137.1,13.5h-1.6v3h-1.7v1.5h1.7v6.4c0,1.8,0.7,2.2,2.4,2.2h1.3V25h-0.8c-1,0-1.2-0.1-1.2-0.9v-6.2
		h2v-1.5h-2V13.5z M132.9,19.7c-0.2-2.4-2.1-3.4-4.3-3.4c-3.2,0-4.7,2.4-4.7,5.4c0,3,1.6,5.1,4.7,5.1c2.5,0,4-1.5,4.4-3.9h-1.7
		c-0.2,1.5-1.2,2.4-2.7,2.4c-2.1,0-2.9-1.8-2.9-3.7c0-2,0.7-3.9,3.1-3.9c1.4,0,2.2,0.7,2.5,2H132.9z M122,16.5h-1.6v5.7
		c0,1.8-1,3.1-3,3.1c-1.3,0-2-0.8-2-2v-6.8h-1.6V23c0,2.1,0.8,3.7,3.4,3.7c1.4,0,2.6-0.6,3.3-1.8h0v1.6h1.5V16.5z M103.4,21.5
		c0-2,0.8-3.9,3-3.9c2.3,0,3.2,1.8,3.2,3.8c0,1.9-0.9,3.8-3.1,3.8C104.4,25.2,103.4,23.4,103.4,21.5 M111.2,12.6h-1.6v5.1h0
		c-0.7-1.2-2.2-1.6-3.2-1.6c-3.1,0-4.6,2.4-4.6,5.2s1.5,5.3,4.6,5.3c1.4,0,2.7-0.5,3.2-1.6h0v1.4h1.6V12.6z M92.3,21.5
		c0-2.4,1.4-3.8,3.1-3.8c1.7,0,3.1,1.4,3.1,3.8c0,2.4-1.4,3.8-3.1,3.8C93.7,25.2,92.3,23.9,92.3,21.5 M90.6,21.5
		c0,2.9,1.7,5.2,4.9,5.2s4.9-2.3,4.9-5.2c0-2.9-1.7-5.2-4.9-5.2S90.6,18.5,90.6,21.5 M84.9,26.5h1.6V22c0-2.5,1-4,3.6-4v-1.7
		c-1.8-0.1-2.9,0.7-3.7,2.3h0v-2.1h-1.5V26.5z M81.2,13.5h-1.6v3h-1.7v1.5h1.7v6.4c0,1.8,0.7,2.2,2.4,2.2h1.3V25h-0.8
		c-1,0-1.2-0.1-1.2-0.9v-6.2h2v-1.5h-2V13.5z M68.1,26.5h1.6v-5.7c0-1.8,1-3.1,3-3.1c1.3,0,2,0.8,2,2v6.8h1.6v-6.6
		c0-2.1-0.8-3.7-3.4-3.7c-1.4,0-2.6,0.6-3.3,1.8h0v-1.6h-1.5V26.5z M63.5,26.5h1.8V12.6h-1.8V26.5z"/>
	<path class="st1" d="M350.2,201.3h-21.9L311.6,254h-0.3l-17.4-52.6h-22.6l27.1,72.1c2.4,6.1,0,13.7-7.3,14.4
		c-4.2,0.1-8.3-0.4-12.3-0.7v17.4c4.3,0.4,8.6,0.7,12.9,0.7c14.6,0,21.9-5.1,26.5-17.4L350.2,201.3z M234.1,260.1
		c-12.9,0-17.1-12-17.1-23c0-11.4,5.2-21.9,17.1-21.9c13.7,0,18,11.1,18,23.6C252.1,249.8,246.2,260.1,234.1,260.1 M272.2,201.3
		h-20.1v10.3h-0.3c-5.1-8.9-12.8-12.3-22.9-12.3c-21.6,0-33,18.1-33,38.1c0,21.1,9.8,38.7,32.9,38.7c9.2,0,18.4-3.9,23-11.9h0.3
		v10.1c0.1,11-5.2,19-16.9,19c-7.4,0-13.8-2.7-15.8-10.6h-21c1,17.5,18.7,24.7,33.9,24.7c35.4,0,39.8-21.4,39.8-34V201.3z
		 M135.1,239.8c0-12.3,4.3-24.7,18.6-24.7c14.4,0,18.7,12.3,18.7,24.7c0,12.2-4.3,24.5-18.7,24.5C139.4,264.4,135.1,252,135.1,239.8
		 M114,239.8c0,24.4,15.6,40.4,39.7,40.4c24.2,0,39.8-16.1,39.8-40.4c0-24.5-15.6-40.6-39.8-40.6C129.6,199.3,114,215.3,114,239.8
		 M87.5,278.2h21.1V172.1H87.5V278.2z M23.8,239.8c0-12.3,4.3-24.7,18.6-24.7c14.4,0,18.7,12.3,18.7,24.7c0,12.2-4.3,24.5-18.7,24.5
		C28.1,264.4,23.8,252,23.8,239.8 M2.7,239.8c0,24.4,15.6,40.4,39.7,40.4c24.2,0,39.8-16.1,39.8-40.4c0-24.5-15.6-40.6-39.8-40.6
		C18.3,199.3,2.7,215.3,2.7,239.8"/>
	<path class="st1" d="M280.2,128.8h44.7v-18.1h-44.7V128.8z M272.6,54.1h-21.1v17.4h21.1V54.1z M251.5,160.3h21.1V83.4h-21.1V160.3z
		 M247.5,110.5c-1.3-19.6-18-29.1-36.1-29.1c-25,0-39.2,17.7-39.2,41.6c0,23,15.6,39.4,38.8,39.4c20.2,0,34.3-11.1,37-31.5h-20.4
		c-1.3,9.4-7,15.6-16.8,15.6c-13.2,0-17.5-13.2-17.5-24.2c0-11.3,4.5-25,18-25c8.8,0,14.3,4.6,15.6,13.2H247.5z M111.3,121.9
		c0-12.3,4.3-24.7,18.6-24.7c14.4,0,18.7,12.3,18.7,24.7c0,12.2-4.3,24.5-18.7,24.5C115.6,146.5,111.3,134.1,111.3,121.9
		 M90.2,121.9c0,24.4,15.6,40.4,39.7,40.4c24.2,0,39.8-16.1,39.8-40.4c0-24.5-15.6-40.6-39.8-40.6C105.8,81.3,90.2,97.4,90.2,121.9
		 M0.6,125.1c-0.3,26.2,21.7,37.8,45.2,37.8c28.8,0,44.2-14.6,44.2-34c0-24.1-23.8-29-31.5-30.9C31.8,91,26.7,90,26.7,81.8
		c0-8.9,8.6-12,16.1-12c11.1,0,20.2,3.3,21,16.1h22.6c0-24.5-20.4-34.2-42.5-34.2C24.7,51.6,4.1,62,4.1,83.7
		c0,19.9,15.9,26,31.7,30.2c15.6,4.2,31.5,6.1,31.5,17.5c0,10.9-12.5,13.2-20.7,13.2c-12.5,0-23.5-5.5-23.5-19.6H0.6z"/>
	<g>
		<path class="st1" d="M5.6,362.4c-0.2,4.7,0.4,8.8,1.7,12.6c1.3,3.7,3.2,6.9,5.7,9.4c2.5,2.6,5.6,4.6,9.3,6
			c3.7,1.4,7.8,2.1,12.5,2.1c3.7,0,7.3-0.5,10.8-1.6c3.5-1.1,6.5-2.6,9.2-4.7c2.7-2.1,4.8-4.7,6.4-7.8c1.6-3.1,2.4-6.6,2.4-10.6
			c0-4.8-1-8.7-2.9-11.8c-1.9-3.1-4.5-5.6-7.7-7.3c-3.2-1.7-6.8-2.9-10.8-3.5c-4-0.6-8.1-0.7-12.3-0.4v-4.8c3.7,0.2,7.4,0,11.1-0.5
			c3.7-0.5,7.1-1.6,10.1-3.2c3-1.6,5.4-3.8,7.3-6.6c1.9-2.8,2.8-6.4,2.8-10.8c0-3.5-0.8-6.5-2.4-9.1c-1.6-2.6-3.7-4.7-6.3-6.4
			c-2.6-1.7-5.4-2.9-8.6-3.7c-3.1-0.8-6.2-1.2-9.2-1.2c-4.3,0-8.2,0.7-11.5,2.2c-3.3,1.5-6,3.5-8.2,6c-2.2,2.5-3.8,5.5-5,9
			c-1.2,3.5-1.8,7.3-2,11.5H2.5c0-4.9,0.8-9.5,2.3-13.6c1.5-4.1,3.7-7.6,6.5-10.5c2.8-2.9,6.2-5.2,10.2-6.8c4-1.7,8.4-2.5,13.4-2.5
			c4.1,0,8,0.5,11.8,1.5c3.8,1,7.2,2.5,10.2,4.5c3,2,5.3,4.7,7.2,7.8c1.8,3.2,2.8,7,2.8,11.5c0,3-0.5,5.8-1.4,8.4
			c-0.9,2.6-2.3,4.9-4,7c-1.7,2-3.8,3.7-6.2,5c-2.4,1.3-5.1,2.2-8,2.6v0.3c3.4,0.4,6.4,1.3,9.1,2.8c2.7,1.4,5,3.3,6.9,5.6
			c1.9,2.3,3.3,4.9,4.3,7.8c1,3,1.5,6.1,1.5,9.5c0,4.9-0.9,9.2-2.8,12.9c-1.8,3.7-4.3,6.7-7.4,9.2c-3.1,2.5-6.7,4.3-10.9,5.5
			c-4.2,1.2-8.6,1.8-13.2,1.8c-5.5,0-10.5-0.8-14.9-2.3c-4.4-1.6-8.1-3.8-11.2-6.8c-3.1-3-5.3-6.6-6.8-10.9
			c-1.5-4.3-2.1-9.3-1.8-14.9H5.6z"/>
		<path class="st1" d="M82.3,359v0.9c0,4.4,0.6,8.5,1.7,12.5c1.2,4,2.9,7.5,5.2,10.5s5.2,5.4,8.6,7.1c3.5,1.7,7.5,2.6,12,2.6
			c7.5,0,13.4-2,17.8-5.9c4.4-3.9,7.4-9.4,9-16.3h5.5c-1.7,8.7-5.2,15.4-10.7,20c-5.5,4.7-12.7,7-21.7,7c-5.5,0-10.3-1-14.5-3
			c-4.1-2-7.6-4.7-10.3-8.1c-2.8-3.4-4.8-7.5-6.2-12.2s-2-9.8-2-15.2c0-5.2,0.7-10.2,2.1-15c1.4-4.8,3.5-9,6.3-12.6
			c2.8-3.6,6.3-6.5,10.5-8.7c4.2-2.2,9.2-3.3,14.9-3.3c5.2,0,9.9,0.9,13.9,2.9c4,1.9,7.4,4.6,10.1,7.9c2.7,3.4,4.8,7.2,6.2,11.6
			c1.4,4.4,2.1,9.1,2.1,14.2c0,0.5,0,1-0.1,1.7c0,0.6-0.1,1.2-0.1,1.5H82.3z M137.2,354.2c-0.2-4.1-0.9-7.9-2-11.5
			c-1.2-3.6-2.9-6.8-5.2-9.6c-2.3-2.7-5-5-8.3-6.6c-3.3-1.7-7-2.5-11.1-2.5c-4.5,0-8.4,0.9-11.8,2.6c-3.4,1.7-6.3,3.9-8.6,6.7
			c-2.3,2.8-4.1,6-5.4,9.7c-1.3,3.7-2,7.4-2.3,11.3H137.2z"/>
		<path class="st1" d="M149.9,380.6h7.4v15h-7.4V380.6z"/>
	</g>
</g>
</svg>
