<?xml version="1.0" encoding="UTF-8" standalone="no"?>
<!-- Created with Inkscape (http://www.inkscape.org/) -->

<svg
   xmlns:dc="http://purl.org/dc/elements/1.1/"
   xmlns:cc="http://creativecommons.org/ns#"
   xmlns:rdf="http://www.w3.org/1999/02/22-rdf-syntax-ns#"
   xmlns:svg="http://www.w3.org/2000/svg"
   xmlns="http://www.w3.org/2000/svg"
   xmlns:sodipodi="http://sodipodi.sourceforge.net/DTD/sodipodi-0.dtd"
   xmlns:inkscape="http://www.inkscape.org/namespaces/inkscape"
   id="svg3004"
   version="1.1"
   inkscape:version="0.48.2 r9819"
   width="143.82779"
   height="20.020809"
   xml:space="preserve"
   sodipodi:docname="logo-brand.svg"><metadata
     id="metadata3010"><rdf:RDF><cc:Work
         rdf:about=""><dc:format>image/svg+xml</dc:format><dc:type
           rdf:resource="http://purl.org/dc/dcmitype/StillImage" /></cc:Work></rdf:RDF></metadata><defs
     id="defs3008"><clipPath
       clipPathUnits="userSpaceOnUse"
       id="clipPath3020"><path
         d="M 0,717.656 0,0 l 5155.58,0 0,717.656 -5155.58,0 z"
         id="path3022"
         inkscape:connector-curvature="0" /></clipPath></defs><sodipodi:namedview
     pagecolor="#ffffff"
     bordercolor="#666666"
     borderopacity="1"
     objecttolerance="10"
     gridtolerance="10"
     guidetolerance="10"
     inkscape:pageopacity="0"
     inkscape:pageshadow="2"
     inkscape:window-width="919"
     inkscape:window-height="594"
     id="namedview3006"
     showgrid="false"
     inkscape:zoom="1.1045458"
     inkscape:cx="332.1619"
     inkscape:cy="42.314721"
     inkscape:window-x="4"
     inkscape:window-y="0"
     inkscape:window-maximized="0"
     inkscape:current-layer="g3012"
     fit-margin-top="0"
     fit-margin-left="0"
     fit-margin-right="0"
     fit-margin-bottom="0" /><g
     id="g3012"
     inkscape:groupmode="layer"
     inkscape:label="ink_ext_XXXXXX"
     transform="matrix(1.25,0,0,-1.25,-0.1156889,21.783725)"><g
       id="g3014"
       transform="matrix(0.022318,0,0,0.022318,0.09255112,1.4103334)"><g
         id="g3016"><g
           id="g3018"
           clip-path="url(#clipPath3020)"><path
             d="M 948.938,145.176 1099.63,473.84 7.86719,507.91 10.7734,496.723 948.938,145.176"
             style="fill:#565353;fill-opacity:1;fill-rule:nonzero;stroke:none"
             id="path3024"
             inkscape:connector-curvature="0" /><path
             d="M 1062.98,195.781 10.0117,499.684 12.0938,491.637 970.828,0 1062.98,195.781"
             style="fill:#f0cf0d;fill-opacity:1;fill-rule:nonzero;stroke:none"
             id="path3026"
             inkscape:connector-curvature="0" /><path
             d="M 537.168,332.012 10.082,499.293 12.4258,489.879 487.289,219.648 537.168,332.012"
             style="fill:#232e63;fill-opacity:1;fill-rule:nonzero;stroke:none"
             id="path3028"
             inkscape:connector-curvature="0" /><path
             d="M 1020.04,711.91 6.19141,514.266 7.86719,507.91 1099.63,473.84 1020.04,711.91"
             style="fill:#68ba43;fill-opacity:1;fill-rule:nonzero;stroke:none"
             id="path3030"
             inkscape:connector-curvature="0" /><path
             d="M 1020.04,711.91 6.19141,514.266 7.86719,507.91 1099.63,473.84 1020.04,711.91 z"
             style="fill:none;stroke:#6bb62f;stroke-width:10;stroke-linecap:butt;stroke-linejoin:miter;stroke-miterlimit:10;stroke-opacity:1;stroke-dasharray:none"
             id="path3032"
             inkscape:connector-curvature="0" /><path
             d="M 1252.08,17.2656 1135.66,365.961 8.59766,505.117 10.9023,496.25 1252.08,17.2656"
             style="fill:#f36035;fill-opacity:1;fill-rule:nonzero;stroke:none"
             id="path3034"
             inkscape:connector-curvature="0" /><path
             d="m 5079.39,478.102 17.73,0 20.63,-52.633 20.74,52.633 17.09,0 0,-69.336 -11.1,0 0,58.207 -0.31,0 -22.86,-58.207 -7.56,0 -22.91,58.207 -0.3,0 0,-58.207 -11.15,0 0,69.336 z m -46.88,-11.129 -21.86,0 0,11.129 54.79,0 0,-11.129 -21.9,0 0,-58.207 -11.03,0 0,58.207"
             style="fill:#56595e;fill-opacity:1;fill-rule:nonzero;stroke:none"
             id="path3036"
             inkscape:connector-curvature="0" /><path
             d="m 1617.11,256.387 c 57.68,0 93.44,43.398 93.44,96.527 0,53.086 -35.76,96.473 -93.44,96.473 -57.69,0 -93.42,-43.387 -93.42,-96.473 0,-53.129 35.73,-96.527 93.42,-96.527 z m 0,220.566 c 72.48,0 124.09,-52.055 124.09,-124.039 0,-71.996 -51.61,-124.086 -124.09,-124.086 -72.51,0 -124.06,52.09 -124.06,124.086 0,71.984 51.55,124.039 124.06,124.039"
             style="fill:#565353;fill-opacity:1;fill-rule:nonzero;stroke:none"
             id="path3038"
             inkscape:connector-curvature="0" /><path
             d="m 1928.99,256.387 c 57.71,0 93.43,43.398 93.43,96.527 0,53.086 -35.72,96.473 -93.43,96.473 -55.63,0 -98.53,-43.387 -98.53,-96.473 0,-53.129 42.9,-96.527 98.53,-96.527 z m -126.12,214.453 30.67,0 0,-41.363 1.01,0 c 18.89,32.679 59.2,47.476 94.44,47.476 72.52,0 124.06,-52.055 124.06,-124.039 0,-71.996 -51.54,-124.086 -124.06,-124.086 -35.24,0 -75.55,14.805 -94.44,47.5 l -1.01,0 0,-157.754 -30.67,0 0,352.266"
             style="fill:#565353;fill-opacity:1;fill-rule:nonzero;stroke:none"
             id="path3040"
             inkscape:connector-curvature="0" /><path
             d="m 2306.21,372.809 c 0,41.855 -36.25,76.578 -81.68,76.578 -66.91,0 -85.79,-64.305 -85.79,-76.578 l 167.47,0 z m 23.47,-93.454 c -24,-35.722 -60.25,-50.527 -102.07,-50.527 -72.01,0 -119.51,51.563 -119.51,124.574 0,70.461 49.04,123.551 117.94,123.551 72.51,0 110.79,-55.629 110.79,-110.269 l 0,-21.45 -198.09,0 c 0,-25.527 17.88,-88.847 89.34,-88.847 31.15,0 63.83,16.347 79.12,41.875 l 22.48,-18.907"
             style="fill:#565353;fill-opacity:1;fill-rule:nonzero;stroke:none"
             id="path3042"
             inkscape:connector-curvature="0" /><path
             d="m 2405.17,404.469 c 0,17.343 -2.5,54.125 -2.5,66.371 l 30.59,0 c 0.52,-17.363 1.01,-36.781 2.03,-41.363 l 1.52,0 c 12.27,26.031 42.38,47.476 80.72,47.476 73.5,0 89.83,-50.035 89.83,-101.586 l 0,-140.406 -30.63,0 0,138.883 c 0,38.269 -10.74,75.543 -59.2,75.543 -45.46,0 -81.71,-31.649 -81.71,-96.473 l 0,-117.953 -30.65,0 0,169.508"
             style="fill:#565353;fill-opacity:1;fill-rule:nonzero;stroke:none"
             id="path3044"
             inkscape:connector-curvature="0" /><path
             d="m 2813.55,412.113 c -11.7,16.348 -27.01,25.032 -47.99,25.032 -16.35,0 -35.7,-7.668 -35.7,-26.036 0,-43.898 132.21,-8.175 132.21,-103.648 0,-58.203 -55.61,-78.633 -105.67,-78.633 -37.81,0 -70.47,9.727 -95.47,37.754 l 40.82,38.34 c 15.82,-17.363 32.19,-30.137 58.19,-30.137 17.91,0 40.89,8.692 40.89,28.086 0,50.531 -132.26,10.723 -132.26,104.145 0,54.644 49,79.121 98.55,79.121 32.66,0 67.39,-10.168 87.33,-37.258 l -40.9,-36.766"
             style="fill:#565353;fill-opacity:1;fill-rule:nonzero;stroke:none"
             id="path3046"
             inkscape:connector-curvature="0" /><path
             d="m 2880.93,427.953 0,52.067 50.53,0 0,70.972 61.27,0 0,-70.972 67.42,0 0,-52.067 -67.42,0 0,-107.23 c 0,-24.512 7.13,-39.805 34.22,-39.805 10.72,0 25.53,2.031 33.2,7.656 l 0,-51.582 c -12.79,-6.113 -34.28,-8.164 -48.57,-8.164 -64.79,0 -80.12,29.121 -80.12,86.817 l 0,112.308 -50.53,0"
             style="fill:#565353;fill-opacity:1;fill-rule:nonzero;stroke:none"
             id="path3048"
             inkscape:connector-curvature="0" /><path
             d="m 3257.69,344.727 -12.79,0 c -33.73,0 -91.92,-2.559 -91.92,-37.774 0,-22.461 23.01,-32.168 42.91,-32.168 41.84,0 61.8,21.953 61.8,56.153 l 0,13.789 z m 3.54,-76.075 -1.53,0 c -17.34,-27.539 -45.95,-39.824 -78.63,-39.824 -45.43,0 -89.32,25.02 -89.32,73.535 0,79.664 92.91,85.239 154.14,85.239 l 15.34,0 0,6.652 c 0,30.125 -23.5,45.945 -56.16,45.945 -25.54,0 -48.98,-10.195 -65.33,-25.535 l -32.19,32.168 c 27.05,27.582 65.37,39.305 104.16,39.305 104.69,0 104.69,-75.547 104.69,-110.254 l 0,-140.922 -55.17,0 0,33.691"
             style="fill:#565353;fill-opacity:1;fill-rule:nonzero;stroke:none"
             id="path3050"
             inkscape:connector-curvature="0" /><path
             d="m 3445.48,366.684 -84.78,113.336 74.55,0 49.06,-73.493 53.07,73.493 69.92,0 -83.69,-113.336 98.49,-131.723 -74.53,0 -63.82,87.812 -64.34,-87.812 -72.46,0 98.53,131.723"
             style="fill:#565353;fill-opacity:1;fill-rule:nonzero;stroke:none"
             id="path3052"
             inkscape:connector-curvature="0" /><path
             d="m 3803.78,479.906 0,-26.953 80.94,0 0,-217.894 29.06,0 0,217.894 80.88,0 0,26.953 -190.88,0"
             style="fill:#4f5558;fill-opacity:1;fill-rule:nonzero;stroke:none"
             id="path3054"
             inkscape:connector-curvature="0" /><path
             d="m 4233.65,328.457 c 0,-53.281 -24.92,-99.629 -92.37,-99.629 -67.42,0 -92.36,46.348 -92.36,99.629 l 0,151.484 29.08,0 0,-147.343 c 0,-39.434 14.53,-76.797 63.28,-76.797 48.77,0 63.3,37.363 63.3,76.797 l 0,147.343 29.07,0 0,-151.484"
             style="fill:#4f5558;fill-opacity:1;fill-rule:nonzero;stroke:none"
             id="path3056"
             inkscape:connector-curvature="0" /><path
             d="m 4279.76,479.906 0,-26.953 80.94,0 0,-217.894 29.06,0 0,217.894 80.92,0 0,26.953 -190.92,0"
             style="fill:#4f5558;fill-opacity:1;fill-rule:nonzero;stroke:none"
             id="path3058"
             inkscape:connector-curvature="0" /><path
             d="m 4492.67,357.484 c 0,74.004 53.69,128.696 128.05,128.696 74.37,0 127.93,-54.692 127.93,-128.696 0,-74.007 -53.56,-128.656 -127.93,-128.656 -74.36,0 -128.05,54.649 -128.05,128.656 m 224.84,0 c 0,56.418 -39.43,101.715 -96.79,101.715 -57.48,0 -96.88,-45.297 -96.88,-101.715 0,-56.371 39.4,-101.683 96.88,-101.683 57.36,0 96.79,45.312 96.79,101.683"
             style="fill:#4f5558;fill-opacity:1;fill-rule:nonzero;stroke:none"
             id="path3060"
             inkscape:connector-curvature="0" /><path
             d="m 4808.39,479.941 62.54,0 c 47.42,0 97.54,-6.898 97.54,-67.437 0,-35.664 -23.14,-58.809 -61.25,-64.668 l 69.61,-112.777 -35.66,0 -66.43,109.941 -37.32,0 0,-109.941 -29.03,0 0,244.882 z m 29.03,-107.945 25.91,0 c 32.17,0 74.03,0 74.03,40.508 0,35.254 -30.8,40.449 -59.16,40.449 l -40.78,0 0,-80.957"
             style="fill:#4f5558;fill-opacity:1;fill-rule:nonzero;stroke:none"
             id="path3062"
             inkscape:connector-curvature="0" /></g></g></g></g></svg>
