<svg xmlns="http://www.w3.org/2000/svg" viewBox="0 0 94.15 51.62"><defs><style>.cls-1{fill:#222e65;}.cls-2{fill:none;}.cls-3{fill:#15c0dc;}</style></defs><title>Asset 8</title><g id="Layer_2" data-name="Layer 2"><g id="Layer_1-2" data-name="Layer 1"><path class="cls-1" d="M88,0H6.12A6.12,6.12,0,0,0,0,6.12V45.5a6.12,6.12,0,0,0,6.12,6.12H88a6.12,6.12,0,0,0,6.12-6.12V6.12A6.12,6.12,0,0,0,88,0Zm1.59,44.44A2.63,2.63,0,0,1,87,47.07H7.16a2.63,2.63,0,0,1-2.63-2.63V7.18A2.63,2.63,0,0,1,7.16,4.55H87a2.63,2.63,0,0,1,2.63,2.63Z"/><rect class="cls-2" x="4.53" y="4.55" width="85.09" height="42.52" rx="2.63" ry="2.63"/><path class="cls-3" d="M60.74,19.1a2,2,0,0,0-2.05,1.54,16.48,16.48,0,0,0-.5,4.74,16.67,16.67,0,0,0,.5,4.67,2,2,0,0,0,2.05,1.62,2,2,0,0,0,2-1.62,17.24,17.24,0,0,0,.48-4.67,17.05,17.05,0,0,0-.48-4.74A2,2,0,0,0,60.74,19.1Z"/><path class="cls-3" d="M33.22,27v4.77a3.06,3.06,0,0,0,1.39-.44,2.26,2.26,0,0,0,.76-1.94,2.07,2.07,0,0,0-.71-1.66A5.15,5.15,0,0,0,33.22,27Z"/><path class="cls-3" d="M29.95,21.07a2,2,0,0,0,.77,1.62A4.35,4.35,0,0,0,32,23.3V19a2.14,2.14,0,0,0-1.57.57A2.07,2.07,0,0,0,29.95,21.07Z"/><path class="cls-3" d="M77.68,8.33H15.62a9.74,9.74,0,0,1-7.38,8.92V35.09a9.74,9.74,0,0,1,7.32,8.2H77.74A9.75,9.75,0,0,1,85.59,35V17.38A9.74,9.74,0,0,1,77.68,8.33ZM36.49,33.49a7.17,7.17,0,0,1-3.27,1v2.45H32V34.52a8.32,8.32,0,0,1-3.59-1q-2.09-1.4-2.05-4.79h3.3a6,6,0,0,0,.48,2.06A2.51,2.51,0,0,0,32,31.81V26.6l-1-.29a6.32,6.32,0,0,1-3.29-1.9,4.62,4.62,0,0,1-1-2.94,5.5,5.5,0,0,1,.37-2.06,4.72,4.72,0,0,1,1-1.6,4.67,4.67,0,0,1,1.93-1.2A8.87,8.87,0,0,1,32,16.29V14.67h1.18v1.65a6.08,6.08,0,0,1,3.11,1,4.8,4.8,0,0,1,2.13,4.24H35.24a4.42,4.42,0,0,0-.36-1.59,1.88,1.88,0,0,0-1.66-1v4.65a15.26,15.26,0,0,1,3.89,1.77A4.32,4.32,0,0,1,38.75,29,4.85,4.85,0,0,1,36.49,33.49Zm13.1.56H46V21.85H41.86V19.48a15.34,15.34,0,0,0,2.3-.22,3.24,3.24,0,0,0,1.71-.93,3.06,3.06,0,0,0,.68-1.27,2.89,2.89,0,0,0,.13-.71h2.91Zm15.9-1.93q-1.36,2.37-4.74,2.37T56,32.13a13.7,13.7,0,0,1-1.36-6.75A13.78,13.78,0,0,1,56,18.61q1.36-2.38,4.74-2.38t4.74,2.38a13.76,13.76,0,0,1,1.36,6.76A13.69,13.69,0,0,1,65.48,32.13Z"/></g></g></svg>