<svg xmlns="http://www.w3.org/2000/svg" xmlns:xlink="http://www.w3.org/1999/xlink" viewBox="0 0 105.83 59.38"><defs><style>.cls-1,.cls-2,.cls-5{fill:none;}.cls-2{clip-rule:evenodd;}.cls-3{clip-path:url(#clip-path);}.cls-4{clip-path:url(#clip-path-2);}.cls-5{stroke:#222e65;stroke-miterlimit:10;stroke-width:6px;}.cls-6{clip-path:url(#clip-path-3);}.cls-7{clip-path:url(#clip-path-5);}.cls-8{clip-path:url(#clip-path-6);}.cls-9{clip-path:url(#clip-path-7);}.cls-10{clip-path:url(#clip-path-8);}.cls-11{fill:#fcbd3e;}.cls-12{clip-path:url(#clip-path-9);}.cls-13{clip-path:url(#clip-path-10);}.cls-14{fill:#18c0dc;}.cls-15{clip-path:url(#clip-path-11);}.cls-16{clip-path:url(#clip-path-12);}.cls-17{clip-path:url(#clip-path-13);}.cls-18{clip-path:url(#clip-path-14);}.cls-19{clip-path:url(#clip-path-15);}.cls-20{clip-path:url(#clip-path-17);}.cls-21{clip-path:url(#clip-path-19);}.cls-22{clip-path:url(#clip-path-21);}.cls-23{clip-path:url(#clip-path-23);}.cls-24{clip-path:url(#clip-path-25);}.cls-25{clip-path:url(#clip-path-26);}.cls-26{clip-path:url(#clip-path-27);}.cls-27{clip-path:url(#clip-path-29);}.cls-28{clip-path:url(#clip-path-31);}</style><clipPath id="clip-path"><circle class="cls-1" cx="13.41" cy="18.14" r="6.81"/></clipPath><clipPath id="clip-path-2"><rect class="cls-1" x="3" y="3.08" width="103" height="55"/></clipPath><clipPath id="clip-path-3"><path class="cls-2" d="M17.58,25.32a7.21,7.21,0,0,1-8.33,0A7.51,7.51,0,0,0,3,32.7v13A2.32,2.32,0,0,0,5.32,48H21.5a2.32,2.32,0,0,0,2.32-2.32v-13A7.51,7.51,0,0,0,17.58,25.32Z"/></clipPath><clipPath id="clip-path-5"><circle class="cls-1" cx="40.94" cy="12.87" r="9.87"/></clipPath><clipPath id="clip-path-6"><rect class="cls-1" x="2.92" y="3" width="103" height="55"/></clipPath><clipPath id="clip-path-7"><circle class="cls-1" cx="40.94" cy="12.87" r="4.85"/></clipPath><clipPath id="clip-path-8"><rect class="cls-1" x="3.08" y="3.16" width="103" height="55"/></clipPath><clipPath id="clip-path-9"><circle class="cls-1" cx="68.66" cy="18.13" r="2.43"/></clipPath><clipPath id="clip-path-10"><rect class="cls-1" x="3.13" y="3.08" width="103" height="55"/></clipPath><clipPath id="clip-path-11"><path class="cls-2" d="M41.13,25.38a10.53,10.53,0,0,1-6-1.92A11.1,11.1,0,0,0,26,34.16v19.9a2.32,2.32,0,0,0,2.32,2.32H53.9a2.32,2.32,0,0,0,2.32-2.32V34.16a10.88,10.88,0,0,0-9.05-10.69A9.34,9.34,0,0,1,41.13,25.38Z"/></clipPath><clipPath id="clip-path-12"><rect class="cls-1" x="2.74" y="3.08" width="103" height="55"/></clipPath><clipPath id="clip-path-13"><path class="cls-2" d="M41.13,31.5a6.77,6.77,0,0,1-3.88-1.23,7.14,7.14,0,0,0-5.83,6.88v12.8a1.49,1.49,0,0,0,1.49,1.49H49.34a1.49,1.49,0,0,0,1.49-1.49V37.14A7,7,0,0,0,45,30.26,6,6,0,0,1,41.13,31.5Z"/></clipPath><clipPath id="clip-path-14"><rect class="cls-1" x="3.26" y="3.08" width="103" height="55"/></clipPath><clipPath id="clip-path-15"><path class="cls-2" d="M68.43,31.9a3.65,3.65,0,0,1-2.09-.66,3.85,3.85,0,0,0-3.14,3.71v6.9a.8.8,0,0,0,.8.8h8.85a.8.8,0,0,0,.8-.8v-6.9a3.77,3.77,0,0,0-3.14-3.71A3.24,3.24,0,0,1,68.43,31.9Z"/></clipPath><clipPath id="clip-path-17"><circle class="cls-1" cx="92.48" cy="18.13" r="2.43"/></clipPath><clipPath id="clip-path-19"><path class="cls-2" d="M92.37,31.9a3.65,3.65,0,0,1-2.09-.66,3.85,3.85,0,0,0-3.14,3.71v6.9a.8.8,0,0,0,.8.8H96.8a.8.8,0,0,0,.8-.8v-6.9a3.77,3.77,0,0,0-3.14-3.71A3.24,3.24,0,0,1,92.37,31.9Z"/></clipPath><clipPath id="clip-path-21"><circle class="cls-1" cx="13.52" cy="18.13" r="2.43"/></clipPath><clipPath id="clip-path-23"><path class="cls-2" d="M13.41,31.9a3.65,3.65,0,0,1-2.09-.66,3.85,3.85,0,0,0-3.14,3.71v6.9a.8.8,0,0,0,.8.8h8.85a.8.8,0,0,0,.8-.8v-6.9a3.77,3.77,0,0,0-3.14-3.71A3.24,3.24,0,0,1,13.41,31.9Z"/></clipPath><clipPath id="clip-path-25"><circle class="cls-1" cx="68.66" cy="18.13" r="6.81"/></clipPath><clipPath id="clip-path-26"><rect class="cls-1" x="2.87" y="3.08" width="103" height="55"/></clipPath><clipPath id="clip-path-27"><path class="cls-2" d="M73,25.32a6.45,6.45,0,0,1-4.17,1.32,7.27,7.27,0,0,1-4.17-1.32,7.66,7.66,0,0,0-6.25,7.38v13A2.32,2.32,0,0,0,60.69,48H76.88a2.32,2.32,0,0,0,2.32-2.32v-13A7.51,7.51,0,0,0,73,25.32Z"/></clipPath><clipPath id="clip-path-29"><circle class="cls-1" cx="92.37" cy="18.14" r="6.81"/></clipPath><clipPath id="clip-path-31"><path class="cls-2" d="M92.38,26.64a7.65,7.65,0,0,1-4.17-1.32,7.66,7.66,0,0,0-6.28,7.38v13A2.32,2.32,0,0,0,84.26,48h16.25a2.32,2.32,0,0,0,2.32-2.32v-13a7.51,7.51,0,0,0-6.3-7.38A6.45,6.45,0,0,1,92.38,26.64Z"/></clipPath></defs><title>Asset 17</title><g id="Layer_2" data-name="Layer 2"><g id="Layer_1-2" data-name="Layer 1"><g class="cls-3"><g class="cls-4"><circle class="cls-5" cx="13.41" cy="18.14" r="6.81"/></g></g><g class="cls-6"><g class="cls-4"><path class="cls-5" d="M17.58,25.32a7.21,7.21,0,0,1-8.33,0A7.51,7.51,0,0,0,3,32.7v13A2.32,2.32,0,0,0,5.32,48H21.5a2.32,2.32,0,0,0,2.32-2.32v-13A7.51,7.51,0,0,0,17.58,25.32Z"/></g></g><g class="cls-7"><g class="cls-8"><circle class="cls-5" cx="40.94" cy="12.87" r="9.87"/></g></g><g class="cls-9"><g class="cls-10"><rect class="cls-11" x="31.09" y="3.01" width="19.71" height="19.71"/></g></g><g class="cls-12"><g class="cls-13"><rect class="cls-14" x="61.23" y="10.7" width="14.85" height="14.85"/></g></g><g class="cls-15"><g class="cls-16"><path class="cls-5" d="M41.13,25.38a10.53,10.53,0,0,1-6-1.92A11.1,11.1,0,0,0,26,34.16v19.9a2.32,2.32,0,0,0,2.32,2.32H53.9a2.32,2.32,0,0,0,2.32-2.32V34.16a10.88,10.88,0,0,0-9.05-10.69A9.34,9.34,0,0,1,41.13,25.38Z"/></g></g><g class="cls-17"><g class="cls-18"><rect class="cls-11" x="26.42" y="25.26" width="29.42" height="31.17"/></g></g><g class="cls-19"><g class="cls-4"><rect class="cls-14" x="58.19" y="26.23" width="20.46" height="21.41"/></g></g><g class="cls-20"><g class="cls-4"><rect class="cls-14" x="85.05" y="10.7" width="14.85" height="14.85"/></g></g><g class="cls-21"><g class="cls-4"><rect class="cls-14" x="82.14" y="26.23" width="20.46" height="21.41"/></g></g><g class="cls-22"><g class="cls-4"><rect class="cls-14" x="6.09" y="10.7" width="14.85" height="14.85"/></g></g><g class="cls-23"><g class="cls-4"><rect class="cls-14" x="3.18" y="26.23" width="20.46" height="21.41"/></g></g><g class="cls-24"><g class="cls-25"><circle class="cls-5" cx="68.66" cy="18.13" r="6.81"/></g></g><g class="cls-26"><g class="cls-4"><path class="cls-5" d="M73,25.32a6.45,6.45,0,0,1-4.17,1.32,7.27,7.27,0,0,1-4.17-1.32,7.66,7.66,0,0,0-6.25,7.38v13A2.32,2.32,0,0,0,60.69,48H76.88a2.32,2.32,0,0,0,2.32-2.32v-13A7.51,7.51,0,0,0,73,25.32Z"/></g></g><g class="cls-27"><g class="cls-4"><circle class="cls-5" cx="92.37" cy="18.14" r="6.81"/></g></g><g class="cls-28"><g class="cls-4"><path class="cls-5" d="M92.38,26.64a7.65,7.65,0,0,1-4.17-1.32,7.66,7.66,0,0,0-6.28,7.38v13A2.32,2.32,0,0,0,84.26,48h16.25a2.32,2.32,0,0,0,2.32-2.32v-13a7.51,7.51,0,0,0-6.3-7.38A6.45,6.45,0,0,1,92.38,26.64Z"/></g></g></g></g></svg>