<svg xmlns="http://www.w3.org/2000/svg" viewBox="0 0 99.71 53.53"><defs><style>.cls-1,.cls-4{fill:#222e65;}.cls-2{fill:#15c0dc;}.cls-3{fill:#fbbd3c;}.cls-4{fill-rule:evenodd;}</style></defs><title>Asset 41</title><g id="Layer_2" data-name="Layer 2"><g id="Layer_1-2" data-name="Layer 1"><path class="cls-1" d="M15,25.44a4.5,4.5,0,0,1,2.8,4.16V41.93H3V29.6a4.5,4.5,0,0,1,2.8-4.16,10.22,10.22,0,0,0,9.22,0m-.44-3.23a7.21,7.21,0,0,1-8.33,0A7.51,7.51,0,0,0,0,29.59v13a2.32,2.32,0,0,0,2.32,2.32H18.5a2.32,2.32,0,0,0,2.32-2.32v-13a7.51,7.51,0,0,0-6.25-7.38Z"/><path class="cls-1" d="M44.2,24c2.45.87,5.79,3.5,5.79,7.17V50.53H25.81V31.2c0-3.67,3.33-6.3,5.79-7.17a14.08,14.08,0,0,0,6.3,1.6A14.08,14.08,0,0,0,44.2,24m-.46-3.22a10.93,10.93,0,0,1-5.84,1.82,10.93,10.93,0,0,1-5.84-1.82c-3.6.62-9.25,4.42-9.25,10.39v20a2.32,2.32,0,0,0,2.32,2.32H50.67A2.32,2.32,0,0,0,53,51.21v-20c0-6-5.65-9.77-9.25-10.39Z"/><path class="cls-1" d="M10.41,11.32A3.71,3.71,0,1,1,6.71,15a3.71,3.71,0,0,1,3.71-3.71m0-3A6.71,6.71,0,1,0,17.12,15a6.71,6.71,0,0,0-6.71-6.71Z"/><circle class="cls-2" cx="10.41" cy="15.02" r="1.8"/><circle class="cls-2" cx="65.73" cy="15.02" r="1.8"/><circle class="cls-2" cx="89.3" cy="15.02" r="1.8"/><path class="cls-1" d="M70.35,25.44a4.5,4.5,0,0,1,2.8,4.16V41.93H58.32V29.6a4.5,4.5,0,0,1,2.8-4.16,10.22,10.22,0,0,0,9.22,0m-.44-3.23a7.21,7.21,0,0,1-8.33,0,7.51,7.51,0,0,0-6.25,7.38v13a2.32,2.32,0,0,0,2.32,2.32H73.83a2.32,2.32,0,0,0,2.32-2.32v-13a7.51,7.51,0,0,0-6.25-7.38Z"/><path class="cls-1" d="M65.73,11.32A3.71,3.71,0,1,1,62,15a3.71,3.71,0,0,1,3.71-3.71m0-3A6.71,6.71,0,1,0,72.44,15a6.71,6.71,0,0,0-6.71-6.71Z"/><path class="cls-1" d="M93.91,25.44a4.5,4.5,0,0,1,2.8,4.16V41.93H81.89V29.6a4.5,4.5,0,0,1,2.8-4.16,10.22,10.22,0,0,0,9.22,0m-.44-3.23a7.21,7.21,0,0,1-8.33,0,7.51,7.51,0,0,0-6.25,7.38v13a2.32,2.32,0,0,0,2.32,2.32H97.39a2.32,2.32,0,0,0,2.32-2.32v-13a7.51,7.51,0,0,0-6.25-7.38Z"/><path class="cls-1" d="M89.3,11.32A3.71,3.71,0,1,1,85.6,15a3.71,3.71,0,0,1,3.71-3.71m0-3A6.71,6.71,0,1,0,96,15,6.71,6.71,0,0,0,89.3,8.32Z"/><circle class="cls-3" cx="37.9" cy="9.87" r="4.49"/><path class="cls-2" d="M13.43,28.29A2.94,2.94,0,0,1,15.26,31v8.07H5.56V31A2.94,2.94,0,0,1,7.4,28.29a6.69,6.69,0,0,0,6,0"/><path class="cls-2" d="M68.75,28.29A2.94,2.94,0,0,1,70.58,31v8.07h-9.7V31a2.94,2.94,0,0,1,1.83-2.72,6.69,6.69,0,0,0,6,0"/><path class="cls-2" d="M92.32,28.29A2.94,2.94,0,0,1,94.15,31v8.07h-9.7V31a2.94,2.94,0,0,1,1.83-2.72,6.69,6.69,0,0,0,6,0"/><path class="cls-3" d="M42.71,27.16c1.88.67,4.42,2.68,4.42,5.48V47.41H28.66V32.63c0-2.8,2.55-4.81,4.42-5.48a10.09,10.09,0,0,0,9.63,0"/><path class="cls-4" d="M37.9,0a9.87,9.87,0,1,0,9.87,9.87A9.87,9.87,0,0,0,37.9,0Zm0,16.72a6.86,6.86,0,1,1,6.86-6.86A6.86,6.86,0,0,1,37.9,16.72Z"/></g></g></svg>