<svg xmlns="http://www.w3.org/2000/svg" viewBox="0 0 74.14 68.41"><defs><style>.cls-1{fill:#18c0dc;}.cls-2{fill:#222e65;}</style></defs><title>Asset 2</title><g id="Layer_2" data-name="Layer 2"><g id="Layer_1-2" data-name="Layer 1"><path class="cls-1" d="M39.93,11.44A22.76,22.76,0,1,0,62.69,34.2,22.76,22.76,0,0,0,39.93,11.44ZM50.64,44.62l-1.39,1.9a1.51,1.51,0,0,1-2.11.32l-11-8.12a1.51,1.51,0,0,1-.61-1.32s0,0,0-.07V23.61A1.51,1.51,0,0,1,37,22.1h2.35a1.51,1.51,0,0,1,1.51,1.51V35.54l9.47,7A1.51,1.51,0,0,1,50.64,44.62Z"/><path class="cls-2" d="M73.92,30.3A34.21,34.21,0,0,0,5.73,34.15a.06.06,0,0,0,.06.06h-5a.76.76,0,0,0-.53,1.31l7.11,6.9a.76.76,0,0,0,1.06,0l7.11-6.9A.76.76,0,0,0,15,34.2H10.13a.05.05,0,0,0,.05-.05A29.77,29.77,0,1,1,20.62,56.82a1.88,1.88,0,0,0-2.55.11l-.5.5a1.87,1.87,0,0,0,.1,2.74A34.2,34.2,0,0,0,73.92,30.3Z"/></g></g></svg>