<svg xmlns="http://www.w3.org/2000/svg" viewBox="0 0 100.09 74.29"><defs><style>.cls-1{fill:#222e65;}.cls-2{fill:#fbbd3c;}.cls-3{fill:#15c0dc;}</style></defs><title>Asset 44</title><g id="Layer_2" data-name="Layer 2"><g id="Layer_1-2" data-name="Layer 1"><path class="cls-1" d="M94.58,10.89H46.05a5.51,5.51,0,0,0-5.51,5.51V68.78a5.51,5.51,0,0,0,5.51,5.51H94.58a5.51,5.51,0,0,0,5.51-5.51V16.4A5.51,5.51,0,0,0,94.58,10.89Zm1.27,56.54A2.62,2.62,0,0,1,93.23,70H47.4a2.62,2.62,0,0,1-2.62-2.62V17.75a2.62,2.62,0,0,1,2.62-2.62H93.23a2.62,2.62,0,0,1,2.62,2.62Z"/><rect class="cls-2" x="60.58" y="45.74" width="30.44" height="4.03" rx="2.02" ry="2.02"/><rect class="cls-2" x="60.6" y="61.74" width="30.44" height="4.03" rx="2.02" ry="2.02"/><rect class="cls-2" x="60.58" y="53.74" width="30.44" height="4.03" rx="2.02" ry="2.02"/><path class="cls-1" d="M65.89,36.63a8.27,8.27,0,0,1,3-3.16,21.78,21.78,0,0,0,2.62-2.08,3.07,3.07,0,0,0,.92-2.14,2.37,2.37,0,0,0-.52-1.57,2.14,2.14,0,0,0-3.32.37,5,5,0,0,0-.33,1.83H65.37a7.2,7.2,0,0,1,.69-3.07,4.3,4.3,0,0,1,4.17-2.23A5.29,5.29,0,0,1,74,25.9a4.53,4.53,0,0,1,1.4,3.47,4.69,4.69,0,0,1-1,2.94,9.85,9.85,0,0,1-2.13,1.9L71.1,35q-1.1.78-1.51,1.13a3.32,3.32,0,0,0-.68.81h6.51v2.58H65.2A7,7,0,0,1,65.89,36.63Z"/><path class="cls-2" d="M51.77,46.51a2.13,2.13,0,0,0,.53-.12.4.4,0,0,0,.29-.38.45.45,0,0,0-.22-.43,1.4,1.4,0,0,0-.65-.12.85.85,0,0,0-.68.23,1,1,0,0,0-.19.47H49.56a2,2,0,0,1,.38-1.1,2.2,2.2,0,0,1,1.83-.68,3.26,3.26,0,0,1,1.5.33A1.28,1.28,0,0,1,53.92,46v2.35q0,.24,0,.59a.74.74,0,0,0,.08.36.48.48,0,0,0,.2.15v.2H52.75a1.5,1.5,0,0,1-.08-.29q0-.14,0-.31a2.77,2.77,0,0,1-.64.51,1.94,1.94,0,0,1-1,.25,1.69,1.69,0,0,1-1.15-.4,1.41,1.41,0,0,1-.46-1.12,1.46,1.46,0,0,1,.73-1.36,3.27,3.27,0,0,1,1.18-.33Zm.82.62a1.48,1.48,0,0,1-.26.13,2.21,2.21,0,0,1-.36.09l-.3.06a2,2,0,0,0-.61.18.61.61,0,0,0-.32.57.59.59,0,0,0,.19.49.73.73,0,0,0,.47.15,1.4,1.4,0,0,0,.81-.25,1.07,1.07,0,0,0,.38-.92Z"/><path class="cls-2" d="M55.07,48.21h1.42v1.4H55.07Z"/><path class="cls-2" d="M53.81,53.6a2.94,2.94,0,0,1,.57,1.88,3.29,3.29,0,0,1-.57,2,2.05,2.05,0,0,1-2.6.53,2,2,0,0,1-.5-.53v.64H49.4V51.2h1.34v2.46a2,2,0,0,1,.56-.54,1.68,1.68,0,0,1,.93-.23A1.91,1.91,0,0,1,53.81,53.6ZM52.7,56.72a1.89,1.89,0,0,0,.29-1.1,2.46,2.46,0,0,0-.14-.9,1,1,0,0,0-1-.68,1,1,0,0,0-1,.66,2.46,2.46,0,0,0-.14.91A1.9,1.9,0,0,0,51,56.71a1,1,0,0,0,.89.43A.93.93,0,0,0,52.7,56.72Z"/><path class="cls-2" d="M55.29,56.7h1.42v1.4H55.29Z"/><path class="cls-2" d="M52.75,62.72a1.19,1.19,0,0,0-.19-.52.81.81,0,0,0-.7-.31.92.92,0,0,0-.93.67,2.78,2.78,0,0,0-.13.95,2.56,2.56,0,0,0,.13.9.89.89,0,0,0,.9.64.8.8,0,0,0,.67-.25,1.26,1.26,0,0,0,.24-.66h1.36a2.24,2.24,0,0,1-.44,1.15,2.15,2.15,0,0,1-1.86.88A2.18,2.18,0,0,1,50,65.44a3,3,0,0,1-.58-1.9,3,3,0,0,1,.64-2,2.24,2.24,0,0,1,1.77-.73,2.67,2.67,0,0,1,1.58.43,2,2,0,0,1,.73,1.52Z"/><path class="cls-2" d="M55,64.59h1.42V66H55Z"/><path class="cls-1" d="M24.9,18.75v-2a12.87,12.87,0,0,0,1.93-.18,2.72,2.72,0,0,0,1.43-.78,2.56,2.56,0,0,0,.57-1.07,2.44,2.44,0,0,0,.11-.59h2.44V29h-3V18.75Z"/><path class="cls-1" d="M24.9,18.75v-2a12.87,12.87,0,0,0,1.93-.18,2.72,2.72,0,0,0,1.43-.78,2.56,2.56,0,0,0,.57-1.07,2.44,2.44,0,0,0,.11-.59h2.44V29h-3V18.75Z"/><path class="cls-1" d="M9,18.64a2,2,0,0,0,2,2H21.9v-4H11A2,2,0,0,0,9,18.64Z"/><path class="cls-1" d="M9,26.64a2,2,0,0,0,2,2H25.4v-4H11A2,2,0,0,0,9,26.64Z"/><path class="cls-3" d="M36.54,32.78h-23a4.46,4.46,0,0,0-4.46,4.46V51.18a4.46,4.46,0,0,0,4.46,4.46h23Z"/><path class="cls-1" d="M40.59,8.63H11a2,2,0,0,0,0,4H37.31A9.56,9.56,0,0,1,40.59,8.63Z"/><path class="cls-1" d="M36.54,59.15H6.86a2.62,2.62,0,0,1-2.62-2.62V6.86A2.62,2.62,0,0,1,6.86,4.24H52.68A2.62,2.62,0,0,1,55.3,6.86v0h4.25V5.51A5.51,5.51,0,0,0,54,0H5.51A5.51,5.51,0,0,0,0,5.51V57.89A5.51,5.51,0,0,0,5.51,63.4h31Z"/><path class="cls-1" d="M89,19.55H51.42a2,2,0,1,0,0,4H64.67a7.66,7.66,0,0,1,5.43-2,8.24,8.24,0,0,1,5.67,2H89a2,2,0,1,0,0-4Z"/><path class="cls-1" d="M62.08,39.49A10,10,0,0,1,63,35.55H51.45a2,2,0,1,0,0,4H62.08Z"/><path class="cls-1" d="M62.25,29.78a12.45,12.45,0,0,1,.28-2.23H51.42a2,2,0,1,0,0,4H62.18Z"/><path class="cls-1" d="M89,27.55H78.07a8.6,8.6,0,0,1,.19,1.81,7.9,7.9,0,0,1-.32,2.22H89a2,2,0,1,0,0-4Z"/></g></g></svg>