<svg xmlns="http://www.w3.org/2000/svg" viewBox="0 0 99.99 68.23"><defs><style>.cls-1{fill:#222e65;}.cls-2{fill:#fcbd3d;}.cls-3{fill:#15c0dc;}</style></defs><title>Asset 16</title><g id="Layer_2" data-name="Layer 2"><g id="Layer_1-2" data-name="Layer 1"><path class="cls-1" d="M24.64,16.9v-2a12.87,12.87,0,0,0,1.93-.18A2.72,2.72,0,0,0,28,13.94a2.56,2.56,0,0,0,.57-1.07,2.44,2.44,0,0,0,.11-.59h2.44V27.15h-3V16.9Z"/><path class="cls-1" d="M37,54.27H7a3.16,3.16,0,0,1-3.16-3.16v-44A3.16,3.16,0,0,1,7,4H52.49a3.16,3.16,0,0,1,3.1,2.54h3.89A6.82,6.82,0,0,0,52.67,0H6.82A6.82,6.82,0,0,0,0,6.82V51.4a6.82,6.82,0,0,0,6.82,6.82H37Z"/><path class="cls-1" d="M93.17,10H47.32a6.82,6.82,0,0,0-6.82,6.82V61.4a6.82,6.82,0,0,0,6.82,6.82H93.17A6.82,6.82,0,0,0,100,61.4V16.82A6.82,6.82,0,0,0,93.17,10Zm3,51.11A3.16,3.16,0,0,1,93,64.27H47.5a3.16,3.16,0,0,1-3.16-3.16v-44A3.16,3.16,0,0,1,47.5,14H93a3.16,3.16,0,0,1,3.16,3.16v44Z"/><rect class="cls-2" x="60.9" y="41.3" width="30.93" height="4.03" rx="2.02" ry="2.02"/><rect class="cls-2" x="60.9" y="49.29" width="30.93" height="4.03" rx="2.02" ry="2.02"/><rect class="cls-2" x="60.9" y="57.29" width="30.93" height="4.03" rx="2.02" ry="2.02"/><path class="cls-2" d="M51.14,42.1a2.21,2.21,0,0,0,.56-.12.42.42,0,0,0,.3-.4.47.47,0,0,0-.23-.45,1.45,1.45,0,0,0-.68-.12.89.89,0,0,0-.71.24,1,1,0,0,0-.2.49H48.84a2,2,0,0,1,.39-1.15,2.29,2.29,0,0,1,1.9-.7,3.39,3.39,0,0,1,1.56.35,1.33,1.33,0,0,1,.68,1.31V44q0,.25,0,.62a.77.77,0,0,0,.08.37.51.51,0,0,0,.21.16v.21H52.16a1.6,1.6,0,0,1-.09-.3c0-.09,0-.2,0-.32a2.88,2.88,0,0,1-.67.53,2,2,0,0,1-1,.26,1.77,1.77,0,0,1-1.2-.41,1.47,1.47,0,0,1-.47-1.17,1.51,1.51,0,0,1,.76-1.42,3.4,3.4,0,0,1,1.23-.34Zm.85.65a1.54,1.54,0,0,1-.27.13,2.29,2.29,0,0,1-.37.1L51,43a2.09,2.09,0,0,0-.64.19.63.63,0,0,0-.33.59.62.62,0,0,0,.2.52.76.76,0,0,0,.49.16,1.45,1.45,0,0,0,.84-.26,1.11,1.11,0,0,0,.4-1Z"/><path class="cls-2" d="M54.56,43.87H56v1.46H54.56Z"/><path class="cls-2" d="M53.3,49.05a3.06,3.06,0,0,1,.6,2,3.42,3.42,0,0,1-.59,2.06,2.14,2.14,0,0,1-2.71.55,2.12,2.12,0,0,1-.52-.55v.67H48.71V46.55H50.1V49.1a2,2,0,0,1,.58-.57,1.75,1.75,0,0,1,1-.24A2,2,0,0,1,53.3,49.05Zm-1.16,3.24a2,2,0,0,0,.3-1.14,2.55,2.55,0,0,0-.15-.94,1,1,0,0,0-1-.7,1,1,0,0,0-1,.69,2.56,2.56,0,0,0-.15.95,2,2,0,0,0,.31,1.13,1,1,0,0,0,.93.45A1,1,0,0,0,52.14,52.29Z"/><path class="cls-2" d="M54.84,52.27h1.48v1.46H54.84Z"/><path class="cls-2" d="M52.21,57.92a1.24,1.24,0,0,0-.2-.54.84.84,0,0,0-.73-.32,1,1,0,0,0-1,.7,2.91,2.91,0,0,0-.14,1,2.68,2.68,0,0,0,.14.94.93.93,0,0,0,.94.66.83.83,0,0,0,.69-.26,1.31,1.31,0,0,0,.25-.68h1.42a2.32,2.32,0,0,1-.46,1.2,2.24,2.24,0,0,1-1.94.91,2.27,2.27,0,0,1-1.89-.76,3.07,3.07,0,0,1-.61-2,3.12,3.12,0,0,1,.67-2.13,2.33,2.33,0,0,1,1.85-.76,2.79,2.79,0,0,1,1.64.45,2.09,2.09,0,0,1,.75,1.59Z"/><path class="cls-2" d="M54.56,59.87H56v1.46H54.56Z"/><path class="cls-1" d="M66.57,34.41a8.25,8.25,0,0,1,3-3.15,21.72,21.72,0,0,0,2.61-2.07A3.06,3.06,0,0,0,73,27.06a2.36,2.36,0,0,0-.52-1.57,2.13,2.13,0,0,0-3.31.37,5,5,0,0,0-.33,1.83H66a7.18,7.18,0,0,1,.69-3.07,4.28,4.28,0,0,1,4.16-2.23,5.28,5.28,0,0,1,3.76,1.31A4.52,4.52,0,0,1,76,27.16a4.68,4.68,0,0,1-1,2.93A9.82,9.82,0,0,1,72.93,32l-1.17.83q-1.1.78-1.5,1.13a3.32,3.32,0,0,0-.68.81h6.49v2.57H65.88A7,7,0,0,1,66.57,34.41Z"/><path class="cls-1" d="M62.88,37.26a10,10,0,0,1,.9-4H50.68a2,2,0,1,0,0,4h12.2Z"/><path class="cls-1" d="M63,27.57a12.39,12.39,0,0,1,.28-2.27H50.68a2,2,0,1,0,0,4H63Z"/><path class="cls-1" d="M89.81,25.3h-11A8.57,8.57,0,0,1,79,27.16a7.89,7.89,0,0,1-.31,2.18H89.81a2,2,0,0,0,0-4Z"/><path class="cls-1" d="M89.81,17.31H50.68a2,2,0,1,0,0,4H65.53a7.67,7.67,0,0,1,5.36-1.95,8.24,8.24,0,0,1,5.61,1.95H89.81a2,2,0,0,0,0-4Z"/><path class="cls-3" d="M37,44.95V31.16H12a4,4,0,0,0-4,4V47.31a4,4,0,0,0,4,4H37Z"/><path class="cls-1" d="M8,25.12a2,2,0,0,0,2,2H24.64v-4H10A2,2,0,0,0,8,25.12Z"/><path class="cls-1" d="M8,17.06H8a2,2,0,0,0,2,2H21.14V15H10A2,2,0,0,0,8,17.06Z"/><path class="cls-1" d="M10,7a2,2,0,0,0,0,4H38.8a10.37,10.37,0,0,1,5.41-4Z"/></g></g></svg>