<svg xmlns="http://www.w3.org/2000/svg" viewBox="0 0 99 100.02"><defs><style>.cls-1{fill:#222e65;}.cls-2{fill:#fbbd3c;}.cls-3{fill:#15c0dc;}</style></defs><title>Asset 37</title><g id="Layer_2" data-name="Layer 2"><g id="Layer_1-2" data-name="Layer 1"><rect class="cls-1" x="24.56" y="9.38" width="54.02" height="5.05" rx="2.52" ry="2.52"/><polygon class="cls-2" points="10.2 0 13.34 6.39 20.39 7.42 15.29 12.38 16.48 19.39 10.19 16.08 3.88 19.38 5.09 12.37 0 7.4 7.04 6.38 10.2 0"/><rect class="cls-1" x="24.56" y="33.45" width="54.02" height="5.05" rx="2.52" ry="2.52"/><polygon class="cls-2" points="10.2 24.07 13.34 30.45 20.39 31.48 15.29 36.44 16.48 43.46 10.19 40.14 3.88 43.45 5.09 36.43 0 31.46 7.04 30.44 10.2 24.07"/><rect class="cls-1" x="24.56" y="57.51" width="54.02" height="5.05" rx="2.52" ry="2.52"/><polygon class="cls-2" points="10.2 48.13 13.34 54.52 20.39 55.55 15.29 60.51 16.48 67.53 10.19 64.21 3.88 67.51 5.09 60.5 0 55.53 7.04 54.51 10.2 48.13"/><path class="cls-3" d="M97.74,68.28l-2.2-2.16a4.23,4.23,0,0,0-6,.05l-19,19.3-9.73-9.55a4.22,4.22,0,0,0-6,.05l-2.16,2.2a4.23,4.23,0,0,0,.05,6L65.55,96.66h0l2.2,2.16a4.22,4.22,0,0,0,6-.05L97.79,74.25A4.22,4.22,0,0,0,97.74,68.28Z"/><path class="cls-1" d="M46.56,81.58H26.28a2.52,2.52,0,1,0,0,5H48.37A9.19,9.19,0,0,1,46.56,81.58Z"/><polygon class="cls-2" points="10.2 71.88 13.34 78.27 20.39 79.3 15.29 84.26 16.48 91.28 10.19 87.96 3.88 91.26 5.09 84.25 0 79.28 7.04 78.26 10.2 71.88"/></g></g></svg>