<svg xmlns="http://www.w3.org/2000/svg" viewBox="0 0 79.1 79.92"><defs><style>.cls-1{fill:#222e65;}.cls-2{fill:#fbbd3c;}.cls-3{fill:#15c0dc;}</style></defs><title>Asset 15</title><g id="Layer_2" data-name="Layer 2"><g id="Layer_1-2" data-name="Layer 1"><rect class="cls-1" x="19.62" y="7.5" width="43.17" height="4.03" rx="2.02" ry="2.02"/><polygon class="cls-2" points="8.15 0 10.66 5.1 16.29 5.93 12.21 9.89 13.17 15.5 8.14 12.85 3.1 15.49 4.07 9.88 0 5.91 5.63 5.1 8.15 0"/><rect class="cls-1" x="19.62" y="26.73" width="43.17" height="4.03" rx="2.02" ry="2.02"/><polygon class="cls-2" points="8.15 19.23 10.66 24.33 16.29 25.15 12.21 29.12 13.17 34.73 8.14 32.08 3.1 34.72 4.07 29.11 0 25.14 5.63 24.33 8.15 19.23"/><rect class="cls-1" x="19.62" y="45.95" width="43.17" height="4.03" rx="2.02" ry="2.02"/><polygon class="cls-2" points="8.15 38.46 10.66 43.56 16.29 44.38 12.21 48.35 13.17 53.95 8.14 51.3 3.1 53.95 4.07 48.34 0 44.37 5.63 43.55 8.15 38.46"/><path class="cls-3" d="M78.09,54.56l-1.75-1.72a3.38,3.38,0,0,0-4.77,0L56.42,68.3l-7.77-7.63a3.38,3.38,0,0,0-4.77,0l-1.72,1.75a3.38,3.38,0,0,0,0,4.77l10.18,10h0L54.13,79a3.38,3.38,0,0,0,4.77,0L78.14,59.33A3.38,3.38,0,0,0,78.09,54.56Z"/><path class="cls-1" d="M37.21,65.18H21a2,2,0,1,0,0,4H38.65A7.35,7.35,0,0,1,37.21,65.18Z"/><polygon class="cls-2" points="8.15 57.43 10.66 62.54 16.29 63.36 12.21 67.33 13.17 72.93 8.14 70.28 3.1 72.92 4.07 67.32 0 63.34 5.63 62.53 8.15 57.43"/></g></g></svg>