<svg xmlns="http://www.w3.org/2000/svg" viewBox="0 0 79.83 79.83"><defs><style>.cls-1{fill:#fff;}.cls-2{fill:#fcbd3d;}.cls-3{fill:none;}.cls-4{fill:#222e65;}</style></defs><title>Asset 33</title><g id="Layer_2" data-name="Layer 2"><g id="Layer_1-2" data-name="Layer 1"><circle class="cls-1" cx="39.91" cy="39.91" r="34.98"/><path class="cls-2" d="M27.27,19l-2.19-2.3a2.68,2.68,0,0,0-3.79-.09l-3.66,3.48a2.68,2.68,0,0,0-.09,3.79l2.19,2.3Z"/><path class="cls-2" d="M37,35.08,28.86,26.5a1,1,0,0,1,1.47-1.4l8.13,8.54,1.37-1.37-11.43-12-7.47,7.11L32.54,39.56Z"/><path class="cls-2" d="M58.07,51.46h0l0,0h0L47.37,40.19,46,41.56l7.35,7.72a1,1,0,1,1-1.47,1.4L44.56,43l-4.49,4.49,10.51,11h0l0,0h0l7.77,3.34A2,2,0,0,0,61,59.38ZM56.61,59.3a1.49,1.49,0,0,1-.19-.05l-3.91-1.77a.41.41,0,0,1-.11-.66l3.86-3.67a.41.41,0,0,1,.66.14l1.58,4a1.5,1.5,0,0,1,0,.19Z"/><path class="cls-3" d="M39.91,4.93A35,35,0,0,0,13.5,62.84L62.84,13.5A34.84,34.84,0,0,0,39.91,4.93Z"/><path class="cls-3" d="M66.33,17,17,66.33A35,35,0,0,0,66.33,17Z"/><path class="cls-4" d="M39.91,0A39.91,39.91,0,1,0,79.83,39.91,39.91,39.91,0,0,0,39.91,0Zm0,74.9A34.84,34.84,0,0,1,17,66.33l-2.36,2.36L11.14,65.2l2.36-2.36A35,35,0,0,1,62.84,13.5l2.36-2.36,3.49,3.49L66.33,17A35,35,0,0,1,39.91,74.9Z"/><polygon class="cls-4" points="68.69 14.63 65.2 11.14 62.84 13.5 13.5 62.84 11.14 65.2 14.63 68.69 16.99 66.33 66.33 16.99 68.69 14.63"/></g></g></svg>