<svg xmlns="http://www.w3.org/2000/svg" viewBox="0 0 98.67 98.67"><defs><style>.cls-1{fill:#fff;}.cls-2{fill:#fcbd3d;}.cls-3{fill:#222e65;}</style></defs><title>Asset 40</title><g id="Layer_2" data-name="Layer 2"><g id="Layer_1-2" data-name="Layer 1"><circle class="cls-1" cx="49.33" cy="49.33" r="43.84"/><path class="cls-2" d="M33.64,24.07l-2.7-2.77a3.26,3.26,0,0,0-4.61-.06l-4.4,4.29a3.26,3.26,0,0,0-.06,4.61l2.7,2.77Z"/><path class="cls-2" d="M45.19,42.88,35.59,33a1.09,1.09,0,0,1,0-1.55l.2-.19a1.09,1.09,0,0,1,1.55,0l9.58,9.83,1.67-1.67L35,25.55l-9,8.76,13.68,14Z"/><path class="cls-2" d="M71.59,63.07h0L58.5,49.62l-1.67,1.67,9.08,9.31a1.09,1.09,0,0,1,0,1.55l-.2.19a1.09,1.09,0,0,1-1.55,0L55.09,53l-5.46,5.46,13,13.29,0,0h0l10.43,4.34a2,2,0,0,0,2.6-2.54Zm-1.66,9.56a1.81,1.81,0,0,1-.23-.06l-4.79-2.1a.49.49,0,0,1-.15-.81l4.64-4.52a.49.49,0,0,1,.8.17l2,4.84a1.81,1.81,0,0,1,.06.23Z"/><path class="cls-3" d="M49.33,0A49.33,49.33,0,1,0,98.67,49.33,49.33,49.33,0,0,0,49.33,0Zm0,5.49A43.66,43.66,0,0,1,77.76,16L16,77.76A43.83,43.83,0,0,1,49.33,5.49Zm0,87.68a43.67,43.67,0,0,1-29-11L82.17,20.3A43.83,43.83,0,0,1,49.33,93.17Z"/></g></g></svg>