<svg xmlns="http://www.w3.org/2000/svg" viewBox="0 0 115.96 80.34"><defs><style>.cls-1{fill:#fbbd3c;}.cls-2{fill:#222e65;}.cls-3{fill:#15c0dc;}</style></defs><title>Asset 21</title><g id="Layer_2" data-name="Layer 2"><g id="Layer_1-2" data-name="Layer 1"><path class="cls-1" d="M8.73,11.37V9.67a11,11,0,0,0,1.66-.16,2.33,2.33,0,0,0,1.23-.67,2.2,2.2,0,0,0,.49-.91,2.12,2.12,0,0,0,.1-.51H14.3V20.16H11.73V11.37Z"/><path class="cls-1" d="M16.89,17.53h2.66v2.63H16.89Z"/><path class="cls-1" d="M20,11.37V9.67a11,11,0,0,0,1.66-.16,2.33,2.33,0,0,0,1.23-.67,2.2,2.2,0,0,0,.49-.91,2.12,2.12,0,0,0,.1-.51H25.6V20.16H23V11.37Z"/><path class="cls-1" d="M36.51,39.11H11.25a3,3,0,0,0-3,3V53.19a3,3,0,0,0,3,3H36.51Z"/><rect class="cls-2" x="48.99" y="18.95" width="42.54" height="4.03" rx="2.02" ry="2.02"/><rect class="cls-2" x="48.99" y="26.68" width="42.54" height="4.03" rx="2.02" ry="2.02"/><rect class="cls-2" x="48.99" y="34.2" width="21.27" height="4.03" rx="2.02" ry="2.02"/><rect class="cls-2" x="61.5" y="47.16" width="30.02" height="4.03" rx="2.02" ry="2.02"/><path class="cls-2" d="M76.09,62.41H63.52a2,2,0,0,0,0,4H75.78A6.06,6.06,0,0,1,76.09,62.41Z"/><path class="cls-2" d="M51.76,48a2.2,2.2,0,0,0,.56-.12.42.42,0,0,0,.3-.4.47.47,0,0,0-.23-.45,1.46,1.46,0,0,0-.68-.12.89.89,0,0,0-.71.24,1,1,0,0,0-.2.49H49.46a2,2,0,0,1,.39-1.15,2.29,2.29,0,0,1,1.9-.7,3.39,3.39,0,0,1,1.56.35A1.33,1.33,0,0,1,54,47.48v2.44q0,.25,0,.62a.78.78,0,0,0,.08.37.5.5,0,0,0,.21.16v.21H52.78a1.53,1.53,0,0,1-.09-.3q0-.14,0-.32a2.88,2.88,0,0,1-.67.53,2,2,0,0,1-1,.26,1.76,1.76,0,0,1-1.2-.41,1.47,1.47,0,0,1-.47-1.17,1.52,1.52,0,0,1,.76-1.42,3.4,3.4,0,0,1,1.23-.34Zm.85.65a1.56,1.56,0,0,1-.27.13,2.29,2.29,0,0,1-.37.1l-.32.06a2.09,2.09,0,0,0-.64.19.64.64,0,0,0-.33.59.62.62,0,0,0,.2.52.76.76,0,0,0,.49.16,1.45,1.45,0,0,0,.84-.26,1.12,1.12,0,0,0,.4-1Z"/><path class="cls-2" d="M55.19,49.81h1.48v1.46H55.19Z"/><path class="cls-2" d="M54.2,55a3.06,3.06,0,0,1,.6,2A3.42,3.42,0,0,1,54.21,59a2.14,2.14,0,0,1-2.71.55A2.12,2.12,0,0,1,51,59v.67H49.6V52.53H51v2.56a2,2,0,0,1,.58-.57,1.75,1.75,0,0,1,1-.24A2,2,0,0,1,54.2,55ZM53,58.28a2,2,0,0,0,.3-1.14,2.56,2.56,0,0,0-.15-.94,1,1,0,0,0-1-.7,1,1,0,0,0-1,.69,2.57,2.57,0,0,0-.15.95,2,2,0,0,0,.31,1.13,1,1,0,0,0,.93.45A1,1,0,0,0,53,58.28Z"/><path class="cls-2" d="M55.74,58.26h1.48v1.46H55.74Z"/><path class="cls-2" d="M52.84,63.41a1.23,1.23,0,0,0-.2-.54.84.84,0,0,0-.73-.32,1,1,0,0,0-1,.7,2.89,2.89,0,0,0-.14,1,2.65,2.65,0,0,0,.14.94.93.93,0,0,0,.94.66.83.83,0,0,0,.7-.26,1.31,1.31,0,0,0,.25-.68h1.42a2.32,2.32,0,0,1-.46,1.2,2.23,2.23,0,0,1-1.94.91A2.27,2.27,0,0,1,50,66.24a3.08,3.08,0,0,1-.61-2A3.12,3.12,0,0,1,50,62.13a2.33,2.33,0,0,1,1.85-.76,2.78,2.78,0,0,1,1.64.45,2.09,2.09,0,0,1,.76,1.59Z"/><path class="cls-2" d="M55.19,65.36h1.48v1.46H55.19Z"/><path class="cls-3" d="M115,54.35l-1.75-1.76a3.32,3.32,0,0,0-4.77,0L93.28,68.43l-7.77-7.82a3.32,3.32,0,0,0-4.77,0L79,62.45a3.52,3.52,0,0,0,0,4.89L91,79.34a3.32,3.32,0,0,0,4.77,0L115,59.24A3.52,3.52,0,0,0,115,54.35Z"/><path class="cls-2" d="M78.93,58.92a5.79,5.79,0,0,1,4.16-1.8,5.7,5.7,0,0,1,4.19,1.73l.08.08h2.15a2,2,0,1,0,0-4h-26a2,2,0,0,0,0,4H78.93Z"/><path class="cls-2" d="M78.26,70.09H47.38a2.62,2.62,0,0,1-2.62-2.62V17.78a2.62,2.62,0,0,1,2.62-2.62H93.14a2.62,2.62,0,0,1,2.62,2.62V62.22L100,57.8V16.39a5.51,5.51,0,0,0-5.51-5.51H46a5.51,5.51,0,0,0-5.51,5.51V68.71A5.51,5.51,0,0,0,46,74.22H82.37Z"/><path class="cls-2" d="M36.51,31.59H10.29a2,2,0,0,0,0,4H36.51Z"/><path class="cls-2" d="M36.51,23.86H10.29a2,2,0,0,0,0,4H36.51Z"/><path class="cls-2" d="M36.51,16.39c0-.09,0-.17,0-.26H29.94v4h6.57Z"/><path class="cls-2" d="M40.7,8.51H29.94v4h7.39A9.57,9.57,0,0,1,40.7,8.51Z"/><path class="cls-2" d="M36.51,59.21H6.87a2.62,2.62,0,0,1-2.62-2.62V6.9A2.62,2.62,0,0,1,6.87,4.28H52.64a2.62,2.62,0,0,1,2.62,2.6h4.24V5.51A5.51,5.51,0,0,0,54,0H5.51A5.51,5.51,0,0,0,0,5.51V57.83a5.51,5.51,0,0,0,5.51,5.51h31Z"/></g></g></svg>