<svg xmlns="http://www.w3.org/2000/svg" viewBox="0 0 82.64 80.51"><defs><style>.cls-1{fill:none;}.cls-2{fill:#222e65;}.cls-3{fill:#fcbd3d;}.cls-4{fill:#15c0dc;}</style></defs><title>Asset 12 1</title><g id="Layer_2" data-name="Layer 2"><g id="Layer_1-2" data-name="Layer 1"><rect class="cls-1" x="4.24" y="4.22" width="58.4" height="66.08" rx="2.8" ry="2.8"/><rect class="cls-2" x="10.49" y="40.44" width="9.13" height="21.92" rx="3.55" ry="3.55"/><rect class="cls-2" x="22.86" y="32.11" width="9.12" height="30.25" rx="3.55" ry="3.55"/><rect class="cls-2" x="34.99" y="35.04" width="9.13" height="27.32" rx="3.55" ry="3.55"/><path class="cls-3" d="M51.94,13.09a3.56,3.56,0,0,0-3.49,4.44l-5.68,3a3.58,3.58,0,0,0-6.56,1l-5.27-1.23a3.59,3.59,0,1,0-7,1.07l-6.26,3.92a3.75,3.75,0,1,0,.84,1.52l6.28-3.93a3.57,3.57,0,0,0,5.8-.89l5.66,1.32a3.59,3.59,0,0,0,7.06-.92s0-.08,0-.12l6-3.16a3.59,3.59,0,1,0,2.68-6Z"/><path class="cls-4" d="M81.63,55.14l-1.75-1.72a3.38,3.38,0,0,0-4.77,0L60,68.88l-7.77-7.63a3.38,3.38,0,0,0-4.77,0L45.69,63a3.38,3.38,0,0,0,0,4.77L57.67,79.54a3.38,3.38,0,0,0,4.77,0l1.72-1.75h0L81.67,59.91A3.38,3.38,0,0,0,81.63,55.14Z"/><path class="cls-2" d="M49.77,57.28a6.23,6.23,0,0,1,4.52,1.83l1.58,1.55a3.53,3.53,0,0,0,.61-2V31.2a3.55,3.55,0,0,0-3.55-3.55h-2a3.55,3.55,0,0,0-3.55,3.55V57.77A6.37,6.37,0,0,1,49.77,57.28Z"/><path class="cls-2" d="M44,70.3H7a2.8,2.8,0,0,1-2.8-2.8V7A2.8,2.8,0,0,1,7,4.22h52.8A2.8,2.8,0,0,1,62.64,7V61.87l4.24-4.32V6a6,6,0,0,0-6-6H6A6,6,0,0,0,0,6V68.56a6,6,0,0,0,6,6H48.28Z"/></g></g></svg>