<svg xmlns="http://www.w3.org/2000/svg" viewBox="0 0 144.3 99.46"><defs><style>.cls-1{fill:#fbbd3c;}.cls-2{fill:#222e65;}.cls-3{fill:#15c0dc;}</style></defs><title>Asset 38</title><g id="Layer_2" data-name="Layer 2"><g id="Layer_1-2" data-name="Layer 1"><path class="cls-1" d="M11.59,13.53v-2a13.26,13.26,0,0,0,2-.19,2.8,2.8,0,0,0,1.47-.8,2.65,2.65,0,0,0,.59-1.1,2.54,2.54,0,0,0,.12-.61h2.51V24.09H15.19V13.53Z"/><path class="cls-1" d="M21.39,20.93h3.2v3.16h-3.2Z"/><path class="cls-1" d="M25.17,13.53v-2a13.26,13.26,0,0,0,2-.19,2.8,2.8,0,0,0,1.47-.8,2.65,2.65,0,0,0,.59-1.1,2.54,2.54,0,0,0,.12-.61h2.51V24.09H28.77V13.53Z"/><path class="cls-1" d="M46.41,52h-31a3.84,3.84,0,0,0-3.84,3.84V66a3.84,3.84,0,0,0,3.84,3.84h31Z"/><path class="cls-2" d="M63.67,61.3a2.29,2.29,0,0,0,.57-.13.43.43,0,0,0,.31-.41.48.48,0,0,0-.24-.47,1.5,1.5,0,0,0-.7-.13.92.92,0,0,0-.73.25,1,1,0,0,0-.2.5H61.29a2.11,2.11,0,0,1,.41-1.19,2.37,2.37,0,0,1,2-.73,3.51,3.51,0,0,1,1.61.36,1.38,1.38,0,0,1,.7,1.35v2.52q0,.26,0,.64a.8.8,0,0,0,.09.38.51.51,0,0,0,.21.17v.21H64.73a1.61,1.61,0,0,1-.09-.31q0-.15,0-.33a3,3,0,0,1-.69.55,2.09,2.09,0,0,1-1.06.27,1.82,1.82,0,0,1-1.24-.43,1.52,1.52,0,0,1-.49-1.21,1.57,1.57,0,0,1,.79-1.47,3.52,3.52,0,0,1,1.27-.35Zm.88.67a1.6,1.6,0,0,1-.28.14,2.38,2.38,0,0,1-.39.1l-.33.06a2.17,2.17,0,0,0-.66.2.66.66,0,0,0-.34.61.64.64,0,0,0,.21.53.79.79,0,0,0,.51.16,1.5,1.5,0,0,0,.87-.27,1.16,1.16,0,0,0,.41-1Z"/><path class="cls-2" d="M67.22,63.14h1.53v1.51H67.22Z"/><path class="cls-2" d="M66.19,68.55a3.16,3.16,0,0,1,.62,2,3.54,3.54,0,0,1-.61,2.13,2.21,2.21,0,0,1-2.8.57,2.18,2.18,0,0,1-.54-.57v.69H61.44V66h1.44V68.6a2.11,2.11,0,0,1,.6-.59,1.8,1.8,0,0,1,1-.25A2.06,2.06,0,0,1,66.19,68.55ZM65,71.9a2,2,0,0,0,.31-1.18,2.64,2.64,0,0,0-.15-1A1.06,1.06,0,0,0,64.08,69a1.08,1.08,0,0,0-1.08.71,2.65,2.65,0,0,0-.15,1,2,2,0,0,0,.32,1.17,1.08,1.08,0,0,0,1,.46A1,1,0,0,0,65,71.9Z"/><path class="cls-2" d="M67.78,71.88h1.53v1.51H67.78Z"/><path class="cls-2" d="M64.78,77.2a1.28,1.28,0,0,0-.21-.56.87.87,0,0,0-.75-.33,1,1,0,0,0-1,.72,3,3,0,0,0-.14,1,2.75,2.75,0,0,0,.14,1,1,1,0,0,0,1,.69.86.86,0,0,0,.72-.27,1.35,1.35,0,0,0,.26-.71h1.47A2.41,2.41,0,0,1,65.77,80a2.31,2.31,0,0,1-2,.94,2.35,2.35,0,0,1-2-.79,3.18,3.18,0,0,1-.63-2,3.23,3.23,0,0,1,.69-2.2,2.41,2.41,0,0,1,1.91-.79,2.88,2.88,0,0,1,1.7.46,2.16,2.16,0,0,1,.78,1.64Z"/><path class="cls-2" d="M67.22,79.22h1.53v1.51H67.22Z"/><rect class="cls-2" x="60.98" y="23.58" width="53.62" height="4.03" rx="2.02" ry="2.02"/><rect class="cls-2" x="61.02" y="39.58" width="53.62" height="4.03" rx="2.02" ry="2.02"/><rect class="cls-2" x="61.02" y="47.58" width="26.81" height="4.03" rx="2.02" ry="2.02"/><rect class="cls-2" x="60.98" y="31.58" width="53.62" height="4.03" rx="2.02" ry="2.02"/><rect class="cls-2" x="74.03" y="60.79" width="40.93" height="4.03" rx="2.02" ry="2.02"/><path class="cls-2" d="M93.86,76.79H76a2,2,0,0,0,0,4H93.15A8.45,8.45,0,0,1,93.86,76.79Z"/><path class="cls-3" d="M143,67.13l-2.18-2.2a4.13,4.13,0,0,0-5.94.05L116.07,84.64l-9.67-9.73a4.13,4.13,0,0,0-5.94.05L98.32,77.2a4.38,4.38,0,0,0,.05,6.09l14.85,14.94a4.13,4.13,0,0,0,5.94-.05l23.93-25A4.38,4.38,0,0,0,143,67.13Z"/><path class="cls-2" d="M46.41,44H13.65a2,2,0,0,0,0,4H46.41Z"/><path class="cls-2" d="M46.41,36.16H13.65a2,2,0,0,0,0,4H46.41Z"/><path class="cls-2" d="M46.41,27.94H13.61a2,2,0,0,0-2,2h0a2,2,0,0,0,2,2h32.8Z"/><rect class="cls-2" x="37.26" y="19.31" width="9.15" height="4.03"/><path class="cls-2" d="M51.6,10.58H37.26v4H47.51A9.56,9.56,0,0,1,51.6,10.58Z"/><path class="cls-2" d="M46.41,74.58H6.86A2.62,2.62,0,0,1,4.24,72V6.86A2.62,2.62,0,0,1,6.86,4.24H67.17a2.62,2.62,0,0,1,2.62,2.62V9.54H74v-4A5.51,5.51,0,0,0,68.52,0h-63A5.51,5.51,0,0,0,0,5.51v67.8a5.51,5.51,0,0,0,5.51,5.51h40.9Z"/><path class="cls-2" d="M97.57,72.2a8.13,8.13,0,0,1,11.67-.11l.72.73h3a2,2,0,0,0,0-4H76a2,2,0,0,0,0,4H97Z"/><path class="cls-2" d="M97.53,88.12H57.27a2.62,2.62,0,0,1-2.62-2.62V20.39a2.62,2.62,0,0,1,2.62-2.62h60.32a2.62,2.62,0,0,1,2.62,2.62V74.55l4.23-4.42V19a5.51,5.51,0,0,0-5.51-5.51h-63A5.51,5.51,0,0,0,50.41,19v67.8a5.51,5.51,0,0,0,5.51,5.51h45.83Z"/></g></g></svg>