<svg xmlns="http://www.w3.org/2000/svg" viewBox="0 0 101.31 99.42"><defs><style>.cls-1{fill:#222e65;}.cls-2{fill:#fcbd3d;}.cls-3{fill:#15c0dc;}</style></defs><title>Asset 39</title><g id="Layer_2" data-name="Layer 2"><g id="Layer_1-2" data-name="Layer 1"><rect class="cls-1" x="11.09" y="52.33" width="11.34" height="30.8" rx="3.85" ry="3.85"/><rect class="cls-1" x="26.57" y="40.63" width="11.34" height="42.5" rx="3.85" ry="3.85"/><path class="cls-2" d="M62.92,16.27a4.42,4.42,0,0,0-4.33,5.52l-7.06,3.73a4.44,4.44,0,0,0-8.16,1.18l-6.55-1.53a4.46,4.46,0,1,0-8.74,1.33l-7.78,4.87a4.66,4.66,0,1,0,1,1.89l7.8-4.88a4.44,4.44,0,0,0,7.21-1.1l7,1.64a4.46,4.46,0,0,0,8.77-1.14c0-.05,0-.1,0-.15l7.44-3.93a4.46,4.46,0,1,0,3.33-7.43Z"/><path class="cls-3" d="M100.05,67.09l-2.18-2.2a4.13,4.13,0,0,0-5.94.05L73.09,84.6l-9.67-9.73a4.13,4.13,0,0,0-5.94.05l-2.14,2.24a4.38,4.38,0,0,0,.05,6.09L70.23,98.19a4.13,4.13,0,0,0,5.94-.05l23.93-25A4.38,4.38,0,0,0,100.05,67.09Z"/><path class="cls-1" d="M52.44,74.39l.95-1V48.6a3.85,3.85,0,0,0-3.85-3.85H45.91a3.85,3.85,0,0,0-3.85,3.85V79.27a3.85,3.85,0,0,0,3.85,3.85h3.63A3.81,3.81,0,0,0,50.62,83,8.4,8.4,0,0,1,52.44,74.39Z"/><path class="cls-1" d="M60.4,69.64a8.06,8.06,0,0,1,5.85,2.41l2.62,2.64V38.2A3.85,3.85,0,0,0,65,34.35H61.39a3.85,3.85,0,0,0-3.85,3.85v32A8.1,8.1,0,0,1,60.4,69.64Z"/><path class="cls-1" d="M54.83,88.36H7.49a3.1,3.1,0,0,1-3.1-3.1V7.33a3.1,3.1,0,0,1,3.1-3.1H73.7a3.1,3.1,0,0,1,3.1,3.1V75L81,70.53V4.81A4.81,4.81,0,0,0,76.22,0H4.81A4.81,4.81,0,0,0,0,4.81v83A4.81,4.81,0,0,0,4.81,92.6H59Z"/></g></g></svg>