<?xml version="1.0" standalone="no"?><!DOCTYPE svg PUBLIC "-//W3C//DTD SVG 1.1//EN" "http://www.w3.org/Graphics/SVG/1.1/DTD/svg11.dtd"><svg width="100%" height="100%" viewBox="0 0 215 52" version="1.1" xmlns="http://www.w3.org/2000/svg" xmlns:xlink="http://www.w3.org/1999/xlink" xml:space="preserve" style="fill-rule:evenodd;clip-rule:evenodd;stroke-linejoin:round;stroke-miterlimit:1.41421;"><g><path d="M94.162,27.622c0,-1.02 0.173,-1.96 0.519,-2.816c0.347,-0.856 0.828,-1.598 1.444,-2.225c0.617,-0.625 1.358,-1.111 2.225,-1.459c0.866,-0.347 1.81,-0.519 2.83,-0.519c1.021,0 1.959,0.172 2.816,0.519c0.858,0.348 1.599,0.834 2.225,1.459c0.625,0.626 1.112,1.368 1.459,2.225c0.347,0.856 0.52,1.796 0.52,2.816c0,1.021 -0.173,1.96 -0.52,2.816c-0.347,0.859 -0.833,1.6 -1.459,2.225c-0.626,0.627 -1.368,1.113 -2.225,1.458c-0.857,0.347 -1.795,0.52 -2.816,0.52c-1.02,0 -1.964,-0.173 -2.829,-0.52c-0.868,-0.345 -1.609,-0.831 -2.226,-1.458c-0.616,-0.625 -1.097,-1.366 -1.444,-2.225c-0.346,-0.856 -0.519,-1.795 -0.519,-2.816ZM95.894,27.622c-0.001,0.751 0.121,1.459 0.362,2.122c0.24,0.666 0.592,1.243 1.054,1.735c0.462,0.49 1.02,0.88 1.675,1.169c0.655,0.289 1.387,0.433 2.196,0.433c0.809,0 1.54,-0.144 2.195,-0.433c0.654,-0.289 1.213,-0.679 1.675,-1.169c0.464,-0.492 0.814,-1.069 1.055,-1.735c0.241,-0.663 0.361,-1.371 0.361,-2.122c0,-0.75 -0.12,-1.459 -0.361,-2.123c-0.241,-0.664 -0.591,-1.242 -1.055,-1.734c-0.461,-0.491 -1.02,-0.88 -1.675,-1.169c-0.655,-0.289 -1.386,-0.433 -2.195,-0.433c-0.809,0 -1.541,0.144 -2.196,0.433c-0.655,0.289 -1.213,0.678 -1.675,1.169c-0.462,0.492 -0.814,1.07 -1.054,1.734c-0.241,0.664 -0.362,1.373 -0.362,2.123Z" style="fill:#5f6062;fill-rule:nonzero;"/><path d="M111.696,20.95l1.733,0l-0.001,2.339l0.058,0c0.27,-0.463 0.606,-0.862 1.01,-1.198c0.405,-0.338 0.843,-0.616 1.315,-0.839c0.472,-0.221 0.968,-0.385 1.488,-0.491c0.521,-0.106 1.03,-0.158 1.532,-0.158c1.02,0 1.959,0.172 2.817,0.519c0.856,0.348 1.597,0.834 2.224,1.459c0.625,0.626 1.112,1.368 1.458,2.225c0.347,0.856 0.521,1.796 0.521,2.816c0,1.021 -0.174,1.96 -0.521,2.816c-0.346,0.859 -0.832,1.6 -1.458,2.225c-0.627,0.627 -1.368,1.113 -2.224,1.458c-0.857,0.347 -1.797,0.52 -2.816,0.52c-0.503,0 -1.012,-0.052 -1.533,-0.159c-0.52,-0.106 -1.016,-0.268 -1.488,-0.49c-0.471,-0.222 -0.909,-0.501 -1.314,-0.837c-0.405,-0.336 -0.741,-0.737 -1.011,-1.198l-0.058,0l0,8.923l-1.733,0l0,-19.93l0.001,0ZM113.255,27.622c0,0.751 0.144,1.459 0.433,2.122c0.288,0.666 0.683,1.243 1.183,1.735c0.501,0.49 1.089,0.88 1.762,1.169c0.674,0.289 1.406,0.433 2.197,0.433c0.808,0 1.54,-0.144 2.194,-0.433c0.655,-0.289 1.213,-0.679 1.674,-1.169c0.464,-0.492 0.814,-1.069 1.056,-1.735c0.24,-0.663 0.361,-1.371 0.361,-2.122c0,-0.75 -0.121,-1.459 -0.361,-2.123c-0.242,-0.664 -0.592,-1.242 -1.056,-1.734c-0.46,-0.491 -1.019,-0.88 -1.674,-1.169c-0.654,-0.289 -1.386,-0.433 -2.194,-0.433c-0.791,0 -1.523,0.144 -2.197,0.433c-0.673,0.289 -1.261,0.678 -1.762,1.169c-0.501,0.492 -0.896,1.07 -1.183,1.734c-0.289,0.664 -0.433,1.373 -0.433,2.123Z" style="fill:#5f6062;fill-rule:nonzero;"/><path d="M141.506,31.781c-0.675,1.022 -1.507,1.754 -2.499,2.196c-0.991,0.444 -2.085,0.664 -3.279,0.664c-1.02,0 -1.945,-0.173 -2.773,-0.52c-0.828,-0.345 -1.54,-0.831 -2.136,-1.458c-0.598,-0.625 -1.056,-1.366 -1.373,-2.225c-0.317,-0.856 -0.477,-1.805 -0.477,-2.845c0,-1 0.164,-1.927 0.491,-2.773c0.328,-0.848 0.789,-1.584 1.387,-2.211c0.597,-0.625 1.3,-1.116 2.108,-1.472c0.809,-0.357 1.704,-0.535 2.686,-0.535c1.021,0 1.921,0.178 2.702,0.535c0.78,0.356 1.434,0.828 1.964,1.415c0.529,0.587 0.929,1.255 1.199,2.008c0.27,0.75 0.404,1.512 0.404,2.283l0,1.211l-11.208,0c0,0.366 0.072,0.835 0.217,1.401c0.145,0.569 0.409,1.123 0.794,1.662c0.385,0.539 0.901,1 1.545,1.385c0.645,0.387 1.479,0.578 2.499,0.578c0.885,0 1.743,-0.212 2.571,-0.635c0.827,-0.423 1.464,-1.001 1.907,-1.734l1.271,1.07ZM140.176,26.495c0,-0.597 -0.12,-1.155 -0.36,-1.675c-0.242,-0.52 -0.568,-0.977 -0.983,-1.373c-0.415,-0.394 -0.904,-0.708 -1.472,-0.938c-0.569,-0.232 -1.17,-0.346 -1.805,-0.346c-0.944,0 -1.73,0.192 -2.356,0.576c-0.625,0.387 -1.121,0.828 -1.487,1.329c-0.365,0.502 -0.626,0.987 -0.78,1.459c-0.155,0.472 -0.232,0.795 -0.232,0.967l9.475,0l0,0.001Z" style="fill:#5f6062;fill-rule:nonzero;"/><path d="M145.781,24.705c0,-0.25 -0.01,-0.553 -0.029,-0.91c-0.019,-0.357 -0.034,-0.717 -0.043,-1.083c-0.01,-0.366 -0.024,-0.708 -0.044,-1.026c-0.019,-0.318 -0.028,-0.563 -0.028,-0.736l1.732,0c0.02,0.501 0.034,0.982 0.044,1.444c0.01,0.463 0.033,0.761 0.072,0.896l0.087,0c0.347,-0.732 0.924,-1.363 1.733,-1.892c0.808,-0.53 1.752,-0.795 2.83,-0.795c1.041,0 1.887,0.165 2.543,0.491c0.654,0.328 1.17,0.756 1.545,1.285c0.376,0.53 0.636,1.142 0.781,1.835c0.143,0.693 0.216,1.406 0.216,2.137l0,7.944l-1.733,0l0,-7.857c0,-0.54 -0.049,-1.064 -0.144,-1.574c-0.097,-0.511 -0.266,-0.968 -0.506,-1.372c-0.242,-0.405 -0.578,-0.727 -1.011,-0.968c-0.433,-0.241 -0.996,-0.361 -1.69,-0.361c-0.635,0 -1.238,0.11 -1.805,0.333c-0.569,0.221 -1.06,0.558 -1.473,1.01c-0.414,0.453 -0.741,1.021 -0.982,1.705c-0.242,0.683 -0.362,1.488 -0.362,2.412l0,6.672l-1.733,0l0,-9.59l0,0Z" style="fill:#5f6062;fill-rule:nonzero;"/><path d="M168.89,24.272c-0.675,-0.944 -1.579,-1.416 -2.715,-1.416c-0.463,0 -0.916,0.115 -1.358,0.346c-0.443,0.231 -0.665,0.607 -0.665,1.126c0,0.423 0.183,0.733 0.549,0.925c0.366,0.192 0.828,0.357 1.386,0.492c0.559,0.135 1.161,0.274 1.807,0.418c0.644,0.145 1.246,0.365 1.805,0.665c0.559,0.298 1.02,0.708 1.386,1.227c0.366,0.521 0.549,1.233 0.549,2.138c0,0.829 -0.178,1.526 -0.534,2.095c-0.357,0.569 -0.819,1.026 -1.387,1.372c-0.568,0.347 -1.208,0.597 -1.92,0.752c-0.713,0.153 -1.424,0.23 -2.138,0.23c-1.079,0 -2.07,-0.154 -2.976,-0.461c-0.905,-0.308 -1.714,-0.867 -2.425,-1.677l2.309,-2.165c0.443,0.501 0.921,0.909 1.431,1.227c0.509,0.318 1.132,0.477 1.863,0.477c0.25,0 0.511,-0.028 0.779,-0.085c0.27,-0.059 0.52,-0.155 0.752,-0.289c0.232,-0.135 0.418,-0.304 0.564,-0.506c0.144,-0.203 0.216,-0.438 0.216,-0.708c0,-0.481 -0.183,-0.837 -0.548,-1.068c-0.367,-0.233 -0.828,-0.42 -1.387,-0.564c-0.559,-0.144 -1.161,-0.279 -1.805,-0.405c-0.646,-0.124 -1.248,-0.327 -1.806,-0.606c-0.558,-0.279 -1.021,-0.669 -1.388,-1.17c-0.365,-0.501 -0.547,-1.194 -0.547,-2.079c0,-0.771 0.159,-1.44 0.476,-2.009c0.316,-0.568 0.737,-1.035 1.256,-1.401c0.52,-0.365 1.116,-0.635 1.791,-0.808c0.674,-0.174 1.359,-0.261 2.052,-0.261c0.925,0 1.839,0.159 2.744,0.477c0.904,0.318 1.636,0.862 2.195,1.632l-2.311,2.079l0,0Z" style="fill:#5f6062;fill-rule:nonzero;"/><path d="M172.703,23.375l0,-2.946l2.859,0l0,-4.015l3.467,0l0,4.015l3.811,0l0,2.946l-3.811,0l0,6.068c0,0.693 0.129,1.243 0.39,1.645c0.258,0.405 0.774,0.607 1.545,0.607c0.308,0 0.644,-0.033 1.011,-0.1c0.365,-0.068 0.655,-0.179 0.865,-0.333l0,2.918c-0.364,0.174 -0.812,0.292 -1.342,0.361c-0.53,0.068 -0.996,0.101 -1.401,0.101c-0.925,0 -1.68,-0.101 -2.268,-0.303c-0.588,-0.201 -1.049,-0.51 -1.387,-0.924c-0.336,-0.413 -0.568,-0.929 -0.692,-1.546c-0.126,-0.616 -0.188,-1.33 -0.188,-2.137l0,-6.357l-2.859,0l0,0Z" style="fill:#5f6062;fill-rule:nonzero;"/><path d="M194.222,32.389l-0.084,0c-0.504,0.79 -1.138,1.361 -1.908,1.719c-0.771,0.355 -1.618,0.533 -2.543,0.533c-0.635,0 -1.256,-0.085 -1.863,-0.26c-0.607,-0.173 -1.147,-0.433 -1.617,-0.779c-0.472,-0.346 -0.853,-0.779 -1.141,-1.3c-0.288,-0.521 -0.434,-1.127 -0.434,-1.819c0,-0.751 0.135,-1.393 0.404,-1.921c0.27,-0.53 0.63,-0.973 1.085,-1.33c0.452,-0.356 0.975,-0.639 1.574,-0.853c0.596,-0.211 1.218,-0.37 1.862,-0.477c0.646,-0.104 1.296,-0.172 1.951,-0.2c0.655,-0.03 1.271,-0.044 1.848,-0.044l0.867,0l0,-0.375c0,-0.867 -0.299,-1.518 -0.895,-1.95c-0.598,-0.435 -1.358,-0.651 -2.283,-0.651c-0.732,0 -1.416,0.131 -2.051,0.391c-0.635,0.26 -1.184,0.611 -1.645,1.054l-1.822,-1.82c0.772,-0.789 1.672,-1.357 2.703,-1.704c1.03,-0.347 2.094,-0.521 3.191,-0.521c0.982,0 1.811,0.112 2.484,0.332c0.676,0.223 1.233,0.507 1.675,0.853c0.443,0.347 0.786,0.747 1.027,1.199c0.239,0.453 0.413,0.909 0.519,1.372c0.106,0.462 0.169,0.91 0.188,1.343c0.019,0.433 0.029,0.813 0.029,1.141l0,7.972l-3.12,0l0,-1.905l-0.001,0l0,0ZM194.02,28.085l-0.722,0c-0.481,0 -1.02,0.019 -1.618,0.058c-0.597,0.038 -1.161,0.131 -1.689,0.273c-0.53,0.146 -0.978,0.357 -1.344,0.636c-0.367,0.281 -0.549,0.669 -0.549,1.17c0,0.328 0.072,0.601 0.217,0.824c0.144,0.222 0.332,0.409 0.563,0.563c0.231,0.152 0.492,0.265 0.78,0.332c0.29,0.068 0.578,0.101 0.866,0.101c1.194,0 2.076,-0.283 2.644,-0.852c0.567,-0.567 0.852,-1.344 0.852,-2.327l0,-0.778l0,0Z" style="fill:#5f6062;fill-rule:nonzero;"/><path d="M204.651,26.843l-4.796,-6.414l4.217,0l2.774,4.161l3.004,-4.161l3.957,0l-4.737,6.414l5.576,7.451l-4.218,0l-3.611,-4.967l-3.641,4.967l-4.101,0l5.576,-7.451l0,0Z" style="fill:#5f6062;fill-rule:nonzero;"/></g><path d="M81.642,11.288c-0.069,1.473 -1.317,2.613 -2.792,2.541l-62.289,-2.957c-1.47,-0.074 -2.605,-1.327 -2.534,-2.796l0.264,-5.531c0.065,-1.474 1.319,-2.612 2.787,-2.542l62.288,2.959c1.471,0.073 2.61,1.324 2.541,2.797l-0.265,5.529l0,0Z" style="fill:#79b142;fill-rule:nonzero;"/><path d="M61.173,31.529c0,0.889 -0.719,1.605 -1.604,1.605l-50.66,0c-0.882,0 -1.6,-0.715 -1.6,-1.605l0,-7.92c0,-0.882 0.717,-1.597 1.6,-1.597l50.66,0c0.885,0 1.604,0.715 1.604,1.597l0,7.92Z" style="fill:#5f6062;fill-rule:nonzero;"/><path d="M76.749,40.098c0.028,0.881 -0.64,1.623 -1.497,1.653l-57.155,1.782c-0.852,0.024 -1.57,-0.673 -1.598,-1.555l-0.148,-4.704c-0.029,-0.885 0.646,-1.622 1.503,-1.652l57.153,-1.782c0.856,-0.028 1.571,0.671 1.598,1.552l0.144,4.706Z" style="fill:#f5d019;fill-rule:nonzero;"/><path d="M69.074,49.66c-0.001,0.884 -0.675,1.604 -1.504,1.604l-54.56,0c-0.828,0 -1.502,-0.72 -1.502,-1.604l0,-3.143c0,-0.882 0.674,-1.602 1.502,-1.602l54.56,0c0.829,0 1.504,0.72 1.504,1.602l0,3.143Z" style="fill:#232e66;fill-rule:nonzero;"/><path d="M70.481,18.196c0,0.65 -0.972,1.183 -2.162,1.183l-66.161,0c-1.19,0 -2.158,-0.533 -2.158,-1.183l0,-2.564c0,-0.651 0.968,-1.182 2.158,-1.182l66.161,0c1.19,0 2.162,0.531 2.162,1.182l0,2.564Z" style="fill:#f47842;fill-rule:nonzero;"/></svg>