<svg xmlns="http://www.w3.org/2000/svg" viewBox="0 0 100.36 99.29"><defs><style>.cls-1{fill:#222e65;}.cls-2{fill:#fff;}.cls-3{fill:#15c0dc;}.cls-4{fill:#fbbd3c;}</style></defs><title>Asset 36</title><g id="Layer_2" data-name="Layer 2"><g id="Layer_1-2" data-name="Layer 1"><rect class="cls-1" x="10.07" y="9.29" width="28.3" height="28.98" rx="4.6" ry="4.6"/><rect class="cls-2" x="14.31" y="13.53" width="19.82" height="20.5" rx="2.29" ry="2.29"/><rect class="cls-3" x="15.7" y="15.07" width="17.06" height="17.42" rx="2.65" ry="2.65"/><path class="cls-2" d="M30.52,19.94l-.62-.58a1.22,1.22,0,0,0-1.68,0l-5.31,5.22L20.19,22a1.22,1.22,0,0,0-1.68,0l-.6.59a1.11,1.11,0,0,0,0,1.62l3.57,3.38h0l.62.58a1.22,1.22,0,0,0,1.68,0l.6-.59h0l6.14-6A1.11,1.11,0,0,0,30.52,19.94Z"/><rect class="cls-1" x="46.75" y="9.29" width="28.3" height="28.98" rx="4.6" ry="4.6"/><rect class="cls-2" x="50.99" y="13.53" width="19.82" height="20.5" rx="2.29" ry="2.29"/><rect class="cls-3" x="52.37" y="15.07" width="17.06" height="17.42" rx="2.65" ry="2.65"/><path class="cls-2" d="M67.2,19.94l-.62-.58a1.22,1.22,0,0,0-1.68,0l-5.31,5.22L56.86,22a1.22,1.22,0,0,0-1.68,0l-.6.59a1.11,1.11,0,0,0,0,1.62l3.57,3.38h0l.62.58a1.22,1.22,0,0,0,1.68,0l.6-.59h0l6.14-6A1.11,1.11,0,0,0,67.2,19.94Z"/><rect class="cls-1" x="10.07" y="44.11" width="28.3" height="28.98" rx="4.6" ry="4.6"/><rect class="cls-2" x="14.31" y="48.35" width="19.82" height="20.5" rx="2.29" ry="2.29"/><rect class="cls-3" x="15.7" y="49.89" width="17.06" height="17.42" rx="2.65" ry="2.65"/><path class="cls-2" d="M30.52,54.76l-.62-.58a1.22,1.22,0,0,0-1.68,0l-5.31,5.22-2.73-2.58a1.22,1.22,0,0,0-1.68,0l-.6.59a1.11,1.11,0,0,0,0,1.62l3.57,3.38h0l.62.58a1.22,1.22,0,0,0,1.68,0l.6-.59h0l6.14-6A1.11,1.11,0,0,0,30.52,54.76Z"/><rect class="cls-1" x="72.06" y="70.31" width="28.3" height="28.98" rx="4.6" ry="4.6"/><rect class="cls-2" x="76.3" y="74.55" width="19.82" height="20.5" rx="2.29" ry="2.29"/><rect class="cls-4" x="77.68" y="76.09" width="17.06" height="17.42" rx="2.65" ry="2.65"/><rect class="cls-2" x="80.47" y="83.26" width="11.49" height="3.09" rx="0.91" ry="0.91" transform="translate(173.18 168.82) rotate(179.49)"/><circle class="cls-3" cx="49.55" cy="47.73" r="2.8"/><circle class="cls-3" cx="49.55" cy="59.01" r="2.8"/><circle class="cls-3" cx="49.55" cy="70.29" r="2.8"/><circle class="cls-3" cx="72.25" cy="47.73" r="2.8"/><circle class="cls-3" cx="72.25" cy="59.01" r="2.8"/><circle class="cls-3" cx="60.9" cy="47.73" r="2.8"/><circle class="cls-3" cx="60.9" cy="70.29" r="2.8"/><path class="cls-1" d="M68.06,78.89H7.43A3.19,3.19,0,0,1,4.24,75.7V7.43A3.19,3.19,0,0,1,7.43,4.24H76.73a3.19,3.19,0,0,1,3.19,3.19V66.31h4.24V5.55A5.55,5.55,0,0,0,78.61,0H5.55A5.55,5.55,0,0,0,0,5.55v72a5.55,5.55,0,0,0,5.55,5.55H68.06Z"/></g></g></svg>