<svg xmlns="http://www.w3.org/2000/svg" viewBox="0 0 101.24 97.3"><defs><style>.cls-1{fill:#222e65;}.cls-2{fill:none;}.cls-3{fill:#15c0dc;}.cls-4{fill:#fbbd3c;}</style></defs><title>Asset 35</title><g id="Layer_2" data-name="Layer 2"><g id="Layer_1-2" data-name="Layer 1"><path class="cls-1" d="M63.61,97.3H29.37a1.58,1.58,0,0,1-1.25-2.56l3.41-4.34a1.58,1.58,0,0,1,1.25-.61H60.2a1.58,1.58,0,0,1,1.25.61l3.41,4.34A1.58,1.58,0,0,1,63.61,97.3Z"/><circle class="cls-2" cx="55.33" cy="32.16" r="12.15"/><path class="cls-3" d="M75.49,27.69H73.08a18.18,18.18,0,0,0-1.84-4.6l1.69-1.69a2.28,2.28,0,0,0,0-3.23l-3.09-3.09a2.28,2.28,0,0,0-3.23,0L65,16.65a18.19,18.19,0,0,0-5.27-2.24V12.17a2.28,2.28,0,0,0-2.28-2.28H53.11a2.28,2.28,0,0,0-2.28,2.28v2.26a18.18,18.18,0,0,0-5.06,2.14L44.1,14.91a2.28,2.28,0,0,0-3.23,0L37.78,18a2.28,2.28,0,0,0,0,3.23L39.51,23a18.18,18.18,0,0,0-1.92,4.73H35.17A2.28,2.28,0,0,0,32.89,30v4.37a2.28,2.28,0,0,0,2.28,2.28h2.41a18.18,18.18,0,0,0,1.88,4.65L37.78,43a2.28,2.28,0,0,0,0,3.23l3.09,3.09a2.28,2.28,0,0,0,3.23,0l1.58-1.58a18.19,18.19,0,0,0,5.2,2.2v2.31a2.28,2.28,0,0,0,2.28,2.28h4.37a2.28,2.28,0,0,0,2.28-2.28V49.9A18.18,18.18,0,0,0,64.53,48l1.74,1.74a2.28,2.28,0,0,0,3.23,0l3.09-3.09a2.28,2.28,0,0,0,0-3.23l-1.66-1.66a18.18,18.18,0,0,0,2.15-5.1h2.41a2.28,2.28,0,0,0,2.28-2.28V30A2.28,2.28,0,0,0,75.49,27.69ZM55.33,44.32A12.15,12.15,0,1,1,67.48,32.16,12.15,12.15,0,0,1,55.33,44.32Z"/><path class="cls-4" d="M99.82,11.07h-1.5a11.3,11.3,0,0,0-1.15-2.86l1.05-1.05a1.42,1.42,0,0,0,0-2L96.31,3.23a1.42,1.42,0,0,0-2,0l-1,1A11.31,11.31,0,0,0,90,2.81V1.42A1.42,1.42,0,0,0,88.63,0H85.91a1.42,1.42,0,0,0-1.42,1.42V2.83a11.3,11.3,0,0,0-3.15,1.33l-1-1a1.42,1.42,0,0,0-2,0L76.38,5a1.42,1.42,0,0,0,0,2l1.08,1.08a11.3,11.3,0,0,0-1.2,2.94h-1.5a1.42,1.42,0,0,0-1.42,1.42v2.72a1.42,1.42,0,0,0,1.42,1.42h1.5a11.3,11.3,0,0,0,1.17,2.89l-1,1a1.42,1.42,0,0,0,0,2L78.3,24.5a1.42,1.42,0,0,0,2,0l1-1a11.31,11.31,0,0,0,3.23,1.37v1.43a1.42,1.42,0,0,0,1.42,1.42h2.72a1.42,1.42,0,0,0,1.42-1.42V24.88A11.3,11.3,0,0,0,93,23.69l1.08,1.08a1.42,1.42,0,0,0,2,0L98,22.84a1.42,1.42,0,0,0,0-2l-1-1a11.3,11.3,0,0,0,1.34-3.17h1.5a1.42,1.42,0,0,0,1.42-1.42V12.49A1.42,1.42,0,0,0,99.82,11.07ZM87.29,21.41a7.55,7.55,0,1,1,7.55-7.55A7.55,7.55,0,0,1,87.29,21.41Z"/><path class="cls-1" d="M95.18,37.31h-.94a7.12,7.12,0,0,0-.72-1.8l.66-.66a.89.89,0,0,0,0-1.26L93,32.37a.89.89,0,0,0-1.26,0l-.61.61A7.12,7.12,0,0,0,89,32.11v-.88a.89.89,0,0,0-.89-.89H86.42a.89.89,0,0,0-.89.89v.89a7.12,7.12,0,0,0-2,.84l-.65-.65a.89.89,0,0,0-1.26,0l-1.21,1.21a.89.89,0,0,0,0,1.26l.68.68a7.12,7.12,0,0,0-.75,1.85H79.4a.89.89,0,0,0-.89.89v1.71a.89.89,0,0,0,.89.89h.94a7.12,7.12,0,0,0,.73,1.82l-.66.66a.89.89,0,0,0,0,1.26l1.21,1.21a.89.89,0,0,0,1.26,0l.62-.62a7.12,7.12,0,0,0,2,.86v.9a.89.89,0,0,0,.89.89h1.71a.89.89,0,0,0,.89-.89V46a7.12,7.12,0,0,0,1.84-.75l.68.68a.89.89,0,0,0,1.26,0L94,44.72a.89.89,0,0,0,0-1.26l-.65-.65a7.12,7.12,0,0,0,.84-2h.94a.89.89,0,0,0,.89-.89V38.2A.89.89,0,0,0,95.18,37.31Zm-7.89,6.51A4.76,4.76,0,1,1,92,39.06,4.76,4.76,0,0,1,87.29,43.82Z"/><path class="cls-1" d="M89.93,54V72.17H4.24V16.63A3.68,3.68,0,0,1,7.92,13H33.13a27.57,27.57,0,0,1,4.72-4.24H6.54A6.54,6.54,0,0,0,0,15.25v60.5a6.54,6.54,0,0,0,6.54,6.54H87.63a6.54,6.54,0,0,0,6.54-6.54V53.37A14.87,14.87,0,0,1,89.93,54ZM53.16,77.62A1.15,1.15,0,0,1,52,78.77H42.16A1.15,1.15,0,0,1,41,77.62V76a1.15,1.15,0,0,1,1.15-1.15H52A1.15,1.15,0,0,1,53.16,76Z"/></g></g></svg>