<svg xmlns="http://www.w3.org/2000/svg" viewBox="0 0 77.34 99.18"><defs><style>.cls-1{fill:#15c0dc;}.cls-2{fill:#fff;}.cls-3{fill:#fbbd3c;}.cls-4{fill:#222e65;}</style></defs><title>Asset 34</title><g id="Layer_2" data-name="Layer 2"><g id="Layer_1-2" data-name="Layer 1"><rect class="cls-1" x="15.3" y="8.9" width="53.62" height="4.03" rx="2.02" ry="2.02"/><rect class="cls-1" x="15.3" y="16.63" width="53.62" height="4.03" rx="2.02" ry="2.02"/><circle class="cls-2" cx="42.06" cy="56.73" r="22.11"/><path class="cls-3" d="M46.62,68.22a3,3,0,0,1-3-3V62.85a3,3,0,0,1,3-3H61.53a18,18,0,0,0,.07-5.79h-15a3,3,0,0,1-3-3V48.7a3,3,0,0,1,3-3H58.43a19.75,19.75,0,1,0-.33,22.52Z"/><path class="cls-4" d="M42.06,30.1A26.63,26.63,0,0,0,20.85,72.82c-.06.05-.13.09-.18.15L1.15,92.49A3.92,3.92,0,0,0,6.69,98L26.21,78.52c.08-.08.13-.16.2-.24A26.63,26.63,0,1,0,42.06,30.1Zm0,48.75A22.11,22.11,0,1,1,64.18,56.73,22.11,22.11,0,0,1,42.06,78.85Z"/><path class="cls-2" d="M33.46,48.71a3.47,3.47,0,0,0,.88-.19.66.66,0,0,0,.47-.62.74.74,0,0,0-.36-.71,2.3,2.3,0,0,0-1.07-.2,1.4,1.4,0,0,0-1.12.38,1.6,1.6,0,0,0-.31.77H29.84a3.21,3.21,0,0,1,.62-1.81,3.61,3.61,0,0,1,3-1.11,5.35,5.35,0,0,1,2.46.55A2.1,2.1,0,0,1,37,47.83v3.85q0,.4,0,1a1.22,1.22,0,0,0,.13.58.79.79,0,0,0,.32.25v.32H35.07a2.41,2.41,0,0,1-.14-.48q0-.22-.06-.51a4.53,4.53,0,0,1-1.05.84,3.18,3.18,0,0,1-1.61.41,2.78,2.78,0,0,1-1.89-.65,2.31,2.31,0,0,1-.75-1.84,2.39,2.39,0,0,1,1.2-2.24,5.36,5.36,0,0,1,1.94-.54Zm1.34,1a2.46,2.46,0,0,1-.43.21,3.6,3.6,0,0,1-.59.15l-.5.09a3.3,3.3,0,0,0-1,.3,1,1,0,0,0-.52.93,1,1,0,0,0,.32.81,1.2,1.2,0,0,0,.77.25,2.29,2.29,0,0,0,1.32-.42,1.76,1.76,0,0,0,.63-1.52Z"/><path class="cls-2" d="M38.87,51.51H41.2v2.3H38.87Z"/><path class="cls-2" d="M37.3,60.38a4.82,4.82,0,0,1,.94,3.08,5.39,5.39,0,0,1-.93,3.24,3.37,3.37,0,0,1-4.27.87,3.35,3.35,0,0,1-.82-.86v1.05H30.06V56.43h2.19v4a3.2,3.2,0,0,1,.92-.89,2.75,2.75,0,0,1,1.52-.38A3.14,3.14,0,0,1,37.3,60.38Zm-1.83,5.11a3.11,3.11,0,0,0,.47-1.8,4,4,0,0,0-.23-1.48,1.62,1.62,0,0,0-1.63-1.11,1.65,1.65,0,0,0-1.65,1.09,4.05,4.05,0,0,0-.23,1.49,3.11,3.11,0,0,0,.48,1.79,1.65,1.65,0,0,0,1.47.71A1.52,1.52,0,0,0,35.47,65.49Z"/><path class="cls-2" d="M39.73,65.46h2.33v2.3H39.73Z"/><path class="cls-4" d="M71.16,0H12.85A6.18,6.18,0,0,0,6.67,6.18V82l4-4V7.29A3.3,3.3,0,0,1,14,4H69.88a3.3,3.3,0,0,1,3.3,3.3V84.35a3.3,3.3,0,0,1-3.3,3.3H22L17.7,92H71.16a6.18,6.18,0,0,0,6.18-6.18V6.18A6.18,6.18,0,0,0,71.16,0Z"/><path class="cls-1" d="M17.32,28.18h8a32.9,32.9,0,0,1,10.83-4H17.32a2,2,0,1,0,0,4Z"/></g></g></svg>