<?xml version="1.0" encoding="UTF-8"?>
<svg width="24px" height="24px" viewBox="0 0 24 24" version="1.1" xmlns="http://www.w3.org/2000/svg" xmlns:xlink="http://www.w3.org/1999/xlink">
    <!-- Generator: sketchtool 59.1 (101010) - https://sketch.com -->
    <title>EED8EF18-A4DA-499F-8E8D-9A24DA74C293</title>
    <desc>Created with sketchtool.</desc>
    <g id="My-highlighting-Visual-updates" stroke="none" stroke-width="1" fill="none" fill-rule="evenodd">
        <g id="Tutor//-My-highlights-page//-No-highlights" transform="translate(-507.000000, -510.000000)">
            <g id="Group-3" transform="translate(0.000000, 50.000000)">
                <g id="Instructions-Copy-3" transform="translate(276.000000, 382.000000)">
                    <g id="Highlight-icon" transform="translate(231.000000, 78.000000)">
                        <rect id="Combined-Shape" fill="#5E6062" x="0" y="0" width="24" height="24" rx="1"></rect>
                        <g id="noun_highlighter_99741_ffffff-2" transform="translate(7.000000, 7.500000)">
                            <g id="noun_highlighter_99741_ffffff">
                                <path d="M7.75623932,0 C6.8839886,0 6.32387464,0.455313393 6.32387464,0.455313393 C6.23031339,0.531372134 6.0754416,0.654084393 5.97982906,0.727857216 L2.48159544,3.42825424 C2.38586895,3.50213097 2.30769231,3.65601485 2.30769231,3.77031077 L2.30769231,4.54211996 C2.30769231,4.65641588 2.37960114,4.81653408 2.46757835,4.8979959 L4.71190883,6.97693483 C4.79988604,7.05839665 4.97435897,7.125 5.0997151,7.125 L5.92603989,7.125 C6.05139601,7.125 6.21903134,7.05268185 6.29846154,6.96436228 L9.21447293,3.72313772 C9.29401709,3.63471424 9.42678063,3.49225996 9.50951567,3.40643411 C9.50951567,3.40643411 10,2.89802507 10,2.07800378 C9.99988604,0.930368809 8.9954416,0 7.75623932,0 Z M5.51270655,5.34375 L4.87168091,4.74993073 L7.43589744,2.37496536 L8.07680912,2.96868073 L5.51270655,5.34375 Z" id="Shape" fill="#FFFFFF" fill-rule="nonzero"></path>
                                <polygon id="Path" fill="#0DC0DC" points="5.51270655 5.34375 4.87168091 4.74993073 7.43589744 2.37496536 8.07680912 2.96868073"></polygon>
                                <path d="M3.78838821,7.30523305 C3.86540906,7.37237086 3.86540906,7.48224051 3.78838821,7.54937832 L3.50714239,7.79463685 C3.43012154,7.86177466 3.27737682,7.91666667 3.16763209,7.91666667 L0.19953588,7.91666667 C0.0897911458,7.91666667 0,7.8395952 0,7.74539675 L0,7.10930026 C0,7.0151018 0.06295357,6.88313833 0.13997442,6.81600052 L1.54360956,5.59202002 C1.62063041,5.52488221 1.74653755,5.52488221 1.8235584,5.59202002 L3.78838821,7.30523305 Z" id="Path" fill="#FFFFFF" fill-rule="nonzero"></path>
                                <path d="M9.44444444,9.03431373 L0.555555556,9.03431373 C0.248777778,9.03431373 0,8.78407255 0,8.4754902 L0,8.4754902 C0,8.16690784 0.248777778,7.91666667 0.555555556,7.91666667 L9.44444444,7.91666667 C9.75122222,7.91666667 10,8.16690784 10,8.4754902 L10,8.4754902 C10,8.78407255 9.75122222,9.03431373 9.44444444,9.03431373 Z" id="Path" fill="#0DC0DC" fill-rule="nonzero"></path>
                            </g>
                        </g>
                    </g>
                </g>
            </g>
        </g>
    </g>
</svg>