<?xml version="1.0" encoding="UTF-8"?>
<svg width="24px" height="24px" viewBox="0 0 24 24" version="1.1" xmlns="http://www.w3.org/2000/svg" xmlns:xlink="http://www.w3.org/1999/xlink">
    <!-- Generator: sketchtool 59.1 (101010) - https://sketch.com -->
    <title>DF165590-A5FB-4221-B51E-5C29F920F49D</title>
    <desc>Created with sketchtool.</desc>
    <g id="My-highlighting-Visual-updates" stroke="none" stroke-width="1" fill="none" fill-rule="evenodd">
        <g id="Tutor//-My-highlights-page//-No-highlights" transform="translate(-472.000000, -583.000000)">
            <g id="Group-3" transform="translate(0.000000, 50.000000)">
                <g id="Instructions-Copy-3" transform="translate(276.000000, 382.000000)">
                    <g id="Notes-icon" transform="translate(196.000000, 151.000000)">
                        <rect id="Combined-Shape-Copy" fill="#5E6062" x="0" y="0" width="24" height="24" rx="1"></rect>
                        <g id="Group-Copy" transform="translate(6.500000, 8.500000)">
                            <path d="M0.5,7 C0.223857625,7 3.38176876e-17,6.77614237 0,6.5 L0,0.5 C-3.38176876e-17,0.223857625 0.223857625,5.07265313e-17 0.5,0 L10.5,0 C10.7761424,-5.07265313e-17 11,0.223857625 11,0.5 L11,6.5 C11,6.77614237 10.7761424,7 10.5,7 L8.5,7 L7.5,8 L6.5,7 L0.5,7 Z" id="Combined-Shape" fill="#FFFFFF"></path>
                            <rect id="Rectangle" fill="#0DC0DC" x="1.5" y="3.5" width="6" height="1" rx="0.2"></rect>
                            <rect id="Rectangle-Copy" fill="#0DC0DC" x="1.5" y="1.5" width="8" height="1" rx="0.2"></rect>
                        </g>
                    </g>
                </g>
            </g>
        </g>
    </g>
</svg>