<svg viewBox="0 0 123 18" xmlns="http://www.w3.org/2000/svg" fill-rule="evenodd" clip-rule="evenodd" stroke-linejoin="round" stroke-miterlimit="1.414"><g fill="#edaa00"><path d="M22.938 9.475h2.067c.364 0 .663-.087.897-.26.234-.173.351-.455.351-.845 0-.217-.039-.394-.117-.533a.863.863 0 0 0-.312-.325 1.305 1.305 0 0 0-.448-.162 2.927 2.927 0 0 0-.527-.046h-1.911v2.171zm-2.041-3.757h4.368c.442 0 .845.039 1.209.117.364.078.676.206.936.384.26.177.461.413.605.708.143.295.214.659.214 1.092 0 .468-.106.858-.318 1.17-.213.312-.527.568-.943.767.572.165.999.453 1.281.865.281.411.422.907.422 1.488 0 .468-.091.873-.273 1.216a2.378 2.378 0 0 1-.734.838 3.25 3.25 0 0 1-1.053.481c-.395.104-.8.156-1.216.156h-4.498V5.718zm2.041 7.696h2.184c.199 0 .39-.019.572-.058.182-.04.342-.104.481-.195a.994.994 0 0 0 .332-.371 1.28 1.28 0 0 0 .123-.598c0-.477-.134-.817-.403-1.02-.269-.204-.624-.306-1.066-.306h-2.223v2.548zm7.111-7.696V15h7.046v-1.716H32.09v-2.275h4.498V9.423H32.09V7.434h4.901V5.718h-6.942zm9.815 6.201h-1.976c-.009.572.095 1.066.312 1.482.217.416.509.758.878 1.027.368.269.792.466 1.274.592.481.125.977.188 1.488.188.633 0 1.189-.074 1.671-.221a3.541 3.541 0 0 0 1.209-.617 2.58 2.58 0 0 0 .734-.943 2.83 2.83 0 0 0 .247-1.183c0-.52-.11-.947-.331-1.28a2.78 2.78 0 0 0-.787-.8 3.468 3.468 0 0 0-.916-.435 8.676 8.676 0 0 0-.722-.189c-.581-.147-1.051-.269-1.41-.364a5.198 5.198 0 0 1-.845-.286c-.204-.095-.341-.199-.41-.312a.838.838 0 0 1-.104-.442.87.87 0 0 1 .13-.494 1.13 1.13 0 0 1 .332-.325c.134-.087.283-.147.448-.182a2.37 2.37 0 0 1 .494-.052c.251 0 .483.022.696.065.212.043.4.117.565.221.165.104.297.247.397.429.099.182.158.412.175.689h1.976c0-.537-.102-.994-.305-1.371a2.66 2.66 0 0 0-.826-.93 3.475 3.475 0 0 0-1.189-.526 5.88 5.88 0 0 0-1.398-.163c-.416 0-.832.056-1.248.169a3.488 3.488 0 0 0-1.118.52 2.754 2.754 0 0 0-.799.878c-.204.351-.306.764-.306 1.241 0 .425.08.786.241 1.086.16.299.37.548.63.747.26.199.555.362.884.488.329.125.667.231 1.014.318.338.095.672.182 1.001.26.329.078.624.169.884.273.26.104.47.234.631.39.16.156.24.36.24.611a.901.901 0 0 1-.182.579c-.121.151-.273.27-.455.357a2.047 2.047 0 0 1-.585.176 4.11 4.11 0 0 1-.585.045c-.269 0-.529-.032-.78-.097a1.965 1.965 0 0 1-.656-.299 1.48 1.48 0 0 1-.449-.527c-.113-.217-.169-.481-.169-.793zm9.1-4.485V15h2.041V7.434h2.782V5.718h-7.605v1.716h2.782zm10.855 2.73h2.418c.702.009 1.215-.134 1.541-.429.325-.295.487-.719.487-1.274s-.162-.977-.487-1.267c-.326-.291-.839-.436-1.541-.436h-2.418v3.406zm-1.235-4.446h4.069c.936 0 1.644.24 2.126.722.481.481.721 1.154.721 2.021s-.24 1.543-.722 2.028c-.481.485-1.189.724-2.125.715h-2.834V15h-1.235V5.718zm8.424 0h4.368c.884 0 1.575.217 2.073.65.499.433.748 1.027.748 1.781 0 .563-.128 1.057-.383 1.482-.256.425-.666.715-1.229.871v.026c.269.052.487.139.656.26a1.4 1.4 0 0 1 .403.435c.1.17.174.358.221.566.048.208.085.425.111.65.017.225.03.455.039.689.009.234.03.464.065.689.035.225.084.44.149.643.066.204.163.384.293.54h-1.378a.776.776 0 0 1-.176-.39 4.125 4.125 0 0 1-.058-.553l-.026-.656a4.612 4.612 0 0 0-.078-.689 6.912 6.912 0 0 0-.13-.644 1.511 1.511 0 0 0-.247-.533 1.239 1.239 0 0 0-.442-.364c-.182-.091-.425-.136-.728-.136h-3.016V15h-1.235V5.718zm3.809 4.277c.286 0 .559-.022.819-.065.26-.043.487-.128.682-.254a1.37 1.37 0 0 0 .468-.507c.118-.212.176-.487.176-.825 0-.468-.13-.849-.39-1.144-.26-.295-.68-.442-1.261-.442h-3.068v3.237h2.574zm6.695 1.17h3.146l-1.547-4.329h-.026l-1.573 4.329zm.923-5.447H79.8L83.427 15h-1.365l-1.014-2.795h-3.926L76.082 15h-1.261l3.614-9.282zm12.428 2.795h1.235a3.462 3.462 0 0 0-.442-1.307 3.204 3.204 0 0 0-.845-.942 3.715 3.715 0 0 0-1.157-.572 4.771 4.771 0 0 0-1.378-.195c-.711 0-1.341.128-1.892.383a3.923 3.923 0 0 0-1.378 1.047c-.368.442-.647.96-.838 1.553a6.187 6.187 0 0 0-.286 1.905c0 .676.089 1.309.266 1.898.178.589.445 1.101.8 1.534.355.433.802.773 1.339 1.02.537.248 1.166.371 1.885.371 1.187 0 2.123-.325 2.808-.975.685-.65 1.088-1.56 1.209-2.73h-1.235a3.542 3.542 0 0 1-.234 1.066c-.13.329-.31.613-.54.851a2.43 2.43 0 0 1-.819.559 2.74 2.74 0 0 1-1.085.202c-.555 0-1.031-.104-1.43-.312a2.786 2.786 0 0 1-.982-.839 3.591 3.591 0 0 1-.565-1.235 6.022 6.022 0 0 1-.182-1.501c0-.485.061-.953.182-1.404.121-.451.31-.851.565-1.203.256-.351.581-.63.975-.838.395-.208.869-.312 1.424-.312.65 0 1.211.165 1.683.494.473.329.778.823.917 1.482zm4.966-1.755V15h1.235V6.758h3.094v-1.04h-7.423v1.04h3.094zm5.408-1.04V15h1.235V5.718h-1.235zm9.841 2.795h1.235a3.462 3.462 0 0 0-.442-1.307 3.204 3.204 0 0 0-.845-.942 3.715 3.715 0 0 0-1.157-.572 4.771 4.771 0 0 0-1.378-.195c-.711 0-1.341.128-1.892.383a3.923 3.923 0 0 0-1.378 1.047c-.368.442-.647.96-.838 1.553a6.187 6.187 0 0 0-.286 1.905c0 .676.089 1.309.266 1.898.178.589.445 1.101.8 1.534.355.433.802.773 1.339 1.02.537.248 1.166.371 1.885.371 1.187 0 2.123-.325 2.808-.975.685-.65 1.088-1.56 1.209-2.73h-1.235a3.542 3.542 0 0 1-.234 1.066c-.13.329-.31.613-.54.851a2.43 2.43 0 0 1-.819.559 2.74 2.74 0 0 1-1.085.202c-.555 0-1.031-.104-1.43-.312a2.786 2.786 0 0 1-.982-.839 3.591 3.591 0 0 1-.565-1.235 6.022 6.022 0 0 1-.182-1.501c0-.485.061-.953.182-1.404.121-.451.31-.851.565-1.203.256-.351.581-.63.975-.838.395-.208.869-.312 1.424-.312.65 0 1.211.165 1.683.494.473.329.778.823.917 1.482zm2.86-2.795V15h6.448v-1.04h-5.213v-3.211h4.823v-1.04h-4.823V6.758h5.174v-1.04h-6.409z"/><path d="M3 14.25a.718.718 0 0 0-.223-.527.718.718 0 0 0-.527-.223.712.712 0 0 0-.533.223.727.727 0 0 0-.217.527c0 .211.072.389.217.533A.722.722 0 0 0 2.25 15a.727.727 0 0 0 .527-.217A.712.712 0 0 0 3 14.25zm1.875-6v7.5a.718.718 0 0 1-.223.527.718.718 0 0 1-.527.223H.75a.718.718 0 0 1-.527-.223A.718.718 0 0 1 0 15.75v-7.5c0-.203.074-.379.223-.527A.718.718 0 0 1 .75 7.5h3.375c.203 0 .379.074.527.223a.718.718 0 0 1 .223.527zm13.875 0c0 .672-.215 1.254-.645 1.746.118.344.176.641.176.891a2.425 2.425 0 0 1-.504 1.605c.133.438.133.895 0 1.371a2.282 2.282 0 0 1-.632 1.102c.07.875-.122 1.582-.575 2.121-.5.594-1.269.898-2.308.914H12.75a8.7 8.7 0 0 1-1.687-.182 14.934 14.934 0 0 1-1.424-.339 66.51 66.51 0 0 1-1.412-.463c-.961-.336-1.579-.508-1.852-.516a.773.773 0 0 1-.527-.229.698.698 0 0 1-.223-.521V8.238c0-.195.07-.365.211-.509a.77.77 0 0 1 .504-.241c.187-.015.484-.246.89-.691.407-.445.801-.918 1.184-1.418.531-.68.926-1.149 1.184-1.406.14-.141.261-.328.363-.563.102-.234.17-.424.205-.568.035-.145.088-.381.158-.709a11.6 11.6 0 0 1 .147-.715c.043-.172.119-.375.228-.609.11-.235.242-.43.399-.586A.718.718 0 0 1 11.625 0c.359 0 .682.041.967.123.285.082.519.184.703.305.184.121.34.279.469.474.129.196.222.371.281.528.059.156.105.351.141.586.035.234.054.41.058.527.004.117.006.269.006.457 0 .297-.037.594-.111.891a4.897 4.897 0 0 1-.223.703 9.853 9.853 0 0 1-.439.867c-.055.094-.098.18-.129.258a2.701 2.701 0 0 0-.094.281H16.5c.609 0 1.137.223 1.582.668.445.445.668.973.668 1.582z" fill-rule="nonzero"/></g></svg>