<?xml version="1.0" encoding="utf-8"?>
<!-- Generator: Adobe Illustrator 16.0.0, SVG Export Plug-In . SVG Version: 6.00 Build 0)  -->
<!DOCTYPE svg PUBLIC "-//W3C//DTD SVG 1.1//EN" "http://www.w3.org/Graphics/SVG/1.1/DTD/svg11.dtd">
<svg version="1.1" id="Layer_1" xmlns="http://www.w3.org/2000/svg" xmlns:xlink="http://www.w3.org/1999/xlink" x="0px" y="0px"
	 width="33px" height="33px" viewBox="0 0 33 33" enable-background="new 0 0 33 33" xml:space="preserve">
<g>
	<circle fill="#FFFFFF" cx="16.5" cy="16.5" r="16.5"/>
	<path fill="#5E6062" d="M23.715,12.134c-1.178-0.811-4.236-2.695-7.216-2.695c-4.646,0-10.91,4.424-10.998,7.033
		c-0.024,0.758,0.441,1.636,1.385,2.612c2.101,2.172,6.184,4.479,9.613,4.479c3.359,0,7.56-2.31,9.683-4.542
		c0.91-0.958,1.354-1.82,1.316-2.52C27.498,14.825,24.346,12.569,23.715,12.134z M13.777,15.572h-0.809
		c0.087-1.821,1.619-3.272,3.502-3.272v0.792C15.034,13.092,13.862,14.188,13.777,15.572z M14.727,17.208
		c-0.002,0.054-0.008,0.106-0.008,0.16v-0.16H14.727z M24.93,17.83c-1.832,1.926-5.576,4.005-8.431,4.005
		c-2.809,0-6.532-2.052-8.371-3.952c-0.749-0.775-0.903-1.24-0.899-1.354c0.022-0.679,2.522-3.212,5.638-4.539
		c-0.956,0.941-1.551,2.248-1.551,3.696c0,2.863,2.32,5.184,5.184,5.184c2.863,0,5.183-2.32,5.183-5.184
		c0-1.368-0.533-2.609-1.398-3.535c2.846,1.328,5.348,3.617,5.488,4.394C25.777,16.649,25.637,17.087,24.93,17.83z"/>
</g>
</svg>
