<svg width="49" height="48" viewBox="0 0 49 48" fill="none" xmlns="http://www.w3.org/2000/svg">
<ellipse cx="24.5" cy="24" rx="24.5" ry="24" fill="white"/>
<mask id="mask0" mask-type="alpha" maskUnits="userSpaceOnUse" x="18" y="16" width="18" height="16">
<path fill-rule="evenodd" clip-rule="evenodd" d="M30.5812 18.6L33.4 21.4188C33.5187 21.5375 33.5187 21.7313 33.4 21.85L26.575 28.675L23.675 28.9969C23.2875 29.0407 22.9594 28.7125 23.0031 28.325L23.325 25.425L30.15 18.6C30.2687 18.4813 30.4625 18.4813 30.5812 18.6ZM35.6438 17.8844L34.1188 16.3594C33.6438 15.8844 32.8719 15.8844 32.3938 16.3594L31.2875 17.4657C31.1688 17.5844 31.1688 17.7782 31.2875 17.8969L34.1063 20.7157C34.225 20.8344 34.4188 20.8344 34.5375 20.7157L35.6438 19.6094C36.1187 19.1313 36.1187 18.3594 35.6438 17.8844ZM30 26.8188V30.0001H20V20.0001H27.1813C27.2813 20.0001 27.375 19.9594 27.4469 19.8907L28.6969 18.6407C28.9344 18.4032 28.7656 18.0001 28.4313 18.0001H19.5C18.6719 18.0001 18 18.6719 18 19.5001V30.5001C18 31.3282 18.6719 32.0001 19.5 32.0001H30.5C31.3281 32.0001 32 31.3282 32 30.5001V25.5688C32 25.2344 31.5969 25.0688 31.3594 25.3032L30.1094 26.5532C30.0406 26.6251 30 26.7188 30 26.8188Z" fill="white"/>
</mask>
<g mask="url(#mask0)">
<rect x="18" y="15" width="18" height="18" fill="#007297"/>
</g>
</svg>
