<?xml version="1.0" encoding="utf-8"?>
<!-- Generator: Adobe Illustrator 20.0.0, SVG Export Plug-In . SVG Version: 6.00 Build 0)  -->
<svg version="1.1" id="Layer_1" xmlns="http://www.w3.org/2000/svg" xmlns:xlink="http://www.w3.org/1999/xlink" x="0px" y="0px"
	 viewBox="0 0 24 25.1" style="enable-background:new 0 0 24 25.1;" xml:space="preserve">
<style type="text/css">
	.st0{fill:#FFFFFF;}
	.st1{opacity:0.6;fill:#FFFFFF;}
</style>
<g>
	<path class="st0" d="M7.6,9.1L5.9,7.3l0.4-0.5c3-3,7.9-3,10.9,0c1.9,1.9,2.6,4.6,2,7.2h4.7c0.6-3.8-0.7-7.7-3.4-10.5
		C15.6-1.2,7.9-1.2,3.1,3.6L2.7,4L0.8,2.3v6.7H7.6z"/>
	<path class="st1" d="M17.6,18.4l-0.3,0.3l0,0c-3,2.6-7.5,2.4-10.4-0.4c-1.9-1.9-2.7-4.7-2-7.3H0.1c-0.6,3.9,0.7,7.8,3.4,10.5
		c4.8,4.8,12.6,4.8,17.4,0l0.4-0.4l1.4,1.3l0.4-6.3h-6.7l1.7,1.7l-0.4,0.5C17.7,18.3,17.7,18.3,17.6,18.4z"/>
</g>
</svg>
