<?xml version="1.0" encoding="utf-8"?>
<!-- Generator: Adobe Illustrator 16.0.0, SVG Export Plug-In . SVG Version: 6.00 Build 0)  -->
<!DOCTYPE svg PUBLIC "-//W3C//DTD SVG 1.1 Tiny//EN" "http://www.w3.org/Graphics/SVG/1.1/DTD/svg11-tiny.dtd">
<svg version="1.1" baseProfile="tiny" id="Layer_1" xmlns="http://www.w3.org/2000/svg" xmlns:xlink="http://www.w3.org/1999/xlink"
	 x="0px" y="0px" width="40px" height="40px" viewBox="0 0 40 40" xml:space="preserve">
<circle fill="#F47642" cx="20" cy="20" r="20"/>
<rect x="28.758" y="12.375" transform="matrix(0.8965 0.4431 -0.4431 0.8965 13.855 -10.5536)" fill="#FFFFFF" width="1.512" height="24"/>
<g>
	<rect x="9.405" y="8.034" transform="matrix(0.8965 0.443 -0.443 0.8965 9.1115 -6.9373)" fill="#FFFFFF" width="20" height="16"/>
	<rect x="12.839" y="5.333" transform="matrix(0.8965 0.443 -0.443 0.8965 4.8354 -6.0363)" fill="#5F6263" width="5" height="4"/>
	<rect x="15.55" y="11.133" transform="matrix(0.8965 0.443 -0.443 0.8965 7.6857 -6.6368)" fill="#5F6263" width="5" height="4"/>
	
		<rect x="21.804" y="9.763" transform="matrix(0.8966 0.4429 -0.4429 0.8966 7.7238 -9.5482)" fill="#5F6263" width="5.001" height="4"/>
	
		<rect x="24.515" y="15.563" transform="matrix(0.8966 0.4429 -0.4429 0.8966 10.5734 -10.1486)" fill="#5F6263" width="5" height="4.001"/>
	<rect x="9.295" y="12.505" transform="matrix(0.8965 0.443 -0.443 0.8965 7.6467 -3.7245)" fill="#5F6263" width="5" height="4"/>
	
		<rect x="12.006" y="18.306" transform="matrix(0.8965 0.443 -0.443 0.8965 10.4961 -4.3247)" fill="#5F6263" width="5" height="4"/>
	<rect x="18.26" y="16.935" transform="matrix(0.8965 0.443 -0.443 0.8965 10.5359 -7.2372)" fill="#5F6263" width="5" height="4"/>
	
		<rect x="20.97" y="22.736" transform="matrix(0.8965 0.4431 -0.4431 0.8965 13.3906 -7.8391)" fill="#5F6263" width="5.001" height="4"/>
</g>
</svg>
