<?xml version="1.0" encoding="UTF-8"?>
<svg width="28px" height="25px" viewBox="0 0 28 25" version="1.1" xmlns="http://www.w3.org/2000/svg" xmlns:xlink="http://www.w3.org/1999/xlink">
    <!-- Generator: Sketch 41 (35326) - http://www.bohemiancoding.com/sketch -->
    <title>icon - create new course</title>
    <desc>Created with Sketch.</desc>
    <defs></defs>
    <g id="Symbols" stroke="none" stroke-width="1" fill="none" fill-rule="evenodd">
        <g id="icon---create-new-course" fill="#979797">
            <g id="Group-3">
                <path d="M23.0353261,5.49490792 L23.0353261,0 L24.3478261,1.33928571 L0,1.33928571 L1.3125,0 L1.3125,25 L0,23.6607143 L24.3478261,23.6607143 L23.0353261,25 L23.0353261,19.1859654 L24.3478261,19.1859654 L24.3478261,25 L0,25 L0,0 L24.3478261,0 L24.3478261,5.49490792 L23.0353261,5.49490792 Z M23.0707826,11.5228571 L23.0707826,7.14285714 L21.7462609,7.14285714 L21.7462609,11.5228571 L17.5,11.5228571 L17.5,12.8828571 L21.7462609,12.8828571 L21.7462609,17.2628571 L23.0707826,17.2628571 L23.0707826,12.8828571 L27.3170435,12.8828571 L27.3170435,11.5228571 L23.0707826,11.5228571 Z" id="Combined-Shape"></path>
            </g>
        </g>
    </g>
</svg>