<?xml version="1.0" encoding="UTF-8"?>
<svg width="28px" height="28px" viewBox="0 0 28 28" version="1.1" xmlns="http://www.w3.org/2000/svg" xmlns:xlink="http://www.w3.org/1999/xlink">
    <!-- Generator: Sketch 41 (35326) - http://www.bohemiancoding.com/sketch -->
    <title>icon - copy question library</title>
    <desc>Created with Sketch.</desc>
    <defs></defs>
    <g id="Symbols" stroke="none" stroke-width="1" fill="none" fill-rule="evenodd">
        <g id="icon---don't-copy-question-library" transform="translate(0.000000, -1.000000)" fill="#979797">
            <g id="icon---copy-question-library" transform="translate(0.000000, 1.000000)">
                <g id="Group-3">
                    <polygon id="Rectangle-4" points="21.6425121 6.80745443 21.6425121 0 0 0 0 21.7777778 6.72922092 21.7777778 6.72922092 20.6111111 0 20.6111111 1.16666667 21.7777778 1.16666667 0 0 1.16666667 21.6425121 1.16666667 20.4758454 0 20.4758454 6.80745443"></polygon>
                    <path d="M6.22222222,7.38888889 L7.38888889,6.22222222 L7.38888889,28 L6.22222222,26.8333333 L27.8647343,26.8333333 L26.6980676,28 L26.6980676,6.22222222 L27.8647343,7.38888889 L6.22222222,7.38888889 Z M27.8647343,6.22222222 L27.8647343,28 L6.22222222,28 L6.22222222,6.22222222 L27.8647343,6.22222222 Z M22.5,13 L23,13 L23,12 L22.5,12 L11.5,12 L11,12 L11,13 L11.5,13 L22.5,13 Z M22.5,16 L23,16 L23,15 L22.5,15 L11.5,15 L11,15 L11,16 L11.5,16 L22.5,16 Z M22.5,19 L23,19 L23,18 L22.5,18 L11.5,18 L11,18 L11,19 L11.5,19 L22.5,19 Z M22.5,22 L23,22 L23,21 L22.5,21 L11.5,21 L11,21 L11,22 L11.5,22 L22.5,22 Z" id="Combined-Shape"></path>
                </g>
            </g>
            <polygon id="Line" points="0.14519195 28.1477057 -0.207102313 28.5025138 0.502513786 29.2071023 0.85480805 28.8522943 27.5425522 1.97412044 27.8948465 1.61931239 27.1852304 0.914723859 26.8329361 1.26953191"></polygon>
        </g>
    </g>
</svg>