<svg width="51" height="52" viewBox="0 0 51 52" fill="none" xmlns="http://www.w3.org/2000/svg">
<path d="M49.5 25.8696C49.5 39.3489 38.7346 50.2391 25.5 50.2391C12.2654 50.2391 1.5 39.3489 1.5 25.8696C1.5 12.3902 12.2654 1.5 25.5 1.5C38.7346 1.5 49.5 12.3902 49.5 25.8696Z" fill="white" stroke="#2FA5E0" stroke-width="3"/>
<path d="M22.2874 33.6858L15.3142 26.7126C14.8953 26.2936 14.8953 25.6144 15.3142 25.1954L16.8313 23.6782C17.2503 23.2592 17.9296 23.2592 18.3485 23.6782L23.046 28.3756L33.1075 18.3142C33.5264 17.8953 34.2057 17.8953 34.6247 18.3142L36.1418 19.8314C36.5607 20.2503 36.5607 20.9296 36.1418 21.3486L23.8046 33.6858C23.3856 34.1047 22.7063 34.1047 22.2874 33.6858V33.6858Z" fill="#2FA5E0"/>
</svg>
