<svg xmlns="http://www.w3.org/2000/svg" viewBox="0 0 63 63"><defs><style>.cls-1{fill:#fff;}</style></defs><title>pending verification</title><g id="Layer_2" data-name="Layer 2"><g id="Layer_1-2" data-name="Layer 1"><path class="cls-1" d="M15.6,4.32A30.84,30.84,0,0,1,31.5,0a31,31,0,0,1,16,4.32A29.87,29.87,0,0,1,58.68,15.52,31,31,0,0,1,63,31.5a31,31,0,0,1-4.32,16A29.86,29.86,0,0,1,47.48,58.68,31,31,0,0,1,31.5,63a31,31,0,0,1-16-4.32A30.41,30.41,0,0,1,4.32,47.4,30.84,30.84,0,0,1,0,31.5,31.52,31.52,0,0,1,15.6,4.32Zm3.18,49a25,25,0,0,0,25.44,0,24.53,24.53,0,0,0,9.09-9.09,25,25,0,0,0,0-25.44,24.55,24.55,0,0,0-9.09-9.09,25,25,0,0,0-25.44,0,24.53,24.53,0,0,0-9.09,9.09,25,25,0,0,0,0,25.44,24.51,24.51,0,0,0,9.09,9.09Zm26-35.13a18.56,18.56,0,0,1,4.92,8.48,19.12,19.12,0,0,1,.08,9.69A18,18,0,0,1,45,44.83a18.55,18.55,0,0,1-8.48,4.92,18.84,18.84,0,0,1-9.77,0,18.53,18.53,0,0,1-8.56-4.92L31.5,31.5V12.57A18.41,18.41,0,0,1,38.66,14,19.05,19.05,0,0,1,44.83,18.17Z"/></g></g></svg>