<?xml version="1.0" encoding="utf-8"?>
<!-- Generator: Adobe Illustrator 16.0.0, SVG Export Plug-In . SVG Version: 6.00 Build 0)  -->
<!DOCTYPE svg PUBLIC "-//W3C//DTD SVG 1.1 Tiny//EN" "http://www.w3.org/Graphics/SVG/1.1/DTD/svg11-tiny.dtd">
<svg version="1.1" baseProfile="tiny" id="Layer_1" xmlns="http://www.w3.org/2000/svg" xmlns:xlink="http://www.w3.org/1999/xlink"
	 x="0px" y="0px" width="1111.938px" height="318.26px" viewBox="0 0 1111.938 318.26" xml:space="preserve">
<g>
	<path fill="#5f6163" d="M117.6,0.11c11.9,0,22.75,1.05,32.55,3.15c9.8,2.1,18.2,5.545,25.2,10.325
		c7,4.785,12.425,11.145,16.275,19.075c3.85,7.935,5.774,17.735,5.774,29.4c0,12.6-2.86,23.1-8.575,31.5
		c-5.72,8.4-14.175,15.285-25.375,20.65c15.4,4.435,26.891,12.195,34.476,23.274c7.579,11.086,11.375,24.445,11.375,40.076
		c0,12.601-2.45,23.51-7.351,32.726c-4.899,9.22-11.495,16.745-19.774,22.573c-8.285,5.836-17.735,10.15-28.351,12.951
		c-10.62,2.799-21.524,4.199-32.725,4.199H0V0.11H117.6z M110.6,101.26c9.8,0,17.85-2.33,24.15-7c6.3-4.665,9.449-12.25,9.449-22.75
		c0-5.83-1.05-10.615-3.149-14.35c-2.101-3.729-4.9-6.65-8.4-8.75c-3.5-2.1-7.524-3.555-12.075-4.375
		c-4.55-0.815-9.274-1.225-14.175-1.225H54.95v58.45H110.6z M113.75,207.31c5.364,0,10.5-0.523,15.399-1.574
		c4.9-1.051,9.215-2.801,12.95-5.25c3.729-2.449,6.705-5.774,8.925-9.976c2.215-4.2,3.325-9.563,3.325-16.1
		c0-12.83-3.62-21.99-10.85-27.476c-7.235-5.479-16.801-8.225-28.7-8.225H54.95v68.601H113.75L113.75,207.31z"/>
	<path fill="#5f6163" d="M221.548,41.06V0.11h49.7v40.95H221.548z M271.249,69.06v180.95h-49.7V69.06H271.249z"/>
	<path fill="#5f6163" d="M290.497,120.335c4.43-11.78,10.729-21.815,18.899-30.1c8.165-8.28,17.965-14.7,29.4-19.25
		c11.43-4.55,24.265-6.825,38.5-6.825c14.229,0,27.125,2.275,38.674,6.825c11.552,4.55,21.406,10.97,29.576,19.25
		c8.164,8.285,14.465,18.32,18.9,30.1c4.43,11.785,6.647,24.91,6.647,39.375c0,14.471-2.219,27.535-6.647,39.2
		c-4.437,11.67-10.736,21.646-18.9,29.925c-8.17,8.285-18.024,14.646-29.576,19.075c-11.549,4.43-24.445,6.649-38.674,6.649
		c-14.235,0-27.07-2.221-38.5-6.649c-11.436-4.431-21.235-10.79-29.4-19.075c-8.17-8.279-14.47-18.255-18.899-29.925
		c-4.436-11.665-6.65-24.729-6.65-39.2C283.846,145.245,286.061,132.12,290.497,120.335z M335.646,180.885
		c1.4,6.886,3.79,13.07,7.176,18.55c3.379,5.485,7.875,9.86,13.475,13.125c5.6,3.271,12.6,4.9,21,4.9s15.455-1.63,21.174-4.9
		c5.715-3.265,10.267-7.64,13.65-13.125c3.381-5.479,5.775-11.664,7.176-18.55c1.4-6.88,2.101-13.938,2.101-21.175
		c0-7.229-0.699-14.351-2.101-21.351c-1.4-7-3.795-13.179-7.176-18.55c-3.385-5.365-7.937-9.74-13.65-13.125
		c-5.719-3.379-12.773-5.075-21.174-5.075c-8.4,0-15.4,1.695-21,5.075c-5.6,3.385-10.096,7.76-13.475,13.125
		c-3.386,5.371-5.775,11.55-7.176,18.55c-1.399,7-2.1,14.121-2.1,21.351C333.546,166.944,334.247,174.005,335.646,180.885z"/>
	<path fill="#5f6163" d="M533.395,0.11v249.9h-49.7V0.11H533.395z"/>
	<path fill="#5f6163" d="M552.643,120.335c4.431-11.78,10.73-21.815,18.9-30.1c8.164-8.28,17.965-14.7,29.4-19.25
		c11.43-4.55,24.264-6.825,38.5-6.825c14.229,0,27.125,2.275,38.674,6.825c11.551,4.55,21.406,10.97,29.576,19.25
		c8.164,8.285,14.465,18.32,18.899,30.1c4.431,11.785,6.648,24.91,6.648,39.375c0,14.471-2.219,27.535-6.648,39.2
		c-4.436,11.67-10.735,21.646-18.899,29.925c-8.17,8.285-18.025,14.646-29.576,19.075c-11.549,4.43-24.445,6.649-38.674,6.649
		c-14.236,0-27.07-2.221-38.5-6.649c-11.437-4.431-21.236-10.79-29.4-19.075c-8.17-8.279-14.471-18.255-18.9-29.925
		c-4.436-11.665-6.649-24.729-6.649-39.2C545.992,145.245,548.207,132.12,552.643,120.335z M597.793,180.885
		c1.4,6.886,3.789,13.07,7.176,18.55c3.379,5.485,7.875,9.86,13.476,13.125c5.6,3.271,12.6,4.9,21,4.9
		c8.399,0,15.455-1.63,21.174-4.9c5.715-3.265,10.266-7.64,13.649-13.125c3.382-5.479,5.775-11.664,7.177-18.55
		c1.399-6.88,2.1-13.938,2.1-21.175c0-7.229-0.699-14.351-2.1-21.351c-1.401-7-3.795-13.179-7.177-18.55
		c-3.385-5.365-7.936-9.74-13.649-13.125c-5.719-3.379-12.773-5.075-21.174-5.075c-8.401,0-15.4,1.695-21,5.075
		c-5.601,3.385-10.097,7.76-13.476,13.125c-3.387,5.371-5.774,11.55-7.176,18.55s-2.1,14.121-2.1,21.351
		C595.693,166.944,596.393,174.005,597.793,180.885z"/>
	<path fill="#5f6163" d="M920.314,263.31c-1.984,9.33-6.244,18.025-12.775,26.075c-6.535,8.05-15.984,14.875-28.35,20.476
		c-12.369,5.601-28.937,8.399-49.699,8.399c-8.871,0-17.91-1.109-27.125-3.325c-9.221-2.22-17.621-5.659-25.201-10.324
		c-7.584-4.67-13.885-10.676-18.898-18.024c-5.021-7.351-7.875-16.16-8.575-26.425h49.35c2.33,9.329,6.881,15.805,13.65,19.425
		c6.766,3.614,14.58,5.425,23.45,5.425c14,0,24.203-4.199,30.625-12.6c6.414-8.4,9.505-19.021,9.273-31.852v-23.8h-0.699
		c-5.371,9.57-13.01,16.625-22.926,21.175c-9.92,4.551-20.359,6.825-31.324,6.825c-13.535,0-25.199-2.39-35-7.175
		c-9.801-4.779-17.85-11.314-24.149-19.602c-6.3-8.278-10.91-17.965-13.824-29.049c-2.92-11.08-4.375-22.806-4.375-35.176
		c0-11.665,1.688-22.925,5.074-33.775c3.381-10.85,8.34-20.415,14.875-28.7c6.528-8.28,14.641-14.875,24.325-19.775
		c9.681-4.9,20.824-7.35,33.425-7.35c11.899,0,22.34,2.22,31.325,6.65c8.979,4.436,16.505,11.9,22.574,22.4h0.699V69.06h47.25v169.4
		C923.289,245.694,922.295,253.976,920.314,263.31z M852.24,203.108c5.365-2.799,9.799-6.528,13.299-11.198
		c3.5-4.665,6.125-9.976,7.875-15.927c1.75-5.948,2.625-12.188,2.625-18.725c0-7.465-0.699-14.525-2.1-21.175s-3.734-12.54-7-17.675
		c-3.271-5.129-7.584-9.215-12.949-12.25c-5.371-3.03-12.135-4.55-20.301-4.55c-7,0-13.011,1.4-18.025,4.2
		c-5.021,2.8-9.219,6.596-12.6,11.375c-3.386,4.785-5.834,10.271-7.351,16.45c-1.52,6.186-2.274,12.66-2.274,19.425
		c0,6.535,0.641,13.01,1.926,19.424c1.279,6.422,3.5,12.195,6.649,17.326c3.148,5.135,7.289,9.334,12.425,12.601
		c5.131,3.271,11.551,4.899,19.25,4.899C840.689,207.31,846.869,205.91,852.24,203.108z"/>
	<path fill="#5f6163" d="M1013.938,303.91c-9.569,6.3-22.87,9.449-39.899,9.449c-5.135,0-10.211-0.176-15.226-0.524
		c-5.021-0.351-10.096-0.761-15.225-1.226V270.66c4.664,0.465,9.449,0.93,14.35,1.399c4.9,0.465,9.8,0.58,14.699,0.351
		c6.529-0.7,11.375-3.271,14.525-7.7c3.15-4.436,4.725-9.335,4.725-14.7c0-3.965-0.699-7.7-2.1-11.2l-63.35-169.75h52.85
		l40.949,123.9h0.7l39.55-123.9h51.451l-75.601,203.351C1030.967,287.108,1023.502,297.608,1013.938,303.91z"/>
</g>
</svg>
