<?xml version="1.0" encoding="utf-8"?>
<!-- Generator: Adobe Illustrator 16.0.0, SVG Export Plug-In . SVG Version: 6.00 Build 0)  -->
<!DOCTYPE svg PUBLIC "-//W3C//DTD SVG 1.1 Tiny//EN" "http://www.w3.org/Graphics/SVG/1.1/DTD/svg11-tiny.dtd">
<svg version="1.1" baseProfile="tiny" id="Layer_1" xmlns="http://www.w3.org/2000/svg" xmlns:xlink="http://www.w3.org/1999/xlink"
	 x="0px" y="0px" width="1123.786px" height="314px" viewBox="0 0 1123.786 314" xml:space="preserve">
<g>
	<path fill="#73B351" d="M112.97,0c15.667,0,28.999,2.28,39.995,6.841c10.991,4.562,19.938,10.586,26.839,18.069
		c6.896,7.488,11.928,16.023,15.086,25.611c3.158,9.593,4.736,19.532,4.736,29.821c0,10.059-1.579,19.943-4.736,29.646
		c-3.158,9.708-8.19,18.304-15.086,25.786c-6.902,7.489-15.848,13.507-26.839,18.069c-10.997,4.562-24.329,6.841-39.995,6.841
		H55.082v89.814H0V0H112.97z M97.884,117.882c6.315,0,12.395-0.466,18.244-1.404c5.844-0.932,10.991-2.747,15.437-5.438
		c4.44-2.686,8.009-6.491,10.701-11.402c2.686-4.912,4.035-11.342,4.035-19.296c0-7.949-1.349-14.384-4.035-19.296
		c-2.692-4.912-6.261-8.711-10.701-11.402c-4.446-2.686-9.593-4.5-15.437-5.438c-5.849-0.932-11.928-1.404-18.244-1.404H55.082
		v75.08H97.884z"/>
	<path fill="#73B351" d="M254.917,0v94.375h1.052c6.315-10.525,14.384-18.183,24.208-22.98c9.824-4.791,19.411-7.192,28.769-7.192
		c13.332,0,24.263,1.814,32.804,5.438c8.535,3.628,15.261,8.655,20.173,15.085c4.912,6.436,8.36,14.27,10.349,23.506
		c1.985,9.243,2.984,19.472,2.984,30.699v111.566h-49.82V148.053c0-14.965-2.341-26.137-7.017-33.505
		c-4.682-7.368-12.981-11.051-24.91-11.051c-13.568,0-23.392,4.035-29.47,12.104c-6.085,8.07-9.122,21.347-9.122,39.82v95.077
		h-49.819V0H254.917z"/>
	<path fill="#73B351" d="M455.346,304.527c-9.594,6.314-22.925,9.473-39.996,9.473c-5.146,0-10.233-0.175-15.261-0.525
		c-5.033-0.352-10.12-0.763-15.262-1.229v-41.048c4.675,0.466,9.472,0.932,14.384,1.403c4.912,0.465,9.823,0.582,14.735,0.351
		c6.545-0.701,11.401-3.278,14.56-7.718c3.158-4.446,4.737-9.357,4.737-14.735c0-3.974-0.702-7.718-2.106-11.228L367.636,69.115
		h52.978l41.048,124.197h0.702l39.645-124.197h51.573L477.8,272.952C472.415,287.688,464.933,298.212,455.346,304.527z"/>
	<path fill="#73B351" d="M591.188,205.416c2.221,3.859,5.088,7.018,8.596,9.473c3.508,2.457,7.543,4.271,12.104,5.438
		c4.562,1.173,9.297,1.754,14.209,1.754c3.51,0,7.191-0.406,11.053-1.228c3.857-0.816,7.365-2.104,10.523-3.859
		c3.158-1.754,5.789-4.09,7.895-7.018c2.105-2.922,3.156-6.604,3.156-11.052c0-7.483-4.971-13.096-14.908-16.84
		c-9.945-3.739-23.805-7.483-41.574-11.228c-7.254-1.633-14.33-3.562-21.227-5.789c-6.902-2.219-13.043-5.142-18.42-8.771
		c-5.382-3.624-9.708-8.184-12.98-13.683c-3.278-5.493-4.912-12.219-4.912-20.173c0-11.693,2.281-21.28,6.842-28.769
		c4.562-7.482,10.58-13.386,18.068-17.717c7.482-4.326,15.902-7.368,25.262-9.122c9.352-1.754,18.943-2.631,28.768-2.631
		s19.352,0.938,28.594,2.807c9.236,1.875,17.48,5.032,24.734,9.472c7.246,4.446,13.271,10.35,18.068,17.718
		c4.791,7.367,7.658,16.665,8.596,27.891H656.27c-0.701-9.588-4.33-16.078-10.875-19.471c-6.553-3.388-14.271-5.087-23.156-5.087
		c-2.807,0-5.85,0.176-9.121,0.526c-3.277,0.351-6.262,1.113-8.947,2.281c-2.689,1.173-4.971,2.867-6.842,5.087
		c-1.875,2.226-2.807,5.208-2.807,8.946c0,4.446,1.635,8.069,4.912,10.876c3.271,2.807,7.543,5.087,12.805,6.841
		c5.264,1.754,11.283,3.333,18.068,4.736c6.781,1.403,13.684,2.928,20.699,4.561c7.248,1.639,14.324,3.629,21.227,5.964
		c6.896,2.34,13.035,5.438,18.42,9.297c5.377,3.859,9.703,8.657,12.98,14.385c3.271,5.734,4.91,12.805,4.91,21.225
		c0,11.93-2.4,21.928-7.191,29.997c-4.797,8.069-11.053,14.56-18.77,19.472c-7.719,4.91-16.551,8.364-26.488,10.35
		c-9.943,1.984-20.059,2.982-30.348,2.982c-10.525,0-20.82-1.053-30.873-3.158c-10.061-2.105-19.008-5.613-26.84-10.525
		c-7.839-4.912-14.271-11.402-19.296-19.473c-5.032-8.068-7.778-18.182-8.244-30.346h47.363
		C587.856,196.939,588.963,201.557,591.188,205.416z"/>
	<path fill="#73B351" d="M716.819,41.048V0h49.818v41.048H716.819z M766.639,69.115v181.383h-49.818V69.115H766.639z"/>
	<path fill="#73B351" d="M868.415,101.743c-7.953,0-14.619,1.814-19.996,5.438c-5.385,3.629-9.77,8.305-13.156,14.034
		c-3.395,5.734-5.789,12.049-7.193,18.945c-1.402,6.901-2.104,13.743-2.104,20.523c0,6.551,0.701,13.217,2.104,19.998
		c1.404,6.786,3.686,12.926,6.842,18.42c3.158,5.498,7.424,9.998,12.807,13.506c5.377,3.509,11.928,5.264,19.646,5.264
		c11.93,0,21.104-3.333,27.541-9.999c6.43-6.666,10.465-15.613,12.104-26.839h48.064c-3.277,24.092-12.629,42.451-28.066,55.081
		c-15.436,12.63-35.205,18.944-59.291,18.944c-13.568,0-26.021-2.281-37.365-6.841c-11.348-4.561-20.994-10.931-28.943-19.12
		c-7.953-8.185-14.154-17.949-18.594-29.296c-4.445-11.341-6.668-23.796-6.668-37.364c0-14.034,2.045-27.068,6.141-39.119
		c4.09-12.043,10.115-22.454,18.068-31.225c7.949-8.771,17.656-15.612,29.119-20.524c11.457-4.912,24.561-7.368,39.295-7.368
		c10.754,0,21.104,1.403,31.049,4.21c9.938,2.806,18.824,7.077,26.664,12.805c7.832,5.734,14.209,12.866,19.119,21.401
		c4.912,8.541,7.721,18.654,8.42,30.347h-48.766C901.975,112.153,889.696,101.743,868.415,101.743z"/>
	<path fill="#73B351" d="M1006.43,205.416c2.223,3.859,5.09,7.018,8.598,9.473c3.508,2.457,7.543,4.271,12.104,5.438
		c4.562,1.173,9.299,1.754,14.209,1.754c3.51,0,7.193-0.406,11.053-1.228c3.857-0.816,7.367-2.104,10.525-3.859
		c3.156-1.754,5.787-4.09,7.895-7.018c2.104-2.922,3.156-6.604,3.156-11.052c0-7.483-4.973-13.096-14.912-16.84
		c-9.941-3.739-23.801-7.483-41.572-11.228c-7.252-1.633-14.33-3.562-21.227-5.789c-6.9-2.219-13.041-5.142-18.418-8.771
		c-5.385-3.624-9.709-8.184-12.98-13.683c-3.279-5.493-4.912-12.219-4.912-20.173c0-11.693,2.279-21.28,6.842-28.769
		c4.561-7.482,10.578-13.386,18.068-17.717c7.48-4.326,15.9-7.368,25.26-9.122c9.352-1.754,18.943-2.631,28.768-2.631
		s19.352,0.938,28.594,2.807c9.236,1.875,17.482,5.032,24.734,9.472c7.246,4.446,13.271,10.35,18.068,17.718
		c4.791,7.367,7.656,16.665,8.596,27.891h-47.363c-0.701-9.588-4.33-16.078-10.877-19.471c-6.551-3.388-14.27-5.087-23.154-5.087
		c-2.807,0-5.85,0.176-9.123,0.526c-3.275,0.351-6.26,1.113-8.945,2.281c-2.689,1.173-4.973,2.867-6.84,5.087
		c-1.875,2.226-2.809,5.208-2.809,8.946c0,4.446,1.635,8.069,4.912,10.876c3.273,2.807,7.543,5.087,12.805,6.841
		c5.264,1.754,11.283,3.333,18.068,4.736c6.781,1.403,13.684,2.928,20.701,4.561c7.246,1.639,14.322,3.629,21.225,5.964
		c6.896,2.34,13.037,5.438,18.42,9.297c5.377,3.859,9.701,8.657,12.98,14.385c3.271,5.734,4.91,12.805,4.91,21.225
		c0,11.93-2.4,21.928-7.191,29.997c-4.797,8.069-11.051,14.56-18.77,19.472s-16.551,8.364-26.488,10.35
		c-9.943,1.984-20.059,2.982-30.348,2.982c-10.525,0-20.82-1.053-30.873-3.158c-10.061-2.105-19.008-5.613-26.84-10.525
		c-7.84-4.912-14.27-11.402-19.297-19.473c-5.033-8.068-7.777-18.182-8.244-30.346h47.363
		C1003.098,196.939,1004.206,201.557,1006.43,205.416z"/>
</g>
</svg>
