<svg id="Layer_1" data-name="Layer 1" xmlns="http://www.w3.org/2000/svg" viewBox="0 0 40 40"><defs><style>.cls-1{fill:#fff;}.cls-2{fill:#e5e5e5;}.cls-3{fill:#5e6162;}</style></defs><title>icon-fa-conecpt-coach</title><path class="cls-1" d="M20,39.5A19.5,19.5,0,1,1,39.5,20,19.52,19.52,0,0,1,20,39.5Z"/><path class="cls-2" d="M20,1A19,19,0,1,1,1,20,19,19,0,0,1,20,1m0-1A20,20,0,1,0,40,20,20,20,0,0,0,20,0h0Z"/><path class="cls-3" d="M17.43,17.82A2.08,2.08,0,0,0,17,17.3,2.12,2.12,0,0,0,16.34,17a2.15,2.15,0,0,0-.73-0.12,2.41,2.41,0,0,0-1.18.27,2.23,2.23,0,0,0-.79.72,3.17,3.17,0,0,0-.44,1,5.14,5.14,0,0,0-.14,1.2,4.78,4.78,0,0,0,.14,1.15,3.1,3.1,0,0,0,.44,1,2.25,2.25,0,0,0,.79.72,2.41,2.41,0,0,0,1.18.27,1.91,1.91,0,0,0,1.48-.58,2.67,2.67,0,0,0,.65-1.52h2a4.77,4.77,0,0,1-.41,1.59,3.8,3.8,0,0,1-.87,1.21,3.69,3.69,0,0,1-1.26.76,4.63,4.63,0,0,1-1.59.26,4.81,4.81,0,0,1-1.94-.37,4.16,4.16,0,0,1-1.45-1A4.56,4.56,0,0,1,11.32,22,5.66,5.66,0,0,1,11,20a5.85,5.85,0,0,1,.32-2,4.69,4.69,0,0,1,.91-1.57,4.15,4.15,0,0,1,1.45-1.05,5,5,0,0,1,3.4-.16,4,4,0,0,1,1.23.65,3.51,3.51,0,0,1,.9,1.06,3.77,3.77,0,0,1,.45,1.45h-2A1.7,1.7,0,0,0,17.43,17.82Z"/><path class="cls-3" d="M26.69,17.82a2.08,2.08,0,0,0-.46-0.52A2.12,2.12,0,0,0,25.6,17a2.15,2.15,0,0,0-.73-0.12,2.41,2.41,0,0,0-1.18.27,2.23,2.23,0,0,0-.79.72,3.17,3.17,0,0,0-.44,1,5.13,5.13,0,0,0-.14,1.2,4.77,4.77,0,0,0,.14,1.15,3.11,3.11,0,0,0,.44,1,2.25,2.25,0,0,0,.79.72,2.41,2.41,0,0,0,1.18.27,1.91,1.91,0,0,0,1.48-.58A2.67,2.67,0,0,0,27,21.08h2a4.77,4.77,0,0,1-.41,1.59,3.8,3.8,0,0,1-.87,1.21,3.69,3.69,0,0,1-1.26.76,4.63,4.63,0,0,1-1.59.26,4.81,4.81,0,0,1-1.94-.37,4.16,4.16,0,0,1-1.45-1A4.56,4.56,0,0,1,20.58,22,5.66,5.66,0,0,1,20.26,20a5.85,5.85,0,0,1,.32-2,4.69,4.69,0,0,1,.91-1.57,4.15,4.15,0,0,1,1.45-1.05,5,5,0,0,1,3.4-.16,4,4,0,0,1,1.24.65,3.51,3.51,0,0,1,.9,1.06,3.77,3.77,0,0,1,.45,1.45h-2A1.69,1.69,0,0,0,26.69,17.82Z"/></svg>