<svg id="Layer_1" data-name="Layer 1" xmlns="http://www.w3.org/2000/svg" viewBox="0 0 40 40"><defs><style>.cls-1{fill:#fff;}.cls-2{fill:#e5e5e5;}.cls-3{fill:#5e6162;}</style></defs><title>icon-fa-done</title><path class="cls-1" d="M20,39.5A19.5,19.5,0,1,1,39.5,20,19.52,19.52,0,0,1,20,39.5Z"/><path class="cls-2" d="M20,1A19,19,0,1,1,1,20,19,19,0,0,1,20,1m0-1A20,20,0,1,0,40,20,20,20,0,0,0,20,0h0Z"/><path class="cls-3" d="M13,14.48V27.67a0.33,0.33,0,0,1-.33.33H12a0.33,0.33,0,0,1-.33-0.33V14.48A1.33,1.33,0,1,1,13,14.48Zm16,7.47a0.68,0.68,0,0,1-.36.59l-0.18.09a8.68,8.68,0,0,1-3.84,1.21A3.64,3.64,0,0,1,23,23.48l-0.29-.15a6.44,6.44,0,0,0-3.17-.95,11,11,0,0,0-4.83,1.52,0.69,0.69,0,0,1-.34.09A0.75,0.75,0,0,1,14,23.92a0.68,0.68,0,0,1-.33-0.58V15.6A0.69,0.69,0,0,1,14,15a11.59,11.59,0,0,1,5.21-1.7,9.73,9.73,0,0,1,4.35,1.22,2.06,2.06,0,0,0,.93.2,7.06,7.06,0,0,0,3.23-1.17L28,13.41a0.68,0.68,0,0,1,.65,0A0.69,0.69,0,0,1,29,14v7.95ZM19,14.68A10,10,0,0,0,15,16v2a10.24,10.24,0,0,1,4-1.23V14.68Zm0,4.41a12.24,12.24,0,0,0-4,1.22v1.93a12.53,12.53,0,0,1,4-1.15v-2Zm8.67,0.55a5.9,5.9,0,0,1-4,.74V18a3.29,3.29,0,0,1-.41-0.16,7.59,7.59,0,0,0-3.75-1.17,4.23,4.23,0,0,0-.51,0v2.31h0.2a9,9,0,0,1,4.06,1.16,3.3,3.3,0,0,0,.41.16v2a2.48,2.48,0,0,0,.95.18,7.13,7.13,0,0,0,3.05-1V19.64Zm0-4.5a7,7,0,0,1-3.19.95A3.49,3.49,0,0,1,23.67,16v2c1.4,0.4,3.05-.41,4-0.94v-2Z"/></svg>