<svg id="Layer_1" data-name="Layer 1" xmlns="http://www.w3.org/2000/svg" viewBox="0 0 40 40"><defs><style>.cls-1{fill:#fff;}.cls-2{fill:#e5e5e5;}.cls-3{fill:#434343;}</style></defs><title>icon-fa-event</title><path class="cls-1" d="M20,39.5A19.5,19.5,0,1,1,39.5,20,19.52,19.52,0,0,1,20,39.5Z"/><path class="cls-2" d="M20,1A19,19,0,1,1,1,20,19,19,0,0,1,20,1m0-1A20,20,0,1,0,40,20,20,20,0,0,0,20,0h0Z"/><path class="cls-3" d="M28.36,27.71A1.3,1.3,0,0,1,27.07,29H12.93a1.3,1.3,0,0,1-1.29-1.29V14.86a1.3,1.3,0,0,1,1.29-1.29h1.29v-1A1.61,1.61,0,0,1,15.82,11h0.64a1.61,1.61,0,0,1,1.61,1.61v1h3.86v-1A1.61,1.61,0,0,1,23.54,11h0.64a1.61,1.61,0,0,1,1.61,1.61v1h1.29a1.3,1.3,0,0,1,1.29,1.29V27.71ZM15.82,20.32V17.43H12.93v2.89h2.89Zm0,3.86V21H12.93v3.21h2.89Zm0,3.54V24.82H12.93v2.89h2.89Zm1-15.11a0.33,0.33,0,0,0-.32-0.32H15.82a0.33,0.33,0,0,0-.32.32V15.5a0.33,0.33,0,0,0,.32.32h0.64a0.33,0.33,0,0,0,.32-0.32V12.61Zm2.89,7.71V17.43H16.46v2.89h3.21Zm0,3.86V21H16.46v3.21h3.21Zm0,3.54V24.82H16.46v2.89h3.21Zm3.86-7.39V17.43H20.32v2.89h3.21Zm0,3.86V21H20.32v3.21h3.21Zm0,3.54V24.82H20.32v2.89h3.21Zm1-15.11a0.33,0.33,0,0,0-.32-0.32H23.54a0.33,0.33,0,0,0-.32.32V15.5a0.33,0.33,0,0,0,.32.32h0.64a0.33,0.33,0,0,0,.32-0.32V12.61Zm2.57,7.71V17.43H24.18v2.89h2.89Zm0,3.86V21H24.18v3.21h2.89Zm0,3.54V24.82H24.18v2.89h2.89Z"/></svg>