<?xml version="1.0" encoding="utf-8"?>
<!-- Generator: Adobe Illustrator 16.0.0, SVG Export Plug-In . SVG Version: 6.00 Build 0)  -->
<!DOCTYPE svg PUBLIC "-//W3C//DTD SVG 1.1//EN" "http://www.w3.org/Graphics/SVG/1.1/DTD/svg11.dtd">
<svg version="1.1" id="Layer_1" xmlns="http://www.w3.org/2000/svg" xmlns:xlink="http://www.w3.org/1999/xlink" x="0px" y="0px"
	 width="33px" height="33px" viewBox="0 0 33 33" enable-background="new 0 0 33 33" xml:space="preserve">
<circle fill="#FFFFFF" cx="16.5" cy="16.5" r="16.5"/>
<g>
	<g>
		<path fill="#FDBD3E" d="M19.542,26.198c0,0.55-0.45,1-1,1h-4.083c-0.55,0-1-0.45-1-1v-2.916c0-0.55,0.45-1,1-1h4.083
			c0.55,0,1,0.45,1,1V26.198z"/>
	</g>
	<g>
		<path fill="#FDBD3E" d="M19.542,19.658c0,0.55-0.45,1-1,1h-4.083c-0.55,0-1-0.45-1-1v-12c0-0.55,0.45-1,1-1h4.083
			c0.55,0,1,0.45,1,1V19.658z"/>
	</g>
</g>
</svg>
