<svg id="Layer_1" data-name="Layer 1" xmlns="http://www.w3.org/2000/svg" viewBox="0 0 40 40"><defs><style>.cls-1{fill:#fff;}.cls-2{fill:#e5e5e5;}.cls-3{fill:#434343;}</style></defs><title>icon-fa-external-assignment</title><path class="cls-1" d="M20,39.5A19.5,19.5,0,1,1,39.5,20,19.52,19.52,0,0,1,20,39.5Z" transform="translate(0 0)"/><path class="cls-2" d="M20,1A19,19,0,1,1,1,20,19,19,0,0,1,20,1m0-1A20,20,0,1,0,40,20,20,20,0,0,0,20,0h0Z" transform="translate(0 0)"/><path class="cls-3" d="M25.14,24.83a2.89,2.89,0,0,1-2.89,2.89H13.89A2.89,2.89,0,0,1,11,24.83V16.47a2.89,2.89,0,0,1,2.89-2.89H21a0.32,0.32,0,0,1,.32.32v0.64a0.32,0.32,0,0,1-.32.32H13.89a1.61,1.61,0,0,0-1.61,1.61v8.36a1.61,1.61,0,0,0,1.61,1.61h8.36a1.61,1.61,0,0,0,1.61-1.61V21.61a0.32,0.32,0,0,1,.32-0.32h0.64a0.32,0.32,0,0,1,.32.32v3.21ZM29,18.08a0.65,0.65,0,0,1-.64.64,0.64,0.64,0,0,1-.45-0.19l-1.77-1.77-6.55,6.55a0.32,0.32,0,0,1-.46,0L18,22.16a0.32,0.32,0,0,1,0-.46l6.55-6.55-1.77-1.77a0.64,0.64,0,0,1-.19-0.45,0.65,0.65,0,0,1,.64-0.64h5.14a0.65,0.65,0,0,1,.64.64v5.14Z" transform="translate(0 0)"/></svg>