<svg id="Layer_1" data-name="Layer 1" xmlns="http://www.w3.org/2000/svg" viewBox="0 0 40 40"><defs><style>.cls-1{fill:#fff;}.cls-2{fill:#e5e5e5;}.cls-3{fill:#434343;}</style></defs><title>icon-fa-homework</title><path class="cls-1" d="M20.16,39.83a19.5,19.5,0,1,1,19.5-19.5A19.52,19.52,0,0,1,20.16,39.83Z" transform="translate(-0.16 -0.33)"/><path class="cls-2" d="M20.16,1.33a19,19,0,1,1-19,19,19,19,0,0,1,19-19m0-1a20,20,0,1,0,20,20,20,20,0,0,0-20-20h0Z" transform="translate(-0.16 -0.33)"/><path class="cls-1" d="M20.16,39.83a19.5,19.5,0,1,1,19.5-19.5A19.52,19.52,0,0,1,20.16,39.83Z" transform="translate(-0.16 -0.33)"/><path class="cls-2" d="M20.16,1.33a19,19,0,1,1-19,19,19,19,0,0,1,19-19m0-1a20,20,0,1,0,20,20,20,20,0,0,0-20-20h0Z" transform="translate(-0.16 -0.33)"/><path class="cls-3" d="M26,19.44L16.1,29.33H11.16V24.39L21,14.5Zm-9.43,7.28-2.79-2.79L12.68,25v1.27H14.2v1.52h1.27Zm4.87-10.21a0.28,0.28,0,0,0-.2.08L14.78,23a0.28,0.28,0,0,0-.08.2,0.25,0.25,0,0,0,.26.26,0.28,0.28,0,0,0,.2-0.08L21.6,17a0.28,0.28,0,0,0,.08-0.2A0.25,0.25,0,0,0,21.43,16.52Zm7.3,0.19-2,2-4.94-4.94,2-2a1.49,1.49,0,0,1,1.07-.45,1.54,1.54,0,0,1,1.08.45l2.79,2.78a1.58,1.58,0,0,1,.44,1.08A1.53,1.53,0,0,1,28.72,16.71Z" transform="translate(-0.16 -0.33)"/></svg>