<?xml version="1.0" encoding="utf-8"?>
<!-- Generator: Adobe Illustrator 20.0.0, SVG Export Plug-In . SVG Version: 6.00 Build 0)  -->
<svg version="1.1" id="Layer_1" xmlns="http://www.w3.org/2000/svg" xmlns:xlink="http://www.w3.org/1999/xlink" x="0px" y="0px"
	 viewBox="0 0 33 13" style="enable-background:new 0 0 33 13;" xml:space="preserve">
<style type="text/css">
	.st0{fill:#F47641;}
	.st1{fill:#5E6062;}
</style>
<g>
	<ellipse class="st0" cx="12.2" cy="2.4" rx="2.4" ry="2.4"/>
	<g>
		<g>
			<ellipse class="st1" cx="3.6" cy="2.4" rx="2.4" ry="2.4"/>
			<path class="st1" d="M5.1,4.9C4.7,5.2,4.2,5.4,3.6,5.4c-0.6,0-1.1-0.2-1.5-0.5C0.9,5.2,0,6.3,0,7.6v4.1V13h7.3v-1.3V7.6
				C7.3,6.3,6.3,5.2,5.1,4.9z"/>
		</g>
		<path class="st0" d="M13.7,4.9c-0.4,0.3-0.9,0.5-1.5,0.5c-0.6,0-1.1-0.2-1.5-0.5C9.5,5.2,8.6,6.3,8.6,7.6v4.1V13h7.3v-1.3V7.6
			C15.8,6.3,14.9,5.2,13.7,4.9z"/>
		<g>
			<ellipse class="st1" cx="20.8" cy="2.4" rx="2.4" ry="2.4"/>
			<path class="st1" d="M22.3,4.9c-0.4,0.3-0.9,0.5-1.5,0.5c-0.6,0-1.1-0.2-1.5-0.5c-1.2,0.2-2.1,1.3-2.1,2.6v4.1V13h7.3v-1.3V7.6
				C24.4,6.3,23.5,5.2,22.3,4.9z"/>
		</g>
		<g>
			<ellipse class="st1" cx="29.4" cy="2.4" rx="2.4" ry="2.4"/>
			<path class="st1" d="M30.9,4.9c-0.4,0.3-0.9,0.5-1.5,0.5c-0.6,0-1.1-0.2-1.5-0.5c-1.2,0.2-2.1,1.3-2.1,2.6v4.1V13H33v-1.3V7.6
				C33,6.3,32.1,5.2,30.9,4.9z"/>
		</g>
	</g>
</g>
</svg>
