<?xml version="1.0" encoding="UTF-8" standalone="no"?>
<svg width="1792px" height="1408px" viewBox="0 0 1792 1408" version="1.1" xmlns="http://www.w3.org/2000/svg" xmlns:xlink="http://www.w3.org/1999/xlink" xmlns:sketch="http://www.bohemiancoding.com/sketch/ns">
    <!-- Generator: Sketch 3.3.3 (12081) - http://www.bohemiancoding.com/sketch -->
    <title>icon-list-open</title>
    <desc>Created with Sketch.</desc>
    <defs></defs>
    <g id="Page-1" stroke="none" stroke-width="1" fill="none" fill-rule="evenodd" sketch:type="MSPage">
        <g id="icon-list-open" sketch:type="MSLayerGroup">
            <path d="M384,992 L384,416 C384,407.333333 380.833333,399.833333 374.5,393.5 C368.166667,387.166667 360.666667,384 352,384 C342.666667,384 335,387 329,393 L41,681 C35,687 32,694.666667 32,704 C32,713.333333 35,721 41,727 L329,1015 C335,1021 342.666667,1024 352,1024 C360.666667,1024 368.166667,1020.83333 374.5,1014.5 C380.833333,1008.16667 384,1000.66667 384,992 L384,992 Z" id="Shape" fill="#818181" sketch:type="MSShapeGroup"></path>
            <path d="M1792,224 L1792,32 C1792,23.3333333 1788.83333,15.8333333 1782.5,9.5 C1776.16667,3.16666667 1768.66667,0 1760,0 L32,0 C23.3333333,0 15.8333333,3.16666667 9.5,9.5 C3.16666667,15.8333333 0,23.3333333 0,32 L0,224 C0,232.666667 3.16666667,240.166667 9.5,246.5 C15.8333333,252.833333 23.3333333,256 32,256 L1760,256 C1768.66667,256 1776.16667,252.833333 1782.5,246.5 C1788.83333,240.166667 1792,232.666667 1792,224 L1792,224 Z" id="Shape" fill="#77AF41" sketch:type="MSShapeGroup"></path>
            <path d="M1792,608 L1792,416 C1792,407.333333 1788.83333,399.833333 1782.5,393.5 C1776.16667,387.166667 1768.66667,384 1760,384 L672,384 C663.333333,384 655.833333,387.166667 649.5,393.5 C643.166667,399.833333 640,407.333333 640,416 L640,608 C640,616.666667 643.166667,624.166667 649.5,630.5 C655.833333,636.833333 663.333333,640 672,640 L1760,640 C1768.66667,640 1776.16667,636.833333 1782.5,630.5 C1788.83333,624.166667 1792,616.666667 1792,608 L1792,608 Z" id="Shape" fill="#F47641" sketch:type="MSShapeGroup"></path>
            <path d="M1792,992 L1792,800 C1792,791.333333 1788.83333,783.833333 1782.5,777.5 C1776.16667,771.166667 1768.66667,768 1760,768 L672,768 C663.333333,768 655.833333,771.166667 649.5,777.5 C643.166667,783.833333 640,791.333333 640,800 L640,992 C640,1000.66667 643.166667,1008.16667 649.5,1014.5 C655.833333,1020.83333 663.333333,1024 672,1024 L1760,1024 C1768.66667,1024 1776.16667,1020.83333 1782.5,1014.5 C1788.83333,1008.16667 1792,1000.66667 1792,992 L1792,992 Z" id="Shape" fill="#F4D019" sketch:type="MSShapeGroup"></path>
            <path d="M1792,1376 L1792,1184 C1792,1175.33333 1788.83333,1167.83333 1782.5,1161.5 C1776.16667,1155.16667 1768.66667,1152 1760,1152 L32,1152 C23.3333333,1152 15.8333333,1155.16667 9.5,1161.5 C3.16666667,1167.83333 0,1175.33333 0,1184 L0,1376 C0,1384.66667 3.16666667,1392.16667 9.5,1398.5 C15.8333333,1404.83333 23.3333333,1408 32,1408 L1760,1408 C1768.66667,1408 1776.16667,1404.83333 1782.5,1398.5 C1788.83333,1392.16667 1792,1384.66667 1792,1376 L1792,1376 Z" id="Shape" fill="#233066" sketch:type="MSShapeGroup"></path>
        </g>
    </g>
</svg>