<?xml version="1.0" encoding="utf-8"?>
<!-- Generator: Adobe Illustrator 16.0.0, SVG Export Plug-In . SVG Version: 6.00 Build 0)  -->
<!DOCTYPE svg PUBLIC "-//W3C//DTD SVG 1.1 Tiny//EN" "http://www.w3.org/Graphics/SVG/1.1/DTD/svg11-tiny.dtd">
<svg version="1.1" baseProfile="tiny" id="Layer_1" xmlns="http://www.w3.org/2000/svg" xmlns:xlink="http://www.w3.org/1999/xlink"
	 x="0px" y="0px" width="40px" height="40px" viewBox="0 0 40 40" xml:space="preserve">
<g>
	<path fill="#E6E7E8" d="M20,36.182c4.693,0,6.893-2.059,7.129-2.294c1.933,0.428,3.808,0.984,5.511,1.605
		C37.131,31.826,40,26.249,40,20C40,8.955,31.045,0,20,0C8.955,0,0,8.955,0,20c0,6.249,2.87,11.826,7.36,15.493
		c1.703-0.621,3.578-1.178,5.51-1.605C13.107,34.123,15.307,36.182,20,36.182z"/>
	<path fill="#C3002F" d="M32.641,35.493c-1.703-0.621-3.578-1.178-5.511-1.605c-0.236,0.235-2.437,2.294-7.129,2.294
		c-4.693,0-6.893-2.059-7.13-2.294c-1.932,0.428-3.807,0.984-5.51,1.605C10.805,38.308,15.204,40,20,40S29.195,38.308,32.641,35.493
		z"/>
</g>
<g>
	<path fill="#F4CF1A" d="M25.37,31.827c-0.063-1.745,0.892-4.385,0.892-4.385H20H13.74c0,0,0.953,2.64,0.89,4.385
		c-0.061,1.718-1.781,2.038-1.781,2.038s0.008,0.008,0.021,0.022c0.237,0.235,2.437,2.294,7.13,2.294
		c4.693,0,6.893-2.059,7.129-2.294c0.014-0.015,0.021-0.022,0.021-0.022S25.432,33.545,25.37,31.827z"/>
	<path fill="#F4CF1A" d="M20.142,11.215L20.142,11.215c-0.001,0-0.001,0-0.002,0s-0.002,0-0.003,0l0,0
		c-0.046,0-0.092,0.002-0.137,0.003c-0.046-0.001-0.091-0.003-0.137-0.003l0,0c-0.001,0-0.002,0-0.003,0c0,0-0.002,0-0.003,0l0,0
		c-5.758,0.04-9.638,2.811-9.162,8.671c0.455,5.603,3.005,11.615,9.162,11.615c6.158,0,9.167-6.013,9.447-11.615
		C29.596,14.014,25.901,11.254,20.142,11.215z"/>
	<path fill="#3E3015" d="M17.066,20.248c0,0.564-0.457,1.021-1.021,1.021c-0.565,0-1.022-0.457-1.022-1.021
		c0-0.565,0.457-1.022,1.022-1.022C16.609,19.225,17.066,19.682,17.066,20.248"/>
	<path fill="#3E3015" d="M24.978,20.248c0,0.564-0.457,1.021-1.021,1.021c-0.565,0-1.022-0.457-1.022-1.021
		c0-0.565,0.457-1.022,1.022-1.022C24.521,19.225,24.978,19.682,24.978,20.248"/>
	<path fill="#5A4032" d="M20,28.39c1.602,0,2.901-1.299,2.901-2.901H17.1C17.1,27.091,18.398,28.39,20,28.39"/>
	<ellipse fill="#F4CF1A" cx="10.712" cy="20.587" rx="1.03" ry="2.496"/>
	<path fill="#00AEEF" d="M21.325,3.945c-0.441-0.074-0.871-0.42-1.283-0.412V3.532c-0.001,0-0.001,0-0.002,0
		c-0.006,0-0.012,0.001-0.019,0.001c-0.005,0-0.012-0.001-0.019-0.001c-0.001,0-0.002,0-0.002,0c-0.001,0-0.002,0-0.003,0
		c-0.005,0-0.012,0.001-0.019,0.001c-0.006,0-0.012-0.001-0.019-0.001c0,0-0.001,0-0.002,0v0.001
		c-0.411-0.008-0.84,0.338-1.282,0.412c-8.981,1.508-8.981,4.302-8.308,12.518l9.705-1.8l9.561,1.8
		C30.307,8.247,30.307,5.454,21.325,3.945z"/>
	<path fill="#232E66" d="M30.062,16.522c-0.712-1.269-4.823-3.79-10.061-3.79c-5.238,0-9.351,2.521-10.062,3.79
		c-0.698,1.245,0.134,2.437,2.093,2.437c1.227,0,2.804-2.718,7.969-2.718s6.742,2.718,7.968,2.718
		C29.928,18.959,30.76,17.768,30.062,16.522z"/>
	<path fill="#FFFFFF" d="M21.387,8.945c0.024,0,0.051,0.004,0.076,0.015c0.025,0.009,0.05,0.025,0.074,0.049l0.43,0.452
		c-0.188,0.247-0.425,0.432-0.707,0.557c-0.283,0.125-0.619,0.188-1.006,0.188c-0.356,0-0.673-0.062-0.954-0.182
		c-0.281-0.121-0.52-0.288-0.717-0.501c-0.196-0.213-0.345-0.465-0.45-0.756c-0.106-0.292-0.158-0.61-0.158-0.952
		c0-0.349,0.06-0.669,0.179-0.961c0.12-0.292,0.287-0.543,0.502-0.756c0.214-0.212,0.472-0.376,0.772-0.494
		c0.298-0.118,0.629-0.177,0.99-0.177c0.175,0,0.342,0.016,0.497,0.047c0.154,0.031,0.299,0.073,0.436,0.128
		c0.135,0.054,0.258,0.119,0.373,0.195c0.112,0.076,0.212,0.159,0.3,0.252l-0.366,0.491c-0.023,0.031-0.051,0.057-0.082,0.082
		S21.498,6.66,21.44,6.66c-0.038,0-0.073-0.008-0.108-0.025s-0.071-0.038-0.109-0.062c-0.038-0.025-0.081-0.052-0.127-0.081
		c-0.047-0.028-0.1-0.055-0.163-0.081c-0.063-0.024-0.138-0.044-0.224-0.062c-0.082-0.017-0.182-0.025-0.295-0.025
		c-0.196,0-0.377,0.035-0.539,0.104c-0.163,0.069-0.302,0.169-0.419,0.298c-0.116,0.129-0.207,0.286-0.272,0.47
		s-0.098,0.391-0.098,0.619c0,0.24,0.033,0.453,0.098,0.639c0.065,0.186,0.154,0.343,0.267,0.47c0.113,0.127,0.243,0.224,0.392,0.29
		c0.15,0.067,0.311,0.1,0.482,0.1c0.098,0,0.188-0.005,0.269-0.015C20.676,9.29,20.75,9.273,20.82,9.25
		c0.07-0.024,0.135-0.054,0.199-0.092c0.062-0.037,0.127-0.084,0.189-0.14c0.027-0.021,0.054-0.038,0.083-0.053
		C21.324,8.952,21.354,8.945,21.387,8.945z"/>
</g>
</svg>
