<?xml version="1.0" encoding="utf-8"?>
<!-- Generator: Adobe Illustrator 16.0.0, SVG Export Plug-In . SVG Version: 6.00 Build 0)  -->
<!DOCTYPE svg PUBLIC "-//W3C//DTD SVG 1.1 Tiny//EN" "http://www.w3.org/Graphics/SVG/1.1/DTD/svg11-tiny.dtd">
<svg version="1.1" baseProfile="tiny" id="Layer_1" xmlns="http://www.w3.org/2000/svg" xmlns:xlink="http://www.w3.org/1999/xlink"
	 x="0px" y="0px" width="40px" height="40px" viewBox="0 0 40 40" xml:space="preserve">
<circle fill="#00C1DE" cx="20" cy="20" r="20"/>
<g>
	<path fill="#5F6263" d="M32.146,9.73H7.854c-0.967,0-1.751,0.784-1.751,1.751v15.965c0,0.967,0.784,1.75,1.751,1.75h11.146
		c-0.008,1.451-0.124,2.96-1.146,3.982h-4.176c-0.204,0-0.368,0.164-0.368,0.367c0,0.204,0.164,0.369,0.368,0.369h12.701
		c0.203,0,0.368-0.165,0.368-0.369c0-0.203-0.165-0.367-0.368-0.367h-4.298c-1.022-1.022-1.138-2.531-1.146-3.982h11.212
		c0.967,0,1.75-0.783,1.75-1.75V11.481C33.896,10.514,33.113,9.73,32.146,9.73z"/>
	<g>
		<path fill="#D1D3D4" d="M32.451,11.188L7.517,27.711c0.186,0.165,0.43,0.267,0.698,0.267h23.569c0.58,0,1.051-0.471,1.051-1.051
			V12C32.835,11.673,32.685,11.381,32.451,11.188z"/>
		<path fill="#E6E7E8" d="M31.784,10.95H8.215c-0.58,0-1.05,0.47-1.05,1.05v14.927c0,0.312,0.136,0.592,0.352,0.784l24.935-16.522
			C32.27,11.04,32.038,10.95,31.784,10.95z"/>
	</g>
</g>
<g>
	<polygon fill-rule="evenodd" fill="#232E66" points="28.887,16.512 25.152,13.355 25.152,15.606 13.103,15.606 13.103,17.419 
		25.152,17.419 25.152,19.669 	"/>
	<polygon fill-rule="evenodd" fill="#F47642" points="11.112,22.147 14.847,18.991 14.847,21.242 26.896,21.242 26.896,23.055 
		14.847,23.055 14.847,25.306 	"/>
</g>
</svg>
