<?xml version="1.0" encoding="utf-8"?>
<!-- Generator: Adobe Illustrator 16.0.0, SVG Export Plug-In . SVG Version: 6.00 Build 0)  -->
<!DOCTYPE svg PUBLIC "-//W3C//DTD SVG 1.1//EN" "http://www.w3.org/Graphics/SVG/1.1/DTD/svg11.dtd">
<svg version="1.1" id="Layer_1" xmlns="http://www.w3.org/2000/svg" xmlns:xlink="http://www.w3.org/1999/xlink" x="0px" y="0px"
	 width="60px" height="60px" viewBox="0 0 60 60" enable-background="new 0 0 60 60" xml:space="preserve">
<circle fill="#F47642" cx="29.975" cy="29.982" r="30"/>
<path fill="#FFFFFF" d="M44.458,12.133H15.495c-2.213,0-4.006,1.793-4.006,4.006v23.366c0,2.212,1.793,4.006,4.006,4.006h4.07v7.884
	c0,1.203,1.156,2.081,2.391,0.848c0.983-0.984,5.048-5.082,8.659-8.731h13.843c2.212,0,4.005-1.794,4.005-4.006V16.139
	C48.462,13.927,46.669,12.133,44.458,12.133z"/>
<path fill-rule="evenodd" clip-rule="evenodd" fill="#C3002F" d="M43.937,25.575l-3.102,3.101l3.04,3.039
	c0.381,0.381,0.381,0.998,0,1.378l-0.828,0.826c-0.381,0.381-0.997,0.381-1.377,0l-3.038-3.038l-2.914,2.913
	c-0.378,0.378-0.991,0.378-1.369,0l-0.821-0.822c-0.38-0.377-0.38-0.991,0-1.369l2.911-2.913l-3.038-3.039
	c-0.381-0.38-0.381-0.997,0-1.377l0.828-0.827c0.38-0.381,0.997-0.381,1.378,0l3.037,3.038l3.103-3.101
	c0.378-0.378,0.99-0.378,1.369,0l0.821,0.822C44.315,24.583,44.315,25.197,43.937,25.575z"/>
<path fill-rule="evenodd" clip-rule="evenodd" fill="#73B451" d="M29.833,25.694l-7.941,7.942c-0.239,0.243-0.443,0.388-0.853,0.39
	c-0.35-0.012-0.721-0.214-0.891-0.39l-4.068-4.068c-0.379-0.378-0.379-0.978,0-1.356l0.775-0.774
	c0.378-0.378,0.978-0.185,1.355,0.193l2.711,2.712l6.781-6.78c0.38-0.381,0.975-0.381,1.355,0l0.774,0.774
	C30.214,24.718,30.214,25.313,29.833,25.694z"/>
</svg>
