<?xml version="1.0" encoding="utf-8"?>
<!-- Generator: Adobe Illustrator 20.0.0, SVG Export Plug-In . SVG Version: 6.00 Build 0)  -->
<svg version="1.1" id="Layer_1" xmlns="http://www.w3.org/2000/svg" xmlns:xlink="http://www.w3.org/1999/xlink" x="0px" y="0px"
	 viewBox="0 0 50 19.4" style="enable-background:new 0 0 50 19.4;" xml:space="preserve">
<style type="text/css">
	.st0{fill:#FFFFFF;}
	.st1{opacity:0.6;fill:#FFFFFF;}
</style>
<g>
	<circle class="st0" cx="18.5" cy="3.6" r="3.6"/>
	<g>
		<g>
			<circle class="st1" cx="5.5" cy="3.6" r="3.6"/>
			<path class="st1" d="M7.7,7.4C7.1,7.8,6.4,8.1,5.5,8.1c-0.9,0-1.6-0.3-2.2-0.7C1.4,7.7,0,9.4,0,11.3v6.1v2h11v-2v-6.1
				C11,9.4,9.6,7.7,7.7,7.4z"/>
		</g>
		<path class="st0" d="M20.7,7.4c-0.6,0.5-1.4,0.7-2.2,0.7c-0.9,0-1.6-0.3-2.2-0.7c-1.9,0.4-3.3,2-3.3,3.9v6.1v2h11v-2v-6.1
			C24,9.4,22.6,7.7,20.7,7.4z"/>
		<g>
			<circle class="st1" cx="31.5" cy="3.6" r="3.6"/>
			<path class="st1" d="M33.7,7.4c-0.6,0.5-1.4,0.7-2.2,0.7c-0.9,0-1.6-0.3-2.2-0.7c-1.9,0.4-3.3,2-3.3,3.9v6.1v2h11v-2v-6.1
				C37,9.4,35.6,7.7,33.7,7.4z"/>
		</g>
		<g>
			<circle class="st1" cx="44.5" cy="3.6" r="3.6"/>
			<path class="st1" d="M46.7,7.4c-0.6,0.5-1.4,0.7-2.2,0.7c-0.9,0-1.6-0.3-2.2-0.7c-1.9,0.4-3.3,2-3.3,3.9v6.1v2h11v-2v-6.1
				C50,9.4,48.6,7.7,46.7,7.4z"/>
		</g>
	</g>
</g>
</svg>
