<?xml version="1.0" encoding="UTF-8" standalone="no"?>
<svg width="1792px" height="1408px" viewBox="0 0 1792 1408" version="1.1" xmlns="http://www.w3.org/2000/svg" xmlns:xlink="http://www.w3.org/1999/xlink" xmlns:sketch="http://www.bohemiancoding.com/sketch/ns">
    <!-- Generator: Sketch 3.3.3 (12081) - http://www.bohemiancoding.com/sketch -->
    <title>icon-list-close</title>
    <desc>Created with Sketch.</desc>
    <defs></defs>
    <g id="Page-1" stroke="none" stroke-width="1" fill="none" fill-rule="evenodd" sketch:type="MSPage">
        <g id="icon-list-close" sketch:type="MSLayerGroup">
            <path d="M256,224 L256,32 C256,23.3333333 252.833333,15.8333333 246.5,9.5 C240.166667,3.16666667 232.666667,0 224,0 L32,0 C23.3333333,0 15.8333333,3.16666667 9.5,9.5 C3.16666667,15.8333333 0,23.3333333 0,32 L0,224 C0,232.666667 3.16666667,240.166667 9.5,246.5 C15.8333333,252.833333 23.3333333,256 32,256 L224,256 C232.666667,256 240.166667,252.833333 246.5,246.5 C252.833333,240.166667 256,232.666667 256,224 L256,224 Z" id="Shape" fill="#818181" sketch:type="MSShapeGroup"></path>
            <path d="M256,608 L256,416 C256,407.333333 252.833333,399.833333 246.5,393.5 C240.166667,387.166667 232.666667,384 224,384 L32,384 C23.3333333,384 15.8333333,387.166667 9.5,393.5 C3.16666667,399.833333 0,407.333333 0,416 L0,608 C0,616.666667 3.16666667,624.166667 9.5,630.5 C15.8333333,636.833333 23.3333333,640 32,640 L224,640 C232.666667,640 240.166667,636.833333 246.5,630.5 C252.833333,624.166667 256,616.666667 256,608 L256,608 Z" id="Shape" fill="#818181" sketch:type="MSShapeGroup"></path>
            <path d="M256,992 L256,800 C256,791.333333 252.833333,783.833333 246.5,777.5 C240.166667,771.166667 232.666667,768 224,768 L32,768 C23.3333333,768 15.8333333,771.166667 9.5,777.5 C3.16666667,783.833333 0,791.333333 0,800 L0,992 C0,1000.66667 3.16666667,1008.16667 9.5,1014.5 C15.8333333,1020.83333 23.3333333,1024 32,1024 L224,1024 C232.666667,1024 240.166667,1020.83333 246.5,1014.5 C252.833333,1008.16667 256,1000.66667 256,992 L256,992 Z" id="Shape" fill="#818181" sketch:type="MSShapeGroup"></path>
            <path d="M256,1376 L256,1184 C256,1175.33333 252.833333,1167.83333 246.5,1161.5 C240.166667,1155.16667 232.666667,1152 224,1152 L32,1152 C23.3333333,1152 15.8333333,1155.16667 9.5,1161.5 C3.16666667,1167.83333 0,1175.33333 0,1184 L0,1376 C0,1384.66667 3.16666667,1392.16667 9.5,1398.5 C15.8333333,1404.83333 23.3333333,1408 32,1408 L224,1408 C232.666667,1408 240.166667,1404.83333 246.5,1398.5 C252.833333,1392.16667 256,1384.66667 256,1376 L256,1376 Z" id="Shape" fill="#818181" sketch:type="MSShapeGroup"></path>
            <path d="M1792,224 L1792,32 C1792,23.3333333 1788.83333,15.8333333 1782.5,9.5 C1776.16667,3.16666667 1768.66667,0 1760,0 L416,0 C407.333333,0 399.833333,3.16666667 393.5,9.5 C387.166667,15.8333333 384,23.3333333 384,32 L384,224 C384,232.666667 387.166667,240.166667 393.5,246.5 C399.833333,252.833333 407.333333,256 416,256 L1760,256 C1768.66667,256 1776.16667,252.833333 1782.5,246.5 C1788.83333,240.166667 1792,232.666667 1792,224 L1792,224 Z" id="Shape" fill="#77AF41" sketch:type="MSShapeGroup"></path>
            <path d="M1792,608 L1792,416 C1792,407.333333 1788.83333,399.833333 1782.5,393.5 C1776.16667,387.166667 1768.66667,384 1760,384 L416,384 C407.333333,384 399.833333,387.166667 393.5,393.5 C387.166667,399.833333 384,407.333333 384,416 L384,608 C384,616.666667 387.166667,624.166667 393.5,630.5 C399.833333,636.833333 407.333333,640 416,640 L1760,640 C1768.66667,640 1776.16667,636.833333 1782.5,630.5 C1788.83333,624.166667 1792,616.666667 1792,608 L1792,608 Z" id="Shape" fill="#F47641" sketch:type="MSShapeGroup"></path>
            <path d="M1792,992 L1792,800 C1792,791.333333 1788.83333,783.833333 1782.5,777.5 C1776.16667,771.166667 1768.66667,768 1760,768 L416,768 C407.333333,768 399.833333,771.166667 393.5,777.5 C387.166667,783.833333 384,791.333333 384,800 L384,992 C384,1000.66667 387.166667,1008.16667 393.5,1014.5 C399.833333,1020.83333 407.333333,1024 416,1024 L1760,1024 C1768.66667,1024 1776.16667,1020.83333 1782.5,1014.5 C1788.83333,1008.16667 1792,1000.66667 1792,992 L1792,992 Z" id="Shape" fill="#F4D019" sketch:type="MSShapeGroup"></path>
            <path d="M1792,1376 L1792,1184 C1792,1175.33333 1788.83333,1167.83333 1782.5,1161.5 C1776.16667,1155.16667 1768.66667,1152 1760,1152 L416,1152 C407.333333,1152 399.833333,1155.16667 393.5,1161.5 C387.166667,1167.83333 384,1175.33333 384,1184 L384,1376 C384,1384.66667 387.166667,1392.16667 393.5,1398.5 C399.833333,1404.83333 407.333333,1408 416,1408 L1760,1408 C1768.66667,1408 1776.16667,1404.83333 1782.5,1398.5 C1788.83333,1392.16667 1792,1384.66667 1792,1376 L1792,1376 Z" id="Shape" fill="#233066" sketch:type="MSShapeGroup"></path>
        </g>
    </g>
</svg>