<?xml version="1.0" encoding="utf-8"?>
<!-- Generator: Adobe Illustrator 16.0.0, SVG Export Plug-In . SVG Version: 6.00 Build 0)  -->
<!DOCTYPE svg PUBLIC "-//W3C//DTD SVG 1.1//EN" "http://www.w3.org/Graphics/SVG/1.1/DTD/svg11.dtd">
<svg version="1.1" id="Layer_1" xmlns="http://www.w3.org/2000/svg" xmlns:xlink="http://www.w3.org/1999/xlink" x="0px" y="0px"
	 width="50px" height="30px" viewBox="0 0 50 30" enable-background="new 0 0 50 30" xml:space="preserve">
<g>
	<path fill="#E6E7E8" d="M42.02,25.02c0.435,0,0.787-0.352,0.787-0.787h-0.002V2.707c0-0.191-0.068-0.366-0.181-0.502
		c-0.144-0.174-0.36-0.284-0.604-0.284h-0.4L7.799,24.99c0.055,0.013,0.11,0.029,0.169,0.029H42.02L42.02,25.02z"/>
	<path fill="#A7A9AC" d="M48.9,26.523H28.879c0,0.472-0.383,0.854-0.854,0.854h-6.062c-0.472,0-0.854-0.383-0.854-0.854H1.108
		c-0.607,0-1.1,0.492-1.1,1.1v1.26c0,0.607,0.493,1.1,1.1,1.1H48.9c0.606,0,1.1-0.49,1.1-1.1v-1.26
		C50,27.016,49.508,26.523,48.9,26.523z"/>
	<path fill="#FFFFFF" d="M32.359,12.726c-0.278-0.205-0.584-0.403-0.901-0.599c0.187-0.316,0.362-0.631,0.511-0.938
		c0.922-1.899,0.98-3.409,0.166-4.25c-0.404-0.417-0.972-0.63-1.688-0.63c-0.987,0-2.241,0.425-3.598,1.178
		c-1.188-2.004-2.544-3.215-3.79-3.215c-0.175,0-0.347,0.024-0.513,0.07c-1.127,0.315-1.838,1.648-2.001,3.752
		c-0.022,0.286-0.031,0.584-0.033,0.89c-0.017,0-0.036-0.002-0.053-0.002c-2.599,0-4.236,0.706-4.609,1.986
		c-0.389,1.331,0.805,2.902,3.017,4.275c-0.218,0.372-0.418,0.739-0.582,1.096c-0.848,1.835-0.884,3.29-0.102,4.099
		c0.404,0.418,0.972,0.629,1.687,0.629c0.99,0,2.247-0.426,3.605-1.181c1.188,2.005,2.545,3.218,3.792,3.218
		c0.176,0,0.348-0.021,0.512-0.067c1.129-0.315,1.84-1.647,2.003-3.753c0.022-0.285,0.03-0.585,0.032-0.893
		c0.021,0,0.043,0.004,0.062,0.004c2.599,0,4.233-0.707,4.608-1.985C34.814,15.284,34.059,13.977,32.359,12.726z M28.516,19.186
		c-0.115,1.465-0.524,2.472-1.076,2.625c-0.055,0.016-0.109,0.021-0.17,0.021c-0.627,0-1.668-0.848-2.707-2.604
		c0.554-0.363,1.117-0.774,1.68-1.229c0.79,0.156,1.565,0.276,2.303,0.338C28.543,18.628,28.536,18.914,28.516,19.186z
		 M17.074,11.325c0.19-0.65,1.52-1.07,3.388-1.07c0.03,0,0.064,0.004,0.095,0.004c0.052,0.723,0.151,1.48,0.293,2.257
		c-0.476,0.553-0.912,1.11-1.297,1.662C17.76,13.075,16.887,11.965,17.074,11.325z M21.816,8.193
		c0.113-1.466,0.526-2.471,1.076-2.626c0.053-0.015,0.111-0.023,0.169-0.023c0.626,0,1.667,0.847,2.705,2.6
		c-0.556,0.365-1.12,0.777-1.684,1.232c-0.788-0.155-1.561-0.275-2.297-0.336C21.788,8.749,21.795,8.464,21.816,8.193z
		 M27.021,15.611c-0.375,0.361-0.752,0.699-1.133,1.022c-0.489-0.108-0.979-0.233-1.47-0.378c-0.49-0.143-0.951-0.297-1.395-0.456
		c-0.151-0.441-0.298-0.899-0.436-1.391c-0.143-0.513-0.266-1.021-0.372-1.524c0.336-0.369,0.692-0.742,1.083-1.12
		c0.374-0.362,0.755-0.701,1.136-1.026c0.493,0.11,0.989,0.236,1.483,0.38c0.477,0.139,0.938,0.292,1.389,0.454
		c0.149,0.441,0.297,0.901,0.436,1.394c0.143,0.51,0.264,1.015,0.369,1.514C27.768,14.862,27.404,15.24,27.021,15.611z
		 M28.967,12.625c-0.042-0.149-0.087-0.292-0.131-0.438c0.281,0.125,0.555,0.255,0.818,0.388c-0.164,0.23-0.338,0.462-0.521,0.695
		C29.081,13.055,29.027,12.84,28.967,12.625z M26.275,9.899C26.08,9.842,25.889,9.8,25.693,9.748
		c0.226-0.166,0.451-0.331,0.674-0.479c0.117,0.243,0.234,0.499,0.349,0.768C26.57,9.991,26.425,9.943,26.275,9.899z M22.416,10.852
		c-0.161,0.156-0.315,0.313-0.47,0.472c-0.046-0.339-0.085-0.674-0.112-0.999c0.329,0.031,0.667,0.074,1.009,0.125
		C22.7,10.582,22.557,10.715,22.416,10.852z M21.364,14.752c0.042,0.149,0.087,0.292,0.131,0.438
		c-0.29-0.128-0.567-0.26-0.829-0.393c0.164-0.23,0.339-0.465,0.526-0.703C21.248,14.313,21.302,14.533,21.364,14.752z
		 M24.063,17.479c0.191,0.057,0.378,0.098,0.569,0.146c-0.226,0.166-0.45,0.33-0.671,0.479c-0.118-0.244-0.234-0.5-0.349-0.767
		C23.763,17.384,23.909,17.434,24.063,17.479z M27.906,16.525c0.164-0.158,0.32-0.319,0.478-0.48
		c0.046,0.341,0.087,0.68,0.113,1.006c-0.331-0.031-0.671-0.074-1.017-0.125C27.622,16.794,27.766,16.662,27.906,16.525z
		 M28.303,10.589c-0.263-0.708-0.546-1.374-0.848-1.985c1.154-0.644,2.205-1.022,2.992-1.022c0.357,0,0.617,0.082,0.773,0.242
		c0.396,0.411,0.245,1.488-0.396,2.81c-0.137,0.283-0.299,0.574-0.473,0.868C29.716,11.174,29.027,10.87,28.303,10.589z
		 M22.027,16.788c0.263,0.708,0.545,1.371,0.846,1.979c-1.157,0.646-2.21,1.026-3,1.026c-0.358,0-0.618-0.082-0.773-0.243
		c-0.465-0.479-0.208-1.871,0.869-3.688C20.6,16.191,21.287,16.502,22.027,16.788z M29.479,14.853
		c0.474-0.55,0.908-1.105,1.293-1.654c0.293,0.18,0.576,0.363,0.832,0.552c1.187,0.871,1.821,1.753,1.662,2.301
		c-0.189,0.651-1.521,1.071-3.389,1.071c-0.033,0-0.07-0.004-0.104-0.004C29.723,16.393,29.622,15.632,29.479,14.853z"/>
	<path fill="#FFFFFF" d="M41.618,1.906H7.967c-0.434,0-0.786,0.351-0.786,0.786v21.525c0,0.25,0.117,0.472,0.299,0.617
		c0.134,0.105,0.303,0.17,0.487,0.17c-0.059,0-0.114-0.017-0.169-0.029L41.618,1.906z"/>
	<path fill="#F47642" d="M32.166,12.906c-0.348-0.254-0.729-0.502-1.139-0.743c0.25-0.403,0.474-0.801,0.662-1.188
		c0.856-1.771,0.937-3.152,0.222-3.891c-0.343-0.353-0.833-0.533-1.458-0.533c-1.008,0-2.312,0.469-3.723,1.292
		c-1.16-2.056-2.495-3.329-3.667-3.329c-0.146,0-0.29,0.02-0.427,0.058c-0.989,0.277-1.618,1.51-1.77,3.471
		c-0.029,0.379-0.036,0.782-0.03,1.198c-0.124-0.003-0.256-0.017-0.378-0.017c-2.444,0-3.973,0.625-4.304,1.757
		c-0.359,1.231,0.905,2.753,3.152,4.08c-1.37,2.222-1.779,4.158-0.887,5.08c0.342,0.354,0.833,0.532,1.459,0.532
		c1.007,0,2.312-0.47,3.723-1.293c1.161,2.058,2.493,3.33,3.668,3.33c0.146,0,0.289-0.019,0.426-0.058
		c0.99-0.276,1.619-1.51,1.77-3.471c0.029-0.381,0.037-0.783,0.03-1.197C29.62,17.986,29.751,18,29.873,18
		c2.445,0,3.975-0.624,4.304-1.757C34.465,15.256,33.751,14.071,32.166,12.906z M30.453,7.187c0.447,0,0.783,0.114,1.002,0.339
		c0.507,0.525,0.384,1.68-0.338,3.17c-0.184,0.376-0.4,0.764-0.645,1.157c-0.738-0.396-1.551-0.765-2.418-1.095
		c-0.312-0.853-0.656-1.64-1.022-2.352C28.348,7.635,29.555,7.187,30.453,7.187z M27.248,15.764
		c-0.417,0.404-0.844,0.778-1.271,1.137c-0.545-0.117-1.099-0.252-1.648-0.414c-0.544-0.158-1.059-0.331-1.553-0.512
		c-0.173-0.495-0.338-1.011-0.491-1.556c-0.16-0.571-0.297-1.14-0.411-1.699c0.374-0.416,0.775-0.837,1.212-1.259
		c0.417-0.404,0.843-0.778,1.27-1.136c0.548,0.118,1.1,0.253,1.651,0.414c0.533,0.155,1.051,0.327,1.553,0.511
		c0.174,0.494,0.34,1.01,0.491,1.555c0.16,0.572,0.298,1.14,0.411,1.699C28.079,14.93,27.674,15.351,27.248,15.764z M28.604,15.284
		c0.117,0.704,0.193,1.384,0.231,2.034c-0.655-0.047-1.344-0.137-2.053-0.264c0.305-0.27,0.608-0.546,0.907-0.836
		C28.007,15.913,28.309,15.6,28.604,15.284z M25.354,17.409c-0.512,0.399-1.018,0.753-1.517,1.071
		c-0.268-0.526-0.528-1.104-0.774-1.73c0.354,0.121,0.714,0.236,1.086,0.346C24.553,17.215,24.954,17.312,25.354,17.409z
		 M21.67,14.59c0.104,0.373,0.216,0.732,0.333,1.088c-0.657-0.267-1.263-0.547-1.808-0.836c0.334-0.492,0.722-1.002,1.158-1.522
		C21.448,13.74,21.551,14.164,21.67,14.59z M21.728,11.941c-0.118-0.705-0.193-1.384-0.231-2.034
		c0.655,0.046,1.343,0.136,2.052,0.263c-0.304,0.267-0.608,0.544-0.908,0.834C22.321,11.314,22.02,11.627,21.728,11.941z
		 M24.978,9.816c0.511-0.399,1.018-0.752,1.517-1.072c0.269,0.526,0.528,1.104,0.774,1.731c-0.355-0.122-0.718-0.239-1.086-0.347
		C25.777,10.01,25.377,9.912,24.978,9.816z M28.661,12.635c-0.104-0.372-0.216-0.731-0.333-1.085
		c0.638,0.26,1.236,0.541,1.794,0.837c-0.341,0.502-0.724,1.01-1.146,1.518C28.883,13.484,28.779,13.061,28.661,12.635z M21.5,8.092
		c0.127-1.651,0.604-2.711,1.307-2.908c0.082-0.023,0.168-0.034,0.255-0.034c0.858,0,2.035,1.082,3.127,3.022
		c-0.662,0.42-1.339,0.912-2.02,1.467c-0.935-0.19-1.841-0.316-2.7-0.372C21.464,8.86,21.471,8.464,21.5,8.092z M16.765,11.16
		c0.237-0.814,1.618-1.299,3.693-1.299c0.128,0,0.269,0.014,0.4,0.018c0.046,0.841,0.158,1.734,0.333,2.657
		c-0.587,0.675-1.106,1.347-1.545,2.001C17.576,13.328,16.51,12.031,16.765,11.16z M19.878,20.038c-0.447,0-0.784-0.114-1.002-0.339
		c-0.631-0.652-0.294-2.297,0.975-4.331c0.729,0.394,1.542,0.765,2.426,1.101c0.312,0.852,0.656,1.639,1.022,2.35
		C21.983,19.591,20.776,20.038,19.878,20.038z M28.832,19.133c-0.128,1.651-0.604,2.71-1.309,2.908
		c-0.082,0.021-0.168,0.034-0.254,0.034c-0.858,0-2.037-1.083-3.127-3.022c0.662-0.421,1.339-0.912,2.017-1.467
		c0.937,0.189,1.841,0.316,2.7,0.372C28.867,18.365,28.861,18.761,28.832,19.133z M33.566,16.064
		c-0.237,0.813-1.619,1.301-3.693,1.301c-0.127,0-0.27-0.014-0.4-0.018c-0.046-0.843-0.158-1.736-0.332-2.66
		c0.577-0.664,1.096-1.333,1.541-1.993c0.398,0.234,0.771,0.475,1.108,0.723C33.124,14.399,33.771,15.364,33.566,16.064z"/>
	<path fill="#808080" d="M42.891-0.018H7.097c-0.868,0-1.572,0.704-1.572,1.572v24.987h15.584c0,0.473,0.382,0.854,0.854,0.854
		h6.061c0.474,0,0.854-0.383,0.854-0.854h15.583V1.554C44.462,0.686,43.758-0.018,42.891-0.018z M42.807,24.232
		c0,0.436-0.354,0.787-0.787,0.787H7.968c-0.184,0-0.353-0.064-0.487-0.17c-0.182-0.146-0.299-0.367-0.299-0.617V2.707
		c0-0.435,0.352-0.786,0.786-0.786H42.02c0.244,0,0.461,0.11,0.604,0.284c0.112,0.136,0.181,0.311,0.181,0.502v21.525H42.807z"/>
	<path fill="none" d="M7.968,1.921c-0.434,0-0.786,0.351-0.786,0.786v21.525c0,0.25,0.117,0.473,0.299,0.617
		c0.091,0.07,0.201,0.113,0.318,0.141L41.618,1.921H7.968z"/>
</g>
</svg>
