<?xml version="1.0" encoding="UTF-8" standalone="no"?>
<!-- Generator: Adobe Illustrator 16.0.0, SVG Export Plug-In . SVG Version: 6.00 Build 0)  -->

<svg
   xmlns:dc="http://purl.org/dc/elements/1.1/"
   xmlns:cc="http://creativecommons.org/ns#"
   xmlns:rdf="http://www.w3.org/1999/02/22-rdf-syntax-ns#"
   xmlns:svg="http://www.w3.org/2000/svg"
   xmlns="http://www.w3.org/2000/svg"
   xmlns:sodipodi="http://sodipodi.sourceforge.net/DTD/sodipodi-0.dtd"
   xmlns:inkscape="http://www.inkscape.org/namespaces/inkscape"
   version="1.1"
   id="Layer_1"
   x="0px"
   y="0px"
   width="40px"
   height="40px"
   viewBox="0 0 40 40"
   enable-background="new 0 0 40 40"
   xml:space="preserve"
   inkscape:version="0.48.2 r9819"
   sodipodi:docname="icon-incorrect.svg"><metadata
   id="metadata3124"><rdf:RDF><cc:Work
       rdf:about=""><dc:format>image/svg+xml</dc:format><dc:type
         rdf:resource="http://purl.org/dc/dcmitype/StillImage" /></cc:Work></rdf:RDF></metadata><defs
   id="defs3122" /><sodipodi:namedview
   pagecolor="#ffffff"
   bordercolor="#666666"
   borderopacity="1"
   objecttolerance="10"
   gridtolerance="10"
   guidetolerance="10"
   inkscape:pageopacity="0"
   inkscape:pageshadow="2"
   inkscape:window-width="640"
   inkscape:window-height="480"
   id="namedview3120"
   showgrid="false"
   inkscape:zoom="5.9"
   inkscape:cx="20"
   inkscape:cy="20"
   inkscape:window-x="0"
   inkscape:window-y="0"
   inkscape:window-maximized="0"
   inkscape:current-layer="Layer_1" />

<g
   id="g3112">
	<path
   fill="#C3002F"
   d="M33.6,28.2c-2.978,0-5.4,2.423-5.4,5.4S30.622,39,33.6,39s5.4-2.422,5.4-5.399S36.577,28.2,33.6,28.2z"
   id="path3114" />
	<path
   fill="#FFFFFF"
   d="M33.6,27.2c-3.529,0-6.4,2.871-6.4,6.4c0,3.528,2.871,6.399,6.4,6.399s6.4-2.871,6.4-6.399   C40,30.071,37.129,27.2,33.6,27.2z M33.6,39c-2.978,0-5.4-2.422-5.4-5.399s2.423-5.4,5.4-5.4s5.4,2.423,5.4,5.4S36.577,39,33.6,39z   "
   id="path3116" />
</g>
<path
   fill-rule="evenodd"
   clip-rule="evenodd"
   fill="#FFFFFF"
   d="M36.248,32.054l-1.559,1.559l1.528,1.527  c0.191,0.191,0.191,0.502,0,0.693l-0.417,0.414c-0.191,0.191-0.5,0.191-0.692,0l-1.526-1.526l-1.465,1.464  c-0.191,0.189-0.499,0.189-0.688,0l-0.413-0.412c-0.191-0.191-0.191-0.499,0-0.689l1.463-1.464l-1.526-1.528  c-0.191-0.19-0.191-0.501,0-0.691l0.415-0.416c0.191-0.191,0.502-0.191,0.693,0l1.527,1.527l1.56-1.559  c0.189-0.19,0.497-0.19,0.688,0l0.412,0.413C36.438,31.555,36.438,31.863,36.248,32.054z"
   id="path3118" />
</svg>