<?xml version="1.0" encoding="utf-8"?>
<!-- Generator: Adobe Illustrator 16.0.0, SVG Export Plug-In . SVG Version: 6.00 Build 0)  -->
<!DOCTYPE svg PUBLIC "-//W3C//DTD SVG 1.1 Tiny//EN" "http://www.w3.org/Graphics/SVG/1.1/DTD/svg11-tiny.dtd">
<svg version="1.1" baseProfile="tiny" id="Layer_1" xmlns="http://www.w3.org/2000/svg" xmlns:xlink="http://www.w3.org/1999/xlink"
	 x="0px" y="0px" width="47.362px" height="25px" viewBox="0 0 47.362 25" xml:space="preserve">
<g>
	<g>
		<path fill-rule="evenodd" fill="#5F6263" d="M10.405,15.623c-0.62,0-1.226,0-1.833,0c-0.353,0-0.353,0-0.353,0.347
			c0,2.896,0,5.791,0,8.683c0,0.109,0,0.219,0,0.348c-2.002,0-3.991,0-6.003,0c0-3.115,0-6.222,0-9.369c-0.744,0-1.464,0-2.217,0
			c0-0.125,0-0.213,0-0.303c0-2.504,0-5.006,0.001-7.508c0-0.844,0.493-1.353,1.329-1.354c2.596-0.004,5.194,0,7.79,0
			c0.451,0,0.821,0.168,1.068,0.54c0.121,0.178,0.227,0.408,0.227,0.617c0.014,2.627,0.012,5.254,0.012,7.883
			C10.427,15.529,10.418,15.557,10.405,15.623z"/>
		<circle fill-rule="evenodd" fill="#5F6263" cx="5.213" cy="2.703" r="2.707"/>
	</g>
	<g>
		<path fill-rule="evenodd" fill="#F47642" d="M22.718,15.623c-0.619,0-1.227,0-1.835,0c-0.351,0-0.351,0-0.351,0.347
			c0,2.896,0,5.791,0,8.683c0,0.109,0,0.219,0,0.348c-2.002,0-3.991,0-6.003,0c0-3.115,0-6.222,0-9.369c-0.743,0-1.463,0-2.218,0
			c0-0.125,0-0.213,0-0.303c0-2.504,0-5.006,0.003-7.508c0-0.844,0.493-1.353,1.327-1.354c2.598-0.004,5.193,0,7.789,0
			c0.452,0,0.825,0.168,1.069,0.54c0.121,0.178,0.228,0.408,0.228,0.617c0.016,2.627,0.01,5.254,0.01,7.883
			C22.737,15.529,22.729,15.557,22.718,15.623z"/>
		<circle fill-rule="evenodd" fill="#F47642" cx="17.525" cy="2.703" r="2.705"/>
	</g>
	<g>
		<path fill-rule="evenodd" fill="#5F6263" d="M35.029,15.623c-0.618,0-1.226,0-1.834,0c-0.352,0-0.352,0-0.352,0.347
			c0,2.896,0,5.791,0,8.683c0,0.109,0,0.219,0,0.348c-2.003,0-3.991,0-6.003,0c0-3.115,0-6.222,0-9.369c-0.743,0-1.462,0-2.216,0
			c0-0.125,0-0.213,0-0.303c0-2.504,0-5.006,0.002-7.508c0-0.844,0.493-1.353,1.328-1.354c2.597-0.004,5.191,0,7.787,0
			c0.453,0,0.825,0.168,1.07,0.54c0.12,0.178,0.227,0.408,0.227,0.617c0.016,2.627,0.012,5.254,0.012,7.883
			C35.051,15.529,35.041,15.557,35.029,15.623z"/>
		<circle fill-rule="evenodd" fill="#5F6263" cx="29.837" cy="2.703" r="2.706"/>
	</g>
	<g>
		<path fill-rule="evenodd" fill="#5F6263" d="M47.341,15.623c-0.618,0-1.224,0-1.832,0c-0.353,0-0.353,0-0.353,0.347
			c0,2.896,0,5.791,0,8.683c0,0.109,0,0.219,0,0.348c-2.003,0-3.991,0-6.004,0c0-3.115,0-6.222,0-9.369c-0.743,0-1.463,0-2.216,0
			c0-0.125,0-0.213,0-0.303c0-2.504,0-5.006,0.001-7.508c0-0.844,0.495-1.353,1.33-1.354c2.596-0.004,5.193,0,7.789,0
			c0.451,0,0.823,0.168,1.069,0.54c0.119,0.178,0.226,0.408,0.226,0.617c0.015,2.627,0.011,5.254,0.011,7.883
			C47.362,15.529,47.354,15.557,47.341,15.623z"/>
		<circle fill-rule="evenodd" fill="#5F6263" cx="42.15" cy="2.703" r="2.707"/>
	</g>
</g>
</svg>
