<svg id="Layer_1" data-name="Layer 1" xmlns="http://www.w3.org/2000/svg" viewBox="0 0 40 40"><defs><style>.cls-1{fill:#fff;}.cls-2{fill:#e5e5e5;}.cls-3{fill:#434343;}</style></defs><title>icon-fa-reading</title><path class="cls-1" d="M20,39.5c-0.66,0-1.33,0-2-.1A19.5,19.5,0,0,1,20,.5c0.66,0,1.33,0,2,.1A19.5,19.5,0,0,1,20,39.5Z" transform="translate(0 0)"/><path class="cls-2" d="M20,0V1c0.64,0,1.29,0,1.94.1A19,19,0,0,1,20,39c-0.64,0-1.3,0-1.94-.1A19,19,0,0,1,20,1V0m0,0a20,20,0,0,0-2,39.9q1,0.1,2,.1A20,20,0,0,0,22,.1Q21,0,20,0h0Z" transform="translate(0 0)"/><path class="cls-3" d="M29.67,16.61L26.45,27.23A2.56,2.56,0,0,1,24.11,29H13.3a3.33,3.33,0,0,1-2.91-2.17,2.17,2.17,0,0,1,0-1.49c0-.23.07-0.47,0.08-0.75s-0.09-.34-0.07-0.48a2.82,2.82,0,0,1,.48-0.8,8.36,8.36,0,0,0,.88-2.14c0.06-.22-0.06-0.48,0-0.68a3.12,3.12,0,0,1,.4-0.6,7,7,0,0,0,.78-2.13,3.68,3.68,0,0,1,0-.7,2.3,2.3,0,0,1,.52-0.62,6.17,6.17,0,0,0,.82-2.12c0-.2-0.09-0.4-0.06-0.61A3,3,0,0,1,14.69,13c0.49-.73.59-2.33,2.07-1.91v0a2.68,2.68,0,0,1,.6-0.11h8.92a1.62,1.62,0,0,1,1.34.66,1.72,1.72,0,0,1,.21,1.52L24.61,23.8c-0.55,1.8-.86,2.2-2.34,2.2H12.08a0.54,0.54,0,0,0-.45.18,0.47,0.47,0,0,0,0,.5,1.63,1.63,0,0,0,1.69.82h11a0.94,0.94,0,0,0,.9-0.67l3.52-11.57a1.87,1.87,0,0,0,.06-0.67,1.57,1.57,0,0,1,.69.5A1.74,1.74,0,0,1,29.67,16.61ZM16.27,18.5H23.4a0.56,0.56,0,0,0,.49-0.37l0.25-.75A0.26,0.26,0,0,0,23.88,17H16.75a0.56,0.56,0,0,0-.49.38L16,18.13A0.26,0.26,0,0,0,16.27,18.5Zm1-3h7.13a0.56,0.56,0,0,0,.49-0.37l0.25-.75A0.26,0.26,0,0,0,24.85,14H17.73a0.56,0.56,0,0,0-.49.38L17,15.13A0.26,0.26,0,0,0,17.25,15.5Z" transform="translate(0 0)"/></svg>