<?xml version="1.0" encoding="utf-8"?>
<!-- Generator: Adobe Illustrator 16.0.0, SVG Export Plug-In . SVG Version: 6.00 Build 0)  -->
<!DOCTYPE svg PUBLIC "-//W3C//DTD SVG 1.1 Tiny//EN" "http://www.w3.org/Graphics/SVG/1.1/DTD/svg11-tiny.dtd">
<svg version="1.1" baseProfile="tiny" id="Layer_1" xmlns="http://www.w3.org/2000/svg" xmlns:xlink="http://www.w3.org/1999/xlink"
	 x="0px" y="0px" width="23.896px" height="25px" viewBox="0 0 23.896 25" xml:space="preserve">
<g>
	<path fill="#5F6263" d="M7.539,9.013L5.813,7.288l0.429-0.461c3.001-2.986,7.855-2.98,10.835,0
		c1.892,1.891,2.643,4.645,2.024,7.216l4.66-0.001c0.57-3.837-0.695-7.714-3.44-10.459c-4.776-4.776-12.547-4.776-17.323,0
		L2.554,4.027l-1.72-1.719v6.705L7.539,9.013z"/>
	<path fill="#5F6263" d="M17.535,18.281l-0.327,0.338l-0.023-0.023c-3.019,2.551-7.536,2.408-10.366-0.421
		c-1.914-1.915-2.659-4.693-2.009-7.284H0.146c-0.598,3.861,0.664,7.764,3.429,10.527c4.776,4.776,12.548,4.776,17.323,0
		l0.445-0.444l1.35,1.349l0.336-6.334h-6.671l1.725,1.725l-0.429,0.461C17.615,18.212,17.573,18.244,17.535,18.281z"/>
	<path fill="#73B451" d="M17.535,18.281c-0.114,0.109-0.231,0.215-0.351,0.314l0.023,0.023L17.535,18.281z"/>
	<path fill="#FFFFFF" d="M17.653,18.173l0.429-0.461l-0.547,0.568C17.573,18.244,17.615,18.212,17.653,18.173z"/>
</g>
</svg>
