<svg id="Layer_1" data-name="Layer 1" xmlns="http://www.w3.org/2000/svg" viewBox="0 0 40 40"><defs><style>.cls-1{fill:#fff;}.cls-2{fill:#e5e5e5;}.cls-3{fill:#5e6162;}</style></defs><title>icon-fa-video</title><path class="cls-1" d="M20,39.5A19.5,19.5,0,1,1,39.5,20,19.52,19.52,0,0,1,20,39.5Z"/><path class="cls-2" d="M20,1A19,19,0,1,1,1,20,19,19,0,0,1,20,1m0-1A20,20,0,1,0,40,20,20,20,0,0,0,20,0h0Z"/><path class="cls-3" d="M14.91,27.93a0.36,0.36,0,0,1-.58-0.34V12.41a0.36,0.36,0,0,1,.58-0.34L28.6,19.68a0.33,0.33,0,0,1,0,.64Z"/></svg>