<?xml version="1.0" encoding="utf-8"?>
<!-- Generator: Adobe Illustrator 16.0.0, SVG Export Plug-In . SVG Version: 6.00 Build 0)  -->
<!DOCTYPE svg PUBLIC "-//W3C//DTD SVG 1.1//EN" "http://www.w3.org/Graphics/SVG/1.1/DTD/svg11.dtd">
<svg version="1.1" id="Layer_1" xmlns="http://www.w3.org/2000/svg" xmlns:xlink="http://www.w3.org/1999/xlink" x="0px" y="0px"
	 width="198.568px" height="99.822px" viewBox="0 0 198.568 99.822" enable-background="new 0 0 198.568 99.822"
	 xml:space="preserve">
<path fill="#FFFFFF" enable-background="new    " d="M198.568,73.589c0-14.494-11.746-26.24-26.236-26.24
	c-4.584,0-8.883,1.179-12.631,3.242c-0.049-15.188-12.369-27.487-27.571-27.487c-6.345,0-12.169,2.165-16.832,5.766
	C110.982,12.271,95.938,0,77.989,0C58.76,0,42.858,14.081,39.923,32.483c-1.905-0.331-3.852-0.538-5.852-0.538
	C15.255,31.945,0,47.2,0,66.017c0,17.394,13.043,31.71,29.877,33.781v0.024l148.465-0.024
	C189.93,97.078,198.568,86.007,198.568,73.589z"/>
</svg>
