<?xml version="1.0" encoding="UTF-8"?>
<svg width="242px" height="38px" viewBox="0 0 242 38" version="1.1" xmlns="http://www.w3.org/2000/svg" xmlns:xlink="http://www.w3.org/1999/xlink">
    <!-- Generator: Sketch 41 (35326) - http://www.bohemiancoding.com/sketch -->
    <title>logo-OXT-beta-horizontal</title>
    <desc>Created with Sketch.</desc>
    <defs>
        <polygon id="path-1" points="144.936952 0.165149679 0.377031494 0.165149679 0.377031494 24.8839736 144.936952 24.8839736 144.936952 0.165149679"></polygon>
        <polygon id="path-3" points="55.4573346 26.7774056 0.0365737644 26.7774056 0.0365737644 0.237059872 55.4573346 0.237059872"></polygon>
    </defs>
    <g id="Symbols" stroke="none" stroke-width="1" fill="none" fill-rule="evenodd">
        <g id="logo-OXT-beta-horizontal">
            <g>
                <path d="M73.1426523,24.0119102 C75.4888593,24.0119102 76.9420569,22.2476728 76.9420569,20.0885388 C76.9420569,17.9306237 75.4888593,16.1663863 73.1426523,16.1663863 C70.7970549,16.1663863 69.3438573,17.9306237 69.3438573,20.0885388 C69.3438573,22.2476728 70.7970549,24.0119102 73.1426523,24.0119102 L73.1426523,24.0119102 Z M73.1426523,15.0462937 C76.0911073,15.0462937 78.1873935,17.1633785 78.1873935,20.0885388 C78.1873935,23.0161368 76.0911073,25.1332217 73.1426523,25.1332217 C70.1948069,25.1332217 68.0979111,23.0161368 68.0979111,20.0885388 C68.0979111,17.1633785 70.1948069,15.0462937 73.1426523,15.0462937 L73.1426523,15.0462937 Z" id="Fill-1" fill="#575958"></path>
                <path d="M85.8276529,24.0119102 C88.1732503,24.0119102 89.6264479,22.2476728 89.6264479,20.0885388 C89.6264479,17.9306237 88.1732503,16.1663863 85.8276529,16.1663863 C83.5643465,16.1663863 81.8203875,17.9306237 81.8203875,20.0885388 C81.8203875,22.2476728 83.5643465,24.0119102 85.8276529,24.0119102 L85.8276529,24.0119102 Z M80.6994016,15.2955417 L81.9453478,15.2955417 L81.9453478,16.9762901 L81.9867981,16.9762901 C82.7548471,15.6477798 84.3951805,15.0462937 85.8276529,15.0462937 C88.7748888,15.0462937 90.8717846,17.1633785 90.8717846,20.0885388 C90.8717846,23.0161368 88.7748888,25.1332217 85.8276529,25.1332217 C84.3951805,25.1332217 82.7548471,24.5305167 81.9867981,23.2026158 L81.9453478,23.2026158 L81.9453478,29.6160299 L80.6994016,29.6160299 L80.6994016,15.2955417 L80.6994016,15.2955417 Z" id="Fill-2" fill="#575958"></path>
                <path d="M101.169128,19.2798539 C101.169128,17.5771668 99.6952053,16.1663863 97.8482301,16.1663863 C95.1283612,16.1663863 94.3597026,18.7819672 94.3597026,19.2798539 L101.169128,19.2798539 L101.169128,19.2798539 Z M102.124313,23.0789059 C101.148403,24.5305167 99.6744801,25.1332217 97.9719714,25.1332217 C95.0454607,25.1332217 93.1143659,23.0368567 93.1143659,20.0684284 C93.1143659,17.2042088 95.1076361,15.0462937 97.909796,15.0462937 C100.857641,15.0462937 102.415074,17.3084177 102.415074,19.5291019 L102.415074,20.400556 L94.3597026,20.400556 C94.3597026,21.4383785 95.0869109,24.0119102 97.9926965,24.0119102 C99.2587583,24.0119102 100.587605,23.347655 101.210578,22.3098325 L102.124313,23.0789059 L102.124313,23.0789059 Z" id="Fill-3" fill="#575958"></path>
                <path d="M105.197728,17.9933927 C105.197728,17.2870884 105.092883,15.7934284 105.092883,15.2955417 L106.33883,15.2955417 C106.359555,16.0000178 106.38028,16.7892017 106.421121,16.9762901 L106.483905,16.9762901 C106.981918,15.9177477 108.207139,15.0462937 109.764572,15.0462937 C112.753868,15.0462937 113.417682,17.0798895 113.417682,19.1762545 L113.417682,24.8839736 L112.172345,24.8839736 L112.172345,19.2390235 C112.172345,17.681985 111.735898,16.1663863 109.764572,16.1663863 C107.916378,16.1663863 106.442455,17.4534569 106.442455,20.0885388 L106.442455,24.8839736 L105.197728,24.8839736 L105.197728,17.9933927" id="Fill-4" fill="#575958"></path>
                <path d="M121.805875,17.681985 C121.327977,17.0177299 120.705614,16.6648824 119.854055,16.6648824 C119.190241,16.6648824 118.400857,16.9762901 118.400857,17.7240342 C118.400857,19.5077726 123.77781,18.0555524 123.77781,21.9368746 C123.77781,24.302598 121.515113,25.1332217 119.480393,25.1332217 C117.944295,25.1332217 116.615448,24.738325 115.598697,23.5969031 L117.259146,22.0410834 C117.902844,22.7455595 118.567268,23.2647755 119.625469,23.2647755 C120.352677,23.2647755 121.286527,22.911928 121.286527,22.1233535 C121.286527,20.0684284 115.910184,21.6876265 115.910184,17.8891839 C115.910184,15.6678902 117.902844,14.6721169 119.91623,14.6721169 C121.245077,14.6721169 122.656824,15.0877334 123.466323,16.1871062 L121.805875,17.681985" id="Fill-5" fill="#575958"></path>
                <path d="M124.545859,17.0384498 L124.545859,14.9207555 L126.601305,14.9207555 L126.601305,12.0370349 L129.092588,12.0370349 L129.092588,14.9207555 L131.832572,14.9207555 L131.832572,17.0384498 L129.092588,17.0384498 L129.092588,21.3969387 C129.092588,22.3933215 129.383349,23.0161368 130.48361,23.0161368 C130.919447,23.0161368 131.521695,22.9332573 131.832572,22.7041197 L131.832572,24.8010941 C131.313834,25.0497327 130.442159,25.1332217 129.860027,25.1332217 C127.223668,25.1332217 126.601305,23.9497505 126.601305,21.6053564 L126.601305,17.0384498 L124.545859,17.0384498" id="Fill-6" fill="#575958"></path>
                <path d="M139.866609,20.4218852 L139.347261,20.4218852 C137.977574,20.4218852 135.611251,20.5254847 135.611251,21.9575944 C135.611251,22.8704882 136.545102,23.2647755 137.35521,23.2647755 C139.0565,23.2647755 139.866609,22.3719922 139.866609,20.9813222 L139.866609,20.4218852 L139.866609,20.4218852 Z M140.012904,23.5140235 L139.949509,23.5140235 C139.243636,24.6347256 138.081809,25.1332217 136.752962,25.1332217 C134.905378,25.1332217 133.119359,24.1155096 133.119359,22.1440734 C133.119359,18.9068959 136.898038,18.6777584 139.389321,18.6777584 L140.012904,18.6777584 L140.012904,18.4083999 C140.012904,17.183489 139.0565,16.5405631 137.728872,16.5405631 C136.690787,16.5405631 135.735602,16.9555702 135.071179,17.5771668 L133.763667,16.2712046 C134.863318,15.1505025 136.420751,14.6721169 137.998299,14.6721169 C142.254266,14.6721169 142.254266,17.7441447 142.254266,19.1555346 L142.254266,24.8839736 L140.012904,24.8839736 L140.012904,23.5140235 L140.012904,23.5140235 Z" id="Fill-7" fill="#575958"></path>
                <g id="Group-11" transform="translate(9.753004, 0.000000)">
                    <mask id="mask-2" fill="white">
                        <use xlink:href="#path-1"></use>
                    </mask>
                    <g id="Clip-9"></g>
                    <polyline id="Fill-8" fill="#575958" mask="url(#mask-2)" points="137.753864 19.5291019 134.307397 14.9207555 137.338143 14.9207555 139.331413 17.9105132 141.490484 14.9207555 144.334704 14.9207555 140.930296 19.5291019 144.936952 24.8839736 141.905596 24.8839736 139.310078 21.3134498 136.694444 24.8839736 133.746599 24.8839736 137.753864 19.5291019"></polyline>
                    <path d="M49.2374303,8.31537776 C49.1868366,9.37879544 48.2834646,10.200278 47.2191681,10.1484783 L2.21332231,8.01311119 C1.15024489,7.96070207 0.329773442,7.05816821 0.379148024,5.99475053 L0.569941162,2.00190663 C0.619315744,0.938488952 1.52268772,0.117006415 2.58637471,0.166977904 L47.5928301,2.3041732 C48.6559075,2.35597292 49.4769885,3.25850677 49.4270043,4.32192445 L49.2374303,8.31537776" id="Fill-10" fill="#70A642" mask="url(#mask-2)"></path>
                </g>
                <path d="M44.1975656,22.9289914 C44.1975656,23.5694797 43.6800468,24.0856486 43.0418346,24.0856486 L6.43698253,24.0856486 C5.79755122,24.0856486 5.28064202,23.5694797 5.28064202,22.9289914 L5.28064202,17.2115217 C5.28064202,16.5722523 5.79755122,16.0548646 6.43698253,16.0548646 L43.0418346,16.0548646 C43.6800468,16.0548646 44.1975656,16.5722523 44.1975656,17.2115217 L44.1975656,22.9289914" id="Fill-12" fill="#575958"></path>
                <g id="Group-17" transform="translate(0.000000, 10.359943)">
                    <mask id="mask-4" fill="white">
                        <use xlink:href="#path-3"></use>
                    </mask>
                    <g id="Clip-14"></g>
                    <path d="M55.456799,18.753325 C55.4756954,19.391985 54.9923122,19.9252174 54.3729964,19.9453279 L13.0757303,21.2336172 C12.4576337,21.2512901 11.9395054,20.7491376 11.9206089,20.1116964 L11.8133259,16.7142445 C11.7938199,16.0768033 12.2784223,15.5417427 12.897738,15.5234604 L54.1956137,14.2357805 C54.8137103,14.2162794 55.3306195,14.7184319 55.350735,15.3558731 L55.456799,18.753325" id="Fill-13" fill="#EFCC2D" mask="url(#mask-4)"></path>
                    <path d="M49.9085589,25.6585317 C49.9085589,26.2959729 49.4227374,26.8139701 48.821099,26.8139701 L9.40128614,26.8139701 C8.80025728,26.8139701 8.31382621,26.2959729 8.31382621,25.6585317 L8.31382621,23.3890948 C8.31382621,22.7516536 8.80025728,22.233047 9.40128614,22.233047 L48.821099,22.233047 C49.4227374,22.233047 49.9085589,22.7516536 49.9085589,23.3890948 L49.9085589,25.6585317" id="Fill-15" fill="#202850" mask="url(#mask-4)"></path>
                    <path d="M50.9228713,2.94100499 C50.9228713,3.41207769 50.2243124,3.79478617 49.3636098,3.79478617 L1.55926149,3.79478617 C0.697949337,3.79478617 0,3.41207769 0,2.94100499 L0,1.09145046 C0,0.619768354 0.697949337,0.237059872 1.55926149,0.237059872 L49.3636098,0.237059872 C50.2243124,0.237059872 50.9228713,0.619768354 50.9228713,1.09145046 L50.9228713,2.94100499" id="Fill-16" fill="#E56E43" mask="url(#mask-4)"></path>
                </g>
                <path d="M211.598123,14.8336101 L212.052857,14.8336101 L212.583786,16.1864968 L213.118373,14.8336101 L213.557868,14.8336101 L213.557868,16.6143015 L213.271983,16.6143015 L213.271983,15.1175944 L213.263449,15.1175944 L212.67644,16.6143015 L212.48138,16.6143015 L211.893152,15.1175944 L211.884008,15.1175944 L211.884008,16.6143015 L211.598123,16.6143015 L211.598123,14.8336101 L211.598123,14.8336101 Z M210.393018,15.1175944 L209.829782,15.1175944 L209.829782,14.8336101 L211.24092,14.8336101 L211.24092,15.1175944 L210.677684,15.1175944 L210.677684,16.6143015 L210.393018,16.6143015 L210.393018,15.1175944 L210.393018,15.1175944 Z" id="Fill-18" fill="#E56E43"></path>
                <polyline id="Fill-19" fill="#E56E43" points="169.565725 16.0012366 166.278353 16.0012366 166.278353 24.8504562 165.098239 24.8504562 165.098239 16.0012366 161.810258 16.0012366 161.810258 14.9055203 169.565725 14.9055203 169.565725 16.0012366"></polyline>
                <path d="M178.922513,21.058717 C178.922513,21.6010905 178.854851,22.11665 178.719528,22.6029579 C178.582986,23.0904847 178.367811,23.5188988 178.072782,23.8888097 C177.777754,24.2581112 177.391291,24.5530649 176.914004,24.7730613 C176.436106,24.9930577 175.855193,25.1033607 175.171873,25.1033607 C174.487944,25.1033607 173.907031,24.9930577 173.429133,24.7730613 C172.951236,24.5530649 172.565383,24.2581112 172.270355,23.8888097 C171.975326,23.5188988 171.760151,23.0904847 171.623609,22.6029579 C171.488286,22.11665 171.420015,21.6010905 171.420015,21.058717 L171.420015,14.9055203 L172.600128,14.9055203 L172.600128,20.8899109 C172.600128,21.2927299 172.642797,21.6815324 172.726917,22.0557092 C172.811646,22.429886 172.951236,22.762623 173.148735,23.0527014 C173.345623,23.3433892 173.607126,23.5749644 173.93507,23.7480364 C174.262406,23.9211083 174.67447,24.0076443 175.171873,24.0076443 C175.667448,24.0076443 176.079512,23.9211083 176.408067,23.7480364 C176.735402,23.5749644 176.997514,23.3433892 177.194402,23.0527014 C177.391291,22.762623 177.531491,22.429886 177.61622,22.0557092 C177.70034,21.6815324 177.743009,21.2927299 177.743009,20.8899109 L177.743009,14.9055203 L178.922513,14.9055203 L178.922513,21.058717" id="Fill-20" fill="#E56E43"></path>
                <polyline id="Fill-21" fill="#E56E43" points="188.532269 16.0012366 185.244898 16.0012366 185.244898 24.8504562 184.064784 24.8504562 184.064784 16.0012366 180.777412 16.0012366 180.777412 14.9055203 188.532269 14.9055203 188.532269 16.0012366"></polyline>
                <path d="M195.050933,24.0076443 C195.631847,24.0076443 196.162776,23.9003885 196.645549,23.6846579 C197.127714,23.4695367 197.542826,23.174583 197.889057,22.8004063 C198.235289,22.4250107 198.504716,21.9880649 198.696728,21.4865217 C198.888131,20.985588 198.984442,20.449918 198.984442,19.8782929 C198.984442,19.3072773 198.888131,18.7709979 198.696728,18.2694547 C198.504716,17.7691304 198.235289,17.3309658 197.889057,16.956789 C197.542826,16.5826123 197.127714,16.2870492 196.645549,16.0713186 C196.162776,15.8568068 195.631847,15.7489416 195.050933,15.7489416 C194.47002,15.7489416 193.939091,15.8568068 193.456317,16.0713186 C192.974153,16.2870492 192.559041,16.5826123 192.212809,16.956789 C191.866578,17.3309658 191.596541,17.7691304 191.404529,18.2694547 C191.212517,18.7709979 191.116815,19.3072773 191.116815,19.8782929 C191.116815,20.449918 191.212517,20.985588 191.404529,21.4865217 C191.596541,21.9880649 191.866578,22.4250107 192.212809,22.8004063 C192.559041,23.174583 192.974153,23.4695367 193.456317,23.6846579 C193.939091,23.9003885 194.47002,24.0076443 195.050933,24.0076443 L195.050933,24.0076443 Z M195.050933,25.1033607 C194.292637,25.1033607 193.597126,24.9723378 192.96501,24.7096828 C192.332893,24.4482466 191.784287,24.0850392 191.321019,23.6218888 C190.857142,23.158129 190.496281,22.6053956 190.238436,21.9642979 C189.98181,21.3225909 189.852582,20.6272559 189.852582,19.8782929 C189.852582,19.1287206 189.98181,18.433995 190.238436,17.7928974 C190.496281,17.1505809 190.857142,16.5990663 191.321019,16.1346971 C191.784287,15.6709373 192.332893,15.3089487 192.96501,15.0462937 C193.597126,14.784248 194.292637,14.6532252 195.050933,14.6532252 C195.809229,14.6532252 196.50474,14.784248 197.136857,15.0462937 C197.768974,15.3089487 198.31758,15.6709373 198.780848,16.1346971 C199.244725,16.5990663 199.604977,17.1505809 199.862822,17.7928974 C200.120057,18.433995 200.249284,19.1287206 200.249284,19.8782929 C200.249284,20.6272559 200.120057,21.3225909 199.862822,21.9642979 C199.604977,22.6053956 199.244725,23.158129 198.780848,23.6218888 C198.31758,24.0850392 197.768974,24.4482466 197.136857,24.7096828 C196.50474,24.9723378 195.809229,25.1033607 195.050933,25.1033607 L195.050933,25.1033607 Z" id="Fill-22" fill="#E56E43"></path>
                <path d="M203.832294,19.2883856 L204.885619,19.2883856 C205.213563,19.2883856 205.55309,19.2792445 205.904808,19.2603528 C206.255306,19.2414612 206.578374,19.1811297 206.874012,19.0775303 C207.169041,18.9745403 207.412256,18.8136565 207.604268,18.59366 C207.795671,18.3736636 207.891982,18.0567712 207.891982,17.6448111 C207.891982,17.289526 207.821882,17.0037135 207.681073,16.7885923 C207.541483,16.5728617 207.355567,16.4071026 207.126371,16.2894868 C206.896566,16.1724804 206.639331,16.0950855 206.353446,16.0579116 C206.067561,16.0201283 205.779847,16.0012366 205.489695,16.0012366 L203.832294,16.0012366 L203.832294,19.2883856 L203.832294,19.2883856 Z M202.651571,14.9055203 L205.194667,14.9055203 C205.672564,14.9055203 206.148023,14.9347719 206.620434,14.9908375 C207.093455,15.0462937 207.517101,15.1681753 207.891982,15.3558731 C208.266254,15.5429615 208.571035,15.8171953 208.805717,16.1773557 C209.039179,16.537516 209.156825,17.0274804 209.156825,17.6448111 C209.156825,18.3754918 208.936773,18.9660086 208.496668,19.4145331 C208.056564,19.864886 207.447611,20.1506985 206.670418,20.2713614 L209.493913,24.8504562 L208.046201,24.8504562 L205.348886,20.3841019 L203.832294,20.3841019 L203.832294,24.8504562 L202.651571,24.8504562 L202.651571,14.9055203 L202.651571,14.9055203 Z" id="Fill-23" fill="#E56E43"></path>
                <path d="M219.09387,15.5875652 L217.13087,24.8695652 L217.85887,24.8695652 L218.18387,23.3355652 L218.20987,23.3355652 C218.322537,23.8902347 218.582534,24.3148971 218.98987,24.6095652 C219.397205,24.9042334 219.886867,25.0515652 220.45887,25.0515652 C221.030872,25.0515652 221.537867,24.9237332 221.97987,24.6680652 C222.421872,24.4123973 222.792368,24.0809006 223.09137,23.6735652 C223.390371,23.2662298 223.617869,22.8069011 223.77387,22.2955652 C223.92987,21.7842293 224.00787,21.2729011 224.00787,20.7615652 C224.00787,20.3628966 223.95587,19.9924003 223.85187,19.6500652 C223.747869,19.3077302 223.589704,19.0130665 223.37737,18.7660652 C223.165035,18.519064 222.900704,18.3240659 222.58437,18.1810652 C222.268035,18.0380645 221.893205,17.9665652 221.45987,17.9665652 C220.939867,17.9665652 220.482705,18.0922306 220.08837,18.3435652 C219.694034,18.5948998 219.379871,18.9285631 219.14587,19.3445652 L219.11987,19.3445652 L219.91287,15.5875652 L219.09387,15.5875652 Z M220.35487,24.3755652 C220.042868,24.3755652 219.772037,24.3213991 219.54237,24.2130652 C219.312702,24.1047313 219.122037,23.9595661 218.97037,23.7775652 C218.818702,23.5955643 218.706037,23.3810665 218.63237,23.1340652 C218.558703,22.887064 218.52187,22.6205666 218.52187,22.3345652 C218.52187,21.95323 218.580369,21.5480674 218.69737,21.1190652 C218.81437,20.6900631 218.987702,20.293567 219.21737,19.9295652 C219.447037,19.5655634 219.733035,19.2622331 220.07537,19.0195652 C220.417705,18.7768973 220.814201,18.6555652 221.26487,18.6555652 C221.940873,18.6555652 222.430535,18.84623 222.73387,19.2275652 C223.037204,19.6089005 223.18887,20.1115621 223.18887,20.7355652 C223.18887,21.1429006 223.128204,21.5632297 223.00687,21.9965652 C222.885536,22.4299007 222.705704,22.8220635 222.46737,23.1730652 C222.229035,23.524067 221.934371,23.8122308 221.58337,24.0375652 C221.232368,24.2628997 220.822872,24.3755652 220.35487,24.3755652 Z M230.24787,21.0475652 L225.86687,21.0475652 C225.936203,20.7355637 226.044535,20.4365666 226.19187,20.1505652 C226.339204,19.8645638 226.523368,19.6110663 226.74437,19.3900652 C226.965371,19.1690641 227.216701,18.9913992 227.49837,18.8570652 C227.780038,18.7227312 228.089868,18.6555652 228.42787,18.6555652 C228.999872,18.6555652 229.448368,18.8245635 229.77337,19.1625652 C230.098371,19.5005669 230.26087,19.9555624 230.26087,20.5275652 C230.26087,20.6142323 230.258703,20.6987315 230.25437,20.7810652 C230.250036,20.863399 230.24787,20.9522314 230.24787,21.0475652 Z M225.76287,21.7365652 L231.01487,21.7365652 C231.04087,21.5372309 231.058203,21.3422328 231.06687,21.1515652 C231.075536,20.9608976 231.07987,20.7702328 231.07987,20.5795652 C231.07987,20.1895633 231.023537,19.8342335 230.91087,19.5135652 C230.798202,19.1928969 230.631371,18.917733 230.41037,18.6880652 C230.189368,18.4583974 229.922871,18.2807325 229.61087,18.1550652 C229.298868,18.0293979 228.939205,17.9665652 228.53187,17.9665652 C227.959867,17.9665652 227.448538,18.0878973 226.99787,18.3305652 C226.547201,18.5732331 226.165871,18.8938966 225.85387,19.2925652 C225.541868,19.6912339 225.305704,20.1440627 225.14537,20.6510652 C224.985035,21.1580678 224.90487,21.6802292 224.90487,22.2175652 C224.90487,23.1015696 225.136701,23.794896 225.60037,24.2975652 C226.064039,24.8002344 226.742198,25.0515652 227.63487,25.0515652 C228.440874,25.0515652 229.0952,24.8522339 229.59787,24.4535652 C230.100539,24.0548966 230.464535,23.4742357 230.68987,22.7115652 L229.87087,22.7115652 C229.714869,23.2055677 229.446205,23.606397 229.06487,23.9140652 C228.683534,24.2217334 228.219872,24.3755652 227.67387,24.3755652 C227.344535,24.3755652 227.056371,24.3213991 226.80937,24.2130652 C226.562368,24.1047313 226.358704,23.9573995 226.19837,23.7710652 C226.038035,23.584731 225.91887,23.3615665 225.84087,23.1015652 C225.762869,22.8415639 225.72387,22.5599001 225.72387,22.2565652 C225.72387,22.0658976 225.736869,21.892566 225.76287,21.7365652 Z M232.02887,18.1615652 L231.87287,18.8505652 L233.08187,18.8505652 L232.15887,23.2965652 C232.124203,23.4438993 232.10037,23.5782313 232.08737,23.6995652 C232.07437,23.8208992 232.06787,23.9162315 232.06787,23.9855652 C232.06787,24.1848995 232.102536,24.3473979 232.17187,24.4730652 C232.241203,24.5987325 232.334369,24.6962315 232.45137,24.7655652 C232.56837,24.8348989 232.700535,24.8803984 232.84787,24.9020652 C232.995204,24.923732 233.146869,24.9345652 233.30287,24.9345652 C233.441537,24.9345652 233.580202,24.9302319 233.71887,24.9215652 C233.857537,24.9128985 233.996202,24.8998986 234.13487,24.8825652 L234.27787,24.1805652 C233.957201,24.2325655 233.636538,24.2585652 233.31587,24.2585652 C233.159869,24.2585652 233.04937,24.210899 232.98437,24.1155652 C232.919369,24.0202314 232.88687,23.9118992 232.88687,23.7905652 C232.88687,23.6865647 232.89337,23.593399 232.90637,23.5110652 C232.91937,23.4287315 232.943203,23.309566 232.97787,23.1535652 L233.90087,18.8505652 L235.26587,18.8505652 L235.39587,18.1615652 L234.05687,18.1615652 L234.48587,16.1335652 L233.66687,16.1335652 L233.23787,18.1615652 L232.02887,18.1615652 Z M236.12387,20.1635652 L236.94287,20.1635652 C236.986203,19.8862305 237.070702,19.6500662 237.19637,19.4550652 C237.322037,19.2600642 237.480202,19.1040658 237.67087,18.9870652 C237.861537,18.8700646 238.073868,18.7855655 238.30787,18.7335652 C238.541871,18.681565 238.788868,18.6555652 239.04887,18.6555652 C239.20487,18.6555652 239.367369,18.6685651 239.53637,18.6945652 C239.70537,18.7205653 239.857036,18.7682315 239.99137,18.8375652 C240.125704,18.9068989 240.238369,19.0043979 240.32937,19.1300652 C240.42037,19.2557325 240.46587,19.4182309 240.46587,19.6175652 C240.46587,20.0595674 240.398704,20.3715643 240.26437,20.5535652 C240.130036,20.7355661 239.928538,20.8612315 239.65987,20.9305652 C239.399868,20.9998989 239.090038,21.0323986 238.73037,21.0280652 C238.370701,21.0237319 237.969872,21.0562315 237.52787,21.1255652 C237.224535,21.1775655 236.934204,21.2490648 236.65687,21.3400652 C236.379535,21.4310657 236.132537,21.5545644 235.91587,21.7105652 C235.699202,21.866566 235.528037,22.0658973 235.40237,22.3085652 C235.276702,22.5512331 235.21387,22.8502301 235.21387,23.2055652 C235.21387,23.5349002 235.268036,23.816564 235.37637,24.0505652 C235.484703,24.2845664 235.632035,24.4752311 235.81837,24.6225652 C236.004704,24.7698993 236.227868,24.8782315 236.48787,24.9475652 C236.747871,25.0168989 237.033868,25.0515652 237.34587,25.0515652 C237.813872,25.0515652 238.260201,24.9453996 238.68487,24.7330652 C239.109538,24.5207308 239.438868,24.2195672 239.67287,23.8295652 L239.69887,23.8555652 C239.690203,23.9162322 239.683703,23.9768982 239.67937,24.0375652 C239.675036,24.0982322 239.67287,24.1588982 239.67287,24.2195652 C239.690203,24.6962343 239.928534,24.9345652 240.38787,24.9345652 C240.621871,24.9345652 240.847202,24.9128988 241.06387,24.8695652 L241.18087,24.2325652 C241.120203,24.2412319 241.066036,24.2477319 241.01837,24.2520652 C240.970703,24.2563986 240.916537,24.2585652 240.85587,24.2585652 C240.760536,24.2585652 240.665203,24.2433987 240.56987,24.2130652 C240.474536,24.1827317 240.42687,24.1068992 240.42687,23.9855652 C240.42687,23.8815647 240.435536,23.7775657 240.45287,23.6735652 C240.470203,23.5695647 240.496203,23.4352327 240.53087,23.2705652 C240.565536,23.1058977 240.611036,22.9000665 240.66737,22.6530652 C240.723703,22.406064 240.790869,22.0962337 240.86887,21.7235652 C240.903536,21.5762311 240.944703,21.4050662 240.99237,21.2100652 C241.040036,21.0150642 241.085536,20.8157329 241.12887,20.6120652 C241.172203,20.4083975 241.209036,20.2068995 241.23937,20.0075652 C241.269703,19.8082309 241.28487,19.6262327 241.28487,19.4615652 C241.28487,19.1582304 241.20687,18.9112328 241.05087,18.7205652 C240.894869,18.5298976 240.699871,18.3782324 240.46587,18.2655652 C240.231868,18.152898 239.978371,18.0748988 239.70537,18.0315652 C239.432368,17.9882317 239.183204,17.9665652 238.95787,17.9665652 C238.602534,17.9665652 238.264538,18.0098981 237.94387,18.0965652 C237.623201,18.1832323 237.337204,18.3153977 237.08587,18.4930652 C236.834535,18.6707328 236.62437,18.8982305 236.45537,19.1755652 C236.286369,19.4528999 236.17587,19.78223 236.12387,20.1635652 Z M240.17987,21.2815652 L239.91987,22.4125652 C239.789869,23.0105682 239.521205,23.4872301 239.11387,23.8425652 C238.706534,24.1979003 238.17354,24.3755652 237.51487,24.3755652 C237.324202,24.3755652 237.13787,24.3538988 236.95587,24.3105652 C236.773869,24.2672317 236.613537,24.1957324 236.47487,24.0960652 C236.336202,23.9963981 236.225703,23.8707326 236.14337,23.7190652 C236.061036,23.5673978 236.01987,23.383233 236.01987,23.1665652 C236.01987,22.8112301 236.110869,22.5360662 236.29287,22.3410652 C236.47487,22.1460642 236.700202,21.9987324 236.96887,21.8990652 C237.237538,21.7993981 237.525701,21.7343987 237.83337,21.7040652 C238.141038,21.6737317 238.420535,21.6498986 238.67187,21.6325652 C238.77587,21.6238985 238.899369,21.6152319 239.04237,21.6065652 C239.18537,21.5978985 239.326202,21.5805653 239.46487,21.5545652 C239.603537,21.5285651 239.735702,21.4917321 239.86137,21.4440652 C239.987037,21.3963983 240.084536,21.3335656 240.15387,21.2555652 L240.17987,21.2815652 Z" id="beta" fill="#4A4A4A"></path>
            </g>
        </g>
    </g>
</svg>