<?xml version="1.0" encoding="UTF-8" standalone="no"?>
<!DOCTYPE svg PUBLIC "-//W3C//DTD SVG 1.1//EN" "http://www.w3.org/Graphics/SVG/1.1/DTD/svg11.dtd">
<svg width="100%" height="100%" viewBox="0 0 174 108" version="1.1" xmlns="http://www.w3.org/2000/svg" xmlns:xlink="http://www.w3.org/1999/xlink" xml:space="preserve" style="fill-rule:evenodd;clip-rule:evenodd;stroke-linejoin:round;stroke-miterlimit:1.41421;">
    <g transform="matrix(1,0,0,1,26.2661,0.000140384)">
        <path d="M108.856,15.051C108.764,17.014 107.1,18.535 105.133,18.438L22.081,14.496C20.121,14.397 18.608,12.727 18.702,10.768L19.054,3.393C19.141,1.428 20.813,-0.09 22.77,0.004L105.821,3.949C107.782,4.046 109.301,5.714 109.21,7.679L108.856,15.051L108.856,15.051Z" style="fill:rgb(121,177,66);fill-rule:nonzero;"/>
    </g>
    <g transform="matrix(1,0,0,1,26.2661,0.000140384)">
        <path d="M81.564,42.039C81.564,43.224 80.605,44.178 79.426,44.178L11.879,44.178C10.703,44.178 9.745,43.225 9.745,42.039L9.745,31.479C9.745,30.303 10.702,29.349 11.879,29.349L79.426,29.349C80.605,29.349 81.564,30.303 81.564,31.479L81.564,42.039Z" style="fill:rgb(95,96,98);fill-rule:nonzero;"/>
    </g>
    <g transform="matrix(1,0,0,1,26.2661,0.000140384)">
        <path d="M102.332,53.464C102.37,54.639 101.479,55.628 100.336,55.668L24.13,58.044C22.993,58.076 22.036,57.146 21.999,55.971L21.801,49.698C21.763,48.519 22.662,47.536 23.805,47.496L100.009,45.12C101.15,45.082 102.104,46.014 102.14,47.189L102.332,53.464Z" style="fill:rgb(245,208,25);fill-rule:nonzero;"/>
    </g>
    <g transform="matrix(1,0,0,1,26.2661,0.000140384)">
        <path d="M92.099,66.213C92.098,67.392 91.199,68.352 90.093,68.352L17.347,68.352C16.243,68.352 15.344,67.392 15.344,66.213L15.344,62.022C15.344,60.847 16.243,59.887 17.347,59.887L90.093,59.887C91.199,59.887 92.098,60.846 92.098,62.022L92.099,66.213Z" style="fill:rgb(35,46,102);fill-rule:nonzero;"/>
    </g>
    <g transform="matrix(1,0,0,1,26.2661,0.000140384)">
        <path d="M93.975,24.261C93.975,25.128 92.679,25.839 91.092,25.839L2.877,25.839C1.291,25.839 0,25.128 0,24.261L0,20.843C0,19.974 1.291,19.267 2.877,19.267L91.092,19.267C92.679,19.267 93.975,19.974 93.975,20.843L93.975,24.261Z" style="fill:rgb(244,120,66);fill-rule:nonzero;"/>
    </g>
    <g transform="matrix(1,0,0,1,-125.549,52.4982)">
        <path d="M125.549,36.829C125.549,35.469 125.78,34.216 126.242,33.074C126.704,31.933 127.346,30.944 128.167,30.108C128.989,29.274 129.977,28.626 131.134,28.163C132.288,27.7 133.546,27.47 134.907,27.47C136.268,27.47 137.519,27.7 138.662,28.163C139.805,28.626 140.793,29.274 141.628,30.108C142.461,30.943 143.111,31.932 143.573,33.074C144.036,34.216 144.266,35.469 144.266,36.829C144.266,38.191 144.036,39.442 143.573,40.584C143.111,41.729 142.462,42.717 141.628,43.55C140.793,44.386 139.804,45.034 138.662,45.495C137.519,45.957 136.268,46.188 134.907,46.188C133.546,46.188 132.288,45.957 131.134,45.495C129.977,45.034 128.989,44.386 128.167,43.55C127.345,42.717 126.704,41.729 126.242,40.584C125.78,39.442 125.549,38.191 125.549,36.829ZM127.858,36.829C127.858,37.831 128.02,38.775 128.341,39.659C128.662,40.547 129.131,41.316 129.747,41.972C130.362,42.625 131.107,43.145 131.98,43.53C132.853,43.916 133.829,44.108 134.908,44.108C135.986,44.108 136.961,43.916 137.834,43.53C138.707,43.145 139.452,42.625 140.068,41.972C140.686,41.316 141.153,40.547 141.475,39.659C141.796,38.774 141.956,37.83 141.956,36.829C141.956,35.829 141.796,34.884 141.475,33.998C141.153,33.113 140.686,32.342 140.068,31.686C139.453,31.032 138.708,30.513 137.834,30.128C136.961,29.742 135.986,29.55 134.908,29.55C133.829,29.55 132.853,29.742 131.98,30.128C131.107,30.513 130.363,31.032 129.747,31.686C129.131,32.342 128.662,33.113 128.341,33.998C128.02,34.884 127.858,35.829 127.858,36.829Z" style="fill:rgb(95,96,98);fill-rule:nonzero;"/>
        <path d="M148.928,27.933L151.238,27.933L151.238,31.052L151.314,31.052C151.675,30.435 152.123,29.903 152.662,29.454C153.202,29.004 153.786,28.633 154.415,28.336C155.044,28.041 155.706,27.823 156.399,27.681C157.093,27.54 157.772,27.47 158.442,27.47C159.801,27.47 161.053,27.7 162.197,28.163C163.338,28.626 164.327,29.274 165.163,30.108C165.996,30.943 166.645,31.932 167.107,33.074C167.569,34.216 167.801,35.469 167.801,36.829C167.801,38.191 167.569,39.442 167.107,40.584C166.645,41.729 165.997,42.717 165.163,43.55C164.327,44.386 163.338,45.034 162.197,45.495C161.054,45.957 159.801,46.188 158.442,46.188C157.772,46.188 157.093,46.118 156.399,45.976C155.706,45.835 155.044,45.618 154.415,45.323C153.786,45.027 153.202,44.655 152.662,44.207C152.123,43.758 151.675,43.224 151.314,42.609L151.237,42.609L151.237,54.507L148.927,54.507L148.927,27.933L148.928,27.933ZM151.006,36.829C151.006,37.831 151.199,38.775 151.584,39.659C151.968,40.547 152.495,41.316 153.162,41.972C153.829,42.625 154.613,43.145 155.511,43.53C156.41,43.916 157.385,44.108 158.44,44.108C159.518,44.108 160.493,43.916 161.366,43.53C162.239,43.145 162.983,42.625 163.598,41.972C164.216,41.316 164.683,40.547 165.005,39.659C165.326,38.774 165.487,37.83 165.487,36.829C165.487,35.829 165.326,34.884 165.005,33.998C164.683,33.113 164.216,32.342 163.598,31.686C162.984,31.032 162.239,30.513 161.366,30.128C160.493,29.742 159.517,29.55 158.44,29.55C157.385,29.55 156.41,29.742 155.511,30.128C154.613,30.513 153.829,31.032 153.162,31.686C152.494,32.342 151.967,33.113 151.584,33.998C151.199,34.884 151.006,35.829 151.006,36.829Z" style="fill:rgb(95,96,98);fill-rule:nonzero;"/>
        <path d="M188.675,42.375C187.775,43.737 186.665,44.713 185.343,45.303C184.021,45.894 182.563,46.188 180.971,46.188C179.611,46.188 178.378,45.957 177.274,45.495C176.169,45.034 175.22,44.386 174.425,43.55C173.628,42.717 173.018,41.729 172.595,40.584C172.172,39.443 171.959,38.177 171.959,36.791C171.959,35.457 172.177,34.221 172.613,33.093C173.051,31.963 173.666,30.981 174.463,30.145C175.259,29.312 176.196,28.657 177.274,28.182C178.352,27.707 179.546,27.469 180.855,27.469C182.216,27.469 183.416,27.706 184.457,28.182C185.497,28.657 186.369,29.286 187.076,30.069C187.781,30.852 188.315,31.743 188.675,32.746C189.035,33.747 189.214,34.762 189.214,35.79L189.214,37.405L174.269,37.405C174.269,37.893 174.365,38.518 174.559,39.273C174.752,40.032 175.104,40.771 175.618,41.489C176.131,42.208 176.819,42.823 177.678,43.336C178.538,43.852 179.649,44.106 181.01,44.106C182.19,44.106 183.333,43.824 184.437,43.26C185.54,42.696 186.389,41.925 186.98,40.948L188.675,42.375ZM186.902,35.326C186.902,34.53 186.741,33.786 186.421,33.093C186.099,32.4 185.664,31.79 185.111,31.263C184.558,30.737 183.905,30.319 183.148,30.012C182.389,29.703 181.588,29.55 180.741,29.55C179.482,29.55 178.435,29.806 177.6,30.319C176.766,30.834 176.105,31.423 175.617,32.091C175.13,32.76 174.782,33.407 174.577,34.036C174.371,34.665 174.268,35.096 174.268,35.325L186.902,35.325L186.902,35.326Z" style="fill:rgb(95,96,98);fill-rule:nonzero;"/>
        <path d="M194.375,32.94C194.375,32.606 194.362,32.202 194.336,31.726C194.311,31.251 194.291,30.771 194.278,30.282C194.265,29.794 194.246,29.338 194.22,28.915C194.194,28.491 194.182,28.164 194.182,27.933L196.492,27.933C196.518,28.601 196.537,29.242 196.55,29.859C196.564,30.476 196.595,30.873 196.647,31.053L196.762,31.053C197.225,30.077 197.995,29.236 199.073,28.53C200.151,27.824 201.41,27.471 202.847,27.471C204.234,27.471 205.363,27.69 206.238,28.125C207.109,28.562 207.797,29.133 208.297,29.839C208.799,30.545 209.145,31.361 209.338,32.285C209.529,33.209 209.626,34.16 209.626,35.135L209.626,45.726L207.316,45.726L207.316,35.25C207.316,34.531 207.251,33.832 207.124,33.152C206.995,32.471 206.769,31.861 206.449,31.322C206.127,30.783 205.679,30.353 205.102,30.032C204.524,29.71 203.773,29.55 202.848,29.55C202.001,29.55 201.197,29.697 200.441,29.994C199.683,30.289 199.028,30.738 198.477,31.341C197.925,31.945 197.489,32.703 197.168,33.614C196.846,34.525 196.686,35.598 196.686,36.83L196.686,45.726L194.375,45.726L194.375,32.94L194.375,32.94Z" style="fill:rgb(95,96,98);fill-rule:nonzero;"/>
        <path d="M225.186,32.362C224.287,31.104 223.081,30.475 221.567,30.475C220.95,30.475 220.345,30.628 219.756,30.936C219.165,31.244 218.87,31.745 218.87,32.437C218.87,33.001 219.113,33.414 219.601,33.671C220.09,33.927 220.705,34.147 221.45,34.326C222.195,34.506 222.997,34.692 223.859,34.884C224.718,35.077 225.52,35.371 226.265,35.77C227.011,36.168 227.626,36.714 228.114,37.407C228.602,38.101 228.846,39.051 228.846,40.257C228.846,41.362 228.608,42.292 228.133,43.051C227.658,43.809 227.042,44.418 226.284,44.88C225.527,45.342 224.673,45.676 223.724,45.882C222.773,46.086 221.825,46.189 220.873,46.189C219.435,46.189 218.113,45.984 216.906,45.574C215.699,45.164 214.62,44.418 213.672,43.339L216.751,40.452C217.342,41.12 217.979,41.664 218.659,42.088C219.338,42.512 220.168,42.724 221.143,42.724C221.476,42.724 221.824,42.686 222.182,42.61C222.542,42.532 222.875,42.404 223.184,42.225C223.493,42.045 223.742,41.82 223.936,41.55C224.128,41.28 224.224,40.967 224.224,40.606C224.224,39.965 223.98,39.49 223.493,39.183C223.004,38.872 222.389,38.622 221.644,38.43C220.899,38.238 220.096,38.058 219.237,37.89C218.376,37.725 217.573,37.455 216.829,37.082C216.085,36.71 215.468,36.19 214.979,35.522C214.492,34.855 214.249,33.93 214.249,32.75C214.249,31.722 214.461,30.831 214.884,30.072C215.306,29.315 215.866,28.692 216.559,28.204C217.252,27.717 218.047,27.357 218.947,27.126C219.845,26.895 220.758,26.778 221.682,26.778C222.916,26.778 224.134,26.991 225.341,27.415C226.547,27.839 227.523,28.564 228.268,29.59L225.186,32.362L225.186,32.362Z" style="fill:rgb(95,96,98);fill-rule:nonzero;"/>
        <path d="M230.27,31.167L230.27,27.238L234.083,27.238L234.083,21.885L238.705,21.885L238.705,27.238L243.787,27.238L243.787,31.167L238.705,31.167L238.705,39.257C238.705,40.181 238.878,40.914 239.225,41.451C239.57,41.991 240.258,42.26 241.285,42.26C241.696,42.26 242.144,42.216 242.633,42.126C243.12,42.036 243.506,41.888 243.787,41.682L243.787,45.573C243.301,45.805 242.704,45.963 241.997,46.054C241.29,46.145 240.669,46.189 240.129,46.189C238.896,46.189 237.889,46.054 237.105,45.785C236.321,45.517 235.706,45.105 235.256,44.553C234.808,44.002 234.499,43.314 234.333,42.492C234.165,41.671 234.083,40.719 234.083,39.642L234.083,31.167L230.27,31.167L230.27,31.167Z" style="fill:rgb(95,96,98);fill-rule:nonzero;"/>
        <path d="M258.963,43.185L258.85,43.185C258.179,44.238 257.333,45 256.307,45.477C255.279,45.951 254.15,46.188 252.916,46.188C252.069,46.188 251.241,46.074 250.432,45.841C249.623,45.611 248.903,45.264 248.276,44.802C247.646,44.341 247.139,43.764 246.755,43.069C246.37,42.375 246.176,41.566 246.176,40.644C246.176,39.642 246.356,38.787 246.715,38.082C247.075,37.376 247.555,36.785 248.161,36.309C248.764,35.835 249.462,35.457 250.26,35.172C251.055,34.891 251.884,34.679 252.743,34.536C253.604,34.397 254.471,34.306 255.344,34.269C256.217,34.229 257.039,34.21 257.808,34.21L258.964,34.21L258.964,33.71C258.964,32.554 258.566,31.687 257.771,31.11C256.973,30.531 255.96,30.243 254.727,30.243C253.751,30.243 252.839,30.417 251.992,30.764C251.145,31.11 250.414,31.578 249.799,32.169L247.37,29.742C248.399,28.69 249.599,27.933 250.973,27.471C252.347,27.008 253.766,26.776 255.228,26.776C256.537,26.776 257.643,26.925 258.54,27.219C259.441,27.516 260.184,27.894 260.774,28.356C261.364,28.818 261.821,29.352 262.143,29.954C262.462,30.558 262.693,31.167 262.835,31.784C262.976,32.4 263.06,32.997 263.085,33.575C263.111,34.152 263.124,34.659 263.124,35.096L263.124,45.725L258.964,45.725L258.964,43.185L258.963,43.185L258.963,43.185ZM258.693,37.447L257.731,37.447C257.089,37.447 256.371,37.472 255.573,37.524C254.777,37.575 254.026,37.698 253.321,37.888C252.615,38.082 252.017,38.364 251.53,38.736C251.04,39.11 250.797,39.628 250.797,40.296C250.797,40.733 250.894,41.097 251.087,41.394C251.279,41.69 251.53,41.94 251.837,42.145C252.145,42.348 252.493,42.498 252.878,42.588C253.264,42.678 253.648,42.723 254.032,42.723C255.624,42.723 256.8,42.345 257.558,41.586C258.314,40.83 258.693,39.794 258.693,38.484L258.693,37.447L258.693,37.447Z" style="fill:rgb(95,96,98);fill-rule:nonzero;"/>
        <path d="M272.868,35.79L266.474,27.238L272.096,27.238L275.795,32.786L279.8,27.238L285.076,27.238L278.76,35.79L286.194,45.725L280.57,45.725L275.756,39.102L270.902,45.725L265.433,45.725L272.868,35.79L272.868,35.79Z" style="fill:rgb(95,96,98);fill-rule:nonzero;"/>
    </g>
    <g transform="matrix(1,0,0,1,-125.549,52.4982)">
        <path d="M289.918,28.064L288.287,28.064L288.287,27.238L292.373,27.238L292.373,28.064L290.743,28.064L290.743,32.406L289.917,32.406L289.917,28.064L289.918,28.064ZM293.418,27.238L294.736,27.238L296.276,31.164L297.821,27.238L299.098,27.238L299.098,32.406L298.27,32.406L298.27,28.064L298.249,28.064L296.541,32.406L295.978,32.406L294.271,28.064L294.245,28.064L294.245,32.406L293.419,32.406L293.419,27.238L293.418,27.238Z" style="fill:rgb(95,97,99);fill-rule:nonzero;"/>
    </g>
</svg>
