<svg xmlns="http://www.w3.org/2000/svg" viewBox="0 0 91.99 91.5"><defs><style>.cls-1{fill:#fcbd3e;}.cls-2{fill:#222e65;}.cls-3{fill:#15c0dc;}</style></defs><title>Asset 7</title><g id="Layer_2" data-name="Layer 2"><g id="Layer_1-2" data-name="Layer 1"><path class="cls-1" d="M61.55,22.75a1.54,1.54,0,0,0-1.16.43,2,2,0,0,0-.52,1.15h3.36a1.63,1.63,0,0,0-.52-1.18A1.71,1.71,0,0,0,61.55,22.75Z"/><path class="cls-1" d="M22.62,20.19a2.43,2.43,0,0,0-2,.92,4.08,4.08,0,0,0-.75,2.63,4.08,4.08,0,0,0,.75,2.63,2.43,2.43,0,0,0,2,.92,2.4,2.4,0,0,0,2-.92,4.12,4.12,0,0,0,.73-2.62,4.13,4.13,0,0,0-.73-2.62A2.4,2.4,0,0,0,22.62,20.19Z"/><path class="cls-1" d="M44.69,22.75a1.56,1.56,0,0,0-1.32.6,2.79,2.79,0,0,0-.46,1.72,2.81,2.81,0,0,0,.46,1.73,1.73,1.73,0,0,0,2.63,0,2.82,2.82,0,0,0,.46-1.73A2.81,2.81,0,0,0,46,23.35,1.55,1.55,0,0,0,44.69,22.75Z"/><path class="cls-1" d="M53.39,22.88a1.46,1.46,0,0,0-1.47,1,3.58,3.58,0,0,0-.21,1.33,2.76,2.76,0,0,0,.43,1.59,1.47,1.47,0,0,0,1.3.63,1.35,1.35,0,0,0,1.18-.61,2.76,2.76,0,0,0,.42-1.6,3.57,3.57,0,0,0-.21-1.31A1.44,1.44,0,0,0,53.39,22.88Z"/><path class="cls-2" d="M37.4,54.33v-3.6a23.33,23.33,0,0,0,3.5-.33A4.93,4.93,0,0,0,43.49,49a4.65,4.65,0,0,0,1-1.93,4.44,4.44,0,0,0,.2-1.08h4.42v26.9H43.73V54.33Z"/><rect class="cls-2" x="25.18" y="5.88" width="16" height="4.24" rx="2.02" ry="2.02" transform="translate(25.18 41.18) rotate(-90)"/><rect class="cls-2" x="47.85" y="5.88" width="16" height="4.24" rx="2.02" ry="2.02" transform="translate(47.85 63.85) rotate(-90)"/><path class="cls-3" d="M90,73.3H84.81V61.1a2.72,2.72,0,0,0-2.72-2.72H71.48a2.72,2.72,0,0,0-2.72,2.72V73.3h-5.2a2,2,0,0,0-1.46,3.35L75.31,90.87a2,2,0,0,0,2.92,0L91.45,76.66A2,2,0,0,0,90,73.3Z"/><rect class="cls-2" x="37.8" y="7.57" width="13.43" height="4.51"/><path class="cls-2" d="M80.14,7.57H60.47v4.51H80.53A2.48,2.48,0,0,1,83,14.56V35.39H3.69V14.56a2.48,2.48,0,0,1,2.48-2.48H28.56V7.57H6.9A6.9,6.9,0,0,0,0,14.47V77.4a6.9,6.9,0,0,0,6.9,6.9H63.74l-4-4.27H6.17a2.48,2.48,0,0,1-2.48-2.48V39.63H83V54.45a6.7,6.7,0,0,1,4,2.12V14.47A6.9,6.9,0,0,0,80.14,7.57Z"/><path class="cls-1" d="M78.47,14.8H60.39a4.53,4.53,0,0,1-4.44,3.7h-.19a4.53,4.53,0,0,1-4.44-3.7H37.72a4.53,4.53,0,0,1-4.44,3.7h-.19a4.53,4.53,0,0,1-4.44-3.7H8.16A2.17,2.17,0,0,0,6,17V30.46a2.17,2.17,0,0,0,2.17,2.17H78.47a2.17,2.17,0,0,0,2.17-2.17V17A2.17,2.17,0,0,0,78.47,14.8ZM25.92,27.89a4.39,4.39,0,0,1-3.3,1.18,4.39,4.39,0,0,1-3.3-1.18,5.44,5.44,0,0,1-1.53-4.16,5.33,5.33,0,0,1,1.53-4.16,4.39,4.39,0,0,1,3.3-1.18,4.39,4.39,0,0,1,3.3,1.18,5.34,5.34,0,0,1,1.52,4.16A5.45,5.45,0,0,1,25.92,27.89Zm4.78-1.42a1.3,1.3,0,0,0,1.32.93A1.16,1.16,0,0,0,33,27a1.83,1.83,0,0,0,.35-1h2a3.26,3.26,0,0,1-.64,1.68A3.13,3.13,0,0,1,32,29,3.18,3.18,0,0,1,29.32,28a4.31,4.31,0,0,1-.85-2.77,4.37,4.37,0,0,1,.94-3A3.26,3.26,0,0,1,32,21.16a3.9,3.9,0,0,1,2.3.63A2.92,2.92,0,0,1,35.35,24h-2a1.73,1.73,0,0,0-.28-.75,1.18,1.18,0,0,0-1-.45,1.34,1.34,0,0,0-1.35,1,4.06,4.06,0,0,0-.19,1.38A3.73,3.73,0,0,0,30.7,26.48Zm9.39-3.68H38.88v3.94a.89.89,0,0,0,.12.57,1.29,1.29,0,0,0,.71.11h.38v1.46l-.92,0a2.48,2.48,0,0,1-1.89-.48,1.43,1.43,0,0,1-.33-1V22.79h-1V21.41h1V19.33h1.93v2.08h1.21Zm7.46,5.08A3.47,3.47,0,0,1,44.69,29a3.47,3.47,0,0,1-2.86-1.16,4.62,4.62,0,0,1,0-5.6,3.44,3.44,0,0,1,2.86-1.18,3.44,3.44,0,0,1,2.86,1.18,4.62,4.62,0,0,1,0,5.6Zm8.71,0a3,3,0,0,1-3.79.77,3,3,0,0,1-.73-.77v.94H49.83V18.73h1.95v3.58a2.85,2.85,0,0,1,.82-.79,2.45,2.45,0,0,1,1.35-.34,2.79,2.79,0,0,1,2.32,1.06A4.28,4.28,0,0,1,57.09,25,4.79,4.79,0,0,1,56.27,27.85Zm4.33-.66a2,2,0,0,0,1.07.28,1.65,1.65,0,0,0,1.08-.34,1.63,1.63,0,0,0,.4-.51h2A2.43,2.43,0,0,1,64.42,28,3.62,3.62,0,0,1,61.62,29,4.06,4.06,0,0,1,59,28.13a3.61,3.61,0,0,1-1.14-3,4,4,0,0,1,1-3,3.59,3.59,0,0,1,2.66-1,4.23,4.23,0,0,1,1.75.35,3,3,0,0,1,1.29,1.1,3.67,3.67,0,0,1,.59,1.54,9.53,9.53,0,0,1,.06,1.48H59.82A1.79,1.79,0,0,0,60.6,27.18Zm9.94-4-.33,0H70a1.62,1.62,0,0,0-1.58.77,3,3,0,0,0-.23,1.33v3.56h-2V21.34h1.86v1.3a4.12,4.12,0,0,1,.79-1,2.14,2.14,0,0,1,1.42-.46h.26Z"/></g></g></svg>