<svg xmlns="http://www.w3.org/2000/svg" viewBox="0 0 99.5 98.97"><defs><style>.cls-1{fill:#fbbd3c;}.cls-2{fill:#222e65;}.cls-3{fill:#15c0dc;}</style></defs><title>Asset 47</title><g id="Layer_2" data-name="Layer 2"><g id="Layer_1-2" data-name="Layer 1"><path class="cls-1" d="M57.75,24.74a1.58,1.58,0,0,0-1.59,1,3.88,3.88,0,0,0-.22,1.43,3,3,0,0,0,.46,1.72,1.59,1.59,0,0,0,1.41.68A1.46,1.46,0,0,0,59.09,29a3,3,0,0,0,.45-1.73,3.87,3.87,0,0,0-.22-1.42A1.56,1.56,0,0,0,57.75,24.74Z"/><path class="cls-1" d="M48.33,24.6a1.68,1.68,0,0,0-1.42.65,3,3,0,0,0-.5,1.86,3,3,0,0,0,.5,1.87,1.87,1.87,0,0,0,2.84,0,3.05,3.05,0,0,0,.5-1.87,3,3,0,0,0-.5-1.86A1.67,1.67,0,0,0,48.33,24.6Z"/><path class="cls-1" d="M24.47,21.84a2.63,2.63,0,0,0-2.16,1,4.42,4.42,0,0,0-.81,2.84,4.42,4.42,0,0,0,.81,2.84,2.63,2.63,0,0,0,2.16,1,2.6,2.6,0,0,0,2.15-1,4.46,4.46,0,0,0,.79-2.84,4.47,4.47,0,0,0-.79-2.84A2.6,2.6,0,0,0,24.47,21.84Z"/><path class="cls-1" d="M66.57,24.6a1.67,1.67,0,0,0-1.26.46,2.19,2.19,0,0,0-.56,1.25h3.63A1.76,1.76,0,0,0,67.82,25,1.85,1.85,0,0,0,66.57,24.6Z"/><path class="cls-2" d="M40.46,58.77V54.88a25.24,25.24,0,0,0,3.78-.36A5.33,5.33,0,0,0,47,53a5,5,0,0,0,1.12-2.09,4.8,4.8,0,0,0,.22-1.16h4.78v29.1H47.3V58.77Z"/><rect class="cls-2" x="51.76" y="6.36" width="17.31" height="4.59" rx="2.02" ry="2.02" transform="translate(51.76 69.06) rotate(-90)"/><path class="cls-1" d="M85.05,15.54H65.18a4.52,4.52,0,0,1-4.5,4.26h-.54a4.52,4.52,0,0,1-4.5-4.26h-15a4.52,4.52,0,0,1-4.5,4.26h-.54a4.52,4.52,0,0,1-4.5-4.26H8.64a2.17,2.17,0,0,0-2.17,2.17v15.4a2.17,2.17,0,0,0,2.17,2.17H85.05a2.17,2.17,0,0,0,2.17-2.17V17.72A2.17,2.17,0,0,0,85.05,15.54ZM28,30.17a4.75,4.75,0,0,1-3.57,1.27,4.75,4.75,0,0,1-3.57-1.27,5.88,5.88,0,0,1-1.66-4.5,5.76,5.76,0,0,1,1.66-4.5,4.75,4.75,0,0,1,3.57-1.27A4.75,4.75,0,0,1,28,21.18a5.78,5.78,0,0,1,1.65,4.5A5.89,5.89,0,0,1,28,30.17Zm5.17-1.53a1.41,1.41,0,0,0,1.42,1,1.26,1.26,0,0,0,1.05-.4,2,2,0,0,0,.38-1h2.15a3.53,3.53,0,0,1-.7,1.82,3.38,3.38,0,0,1-2.94,1.38,3.44,3.44,0,0,1-2.86-1.15,4.66,4.66,0,0,1-.92-3,4.73,4.73,0,0,1,1-3.23,3.53,3.53,0,0,1,2.8-1.15,4.22,4.22,0,0,1,2.48.68A3.16,3.16,0,0,1,38.23,26H36.07a1.87,1.87,0,0,0-.3-.81,1.28,1.28,0,0,0-1.1-.49,1.45,1.45,0,0,0-1.46,1.06A4.39,4.39,0,0,0,33,27.22,4,4,0,0,0,33.21,28.64Zm10.16-4H42.06v4.26a1,1,0,0,0,.13.62,1.4,1.4,0,0,0,.77.12h.41v1.57l-1,0a2.68,2.68,0,0,1-2-.52A1.54,1.54,0,0,1,40,29.62v-5H38.85v-1.5H40V20.91h2.09v2.25h1.31Zm8.07,5.5a3.75,3.75,0,0,1-3.1,1.26,3.75,3.75,0,0,1-3.1-1.26,5,5,0,0,1,0-6.05,3.72,3.72,0,0,1,3.1-1.28,3.72,3.72,0,0,1,3.1,1.28,5,5,0,0,1,0,6.05Zm9.42,0a3.24,3.24,0,0,1-4.1.84,3.21,3.21,0,0,1-.79-.83v1H53.89V20.26H56v3.87a3.08,3.08,0,0,1,.89-.86,2.65,2.65,0,0,1,1.46-.37A3,3,0,0,1,60.85,24a4.63,4.63,0,0,1,.9,3A5.18,5.18,0,0,1,60.86,30.12Zm9.71-2.42H64.7a1.93,1.93,0,0,0,.84,1.7,2.14,2.14,0,0,0,1.16.3,1.78,1.78,0,0,0,1.17-.37,1.76,1.76,0,0,0,.43-.55h2.15a2.63,2.63,0,0,1-.78,1.46,3.92,3.92,0,0,1-3,1.18,4.39,4.39,0,0,1-2.84-1,3.91,3.91,0,0,1-1.23-3.23A4.37,4.37,0,0,1,63.69,24a3.89,3.89,0,0,1,2.88-1.12,4.58,4.58,0,0,1,1.9.38,3.27,3.27,0,0,1,1.39,1.19,4,4,0,0,1,.64,1.67A10.3,10.3,0,0,1,70.57,27.7Zm5.72-2.64-.35,0h-.25a1.75,1.75,0,0,0-1.71.83,3.22,3.22,0,0,0-.24,1.43v3.85H71.62V23.08h2v1.4a4.46,4.46,0,0,1,.85-1.1,2.31,2.31,0,0,1,1.54-.5h.28Z"/><rect class="cls-2" x="27.24" y="6.36" width="17.31" height="4.59" rx="2.02" ry="2.02" transform="translate(27.24 44.54) rotate(-90)"/><rect class="cls-2" x="40.68" y="8.19" width="14.93" height="4.24"/><path class="cls-2" d="M87.24,8.19h-22v4.24h22.1a2.48,2.48,0,0,1,2.48,2.48V38.28H4.24V14.91a2.48,2.48,0,0,1,2.48-2.48H31.1V8.19H6.9A6.9,6.9,0,0,0,0,15.09V84.28a6.9,6.9,0,0,0,6.9,6.9H69.39l-3.94-4.24H6.72a2.48,2.48,0,0,1-2.48-2.48V42.86H89.79V59.23a6.94,6.94,0,0,1,4.36,2.45V15.09A6.9,6.9,0,0,0,87.24,8.19Z"/><path class="cls-3" d="M97.34,79.29h-5.6V66.09a3,3,0,0,0-2.95-2.95H77.32a3,3,0,0,0-2.95,2.95V79.29H68.74a2.16,2.16,0,0,0-1.58,3.63l14.3,15.37a2.16,2.16,0,0,0,3.16,0l14.3-15.37A2.16,2.16,0,0,0,97.34,79.29Z"/></g></g></svg>