<svg xmlns="http://www.w3.org/2000/svg" viewBox="0 0 102.8 86.48"><defs><style>.cls-1{fill:none;}.cls-2{fill:#fbbd3c;}.cls-3{fill:#15c0dc;}.cls-4{fill:#222e65;}</style></defs><title>Asset 48</title><g id="Layer_2" data-name="Layer 2"><g id="Layer_1-2" data-name="Layer 1"><rect class="cls-1" x="5.73" y="29.27" width="91.34" height="27.95" rx="2.56" ry="2.56" transform="translate(-11.69 20.19) rotate(-20)"/><path class="cls-2" d="M75.73,31.73a2.27,2.27,0,0,0-2.06-.18A2.3,2.3,0,0,0,72.2,33a3.85,3.85,0,0,0,.19,2.57,3.85,3.85,0,0,0,1.51,2.09,2.3,2.3,0,0,0,2.07.17,2.27,2.27,0,0,0,1.46-1.46,3.89,3.89,0,0,0-.2-2.57A3.89,3.89,0,0,0,75.73,31.73Z"/><polygon class="cls-2" points="35.28 50.33 37.57 49.5 35.16 46.4 35.28 50.33"/><path class="cls-2" d="M94.08,37.24,88,20.4a1.89,1.89,0,0,0-2.42-1.13L9.84,46.82a1.89,1.89,0,0,0-1.13,2.42l6.13,16.83a1.89,1.89,0,0,0,2.42,1.13L93,39.66A1.89,1.89,0,0,0,94.08,37.24ZM19.46,59.92l-2.68-7.35-2.69,1L13.52,52l7.24-2.64.58,1.58-2.67,1,2.68,7.35Zm11-4-1.45-4L25.5,53.2l1.45,4-1.86.68-3.25-8.94,1.86-.68,1.24,3.41,3.47-1.26L27.17,47,29,46.31l3.25,8.94Zm9.46-3.44-1.26-1.62-3.29,1.2.06,2.06-2,.71-.06-10.1L35.49,44l6.42,7.79Zm8.51-3.1-5.95-5,2.31,6.34L43,51.34l-3.25-8.94,2-.71,5.82,4.94L45.26,40.4,47,39.77l3.25,8.94Zm9.14-3.33-4.17-2.9-.57,1.24,1.09,3L52,48.06l-3.25-8.94,1.84-.67L52,42.13l2.11-4.94,2.41-.88-2.33,5,5.77,3.86Zm9-3.29-1.22-3.35L60.22,35l2.2-.8,3.27,3.22.36-4.54,2.12-.77-1,6.67,1.22,3.35Zm12.52-5.46a4.93,4.93,0,0,1-5.86,2.13,5.13,5.13,0,0,1-2.7-3.19,5,5,0,0,1,0-4.18,4.93,4.93,0,0,1,5.86-2.13,5,5,0,0,1,2.69,3.19A5.14,5.14,0,0,1,79.08,37.31Zm9.35-3.89q-.29,1.76-2.61,2.6t-3.68-.31a4.9,4.9,0,0,1-1.25-2.06l-2-5.49,1.9-.69,2,5.49a3.31,3.31,0,0,0,.71,1.27,1.54,1.54,0,0,0,1.75.21q1.13-.41,1.19-1.29a3.31,3.31,0,0,0-.27-1.42l-2-5.49,1.9-.69,2,5.49A4.91,4.91,0,0,1,88.44,33.42Z"/><path class="cls-3" d="M72.59,15.86a34.63,34.63,0,0,0-55,20Zm-20.45.46.16-1.93,1.43,1.3,1.88-.44L54.82,17l1,1.66-1.92-.21-1.26,1.47L52.24,18l-1.78-.75ZM40,16.34l.36-3,2.19,2.14,3-.59-1.36,2.74,1.49,2.67-3-.44-2.08,2.24L40,19l-2.77-1.28Zm-8.08,7.34.22-1.92,1.37,1.35,1.87-.37-.83,1.73.94,1.69-1.89-.29-1.29,1.41-.33-1.9-1.74-.82Z"/><path class="cls-3" d="M30.21,70.62a34.63,34.63,0,0,0,55-20ZM49.63,70l-1.29,1.41L48,69.53l-1.74-.82L48,67.82l.22-1.92,1.37,1.35,1.87-.37-.83,1.73.94,1.69Zm11.7,1.18-2.08,2.24-.51-3L56,69.15l2.71-1.42.36-3,2.19,2.14,3-.59L62.86,69l1.49,2.67ZM70,62.61,68.7,64.07l-.39-1.9-1.78-.75,1.68-1,.16-1.93,1.43,1.3,1.88-.44-.79,1.77,1,1.66Z"/><path class="cls-4" d="M102.44,38.07,93.82,14.39a5.89,5.89,0,0,0-7.55-3.52l-7.16,2.61,2.68-1a43.22,43.22,0,0,0-73,23.65c-.17,1-.29,2.06-.39,3.08l1.2-.44L3.88,40.87A5.89,5.89,0,0,0,.36,48.41L9,72.09a5.89,5.89,0,0,0,7.55,3.52L89.64,49c0,.2,0,.39-.08.59A38.67,38.67,0,0,1,25.8,72.23L21,74A43.22,43.22,0,0,0,94,50.33c.17-1,.29-2.06.39-3.08l4.49-1.63A5.89,5.89,0,0,0,102.44,38.07ZM13.24,36.9A38.67,38.67,0,0,1,77,14.25L13.16,37.49C13.19,37.29,13.21,37.1,13.24,36.9Zm83.44,4.73-81,29.49a2.56,2.56,0,0,1-3.28-1.53L4.58,48.13a2.56,2.56,0,0,1,1.53-3.28l81-29.49a2.56,2.56,0,0,1,3.28,1.53l7.81,21.45A2.56,2.56,0,0,1,96.69,41.63Z"/></g></g></svg>