<svg xmlns="http://www.w3.org/2000/svg" viewBox="0 0 93.35 78.53"><defs><style>.cls-1{fill:#222e65;}.cls-2{fill:none;}.cls-3{fill:#15c0dc;}.cls-4{fill:#fff;}.cls-5{fill:#fbbd3c;}</style></defs><title>Asset 25</title><g id="Layer_2" data-name="Layer 2"><g id="Layer_1-2" data-name="Layer 1"><path class="cls-1" d="M53.11.54A39.26,39.26,0,1,0,85.4,45.7,39.26,39.26,0,0,0,53.11.54ZM81.32,45A35.12,35.12,0,1,1,52.43,4.62,35.12,35.12,0,0,1,81.32,45Z"/><circle class="cls-2" cx="46.67" cy="39.27" r="35.12" transform="translate(0.29 78.87) rotate(-80.56)"/><circle class="cls-3" cx="46.67" cy="39.27" r="31.44" transform="translate(0.29 78.87) rotate(-80.56)"/><polygon class="cls-4" points="46.78 63.85 45.06 63.59 43.89 64.87 43.59 63.14 42.02 62.4 43.54 61.59 43.74 59.85 44.99 61.08 46.68 60.74 45.92 62.31 46.78 63.85"/><polygon class="cls-4" points="58.44 65.06 55.69 64.66 53.8 66.7 53.34 63.96 50.82 62.8 53.27 61.51 53.61 58.75 55.59 60.69 58.31 60.15 57.08 62.64 58.44 65.06"/><polygon class="cls-4" points="65.28 57.04 63.53 56.85 62.39 58.18 62.03 56.46 60.41 55.78 61.93 54.91 62.08 53.16 63.38 54.34 65.09 53.94 64.37 55.54 65.28 57.04"/><path class="cls-1" d="M93,34.57,85.2,13.07a5.35,5.35,0,0,0-6.85-3.2L3.52,37.11A5.35,5.35,0,0,0,.32,44l7.82,21.5A5.35,5.35,0,0,0,15,68.66L89.83,41.42A5.35,5.35,0,0,0,93,34.57ZM87.8,37.8,14.23,64.58a2.32,2.32,0,0,1-3-1.39L4.16,43.71a2.32,2.32,0,0,1,1.39-3L79.12,14a2.32,2.32,0,0,1,3,1.39l7.09,19.48A2.32,2.32,0,0,1,87.8,37.8Z"/><rect class="cls-4" x="5.2" y="26.58" width="82.94" height="25.38" rx="2.32" ry="2.32" transform="translate(-10.61 18.33) rotate(-20)"/><rect class="cls-5" x="8.38" y="29.42" width="76.58" height="19.7" rx="1.89" ry="1.89" transform="translate(-10.61 18.33) rotate(-20)"/><path class="cls-4" d="M18.85,44.79l.52,1.44-2.43.88,2.43,6.68-1.71.62-2.43-6.68-2.44.89-.52-1.44Z"/><path class="cls-4" d="M22.79,52.55l-3-8.12,1.68-.61,1.13,3.09,3.15-1.15-1.13-3.09,1.68-.61,3,8.12-1.68.61-1.32-3.62-3.15,1.15,1.32,3.62Z"/><path class="cls-4" d="M30.31,40.62l1.92-.7L38.05,47l-1.84.67-1.14-1.47-3,1.09.06,1.87-1.77.65ZM32,45.71,34.11,45l-2.19-2.82Z"/><path class="cls-4" d="M36.1,38.51l1.78-.65,5.28,4.49L41.1,36.69l1.58-.58,3,8.12-1.7.62-5.4-4.56L40.64,46l-1.58.58Z"/><path class="cls-4" d="M44.3,35.52,46,34.92l1.22,3.34,1.92-4.49L51.3,33l-2.12,4.55L54.42,41l-2.18.79-3.79-2.63-.52,1.13,1,2.71-1.67.61Z"/><path class="cls-4" d="M60,29.82l1.92-.7L61,35.18l1.11,3-1.7.62-1.11-3-4.65-4.05,2-.73,3,2.92Z"/><path class="cls-4" d="M71.81,33.88a4.48,4.48,0,0,1-5.32,1.94A4.66,4.66,0,0,1,64,32.92a4.57,4.57,0,0,1,0-3.8,4.48,4.48,0,0,1,5.32-1.94,4.58,4.58,0,0,1,2.45,2.9A4.67,4.67,0,0,1,71.81,33.88ZM70.31,33a3.53,3.53,0,0,0-.18-2.33,3.54,3.54,0,0,0-1.36-1.9,2.06,2.06,0,0,0-1.87-.16A2.09,2.09,0,0,0,65.56,30a3.5,3.5,0,0,0,.17,2.33,3.5,3.5,0,0,0,1.37,1.9,2.09,2.09,0,0,0,1.88.16A2.06,2.06,0,0,0,70.31,33Z"/><path class="cls-4" d="M71.64,25.57l1.72-.63,1.81,5a3,3,0,0,0,.64,1.15,1.39,1.39,0,0,0,1.59.19q1-.37,1.09-1.17a3,3,0,0,0-.25-1.29l-1.81-5,1.72-.63,1.82,5a4.46,4.46,0,0,1,.33,2.16,4,4,0,0,1-5.71,2.08,4.45,4.45,0,0,1-1.13-1.87Z"/><polygon class="cls-4" points="32.19 23.75 30.47 23.49 29.3 24.77 29 23.05 27.42 22.3 28.95 21.5 29.15 19.76 30.39 20.98 32.09 20.65 31.33 22.22 32.19 23.75"/><polygon class="cls-4" points="41.45 18.39 38.7 17.99 36.81 20.03 36.35 17.29 33.83 16.12 36.29 14.83 36.62 12.08 38.6 14.02 41.33 13.48 40.1 15.97 41.45 18.39"/><polygon class="cls-4" points="50.69 16.95 48.94 16.76 47.79 18.09 47.44 16.37 45.81 15.69 47.34 14.82 47.49 13.06 48.79 14.24 50.5 13.84 49.78 15.45 50.69 16.95"/></g></g></svg>