<svg xmlns="http://www.w3.org/2000/svg" viewBox="0 0 81.82 78.69"><defs><style>.cls-1{fill:#222e65;}.cls-2{fill:#fcbd3d;}.cls-3{fill:#fff;}</style></defs><title>Asset 10</title><g id="Layer_2" data-name="Layer 2"><g id="Layer_1-2" data-name="Layer 1"><path class="cls-1" d="M27.76,4.74A15.08,15.08,0,0,0,11,1.14h0L24,14h0a10.75,10.75,0,0,1-8.21,8.25h0L2.82,9.39h0A15.08,15.08,0,1,0,27.76,4.74Z"/><path class="cls-2" d="M.17,75.93,7.4,59.13l12.41,13L2.67,78.56A2,2,0,0,1,.17,75.93Z"/><path class="cls-3" d="M9.24,73a2.61,2.61,0,0,0,.33-.08l7-2.76A.71.71,0,0,0,16.81,69L10.4,62.28a.71.71,0,0,0-1.16.2L6.15,69.31a2.61,2.61,0,0,0-.09.33Z"/><path class="cls-2" d="M76.35,18.41l4-3.83A4.68,4.68,0,0,0,80.53,8L74.45,1.58a4.68,4.68,0,0,0-6.62-.16l-4,3.83Z"/><rect class="cls-2" x="3.19" y="30.78" width="75.17" height="18" transform="translate(97.73 40.46) rotate(136.41)"/><rect class="cls-3" x="7.56" y="37.68" width="56.71" height="3.53" rx="1.77" ry="1.77" transform="translate(89.12 43.25) rotate(136.41)"/><path class="cls-1" d="M79,66.83l-24.12-24L44,53.18l24.4,24.29a3,3,0,0,0,4.18-.09L78.95,71A3,3,0,0,0,79,66.83Z"/><path class="cls-1" d="M37.88,25.89l-4.27-4.25A19.89,19.89,0,0,1,23,32.28l4,4Z"/></g></g></svg>