<svg xmlns="http://www.w3.org/2000/svg" viewBox="0 0 98.59 94.8"><defs><style>.cls-1{fill:#222e65;}.cls-2{fill:#fcbd3d;}</style></defs><title>Asset 49</title><g id="Layer_2" data-name="Layer 2"><g id="Layer_1-2" data-name="Layer 1"><path class="cls-1" d="M33.67,5.69a18.11,18.11,0,0,0-20.1-4.32h0L29.1,16.81h0a12.91,12.91,0,0,1-9.86,9.9h0L3.72,11.27h0a18.11,18.11,0,1,0,30-5.58Z"/><path class="cls-2" d="M97,9.56l-7.3-7.67A5.62,5.62,0,0,0,81.8,1.7L77,6.3,92,22.1l4.83-4.6A5.62,5.62,0,0,0,97,9.56Z"/><path class="cls-2" d="M9.22,71h0l-.06.06,0,0L.17,92a2,2,0,0,0,2.51,2.63l21.37-8,0,0L89.44,24.47,74.54,8.81Zm11,13.25-8.38,3.31a3.14,3.14,0,0,1-.4.09l-3.83-4a3.13,3.13,0,0,1,.11-.4L11.43,75a.84.84,0,0,1,1.11-.41l8.15,8.56A.84.84,0,0,1,20.22,84.25ZM72.75,22.41,21.54,71.17a1.77,1.77,0,0,1-2.5-.06l-.49-.51a1.77,1.77,0,0,1,.06-2.5L69.83,19.34a1.77,1.77,0,0,1,2.5.06l.49.51A1.77,1.77,0,0,1,72.75,22.41Z"/><path class="cls-1" d="M95.22,80.25l-29-28.82L53.21,63.86,82.51,93a3.55,3.55,0,0,0,5-.1l7.61-7.65A3.55,3.55,0,0,0,95.22,80.25Z"/><path class="cls-1" d="M45.82,31.09,40.69,26A23.88,23.88,0,0,1,28,38.76l4.78,4.76Z"/></g></g></svg>