<?xml version="1.0" encoding="utf-8"?>
<!-- Generator: Adobe Illustrator 16.0.0, SVG Export Plug-In . SVG Version: 6.00 Build 0)  -->
<!DOCTYPE svg PUBLIC "-//W3C//DTD SVG 1.1//EN" "http://www.w3.org/Graphics/SVG/1.1/DTD/svg11.dtd">
<svg version="1.1" id="Layer_1" xmlns="http://www.w3.org/2000/svg" xmlns:xlink="http://www.w3.org/1999/xlink" x="0px" y="0px"
	 width="40px" height="40px" viewBox="0 0 40 40" enable-background="new 0 0 40 40" xml:space="preserve">
<circle fill="#F4CF1A" cx="20" cy="20" r="20"/>
<path fill="#FFFFFF" d="M29.611,33.182c0,0.78-0.612,1.413-1.369,1.413H10.98c-0.756,0-1.369-0.632-1.369-1.413V7.208
	c0-0.78,0.613-1.413,1.369-1.413h17.262c0.757,0,1.369,0.632,1.369,1.413V33.182z"/>
<rect x="20.95" y="17.851" fill="#A7A9AC" width="6.5" height="1"/>
<rect x="11.611" y="21.591" fill="#A7A9AC" width="16" height="1"/>
<rect x="20.95" y="13.868" fill="#A7A9AC" width="6.5" height="1"/>
<rect x="11.611" y="25.331" fill="#A7A9AC" width="16" height="1"/>
<rect x="11.611" y="29.071" fill="#A7A9AC" width="11.2" height="1"/>
<polygon fill="#232E66" points="16.908,16.772 18.005,15.449 20,17.856 20,10.128 11.611,10.128 11.611,17.855 14.708,14.12 "/>
<polygon fill="#73B451" points="18.005,15.475 16.908,16.784 14.708,14.16 11.611,17.855 11.611,18.651 20,18.651 20,17.856 "/>
</svg>
