<?xml version="1.0" encoding="utf-8"?>
<!-- Generator: Adobe Illustrator 16.0.0, SVG Export Plug-In . SVG Version: 6.00 Build 0)  -->
<!DOCTYPE svg PUBLIC "-//W3C//DTD SVG 1.1 Tiny//EN" "http://www.w3.org/Graphics/SVG/1.1/DTD/svg11-tiny.dtd">
<svg version="1.1" baseProfile="tiny" id="Layer_1" xmlns="http://www.w3.org/2000/svg" xmlns:xlink="http://www.w3.org/1999/xlink"
	 x="0px" y="0px" width="48px" height="48px" viewBox="0 0 48 48" xml:space="preserve">
<g>
	<path fill="#E6E6E6" d="M41,40.94C45.324,36.6,48,30.612,48,24C48,10.745,37.254,0,24,0C10.745,0,0,10.745,0,24
		c0,6.625,2.685,12.623,7.025,16.966c5.004-1.498,10.819-2.359,17.03-2.359C30.23,38.606,36.014,39.459,41,40.94z"/>
	<path fill="#C3002F" d="M24,48c6.643,0,12.654-2.699,17-7.06c-4.986-1.481-10.77-2.334-16.945-2.334
		c-6.211,0-12.026,0.861-17.03,2.359C11.368,45.312,17.37,48,24,48z"/>
</g>
<path fill="#F4CF1A" d="M36.492,22.058c-0.008,0-0.016,0.003-0.023,0.003c-0.654-6.24-5.35-9.199-12.255-9.247
	c-0.001,0-0.001,0-0.002,0c-0.001,0-0.002,0-0.004,0c-0.062,0.001-0.123,0.004-0.184,0.005c-0.062-0.001-0.123-0.004-0.184-0.005
	c-0.001,0-0.003,0-0.004,0c0,0-0.002,0-0.003,0c-6.903,0.048-11.794,3.019-12.32,9.247c-0.754,0.031-1.361,1.52-1.361,3.353
	c0,1.854,0.621,3.355,1.385,3.355c0.207,0,0.402-0.113,0.579-0.311c0.256,1.438,0.501,2.898,0.549,4.306
	c0.177,5.217,0.776,9.709,11.168,9.711c10.602,0,11.398-4.496,11.623-9.716c0.061-1.379,0.299-2.809,0.537-4.22
	c0.154,0.146,0.324,0.229,0.5,0.229c0.764,0,1.387-1.502,1.387-3.355C37.879,23.561,37.256,22.058,36.492,22.058z"/>
<path fill="#00AEEF" d="M25.795,3.041c-0.594-0.1-1.17-0.565-1.724-0.555V2.485c-0.001,0-0.002-0.001-0.003-0.001
	c-0.008-0.001-0.017,0.001-0.025,0.001c-0.007,0-0.017-0.002-0.025-0.001c-0.001,0-0.002,0.001-0.002,0.001
	c-0.002,0-0.003-0.001-0.004-0.001c-0.007-0.001-0.017,0.001-0.025,0.001c-0.007,0-0.017-0.002-0.025-0.001
	c0,0-0.002,0.001-0.003,0.001v0.001c-0.552-0.011-1.13,0.455-1.723,0.555C10.16,5.068,10.16,8.823,11.064,19.869l13.047-2.42
	l12.852,2.42C37.869,8.823,37.869,5.068,25.795,3.041z"/>
<path fill="#232E66" d="M37.541,19.948c-0.957-1.704-6.484-5.094-13.526-5.094c-7.042,0-12.571,3.39-13.527,5.094
	c-0.938,1.674,0.18,3.276,2.814,3.276c1.649,0,3.77-3.653,10.713-3.653c6.942,0,9.063,3.653,10.712,3.653
	C37.359,23.225,38.479,21.622,37.541,19.948z"/>
<path fill="#FFFFFF" d="M25.879,9.763c0.033,0,0.068,0.005,0.104,0.02c0.033,0.012,0.064,0.034,0.098,0.064l0.578,0.608
	c-0.254,0.332-0.57,0.581-0.951,0.749c-0.381,0.167-0.832,0.253-1.352,0.253c-0.479,0-0.905-0.082-1.282-0.244
	c-0.378-0.162-0.699-0.387-0.964-0.673c-0.263-0.287-0.464-0.625-0.604-1.018c-0.142-0.394-0.212-0.819-0.212-1.279
	c0-0.468,0.08-0.9,0.241-1.292c0.16-0.393,0.386-0.73,0.676-1.017c0.287-0.284,0.634-0.506,1.038-0.663
	c0.401-0.158,0.845-0.238,1.331-0.238c0.235,0,0.458,0.021,0.666,0.063c0.209,0.042,0.404,0.099,0.586,0.173
	c0.182,0.073,0.348,0.16,0.502,0.263c0.15,0.101,0.285,0.214,0.402,0.339l-0.49,0.659c-0.031,0.042-0.07,0.077-0.111,0.11
	c-0.043,0.033-0.104,0.049-0.184,0.049c-0.049,0-0.1-0.011-0.145-0.033c-0.047-0.023-0.096-0.053-0.146-0.084
	c-0.051-0.034-0.109-0.068-0.17-0.109c-0.064-0.037-0.135-0.074-0.221-0.107c-0.084-0.032-0.186-0.06-0.3-0.084
	c-0.11-0.023-0.244-0.034-0.396-0.034c-0.265,0-0.507,0.047-0.725,0.141c-0.219,0.093-0.407,0.226-0.564,0.4
	c-0.155,0.173-0.278,0.386-0.365,0.632c-0.087,0.248-0.131,0.525-0.131,0.833c0,0.322,0.043,0.608,0.131,0.858
	c0.087,0.25,0.208,0.462,0.358,0.632c0.152,0.171,0.327,0.301,0.528,0.39c0.202,0.091,0.417,0.134,0.647,0.134
	c0.133,0,0.253-0.006,0.361-0.02c0.111-0.012,0.212-0.034,0.306-0.065c0.094-0.033,0.18-0.073,0.268-0.124
	c0.084-0.05,0.17-0.112,0.256-0.188c0.035-0.028,0.072-0.051,0.111-0.071C25.795,9.771,25.834,9.763,25.879,9.763z"/>
<g>
	<path fill="#FFFFFF" d="M29.596,33.651c0.572-1.533,0.572-3.04,0.572-3.416c0,0-3.182,1.2-6.154,1.2c-3.105,0-6.154-1.2-6.154-1.2
		c0,0.42-0.001,1.9,0.55,3.405c1.027,0.332,3.578,1.08,5.645,1.08C26.102,34.721,28.572,33.987,29.596,33.651z"/>
	<path fill="#FFFFFF" d="M24.055,35.221c-1.918,0-4.172-0.6-5.391-0.974c0.779,1.635,2.313,3.133,5.35,3.133
		c3.003,0,4.535-1.491,5.322-3.118C28.129,34.637,25.947,35.221,24.055,35.221z"/>
	<path fill="#CCCCCC" d="M29.336,34.262c0.098-0.203,0.184-0.406,0.26-0.61c-1.023,0.336-3.494,1.069-5.541,1.069
		c-2.066,0-4.617-0.748-5.645-1.08c0.074,0.203,0.158,0.405,0.254,0.606c1.219,0.374,3.472,0.974,5.391,0.974
		C25.947,35.221,28.129,34.637,29.336,34.262z"/>
</g>
<g>
	<path fill="#5F6263" d="M21.525,25.735c0-0.958-0.777-1.735-1.736-1.735c-0.958,0-1.735,0.777-1.735,1.735
		c0,0.075,0.013,0.147,0.022,0.221h3.426C21.512,25.883,21.525,25.811,21.525,25.735z"/>
	<path fill="#5F6263" d="M29.729,25.735c0-0.958-0.775-1.735-1.734-1.735s-1.736,0.777-1.736,1.735c0,0.075,0.014,0.147,0.023,0.221
		h3.426C29.717,25.883,29.729,25.811,29.729,25.735z"/>
</g>
</svg>
