<?xml version="1.0" encoding="UTF-8" standalone="no"?>
<!-- Generator: Adobe Illustrator 16.0.0, SVG Export Plug-In . SVG Version: 6.00 Build 0)  -->

<svg
   xmlns:dc="http://purl.org/dc/elements/1.1/"
   xmlns:cc="http://creativecommons.org/ns#"
   xmlns:rdf="http://www.w3.org/1999/02/22-rdf-syntax-ns#"
   xmlns:svg="http://www.w3.org/2000/svg"
   xmlns="http://www.w3.org/2000/svg"
   xmlns:sodipodi="http://sodipodi.sourceforge.net/DTD/sodipodi-0.dtd"
   xmlns:inkscape="http://www.inkscape.org/namespaces/inkscape"
   version="1.1"
   id="Layer_1"
   x="0px"
   y="0px"
   width="40px"
   height="40px"
   viewBox="0 0 40 40"
   enable-background="new 0 0 40 40"
   xml:space="preserve"
   inkscape:version="0.48.2 r9819"
   sodipodi:docname="icon-correct.svg"><metadata
   id="metadata3059"><rdf:RDF><cc:Work
       rdf:about=""><dc:format>image/svg+xml</dc:format><dc:type
         rdf:resource="http://purl.org/dc/dcmitype/StillImage" /></cc:Work></rdf:RDF></metadata><defs
   id="defs3057" /><sodipodi:namedview
   pagecolor="#ffffff"
   bordercolor="#666666"
   borderopacity="1"
   objecttolerance="10"
   gridtolerance="10"
   guidetolerance="10"
   inkscape:pageopacity="0"
   inkscape:pageshadow="2"
   inkscape:window-width="1074"
   inkscape:window-height="730"
   id="namedview3055"
   showgrid="false"
   inkscape:zoom="5.9"
   inkscape:cx="20"
   inkscape:cy="20"
   inkscape:window-x="0"
   inkscape:window-y="0"
   inkscape:window-maximized="0"
   inkscape:current-layer="Layer_1" />

<g
   id="g3047">
	<path
   fill="#73B451"
   d="M33.6,28.2c-2.978,0-5.4,2.423-5.4,5.4S30.622,39,33.6,39s5.4-2.422,5.4-5.399S36.577,28.2,33.6,28.2z"
   id="path3049" />
	<path
   fill="#FFFFFF"
   d="M33.6,27.2c-3.529,0-6.4,2.871-6.4,6.4c0,3.528,2.871,6.399,6.4,6.399s6.4-2.871,6.4-6.399   C40,30.071,37.129,27.2,33.6,27.2z M33.6,39c-2.978,0-5.4-2.422-5.4-5.399s2.423-5.4,5.4-5.4s5.4,2.423,5.4,5.4S36.577,39,33.6,39z   "
   id="path3051" />
	<path
   fill-rule="evenodd"
   clip-rule="evenodd"
   fill="#FFFFFF"
   d="M36.745,32.247l-3.633,3.633c-0.109,0.111-0.203,0.178-0.39,0.178   c-0.16-0.004-0.33-0.098-0.408-0.178l-1.861-1.86c-0.172-0.173-0.172-0.447,0-0.62l0.355-0.355c0.173-0.172,0.446-0.084,0.62,0.09   l1.239,1.24l3.102-3.102c0.175-0.174,0.446-0.174,0.621,0l0.354,0.354C36.919,31.802,36.919,32.073,36.745,32.247z"
   id="path3053" />
</g>
</svg>