<?xml version="1.0" encoding="utf-8"?>
<!-- Generator: Adobe Illustrator 16.0.0, SVG Export Plug-In . SVG Version: 6.00 Build 0)  -->
<!DOCTYPE svg PUBLIC "-//W3C//DTD SVG 1.1//EN" "http://www.w3.org/Graphics/SVG/1.1/DTD/svg11.dtd">
<svg version="1.1" id="Layer_1" xmlns="http://www.w3.org/2000/svg" xmlns:xlink="http://www.w3.org/1999/xlink" x="0px" y="0px"
	 width="33px" height="33px" viewBox="0 0 33 33" enable-background="new 0 0 33 33" xml:space="preserve">
<g>
	<circle fill="#FFFFFF" cx="16.5" cy="16.5" r="16.5"/>
	<g>
		<path fill="#5E6062" d="M23.715,12.13c-0.238-0.165-0.561-0.375-0.939-0.604L22,13.082c2.068,1.284,3.662,2.845,3.771,3.458
			c0.006,0.105-0.135,0.543-0.842,1.285c-1.584,1.666-4.598,3.443-7.23,3.895l-0.91,1.827c3.307-0.126,7.332-2.361,9.393-4.53
			c0.91-0.959,1.354-1.82,1.316-2.52C27.498,14.82,24.346,12.564,23.715,12.13z"/>
		<path fill="#5E6062" d="M14.334,23.285l0.796-1.602c-0.006-0.001-0.011-0.001-0.017-0.002l0.451-0.904
			c0.004,0.001,0.01,0.001,0.018,0.002l5.141-10.326c-0.006-0.003-0.01-0.006-0.016-0.008l0.348-0.697l-2.072-1.033l-0.484,0.975
			C17.844,9.533,17.17,9.434,16.5,9.434c-4.647,0-10.912,4.424-10.999,7.034c-0.024,0.757,0.441,1.636,1.385,2.611
			c1.232,1.274,3.147,2.592,5.211,3.466l-0.353,0.708l2.072,1.032l0.5-1.004C14.323,23.282,14.329,23.284,14.334,23.285z
			 M12.874,20.985c-1.857-0.772-3.642-1.966-4.745-3.107c-0.749-0.775-0.903-1.239-0.899-1.354c0.022-0.678,2.523-3.212,5.638-4.538
			c-0.956,0.94-1.551,2.248-1.551,3.696c0,1.714,0.837,3.23,2.12,4.174L12.874,20.985z M13.778,15.567h-0.809
			c0.087-1.82,1.619-3.271,3.501-3.271v0.791C15.035,13.087,13.863,14.184,13.778,15.567z"/>
		<path fill="#5E6062" d="M21.684,15.683c0-0.527-0.08-1.032-0.227-1.509l-3.172,6.369C20.268,19.815,21.684,17.916,21.684,15.683z"
			/>
	</g>
</g>
</svg>
