<?xml version="1.0" encoding="UTF-8" standalone="no"?><!DOCTYPE svg PUBLIC "-//W3C//DTD SVG 1.1//EN" "http://www.w3.org/Graphics/SVG/1.1/DTD/svg11.dtd"><svg width="100%" height="100%" viewBox="0 0 84 100" version="1.1" xmlns="http://www.w3.org/2000/svg" xmlns:xlink="http://www.w3.org/1999/xlink" xml:space="preserve" style="fill-rule:evenodd;clip-rule:evenodd;stroke-linejoin:round;stroke-miterlimit:1.41421;"><g id="Layer_1.-2"><path d="M52.1,7.31l-7.38,0c-0.146,-3.987 -3.466,-7.187 -7.455,-7.187c-3.989,0 -7.309,3.2 -7.455,7.187l-7.39,0c-0.889,0 -1.62,0.731 -1.62,1.62l0,10.6c0,0.889 0.731,1.62 1.62,1.62l29.68,0c0.889,0 1.62,-0.731 1.62,-1.62l0,-10.6c0,-0.889 -0.731,-1.62 -1.62,-1.62l0,0Zm-14.84,3.42c-2.194,0 -4,-1.806 -4,-4c0,-2.194 1.806,-4 4,-4c2.194,0 4,1.806 4,4c0,2.194 -1.806,4 -4,4Z" style="fill:#232e66;fill-rule:nonzero;"/><path d="M63.89,33.26c0,-1.104 -0.896,-2 -2,-2l-36.83,0c-1.104,0 -2,0.896 -2,2c0,1.104 0.896,2 2,2l36.83,0c1.104,0 2,-0.896 2,-2Z" style="fill:#222e65;"/><path d="M64.01,47.83c0,-1.104 -0.896,-2 -2,-2l-36.83,0c-1.104,0 -2,0.896 -2,2c0,1.104 0.896,2 2,2l36.83,0c1.104,0 2,-0.896 2,-2Z" style="fill:#222e65;"/><path d="M19,43.07l-0.46,-0.46c-0.162,-0.169 -0.386,-0.264 -0.62,-0.264c-0.234,0 -0.458,0.095 -0.62,0.264l-3.94,4.11l-2,-2c-0.162,-0.169 -0.386,-0.264 -0.62,-0.264c-0.234,0 -0.458,0.095 -0.62,0.264l-0.45,0.47c-0.342,0.351 -0.342,0.919 0,1.27l3.1,3.12c0.162,0.169 0.386,0.264 0.62,0.264c0.234,0 0.458,-0.095 0.62,-0.264l5,-5.21c0.172,-0.171 0.268,-0.403 0.268,-0.645c0,-0.247 -0.1,-0.484 -0.278,-0.655l0,0Z" style="fill:#15c0dc;fill-rule:nonzero;"/><path d="M19.34,57.64l-0.46,-0.46c-0.162,-0.169 -0.386,-0.264 -0.62,-0.264c-0.234,0 -0.458,0.095 -0.62,0.264l-3.93,4.12l-2,-2c-0.162,-0.169 -0.386,-0.264 -0.62,-0.264c-0.234,0 -0.458,0.095 -0.62,0.264l-0.45,0.47c-0.323,0.341 -0.332,0.879 -0.02,1.23l3.1,3.12c0.162,0.169 0.386,0.264 0.62,0.264c0.234,0 0.458,-0.095 0.62,-0.264l5,-5.21c0.342,-0.351 0.342,-0.919 0,-1.27Z" style="fill:#15c0dc;fill-rule:nonzero;"/><path d="M18.58,72.21l-0.46,-0.46c-0.162,-0.169 -0.386,-0.264 -0.62,-0.264c-0.234,0 -0.458,0.095 -0.62,0.264l-3.88,4.12l-2,-2c-0.162,-0.169 -0.386,-0.264 -0.62,-0.264c-0.234,0 -0.458,0.095 -0.62,0.264l-0.45,0.47c-0.342,0.351 -0.342,0.919 0,1.27l3.1,3.12c0.162,0.169 0.386,0.264 0.62,0.264c0.234,0 0.458,-0.095 0.62,-0.264l5,-5.21c0.157,-0.168 0.245,-0.391 0.245,-0.621c0,-0.265 -0.115,-0.516 -0.315,-0.689l0,0Z" style="fill:#15c0dc;fill-rule:nonzero;"/><path d="M19.07,28.5l-0.45,-0.5c-0.162,-0.169 -0.386,-0.264 -0.62,-0.264c-0.234,0 -0.458,0.095 -0.62,0.264l-3.94,4.11l-2,-2c-0.162,-0.169 -0.386,-0.264 -0.62,-0.264c-0.234,0 -0.458,0.095 -0.62,0.264l-0.45,0.47c-0.342,0.351 -0.342,0.919 0,1.27l3.09,3.15c0.162,0.169 0.386,0.264 0.62,0.264c0.234,0 0.458,-0.095 0.62,-0.264l5,-5.21c0.168,-0.17 0.263,-0.4 0.263,-0.64c0,-0.244 -0.098,-0.479 -0.273,-0.65Z" style="fill:#15c0dc;fill-rule:nonzero;"/><circle cx="70.47" cy="72.4" r="8.71" style="fill:#0dc0dc;"/><path d="M83.77,99.39l0,-8.39c-0.017,-4.652 -3.413,-8.655 -8,-9.43c-1.523,1.164 -3.405,1.762 -5.32,1.69c-1.904,-0.005 -3.762,-0.595 -5.32,-1.69c-4.549,0.845 -7.908,4.805 -8,9.43l0,8.36l26.64,0.03Z" style="fill:#0dc0dc;fill-rule:nonzero;"/><path d="M58,75l-32.82,0c-1.097,0 -2,0.903 -2,2c0,1.097 0.903,2 2,2l34.43,0c-0.762,-1.231 -1.307,-2.584 -1.61,-4Z" style="fill:#222e65;fill-rule:nonzero;"/><path d="M63.9,61.55c-0.327,-0.697 -1.03,-1.146 -1.8,-1.15l-36.84,0c-1.097,0 -2,0.903 -2,2c0,1.097 0.903,2 2,2l35.36,0c0.923,-1.13 2.032,-2.094 3.28,-2.85l0,0Z" style="fill:#222e65;fill-rule:nonzero;"/><path d="M69.8,21.19l0,38.54c0.22,0 0.45,0 0.67,0c1.205,0.003 2.404,0.178 3.56,0.52l0,-40.41c0,-3.023 -2.487,-5.51 -5.51,-5.51l-11.79,0l0,4.24l10.45,0c1.437,0 2.62,1.183 2.62,2.62l0,0Z" style="fill:#222e65;fill-rule:nonzero;"/><path d="M53.17,91c0.002,-0.71 0.062,-1.419 0.18,-2.12l-46.49,0c-1.437,0 -2.62,-1.183 -2.62,-2.62l0,-65.07c0,-1.437 1.183,-2.62 2.62,-2.62l10.94,0l0,-4.24l-12.29,0c-3.023,0 -5.51,2.487 -5.51,5.51l0,67.8c0,3.023 2.487,5.51 5.51,5.51l47.66,0l0,-2.15Z" style="fill:#222e65;fill-rule:nonzero;"/></g></svg>