<?xml version="1.0" encoding="UTF-8"?>
<svg width="18px" height="18px" viewBox="0 0 18 18" version="1.1" xmlns="http://www.w3.org/2000/svg" xmlns:xlink="http://www.w3.org/1999/xlink">
    <!-- Generator: Sketch 43.2 (39069) - http://www.bohemiancoding.com/sketch -->
    <title>multipart</title>
    <desc>Created with Sketch.</desc>
    <defs></defs>
    <g id="Page-1" stroke="none" stroke-width="1" fill="none" fill-rule="evenodd">
        <g id="OXT-icons" transform="translate(-886.000000, -186.000000)">
            <g id="multipart" transform="translate(886.000000, 186.000000)">
                <g id="Layer_2">
                    <g id="Layer_1-2">
                        <path d="M9.67628571,17.8637143 C13.8566271,17.5512687 17.2477187,14.3553632 17.8071429,10.2008571 C17.8225806,10.0701787 17.7813506,9.93914141 17.6938678,9.8408462 C17.6063851,9.74255099 17.4810156,9.68639784 17.3494286,9.68657143 L10.1365714,9.68657143 C9.88236265,9.68657143 9.67628571,9.89264836 9.67628571,10.1468571 L9.67628571,17.8637143 Z" id="Shape" fill="#5E6062"></path>
                        <path d="M7.87371429,0.257142857 C3.8951438,0.76228338 0.76228338,3.8951438 0.257142857,7.87371429 C0.241705144,8.00439273 0.282935149,8.13543001 0.370417886,8.23372522 C0.457900623,8.33202043 0.583270109,8.38817358 0.714857143,8.388 L7.93542857,8.388 C8.18963735,8.388 8.39571429,8.18192307 8.39571429,7.92771429 L8.39571429,0.717428571 C8.39692103,0.583867618 8.34005178,0.456368874 8.23986983,0.3680311 C8.13968789,0.279693325 8.00607395,0.239229061 7.87371429,0.257142857 L7.87371429,0.257142857 Z" id="Shape" fill="#5E6062"></path>
                        <path d="M0.257142857,10.1982857 C0.789110368,14.1598344 3.90463127,17.2764082 7.866,17.8097143 C7.99667844,17.825152 8.12771573,17.783922 8.22601094,17.6964393 C8.32430615,17.6089565 8.3804593,17.483587 8.38028571,17.352 L8.38028571,10.1365714 C8.38028571,9.88236265 8.17420878,9.67628571 7.92,9.67628571 L0.72,9.67628571 C0.585992878,9.67432494 0.457786195,9.73086858 0.368869889,9.83114642 C0.279953582,9.93142425 0.239159154,10.0654763 0.257142857,10.1982857 L0.257142857,10.1982857 Z" id="Shape" fill="#5E6062"></path>
                        <path d="M10.1365714,8.39314286 L17.352,8.39314286 C17.483587,8.39331644 17.6089565,8.33716329 17.6964393,8.23886808 C17.783922,8.14057287 17.825152,8.00953558 17.8097143,7.87885714 C17.3072608,3.89994525 14.1765154,0.764969117 10.1982857,0.257142857 C10.0676073,0.241705144 9.93656999,0.282935149 9.83827478,0.370417886 C9.73997957,0.457900623 9.68382642,0.583270109 9.684,0.714857143 L9.684,7.93542857 C9.68536284,8.18565365 9.88637772,8.38895279 10.1365714,8.39314286 Z" id="Shape" fill="#0DC0DC"></path>
                    </g>
                </g>
            </g>
        </g>
    </g>
</svg>
