<?xml version="1.0" encoding="UTF-8"?>
<svg width="60px" height="60px" viewBox="0 0 60 60" version="1.1" xmlns="http://www.w3.org/2000/svg" xmlns:xlink="http://www.w3.org/1999/xlink">
    <!-- Generator: Sketch 43.2 (39069) - http://www.bohemiancoding.com/sketch -->
    <title>two_step_progress_menu</title>
    <desc>Created with Sketch.</desc>
    <defs></defs>
    <g id="Page-1" stroke="none" stroke-width="1" fill="none" fill-rule="evenodd">
        <g id="OXT-icons" transform="translate(-709.000000, -500.000000)">
            <g id="two_step_progress_menu" transform="translate(709.000000, 500.000000)">
                <circle id="Oval-2" fill="#FFFFFF" cx="30" cy="30" r="30"></circle>
                <g id="two_step" stroke-width="1" transform="translate(12.000000, 17.000000)" fill="#007DA4">
                    <g id="Layer_2">
                        <g id="Layer_1-2">
                            <path d="M25.0632911,12.6125097 C25.0629279,12.2964598 24.9377487,11.9935963 24.715474,11.7709873 L13.4625678,0.413017099 C13.0015445,-0.0503700529 12.2561151,-0.0503700529 11.7950917,0.413017099 L11.0483079,1.15644788 C10.8265369,1.37928471 10.7018632,1.68212003 10.7018632,1.99797022 C10.7018632,2.3138204 10.8265369,2.61665572 11.0483079,2.83949255 L19.1248256,10.9914175 L1.18155515,10.9914175 C0.530992569,10.9914114 0.00281628822,11.5222112 -6.82317701e-14,12.1788417 L-6.82317701e-14,13.2423607 C-0.00548823273,13.5622172 0.116569615,13.8708887 0.338751828,14.0990286 C0.560934041,14.3271684 0.864609923,14.4556464 1.18155515,14.4555985 L18.9253423,14.4555985 L11.0483079,22.3855268 C10.5892072,22.8508545 10.5892072,23.6032437 11.0483079,24.0685714 L11.7950917,24.8223276 C12.2561151,25.2857148 13.0015445,25.2857148 13.4625678,24.8223276 L24.715474,13.4643574 C24.9402788,13.239232 25.0656689,12.9321359 25.0632911,12.6125097 L25.0632911,12.6125097 Z" id="Shape"></path>
                            <path d="M35.5642986,11.7141975 L35.5642986,11.7141975 L35.5642986,11.7141975 L34.7817102,10.9501158 L34.7817102,10.9501158 L24.3011625,0.351064534 C23.8401391,-0.112322618 23.0947097,-0.112322618 22.6336864,0.351064534 L21.8869026,1.09965803 C21.4278019,1.56498577 21.4278019,2.31737495 21.8869026,2.7827027 L31.559287,12.5453944 L21.8766727,22.3184115 C21.6549016,22.5412483 21.5302279,22.8440836 21.5302279,23.1599338 C21.5302279,23.475784 21.6549016,23.7786193 21.8766727,24.0014562 L22.6234565,24.7552124 C23.0844798,25.2185995 23.8299092,25.2185995 24.2909326,24.7552124 L34.6947559,14.2542526 C34.7379565,14.2226952 34.7789716,14.1881969 34.8175149,14.1509983 L35.5642986,13.4230557 C35.7940307,13.1992801 35.9237895,12.8908726 35.9237895,12.5686266 C35.9237895,12.2463806 35.7940307,11.9379731 35.5642986,11.7141975 L35.5642986,11.7141975 Z" id="Shape"></path>
                        </g>
                    </g>
                </g>
            </g>
        </g>
    </g>
</svg>