<?xml version="1.0" encoding="utf-8"?>
<!-- Generator: Adobe Illustrator 19.2.1, SVG Export Plug-In . SVG Version: 6.00 Build 0)  -->
<svg version="1.1" id="Layer_1" xmlns="http://www.w3.org/2000/svg" xmlns:xlink="http://www.w3.org/1999/xlink" x="0px" y="0px"
	 viewBox="0 0 60 60" style="enable-background:new 0 0 60 60;" xml:space="preserve">
<style type="text/css">
	.st0{fill:#FFBD3E;}
	.st1{fill:#FFFFFF;}
</style>
<g>
	<circle class="st0" cx="29.6" cy="30.3" r="30"/>
	<g>
		<path class="st1" d="M42,11.6H17.2c-0.6,0-1.1,0.5-1.1,1.1v33.8c0,0.6,0.5,1.1,1.1,1.1H42c0.6,0,1.1-0.5,1.1-1.1V12.7
			C43.1,12.1,42.6,11.6,42,11.6z M19.5,15h10.1v10.1H19.5V15z M31.6,44.1H19.5v-2.2h12.1V44.1z M39.7,37.8H19.5v-2.2h20.2V37.8z
			 M39.7,31.5H19.5v-2.2h20.2V31.5z M39.7,22.7V25H33v-2.2H39.7z"/>
	</g>
</g>
</svg>
