<svg width="16" height="16" viewBox="0 0 16 16" fill="none" xmlns="http://www.w3.org/2000/svg">
<path d="M13.4351 0.219067H1.48921C0.740904 0.219067 0.132904 0.827066 0.132904 1.57537V14.4689C0.132904 15.2172 0.740904 15.8252 1.48921 15.8252H13.4351C14.1834 15.8252 14.7914 15.2172 14.7914 14.4689V1.57537C14.7914 0.824605 14.1858 0.219067 13.4351 0.219067ZM13.7477 14.1366C13.7477 14.4935 13.4597 14.7815 13.1027 14.7815H1.82152C1.4646 14.7815 1.1766 14.4935 1.1766 14.1366V1.90768C1.1766 1.55076 1.4646 1.26276 1.82152 1.26276H13.1027C13.4597 1.26276 13.7477 1.55076 13.7477 1.90768V14.1366Z" fill="#222E65"/>
<path d="M12.0616 9.79201H5.56315C5.28992 9.79201 5.06592 9.57047 5.06592 9.29478C5.06592 9.02155 5.28746 8.79755 5.56315 8.79755H12.0616C12.3348 8.79755 12.5588 9.01908 12.5588 9.29478C12.5588 9.56801 12.3348 9.79201 12.0616 9.79201Z" fill="#15C0DC"/>
<path d="M9.30953 6.64394H2.81107C2.53784 6.64394 2.31384 6.4224 2.31384 6.14671C2.31384 5.87347 2.53538 5.64948 2.81107 5.64948H9.30953C9.58277 5.64948 9.80676 5.87101 9.80676 6.14671C9.80676 6.41994 9.58277 6.64394 9.30953 6.64394Z" fill="#222E65"/>
<path d="M12.0665 13.728H5.56803C5.2948 13.728 5.0708 13.5065 5.0708 13.2308C5.0708 12.9575 5.29234 12.7335 5.56803 12.7335H12.0665C12.3397 12.7335 12.5637 12.9551 12.5637 13.2308C12.5637 13.5065 12.3422 13.728 12.0665 13.728Z" fill="#15C0DC"/>
<path d="M12.0616 11.7588H5.56312C5.28989 11.7588 5.06589 11.5372 5.06589 11.2615C5.06589 10.9883 5.28743 10.7643 5.56312 10.7643H12.0616C12.3348 10.7643 12.5588 10.9859 12.5588 11.2615C12.5588 11.5372 12.3348 11.7588 12.0616 11.7588Z" fill="#15C0DC"/>
<path d="M2.89721 8.98708C2.95875 8.97969 3.00305 8.96985 3.02767 8.95754C3.07444 8.93785 3.09905 8.90584 3.09905 8.864C3.09905 8.81231 3.08182 8.77785 3.0449 8.75815C3.00798 8.73846 2.95628 8.72861 2.8849 8.72861C2.80613 8.72861 2.74952 8.74831 2.71752 8.78523C2.69536 8.81477 2.67813 8.85169 2.67075 8.90092H2.35321C2.36059 8.79015 2.39013 8.70154 2.44675 8.63015C2.53536 8.51938 2.68305 8.46277 2.89721 8.46277C3.03505 8.46277 3.15813 8.48984 3.26644 8.544C3.37475 8.59815 3.42644 8.70154 3.42644 8.85415V9.43261C3.42644 9.472 3.42644 9.52123 3.4289 9.57785C3.43136 9.62215 3.43875 9.64923 3.44859 9.66646C3.45844 9.68369 3.47567 9.69354 3.49782 9.70338V9.75261H3.1409C3.13105 9.728 3.12367 9.70338 3.12121 9.68123C3.11628 9.65908 3.11382 9.63446 3.11136 9.60492C3.06459 9.65415 3.0129 9.696 2.95382 9.73046C2.88244 9.77231 2.80121 9.792 2.71259 9.792C2.5969 9.792 2.50336 9.76 2.42951 9.69354C2.35567 9.62954 2.31628 9.536 2.31628 9.41784C2.31628 9.26277 2.37536 9.152 2.49598 9.08308C2.56244 9.04615 2.65844 9.01908 2.78644 9.00185L2.89721 8.98708ZM3.09905 9.13969C3.0769 9.152 3.05721 9.16431 3.03505 9.17169C3.0129 9.17908 2.98336 9.18646 2.94644 9.19384L2.87259 9.20861C2.80121 9.22092 2.75198 9.23569 2.72244 9.25292C2.67075 9.28246 2.64367 9.32923 2.64367 9.39323C2.64367 9.44985 2.65844 9.48923 2.69044 9.51385C2.72244 9.53846 2.75936 9.55077 2.80613 9.55077C2.87752 9.55077 2.94398 9.53108 3.00551 9.48923C3.06705 9.44738 3.09659 9.37108 3.09905 9.26277V9.13969Z" fill="#15C0DC"/>
<path d="M3.7095 9.40553H4.05904V9.75015H3.7095V9.40553Z" fill="#15C0DC"/>
<path d="M3.39938 10.7323C3.49292 10.8505 3.53969 11.0055 3.53969 11.1951C3.53969 11.3895 3.49292 11.552 3.39938 11.68C3.30584 11.808 3.17784 11.872 3.01046 11.872C2.90707 11.872 2.82092 11.8523 2.75938 11.8105C2.72246 11.7858 2.68061 11.7415 2.6363 11.68V11.8375H2.31384V10.1391H2.64369V10.7446C2.68554 10.6855 2.7323 10.6412 2.78153 10.6117C2.84061 10.5723 2.91692 10.5551 3.01046 10.5551C3.17538 10.5551 3.30584 10.6142 3.39938 10.7323ZM3.12615 11.5003C3.17292 11.4314 3.19753 11.3428 3.19753 11.2295C3.19753 11.1409 3.18523 11.0671 3.16307 11.008C3.11876 10.8972 3.03753 10.8406 2.91938 10.8406C2.79877 10.8406 2.71753 10.8948 2.67077 11.0031C2.64861 11.0597 2.6363 11.136 2.6363 11.2271C2.6363 11.3354 2.66092 11.424 2.70769 11.4954C2.75692 11.5668 2.8283 11.6012 2.92677 11.6012C3.01046 11.6037 3.07692 11.5692 3.12615 11.5003Z" fill="#15C0DC"/>
<path d="M3.76367 11.4954H4.11321V11.84H3.76367V11.4954Z" fill="#15C0DC"/>
<path d="M3.13846 12.9772C3.13353 12.9305 3.1163 12.8886 3.09169 12.8492C3.05477 12.7975 2.99815 12.7729 2.91938 12.7729C2.80861 12.7729 2.7323 12.8271 2.69046 12.9379C2.6683 12.9969 2.65846 13.0732 2.65846 13.1717C2.65846 13.2628 2.6683 13.3391 2.69046 13.3932C2.72984 13.4991 2.80369 13.5508 2.912 13.5508C2.9883 13.5508 3.04492 13.5311 3.07692 13.4892C3.10892 13.4474 3.12861 13.3932 3.136 13.3268H3.47076C3.46338 13.4277 3.42646 13.5212 3.36246 13.6099C3.25907 13.7551 3.10646 13.8265 2.90461 13.8265C2.70277 13.8265 2.55261 13.7674 2.45661 13.6468C2.36061 13.5262 2.31384 13.3711 2.31384 13.1791C2.31384 12.9625 2.36553 12.7951 2.47138 12.6745C2.57723 12.5539 2.72246 12.4948 2.90707 12.4948C3.06461 12.4948 3.19507 12.5292 3.296 12.6006C3.39692 12.672 3.456 12.7975 3.47569 12.9748H3.13846V12.9772Z" fill="#15C0DC"/>
<path d="M3.69476 13.4375H4.0443V13.7822H3.69476V13.4375Z" fill="#15C0DC"/>
<path d="M12.0492 2.35077H2.81107C2.53784 2.35077 2.31384 2.57231 2.31384 2.848C2.31384 3.12369 2.53538 3.34523 2.81107 3.34523H6.07507C6.76031 3.34523 6.86896 3.34523 7.41296 3.34523C7.97666 3.34523 8.25509 3.34523 8.80738 3.34523H12.0517C12.3249 3.34523 12.5489 3.12369 12.5489 2.848C12.5489 2.57231 12.3249 2.35077 12.0492 2.35077Z" fill="#222E65"/>
<path d="M12.0492 4H2.81107C2.53784 4 2.31384 4.22154 2.31384 4.49723C2.31384 4.77292 2.53538 4.99446 2.81107 4.99446H6.07507C6.76031 4.99446 6.86896 4.99446 7.41296 4.99446C7.97666 4.99446 8.25509 4.99446 8.80738 4.99446H12.0517C12.3249 4.99446 12.5489 4.77292 12.5489 4.49723C12.5489 4.22154 12.3249 4 12.0492 4Z" fill="#222E65"/>
</svg>
