<!-- Generator: Adobe Illustrator 19.2.1, SVG Export Plug-In  -->
<svg version="1.1"
	 xmlns="http://www.w3.org/2000/svg" xmlns:xlink="http://www.w3.org/1999/xlink" xmlns:a="http://ns.adobe.com/AdobeSVGViewerExtensions/3.0/"
	 x="0px" y="0px" width="59px" height="54.4px" viewBox="0 0 59 54.4" style="enable-background:new 0 0 59 54.4;"
	 xml:space="preserve">
<style type="text/css">
	.st0{fill:#FFFFFF;}
	.st1{fill:#FFFFFF;}
</style>
<defs>
</defs>
<g>
	<g>
		<g>
			<path class="st0" d="M25.6,29.2c0,1.1,0.9,2,2,2h0.2c1.1,0,2-0.9,2-2V17.4c0-1.1-0.9-2-2-2h-0.2c-1.1,0-2,0.9-2,2V29.2z"/>
		</g>
		<g>
			<path class="st0" d="M18.1,34.1c-0.9,0.7-1.1,1.9-0.4,2.8l0.1,0.2c0.7,0.9,1.9,1.1,2.8,0.4l8-6c0.9-0.7,1.1-1.9,0.4-2.8l-0.1-0.2
				c-0.7-0.9-1.9-1.1-2.8-0.4L18.1,34.1z"/>
		</g>
	</g>
	<path class="st1" d="M26.2,0c15.5-0.6,28.3,11.8,28.3,27.2h-4.6c0-13-11-23.5-24.2-22.6C14.5,5.4,5.4,14.5,4.7,25.6
		c-0.9,13.2,9.5,24.2,22.6,24.2c5.5,0,10.6-2,14.5-5.3c0.5-0.4,1.3-0.4,1.7,0.1l1.4,1.4c0.5,0.5,0.5,1.4-0.1,1.9
		c-4.7,4-10.9,6.5-17.6,6.5C11.8,54.4-0.6,41.7,0,26.2C0.6,12.1,12.1,0.6,26.2,0z"/>
	<g>
		<path class="st1" d="M58,27.2c1.1,0,1.4,0.7,0.6,1.5l-5.3,5.6c-0.8,0.8-2,0.8-2.7,0l-5.3-5.6c-0.8-0.8-0.5-1.5,0.6-1.5h1.5
			c1.1,0,2.9,0,4,0h1.1c1.1,0,2.9,0,4,0H58z"/>
	</g>
</g>
</svg>
