<?xml version="1.0" encoding="UTF-8" standalone="no"?>
<svg width="125px" height="125px" viewBox="0 0 125 125" version="1.1" xmlns="http://www.w3.org/2000/svg" xmlns:xlink="http://www.w3.org/1999/xlink" xmlns:sketch="http://www.bohemiancoding.com/sketch/ns">
    <!-- Generator: Sketch 3.0.3 (7891) - http://www.bohemiancoding.com/sketch -->
    <title>Shape</title>
    <desc>Created with Sketch.</desc>
    <defs></defs>
    <g id="Page-1" stroke="none" stroke-width="1" fill="none" fill-rule="evenodd" sketch:type="MSPage">
        <path d="M62.5,0 C28,0 0,28 0,62.5 C0,97 28,125 62.5,125 C97,125 125,97 125,62.5 C125,28 97,0 62.5,0 Z M96.5,46.7 C99.7,46.7 102.4,49.3 102.4,52.6 C102.4,55.8 99.8,58.5 96.5,58.5 C93.2,58.5 90.6,55.9 90.6,52.6 C90.6,49.3 93.3,46.7 96.5,46.7 Z M76.2,46.7 C79.4,46.7 82.1,49.3 82.1,52.6 C82.1,55.8 79.5,58.5 76.2,58.5 C72.9,58.5 70.3,55.9 70.3,52.6 C70.3,49.3 73,46.7 76.2,46.7 Z M52.2,39.6 C56.9,39.6 60.7,43.4 60.7,48.1 C60.7,52.8 56.9,56.6 52.2,56.6 C47.5,56.6 43.7,52.8 43.7,48.1 C43.7,43.4 47.5,39.6 52.2,39.6 Z M28.5,46.7 C31.7,46.7 34.4,49.3 34.4,52.6 C34.4,55.8 31.8,58.5 28.5,58.5 C25.2,58.5 22.6,55.9 22.6,52.6 C22.6,49.3 25.2,46.7 28.5,46.7 Z M37.5,75.1 L37.5,76.4 C37.5,77.5 36.6,78.4 35.5,78.4 L21.5,78.4 C20.4,78.4 19.5,77.5 19.5,76.4 L19.5,75.1 L19.5,65.2 C19.5,62.1 21.8,59.3 24.9,58.8 C25.9,59.5 27,59.9 28.5,59.9 C30,59.9 31.1,59.4 32.1,58.8 C35.2,59.3 37.5,62.1 37.5,65.2 L37.5,75.1 Z M65.2,80.7 L65.2,83.4 C65.2,84.5 64.3,85.4 63.2,85.4 L41.2,85.4 C40.1,85.4 39.2,84.5 39.2,83.4 L39.2,80.7 L39.2,66.3 C39.2,61.8 42.5,58 47,57.1 C48.4,58 50.1,58.8 52.2,58.8 C54.1,58.8 56,58.3 57.4,57.1 C61.9,57.8 65.2,61.8 65.2,66.3 L65.2,80.7 Z M85.2,75.1 L85.2,76.4 C85.2,77.5 84.3,78.4 83.2,78.4 L69.2,78.4 C68.1,78.4 67.2,77.5 67.2,76.4 L67.2,75.1 L67.2,65.2 C67.2,62.1 69.5,59.5 72.6,58.8 C73.6,59.5 74.7,59.9 76.2,59.9 C77.5,59.9 78.8,59.6 79.8,58.8 C82.9,59.3 85.2,62.1 85.2,65.2 L85.2,75.1 Z M105.5,75.1 L105.5,76.4 C105.5,77.5 104.6,78.4 103.5,78.4 L89.5,78.4 C88.4,78.4 87.5,77.5 87.5,76.4 L87.5,75.1 L87.5,65.2 C87.5,62.1 89.8,59.5 92.9,58.8 C93.9,59.5 95,59.9 96.5,59.9 C97.8,59.9 99.1,59.6 100.1,58.8 C103.2,59.3 105.5,62.1 105.5,65.2 L105.5,75.1 Z" id="Shape" fill="#FFFFFF" sketch:type="MSShapeGroup"></path>
    </g>
</svg>