<svg xmlns="http://www.w3.org/2000/svg" viewBox="0 0 60.67 60.67"><defs><style>.cls-1{fill:#5f6163;}.cls-2{fill:#fff;}</style></defs><title>indiviudal review prog menu</title><g id="Layer_2" data-name="Layer 2"><g id="Layer_1-2" data-name="Layer 1"><circle class="cls-1" cx="30.33" cy="30.33" r="30.33"/><path class="cls-2" d="M35,14.15H32.35a2.67,2.67,0,0,0-5.34,0H24.36a.58.58,0,0,0-.58.58v3.8a.58.58,0,0,0,.58.58H35a.58.58,0,0,0,.58-.58v-3.8A.58.58,0,0,0,35,14.15Zm-5.32,1.23a1.43,1.43,0,1,1,1.43-1.43A1.43,1.43,0,0,1,29.68,15.38Z"/><rect class="cls-2" x="24.59" y="22.73" width="14.63" height="1.43" rx="0.39" ry="0.39"/><rect class="cls-2" x="24.63" y="27.95" width="14.63" height="1.43" rx="0.39" ry="0.39"/><path class="cls-2" d="M23.13,27,23,26.8a.31.31,0,0,0-.44,0l-1.41,1.47-.72-.73a.31.31,0,0,0-.44,0l-.16.17a.33.33,0,0,0,0,.46l1.11,1.12a.31.31,0,0,0,.44,0l1.79-1.87A.33.33,0,0,0,23.13,27Z"/><path class="cls-2" d="M23.26,32.18,23.09,32a.31.31,0,0,0-.44,0l-1.41,1.47-.72-.73a.31.31,0,0,0-.44,0l-.16.17a.33.33,0,0,0,0,.46L21,34.51a.31.31,0,0,0,.44,0l1.79-1.87A.33.33,0,0,0,23.26,32.18Z"/><path class="cls-2" d="M23,37.4l-.16-.16a.31.31,0,0,0-.44,0L21,38.71,20.24,38a.31.31,0,0,0-.44,0l-.16.17a.33.33,0,0,0,0,.46l1.11,1.12a.31.31,0,0,0,.44,0L23,37.85A.33.33,0,0,0,23,37.4Z"/><path class="cls-2" d="M23.16,21.74,23,21.58a.31.31,0,0,0-.44,0l-1.41,1.47-.72-.73a.31.31,0,0,0-.44,0l-.16.17a.33.33,0,0,0,0,.46l1.11,1.12a.31.31,0,0,0,.44,0l1.79-1.87A.33.33,0,0,0,23.16,21.74Z"/><circle class="cls-2" cx="41.57" cy="37.47" r="3.12"/><path class="cls-2" d="M46.34,47.13v-3a3.44,3.44,0,0,0-2.86-3.38h0a3,3,0,0,1-1.91.61,3.33,3.33,0,0,1-1.91-.61h0a3.51,3.51,0,0,0-2.86,3.38v3Z"/><path class="cls-2" d="M37.11,38.39H25.35a.72.72,0,0,0,0,1.43H37.68A4.52,4.52,0,0,1,37.11,38.39Z"/><path class="cls-2" d="M39.22,33.58a.71.71,0,0,0-.65-.41H25.38a.72.72,0,0,0,0,1.43H38A4.58,4.58,0,0,1,39.22,33.58Z"/><path class="cls-2" d="M41.33,19.12V32.93h.24a4.53,4.53,0,0,1,1.28.19V18.64a2,2,0,0,0-2-2H36.65v1.52h3.74A.94.94,0,0,1,41.33,19.12Z"/><path class="cls-2" d="M35.37,44.14a4.63,4.63,0,0,1,.07-.76H18.79a.94.94,0,0,1-.94-.94V19.12a.94.94,0,0,1,.94-.94H22.7V16.67H18.3a2,2,0,0,0-2,2V42.93a2,2,0,0,0,2,2H35.37Z"/></g></g></svg>