<?xml version="1.0" encoding="utf-8"?>
<!-- Generator: Adobe Illustrator 19.2.1, SVG Export Plug-In . SVG Version: 6.00 Build 0)  -->
<svg version="1.1" id="Layer_1" xmlns="http://www.w3.org/2000/svg" xmlns:xlink="http://www.w3.org/1999/xlink" x="0px" y="0px"
	 viewBox="0 0 60 60" style="enable-background:new 0 0 60 60;" xml:space="preserve">
<style type="text/css">
	.st0{fill:#0DC0DC;}
	.st1{fill:#FFFFFF;}
</style>
<g>
	<circle class="st0" cx="30" cy="30" r="30"/>
	<line class="st1" x1="34.1" y1="51.6" x2="34.1" y2="51.6"/>
	<g>
		<path class="st1" d="M46.3,20.1c0.7-0.7,0.8-1.7,0.2-2.2l-4.4-4.4c-0.5-0.5-1.5-0.4-2.2,0.2l-2,2l6.4,6.4L46.3,20.1z"/>
		<path class="st1" d="M15.2,38.4L15.2,38.4l-2.1,8.5l8.5-2.1l0,0l18-18l-6.4-6.4L15.2,38.4z M20.5,43.7l-4.2,1.1l-1.1-1.1l1.1-4.2
			L20.5,43.7z"/>
		<rect x="37.7" y="16.7" transform="matrix(0.7071 -0.7071 0.7071 0.7071 -3.6495 33.6355)" class="st1" width="2.2" height="9"/>
	</g>
</g>
</svg>
