<svg xmlns="http://www.w3.org/2000/svg" viewBox="0 0 19.32 17.75"><defs><style>.cls-1{fill:#15c0dc;}.cls-2{fill:#222e65;}</style></defs><title>spaced practice 20px blue_1</title><g id="Layer_2" data-name="Layer 2"><g id="Layer_1-2" data-name="Layer 1"><path class="cls-1" d="M13.48,11.14,10.69,9l0-3.66a.46.46,0,0,0-.45-.47h-.6a.46.46,0,0,0-.44.48l0,4.21a.5.5,0,0,0,0,.08h0v.05l0,.05h0a.47.47,0,0,0,.15.2l3.22,2.48a.43.43,0,0,0,.62-.1l.35-.51A.49.49,0,0,0,13.48,11.14Z"/><path class="cls-2" d="M.06,9.19l2.09,2.21a.2.2,0,0,0,.29,0L4.58,9.13a.2.2,0,0,0-.15-.34H.24A.24.24,0,0,0,.06,9.19Z"/><path class="cls-2" d="M9.89,0a8.91,8.91,0,0,0-8.3,8.26c0,.24,0,.48,0,.72h1.5a7.42,7.42,0,1,1,2.72,5.5h0a.79.79,0,0,0-1.11,1.11h0l0,0,.14.11A8.87,8.87,0,1,0,9.89,0Z"/></g></g></svg>