<!-- Generator: Adobe Illustrator 19.2.1, SVG Export Plug-In  -->
<svg version="1.1"
	 xmlns="http://www.w3.org/2000/svg" xmlns:xlink="http://www.w3.org/1999/xlink" xmlns:a="http://ns.adobe.com/AdobeSVGViewerExtensions/3.0/"
	 x="0px" y="0px" width="70.2px" height="48.8px" viewBox="0 0 70.2 48.8" style="enable-background:new 0 0 70.2 48.8;"
	 xml:space="preserve">
<style type="text/css">
	.st0{fill:#77af41;}
</style>
<defs>
</defs>
<path class="st0" d="M49,24.4c0-0.6-0.2-1.2-0.7-1.6l-22-22c-0.9-0.9-2.4-0.9-3.3,0l-1.5,1.5c-0.9,0.9-0.9,2.4,0,3.3l15.8,15.8H2.3
	c-1.3,0-2.3,1-2.3,2.3v2.1C0,26.9,1,28,2.3,28H37L21.6,43.4c-0.9,0.9-0.9,2.4,0,3.3l1.5,1.5c0.9,0.9,2.4,0.9,3.3,0l22-22
	C48.8,25.6,49,25,49,24.4z"/>
<path class="st0" d="M69.5,22.7L69.5,22.7C69.5,22.7,69.5,22.7,69.5,22.7L68,21.2c0,0,0,0,0,0L47.5,0.7c-0.9-0.9-2.4-0.9-3.3,0
	l-1.5,1.5c-0.9,0.9-0.9,2.4,0,3.3l18.9,18.9L42.8,43.2c-0.9,0.9-0.9,2.4,0,3.3l1.5,1.5c0.9,0.9,2.4,0.9,3.3,0l20.3-20.3
	c0.1-0.1,0.2-0.1,0.2-0.2l1.5-1.5C70.4,25.1,70.4,23.6,69.5,22.7z"/>
</svg>
