<!-- Generator: Adobe Illustrator 19.2.1, SVG Export Plug-In  -->
<svg version="1.1"
	 xmlns="http://www.w3.org/2000/svg" xmlns:xlink="http://www.w3.org/1999/xlink" xmlns:a="http://ns.adobe.com/AdobeSVGViewerExtensions/3.0/"
	 x="0px" y="0px" width="124px" height="124px" viewBox="0 0 124 124" style="enable-background:new 0 0 124 124;"
	 xml:space="preserve">
<style type="text/css">
	.st0{fill:#5E6162;}
	.st1{fill:#FFFFFF;}
</style>
<defs>
</defs>
<circle class="st0" cx="62" cy="62" r="62"/>
<g>
	<g>
		<g>
			<path class="st1" d="M59.4,64.2c0,1.1,0.9,2,2,2h1.8c1.1,0,2-0.9,2-2V46.4c0-1.1-0.9-2-2-2h-1.8c-1.1,0-2,0.9-2,2V64.2z"/>
		</g>
		<g>
			<path class="st1" d="M48.4,70.6c-0.9,0.7-1.1,1.9-0.4,2.8l1.1,1.5c0.7,0.9,1.9,1.1,2.8,0.4l12.3-9.2c0.9-0.7,1.1-1.9,0.4-2.8
				l-1.1-1.5c-0.7-0.9-1.9-1.1-2.8-0.4L48.4,70.6z"/>
		</g>
	</g>
	<path class="st1" d="M60.1,23.2c21.4-0.8,39,16.3,39,37.5h-6.4c0-17.9-15.2-32.3-33.4-31.1C44,30.7,31.6,43.1,30.5,58.5
		c-1.3,18.2,13.1,33.4,31.1,33.4c7.6,0,14.6-2.7,20-7.3c0.7-0.6,1.7-0.5,2.4,0.1l2,2c0.7,0.7,0.7,2-0.1,2.6
		c-6.5,5.5-15,8.9-24.2,8.9c-21.2,0-38.3-17.6-37.5-39C24.9,39.8,40.7,23.9,60.1,23.2z"/>
	<g>
		<path class="st1" d="M104.7,60.7c1.1,0,1.4,0.7,0.6,1.5l-8.3,8.7c-0.8,0.8-2,0.8-2.7,0l-8.3-8.7c-0.8-0.8-0.5-1.5,0.6-1.5h3.5
			c1.1,0,2.9,0,4,0h3c1.1,0,2.9,0,4,0H104.7z"/>
	</g>
</g>
</svg>
