<svg id="Layer_1" data-name="Layer 1" xmlns="http://www.w3.org/2000/svg" viewBox="0 0 60 60"><defs><style>.cls-1{fill:#0c9390;}.cls-2{fill:#fff;}</style></defs><title>icon-worked-example</title><circle class="cls-1" cx="30" cy="30" r="30"/><path class="cls-2" d="M42.38,11.13H17.63a1.13,1.13,0,0,0-1.12,1.13V46a1.12,1.12,0,0,0,1.13,1.13H42.38A1.12,1.12,0,0,0,43.5,46V12.25A1.12,1.12,0,0,0,42.38,11.13Z"/><rect class="cls-1" x="19.45" y="14.13" width="21" height="10" rx="1" ry="1"/><rect class="cls-1" x="19.45" y="27.09" width="5" height="4" rx="1" ry="1"/><rect class="cls-1" x="35.45" y="27.09" width="5" height="4" rx="1" ry="1"/><rect class="cls-1" x="27.45" y="27.09" width="5" height="4" rx="1" ry="1"/><rect class="cls-1" x="19.45" y="33.09" width="5" height="4" rx="1" ry="1"/><rect class="cls-1" x="35.45" y="33.09" width="5" height="4" rx="1" ry="1"/><rect class="cls-1" x="27.45" y="33.09" width="5" height="4" rx="1" ry="1"/><rect class="cls-1" x="19.45" y="39.09" width="5" height="4" rx="1" ry="1"/><rect class="cls-1" x="35.45" y="39.09" width="5" height="4" rx="1" ry="1"/><rect class="cls-1" x="27.45" y="39.09" width="5" height="4" rx="1" ry="1"/></svg>