<svg xmlns="http://www.w3.org/2000/svg" viewBox="0 0 25.73 13.72"><defs><style>.cls-1{fill:#222e65;isolation:isolate;}.cls-2{fill:#15c0dc;}</style></defs><title>personalized 20px blue_1</title><g id="Layer_2" data-name="Layer 2"><g id="Layer_1-2" data-name="Layer 1"><circle class="cls-1" cx="2.68" cy="3.88" r="1.76"/><path class="cls-1" d="M3.76,5.74a1.86,1.86,0,0,1-2.15,0A1.94,1.94,0,0,0,0,7.64V11a.6.6,0,0,0,.6.6H4.77a.6.6,0,0,0,.6-.6V7.64A1.94,1.94,0,0,0,3.76,5.74Z"/><circle class="cls-2" cx="9.79" cy="2.55" r="2.55"/><path class="cls-2" d="M11.34,5.23h0a2.41,2.41,0,0,1-1.56.49,2.72,2.72,0,0,1-1.56-.49h0A2.86,2.86,0,0,0,5.9,8v5.13a.6.6,0,0,0,.6.6h6.58a.6.6,0,0,0,.6-.6V8A2.81,2.81,0,0,0,11.34,5.23Z"/><circle class="cls-1" cx="16.96" cy="3.88" r="1.76"/><path class="cls-1" d="M18,5.74A1.66,1.66,0,0,1,17,6.08a1.87,1.87,0,0,1-1.07-.34,2,2,0,0,0-1.61,1.9V11a.6.6,0,0,0,.6.6H19a.6.6,0,0,0,.6-.6V7.64A1.94,1.94,0,0,0,18,5.74Z"/><circle class="cls-1" cx="23.04" cy="3.88" r="1.76"/><path class="cls-1" d="M24.11,5.74A1.66,1.66,0,0,1,23,6.08,1.87,1.87,0,0,1,22,5.74a2,2,0,0,0-1.61,1.9V11a.6.6,0,0,0,.6.6h4.17a.6.6,0,0,0,.6-.6V7.64A1.94,1.94,0,0,0,24.11,5.74Z"/></g></g></svg>