<?xml version="1.0" encoding="utf-8"?>
<!-- Generator: Adobe Illustrator 19.2.1, SVG Export Plug-In . SVG Version: 6.00 Build 0)  -->
<svg version="1.1" id="Layer_1" xmlns="http://www.w3.org/2000/svg" xmlns:xlink="http://www.w3.org/1999/xlink" x="0px" y="0px"
	 viewBox="0 0 60 60" style="enable-background:new 0 0 60 60;" xml:space="preserve">
<style type="text/css">
	.st0{fill:#222F66;}
	.st1{fill:none;}
	.st2{fill:#FFFFFF;}
</style>
<g>
	<g>
		<circle class="st0" cx="30" cy="30" r="30"/>
		<g>
			<rect x="20.4" y="40.5" class="st1" width="11.6" height="2.1"/>
		</g>
	</g>
	<g>
		<g>
			<path class="st2" d="M42.4,12H17.6c-0.6,0-1.1,0.5-1.1,1.1v33.8c0,0.6,0.5,1.1,1.1,1.1h24.8c0.6,0,1.1-0.5,1.1-1.1V13.1
				C43.5,12.5,43,12,42.4,12z M32,44.6H19.9v-2.2H32V44.6z M40.1,38.2H19.9V36h20.2V38.2z"/>
		</g>
		<polygon class="st0" points="25,18.9 35.9,18.9 35.9,29.8 32.1,26 27.3,30.9 23.9,27.5 28.8,22.7 		"/>
	</g>
</g>
</svg>
