<svg xmlns="http://www.w3.org/2000/svg" viewBox="0 0 60 60"><defs><style>.cls-1{fill:#fff;}.cls-2{fill:#007da4;}</style></defs><title>two-step med blue</title><g id="Layer_2" data-name="Layer 2"><g id="Layer_1-2" data-name="Layer 1"><circle class="cls-1" cx="30" cy="30" r="30"/><path class="cls-2" d="M45.44,20.81H28.75a2.08,2.08,0,0,0-2.08,2.08v18A2.08,2.08,0,0,0,28.75,43H45.44a2.08,2.08,0,0,0,2.08-2.08v-18A2.08,2.08,0,0,0,45.44,20.81ZM37.72,25.2a1,1,0,0,0-1.58.18,2.36,2.36,0,0,0-.16.87H34.63A3.43,3.43,0,0,1,35,24.78a2,2,0,0,1,2-1.06,2.52,2.52,0,0,1,1.79.62A2.16,2.16,0,0,1,39.4,26a2.23,2.23,0,0,1-.47,1.4,4.69,4.69,0,0,1-1,.9l-.56.4q-.52.37-.72.54a1.58,1.58,0,0,0-.33.39h3.1v1.23H34.55a3.32,3.32,0,0,1,.33-1.39A3.93,3.93,0,0,1,36.29,28a10.37,10.37,0,0,0,1.25-1,1.46,1.46,0,0,0,.44-1A1.13,1.13,0,0,0,37.72,25.2Zm-7.11,8.26h13a.68.68,0,0,1,0,1.36h-13a.68.68,0,0,1,0-1.36Zm0,2.7h13a.68.68,0,0,1,0,1.36h-13a.68.68,0,1,1,0-1.36Zm13.06,4.06h-13a.68.68,0,0,1,0-1.36h13a.68.68,0,0,1,0,1.36Z"/><path class="cls-2" d="M31.25,17H14.56a2.08,2.08,0,0,0-2.08,2.08v18a2.08,2.08,0,0,0,2.08,2.08H25.17V36.71H17.69A1.68,1.68,0,0,1,16,35V31.5a1.68,1.68,0,0,1,1.68-1.68h7.48V22.89a3.59,3.59,0,0,1,3.58-3.58h4.58v-.23A2.08,2.08,0,0,0,31.25,17ZM23.06,27.08H21.63V22.16H20v-1a6.17,6.17,0,0,0,.93-.09,1.31,1.31,0,0,0,.69-.37,1.23,1.23,0,0,0,.27-.51,1.17,1.17,0,0,0,.05-.29h1.17Z"/></g></g></svg>