<!-- Generator: Adobe Illustrator 19.2.1, SVG Export Plug-In  -->
<svg version="1.1"
	 xmlns="http://www.w3.org/2000/svg" xmlns:xlink="http://www.w3.org/1999/xlink" xmlns:a="http://ns.adobe.com/AdobeSVGViewerExtensions/3.0/"
	 x="0px" y="0px" width="124px" height="124px" viewBox="0 0 124 124" style="enable-background:new 0 0 124 124;"
	 xml:space="preserve">
<style type="text/css">
	.st0{fill:#FFFFFF;}
	.st1{fill:#77AF42;}
</style>
<defs>
</defs>
<circle class="st0" cx="62" cy="62" r="62"/>
<g>
	<path class="st1" d="M75.9,62.1c0-0.6-0.2-1.2-0.7-1.6l-22-22c-0.9-0.9-2.4-0.9-3.3,0l-1.5,1.5c-0.9,0.9-0.9,2.4,0,3.3l15.8,15.8
		H29.2c-1.3,0-2.3,1-2.3,2.3v2.1c0,1.3,1,2.3,2.3,2.3h34.7L48.5,81c-0.9,0.9-0.9,2.4,0,3.3l1.5,1.5c0.9,0.9,2.4,0.9,3.3,0l22-22
		C75.7,63.2,75.9,62.6,75.9,62.1z"/>
	<path class="st1" d="M96.4,60.3L96.4,60.3C96.4,60.3,96.4,60.3,96.4,60.3l-1.5-1.5c0,0,0,0,0,0L74.4,38.3c-0.9-0.9-2.4-0.9-3.3,0
		l-1.5,1.5c-0.9,0.9-0.9,2.4,0,3.3l18.9,18.9L69.7,80.8c-0.9,0.9-0.9,2.4,0,3.3l1.5,1.5c0.9,0.9,2.4,0.9,3.3,0l20.3-20.3
		c0.1-0.1,0.2-0.1,0.2-0.2l1.5-1.5C97.3,62.7,97.3,61.2,96.4,60.3z"/>
</g>
</svg>
