<?xml version="1.0" encoding="UTF-8" standalone="no"?>
<svg width="86px" height="45px" viewBox="0 0 86 45" version="1.1" xmlns="http://www.w3.org/2000/svg" xmlns:xlink="http://www.w3.org/1999/xlink" xmlns:sketch="http://www.bohemiancoding.com/sketch/ns">
    <!-- Generator: Sketch 3.0.3 (7891) - http://www.bohemiancoding.com/sketch -->
    <title>icon-personalized</title>
    <desc>Created with Sketch.</desc>
    <defs></defs>
    <g id="Page-1" stroke="none" stroke-width="1" fill="none" fill-rule="evenodd" sketch:type="MSPage">
        <g id="icon-personalized" sketch:type="MSLayerGroup">
            <path d="M76.5,7 C79.4830508,7 82,9.6440678 82,13 C82,16.2542373 79.5762712,19 76.5,19 C73.4237288,19 71,16.3559322 71,13 C71,9.6440678 73.5169492,7 76.5,7 L76.5,7 L76.5,7 Z" id="Shape-path" fill="#FFFFFF" sketch:type="MSShapeGroup"></path>
            <path d="M56,7 C59.2542373,7 62,9.6440678 62,13 C62,16.2542373 59.3559322,19 56,19 C52.6440678,19 50,16.3559322 50,13 C50,9.6440678 52.7457627,7 56,7 L56,7 L56,7 Z" id="Shape-path" fill="#FFFFFF" sketch:type="MSShapeGroup"></path>
            <path d="M8.5,7 C11.4830508,7 14,9.6440678 14,13 C14,16.2542373 11.5762712,19 8.5,19 C5.42372881,19 3,16.3559322 3,13 C3,9.6440678 5.42372881,7 8.5,7 L8.5,7 L8.5,7 Z" id="Shape-path" fill="#FFFFFF" sketch:type="MSShapeGroup"></path>
            <path d="M18,34.8010204 L18,36.0612245 C18,37.127551 17.1,38 16,38 L2,38 C0.9,38 0,37.127551 0,36.0612245 L0,34.8010204 L0,25.2040816 C0,22.1989796 2.3,19.4846939 5.4,19 C6.4,19.6785714 7.5,20.0663265 9,20.0663265 C10.5,20.0663265 11.6,19.5816327 12.6,19 C15.7,19.4846939 18,22.1989796 18,25.2040816 L18,34.8010204 L18,34.8010204 Z" id="Shape-path" fill="#FFFFFF" sketch:type="MSShapeGroup"></path>
            <path d="M65,34.8010204 L65,36.0612245 C65,37.127551 64.1,38 63,38 L49,38 C47.9,38 47,37.127551 47,36.0612245 L47,34.8010204 L47,25.2040816 C47,22.1989796 49.3,19.6785714 52.4,19 C53.4,19.6785714 54.5,20.0663265 56,20.0663265 C57.3,20.0663265 58.6,19.7755102 59.6,19 C62.7,19.4846939 65,22.1989796 65,25.2040816 L65,34.8010204 L65,34.8010204 Z" id="Shape-path" fill="#FFFFFF" sketch:type="MSShapeGroup"></path>
            <path d="M86,34.8010204 L86,36.0612245 C86,37.127551 85.1,38 84,38 L70,38 C68.9,38 68,37.127551 68,36.0612245 L68,34.8010204 L68,25.2040816 C68,22.1989796 70.3,19.6785714 73.4,19 C74.4,19.6785714 75.5,20.0663265 77,20.0663265 C78.3,20.0663265 79.6,19.7755102 80.6,19 C83.7,19.4846939 86,22.1989796 86,25.2040816 L86,34.8010204 L86,34.8010204 Z" id="Shape-path" fill="#FFFFFF" sketch:type="MSShapeGroup"></path>
            <g id="person" transform="translate(19.000000, 0.000000)" fill="#FFFFFF" sketch:type="MSShapeGroup">
                <path d="M26,40.3498233 L26,43.0212014 C26,44.1095406 25.1,45 24,45 L2,45 C0.9,45 0,44.1095406 0,43.0212014 L0,40.3498233 L0,26.1024735 C0,21.6501767 3.3,17.8904594 7.8,17 C9.2,17.8904594 10.9,18.6819788 13,18.6819788 C14.9,18.6819788 16.8,18.1872792 18.2,17 C22.7,17.6925795 26,21.6501767 26,26.1024735 L26,40.3498233 L26,40.3498233 Z" id="Shape-path"></path>
                <path d="M13.5,0 C18.2,0 22,3.8 22,8.5 C22,13.2 18.2,17 13.5,17 C8.8,17 5,13.2 5,8.5 C5,3.8 8.8,0 13.5,0 L13.5,0 L13.5,0 Z" id="Shape-path"></path>
            </g>
        </g>
    </g>
</svg>