<svg viewBox="0 0 22 16" fill="none" xmlns="http://www.w3.org/2000/svg">
<path fill-rule="evenodd" clip-rule="evenodd" d="M20.7223 15.9999H10.4522C9.74731 15.9999 9.17456 15.4272 9.17456 14.7223V3.62204C9.17456 2.91711 9.74731 2.34436 10.4522 2.34436H20.7223C21.4273 2.34436 22 2.91711 22 3.62204V14.7223C22 15.4272 21.4273 15.9999 20.7223 15.9999ZM19.6094 10.8406H13.9213C13.6824 10.8406 13.4877 10.6458 13.4877 10.407C13.4877 10.1682 13.6824 9.97339 13.9213 9.97339H19.6094C19.8482 9.97339 20.043 10.1682 20.043 10.407C20.0453 10.6458 19.8505 10.8406 19.6094 10.8406ZM13.9282 14.2863H19.6163C19.8551 14.2863 20.0498 14.0915 20.0498 13.8527C20.0498 13.6138 19.8551 13.4191 19.6163 13.4191H13.9282C13.6893 13.4191 13.4945 13.6138 13.4945 13.8527C13.4945 14.0915 13.6893 14.2863 13.9282 14.2863ZM19.6094 12.5635H13.9213C13.6824 12.5635 13.4877 12.3688 13.4877 12.1299C13.4877 11.8911 13.6824 11.6963 13.9213 11.6963H19.6094C19.8482 11.6963 20.043 11.8911 20.043 12.1299C20.0453 12.3688 19.8505 12.5635 19.6094 12.5635ZM15.0899 6.73858C14.6331 7.06553 14.3455 7.37393 14.2226 7.66379C14.0974 7.9235 14.0301 8.20871 14.0232 8.51944H17.0122V7.7635H15.1061C15.1595 7.67306 15.2267 7.5919 15.3055 7.52465C15.3867 7.45509 15.5328 7.3461 15.7484 7.19306L16.0916 6.94958C16.3815 6.74553 16.5878 6.56002 16.7154 6.39306C16.9078 6.14263 17.0052 5.8551 17.0052 5.53278C17.0052 5.11076 16.8684 4.77221 16.5948 4.51713C16.3212 4.26206 15.9525 4.13452 15.491 4.13452C14.9067 4.13452 14.5009 4.35249 14.2713 4.78843C14.1507 5.018 14.0835 5.31713 14.0696 5.68814H14.902C14.9136 5.44234 14.9461 5.2638 14.9994 5.15249C15.0945 4.95771 15.273 4.86032 15.5328 4.86032C15.7252 4.86032 15.8713 4.9206 15.9734 5.0435C16.0754 5.1664 16.1264 5.31945 16.1264 5.50496C16.1264 5.7322 16.036 5.94089 15.8574 6.13103C15.7415 6.25393 15.4841 6.45568 15.0899 6.73858ZM11.5931 10.1356C11.6465 10.1287 11.6859 10.1194 11.7091 10.1101C11.7508 10.0916 11.7717 10.0661 11.7717 10.029C11.7717 9.98492 11.7555 9.95246 11.723 9.93623C11.6905 9.92 11.6441 9.91073 11.5839 9.91073C11.5143 9.91073 11.4656 9.92695 11.4378 9.96174C11.4169 9.98724 11.403 10.0197 11.3961 10.0638H11.1178C11.1247 9.96637 11.1503 9.88753 11.1989 9.82724C11.2755 9.72985 11.4076 9.68115 11.5931 9.68115C11.7137 9.68115 11.8227 9.70435 11.9155 9.75305C12.0106 9.80174 12.0569 9.89218 12.0569 10.0243V10.5299C12.0569 10.5646 12.0569 10.6064 12.0592 10.6574C12.0615 10.6945 12.0662 10.72 12.0755 10.7339C12.0847 10.7478 12.0986 10.7594 12.1172 10.7664V10.8081H11.8042C11.796 10.7877 11.7914 10.7691 11.7873 10.7523L11.7856 10.7455L11.7836 10.7309C11.7813 10.7153 11.7787 10.6974 11.7787 10.6783C11.7392 10.7223 11.6928 10.7571 11.6395 10.7896C11.5769 10.8243 11.5074 10.8429 11.4285 10.8429C11.3288 10.8429 11.2453 10.8151 11.1804 10.7571C11.1155 10.6991 11.083 10.6203 11.083 10.5159C11.083 10.3814 11.1363 10.2817 11.2407 10.2214C11.2986 10.189 11.3821 10.1658 11.4958 10.1519L11.5931 10.1356ZM11.7671 10.2701C11.7485 10.2817 11.73 10.291 11.7114 10.298C11.6929 10.3049 11.6674 10.3119 11.6349 10.3188L11.57 10.3304C11.5074 10.342 11.4633 10.3536 11.4378 10.3699C11.3914 10.3954 11.3705 10.4371 11.3705 10.4927C11.3705 10.5414 11.3844 10.5785 11.4123 10.5994C11.4401 10.6203 11.4726 10.6319 11.5143 10.6319C11.5769 10.6319 11.6349 10.6133 11.6882 10.5762C11.7416 10.5391 11.7694 10.4742 11.7717 10.3768V10.2701H11.7671ZM12.6088 10.5044H12.3027V10.8058H12.6088V10.5044ZM12.0314 11.6662C12.1149 11.7705 12.1543 11.905 12.1543 12.0696C12.1543 12.2412 12.1126 12.3827 12.0314 12.494C11.9503 12.6053 11.8367 12.6633 11.6906 12.6633C11.6001 12.6633 11.5259 12.6447 11.4702 12.6076C11.4378 12.5867 11.4007 12.5473 11.3636 12.494V12.6331H11.0807V11.1467H11.3682V11.6754C11.4053 11.6244 11.4447 11.585 11.4888 11.5572C11.5421 11.5224 11.6071 11.5062 11.6882 11.5062C11.8343 11.5085 11.9503 11.5618 12.0314 11.6662ZM11.7903 12.3363C11.832 12.276 11.8529 12.1972 11.8529 12.0998C11.8529 12.0209 11.8436 11.956 11.8227 11.905C11.7833 11.8076 11.7137 11.7589 11.6094 11.7589C11.505 11.7589 11.4309 11.8053 11.3914 11.9003C11.3706 11.9514 11.3613 12.0163 11.3613 12.0975C11.3613 12.1925 11.3821 12.2691 11.4239 12.3317C11.4656 12.3943 11.5306 12.4244 11.6164 12.4244C11.6906 12.4267 11.7485 12.3966 11.7903 12.3363ZM12.6553 12.3318H12.3492V12.6333H12.6553V12.3318ZM11.8019 13.6278C11.7972 13.5861 11.7833 13.549 11.7601 13.5165C11.7276 13.4725 11.6766 13.4493 11.6094 13.4493C11.512 13.4493 11.4447 13.498 11.4099 13.5931C11.3914 13.6441 11.3821 13.7113 11.3821 13.7971C11.3821 13.8783 11.3914 13.9432 11.4099 13.9919C11.4447 14.0823 11.5097 14.1287 11.6047 14.1287C11.672 14.1287 11.7207 14.1102 11.7485 14.0731C11.7764 14.036 11.7949 13.9896 11.7995 13.9316H12.094C12.0871 14.0197 12.0546 14.1009 11.9989 14.1797C11.9085 14.3049 11.774 14.3675 11.5978 14.3675C11.4216 14.3675 11.2894 14.3142 11.2059 14.2099C11.1224 14.1055 11.0807 13.9687 11.0807 13.8018C11.0807 13.6139 11.1271 13.4655 11.2198 13.3612C11.3126 13.2568 11.4401 13.2035 11.6024 13.2035C11.7416 13.2035 11.8528 13.2336 11.941 13.2963C12.0291 13.3589 12.0801 13.4678 12.0964 13.6255H11.8019V13.6278ZM12.595 14.0312H12.2889V14.3326H12.595V14.0312Z" fill="#222E65"/>
<path fill-rule="evenodd" clip-rule="evenodd" d="M13.2673 1.41689H10.4522C9.23502 1.41689 8.247 2.40491 8.247 3.6221V13.6556H1.71957C1.01465 13.6556 0.441895 13.0828 0.441895 12.3779V1.27768C0.441895 0.572753 1.01465 0 1.71957 0H11.9896C12.6945 0 13.2673 0.572753 13.2673 1.27768V1.41689ZM5.26733 2.94489V2.35824C5.53864 2.34664 5.72883 2.32808 5.83781 2.30489C6.01173 2.26547 6.15082 2.18895 6.2598 2.07533C6.334 1.99649 6.38965 1.89215 6.42907 1.75997C6.45226 1.68113 6.46157 1.62316 6.46157 1.58374H7.18269V5.96866H6.29926V2.94489H5.26733ZM8.24082 12.1299H3.41456C2.84413 12.1299 2.38037 11.6661 2.38037 11.0957V8.55886C2.38037 7.98843 2.84413 7.52466 3.41456 7.52466H8.24082V12.1299Z" fill="#15C0DC"/>
</svg>
