<?xml version="1.0" encoding="utf-8"?>
<!-- Generator: Adobe Illustrator 16.0.0, SVG Export Plug-In . SVG Version: 6.00 Build 0)  -->
<!DOCTYPE svg PUBLIC "-//W3C//DTD SVG 1.1 Tiny//EN" "http://www.w3.org/Graphics/SVG/1.1/DTD/svg11-tiny.dtd">
<svg version="1.1" baseProfile="tiny" id="Layer_1" xmlns="http://www.w3.org/2000/svg" xmlns:xlink="http://www.w3.org/1999/xlink"
	 x="0px" y="0px" width="25px" height="30px" viewBox="0 0 25 30" xml:space="preserve">
<g>
	<path fill="#FFFFFF" d="M12.5,4.38c-4.634,0-8.386,3.038-8.386,7.644c0,4.607,2.409,5.835,3.344,8.054
		c0.935,2.218,1.546,4.002,1.546,4.002H12.5h3.495c0,0,0.612-1.784,1.547-4.002s3.344-3.447,3.344-8.054
		C20.886,7.418,17.135,4.38,12.5,4.38z"/>
	<rect x="9.048" y="24.714" fill="#D1D3D4" width="6.905" height="1.535"/>
	<polygon fill="#D1D3D4" points="15.376,28.082 9.624,28.082 9.048,26.548 15.953,26.548 	"/>
	<polygon fill="#5F6062" points="14.023,30 10.978,30 10.53,28.466 14.47,28.466 	"/>
	<rect y="11.389" fill="#FFFFFF" width="2.525" height="1.377"/>
	
		<rect x="2.799" y="3.744" transform="matrix(0.7072 0.707 -0.707 0.7072 4.323 -1.5739)" fill="#FFFFFF" width="2.525" height="1.377"/>
	
		<rect x="19.504" y="3.451" transform="matrix(-0.707 0.7072 -0.7072 -0.707 38.3747 -7.6191)" fill="#FFFFFF" width="2.524" height="1.377"/>
	<rect x="22.475" y="11.389" fill="#FFFFFF" width="2.525" height="1.377"/>
	<rect x="11.812" fill="#FFFFFF" width="1.377" height="2.525"/>
	<path fill="#E6E7E8" d="M11.229,23.305L9.311,13.14l0.578,0.363c0.372,0.234,1.459,0.84,2.017,0.84s1.305-0.401,1.545-0.556
		l0.323,0.502c-0.041,0.027-1.022,0.65-1.868,0.65c-0.523,0-1.255-0.333-1.762-0.602l1.671,8.857L11.229,23.305z"/>
	
		<rect x="13.776" y="13.689" transform="matrix(0.9861 0.1661 -0.1661 0.9861 3.2693 -2.0809)" fill="#E6E7E8" width="0.597" height="9.627"/>
</g>
</svg>
