<svg xmlns="http://www.w3.org/2000/svg" viewBox="0 0 60 60"><defs><style>.cls-1{fill:#fff;}.cls-2{fill:#007da4;}</style></defs><title>spaced practice_1</title><g id="Layer_2" data-name="Layer 2"><g id="Layer_1-2" data-name="Layer 1"><circle class="cls-1" cx="30" cy="30" r="30"/><path class="cls-2" d="M36.63,34.39,31,30l-.07-7.41a.93.93,0,0,0-.91-.95H28.78a.93.93,0,0,0-.9,1L28,31.17a1,1,0,0,0,0,.16h0a1,1,0,0,0,0,.1l0,.1h0a.94.94,0,0,0,.3.41l6.52,5a.87.87,0,0,0,1.26-.21l.71-1A1,1,0,0,0,36.63,34.39Z"/><path class="cls-2" d="M9.45,30.44l4.22,4.47a.41.41,0,0,0,.6,0l4.33-4.58a.41.41,0,0,0-.3-.69H9.8A.48.48,0,0,0,9.45,30.44Z"/><path class="cls-2" d="M29.36,11.87A18,18,0,0,0,12.55,28.59c0,.49,0,1,0,1.45h3A15,15,0,1,1,21,41.19h0a1.59,1.59,0,0,0-2.25,2.25h0l.06.05a1.6,1.6,0,0,0,.28.23A18,18,0,1,0,29.36,11.87Z"/></g></g></svg>