<?xml version="1.0" encoding="UTF-8"?>
<svg width="20px" height="18px" viewBox="0 0 20 18" version="1.1" xmlns="http://www.w3.org/2000/svg" xmlns:xlink="http://www.w3.org/1999/xlink">
    <!-- Generator: Sketch 43.2 (39069) - http://www.bohemiancoding.com/sketch -->
    <title>spaced practice</title>
    <desc>Created with Sketch.</desc>
    <defs></defs>
    <g id="Page-1" stroke="none" stroke-width="1" fill="none" fill-rule="evenodd">
        <g id="OXT-icons" transform="translate(-884.000000, -151.000000)">
            <g id="spaced-practice" transform="translate(884.000000, 151.000000)">
                <g id="Layer_2">
                    <g id="Layer_1-2">
                        <rect id="Rectangle-path" fill="#0DC0DC" x="9.83571429" y="5.274" width="1.38085714" height="5.15571429" rx="0.690428571"></rect>
                        <rect id="Rectangle-path" fill="#0DC0DC" transform="translate(11.945578, 10.942019) rotate(-53.180000) translate(-11.945578, -10.942019) " x="11.2551499" y="8.65473285" width="1.38085714" height="4.57457143" rx="0.690428571"></rect>
                        <path d="M11.0571429,0.257142857 C8.64231436,0.159798168 6.29224516,1.05158188 4.54991939,2.72644713 C2.80759362,4.40131237 1.82375304,6.71435391 1.82571429,9.13114286 L3.33,9.13114286 C3.33061141,5.67571255 5.73112352,2.68433572 9.10441608,1.9354056 C12.4777086,1.18647547 15.9185655,2.88096592 17.3813746,6.01149121 C18.8441837,9.14201649 17.9364032,12.8685066 15.1977146,14.9755385 C12.459026,17.0825705 8.62435075,17.0047267 5.97342857,14.7882857 C5.80670295,14.6489121 5.56110818,14.6600755 5.40771429,14.814 L4.93714286,15.2794286 C4.85375365,15.3632465 4.80912096,15.4780583 4.81400249,15.5961912 C4.81888401,15.714324 4.87283693,15.825062 4.96285714,15.9017143 C7.92593401,18.4055063 12.1719188,18.6944389 15.4468681,16.6151348 C18.7218175,14.5358307 20.2665822,10.5702828 19.2611377,6.82356684 C18.2556932,3.07685092 14.9331063,0.417474073 11.0571429,0.257142857 Z" id="Shape" fill="#5E6062"></path>
                        <path d="M0.514285714,9.13114286 C0.231428571,9.13114286 0.159428571,9.29828571 0.352285714,9.504 L2.25514286,11.5148571 C2.34657981,11.6129197 2.47463602,11.6686034 2.60871429,11.6686034 C2.74279255,11.6686034 2.87084877,11.6129197 2.96228571,11.5148571 L4.88571429,9.51428571 C5.08114286,9.30857143 5.00657143,9.14142857 4.72371429,9.14142857 L0.514285714,9.14142857 L0.514285714,9.13114286 Z" id="Shape" fill="#5E6062"></path>
                    </g>
                </g>
            </g>
        </g>
    </g>
</svg>