<svg id="Layer_1" data-name="Layer 1" xmlns="http://www.w3.org/2000/svg" viewBox="0 0 60 60"><defs><style>.cls-1{fill:#5f6163;}.cls-2{fill:#fff;}.cls-3{fill:#5e6162;}</style></defs><title>icon-finished</title><circle class="cls-1" cx="30" cy="30" r="30"/><path class="cls-2" d="M18.46,14a2,2,0,1,0-2.75,1.85V48h1.5V15.81A2,2,0,0,0,18.46,14Z"/><path class="cls-2" d="M44.54,16h-25a1,1,0,0,0-1,1V36a1,1,0,0,0,1,1h25a1,1,0,0,0,1-1V17A1,1,0,0,0,44.54,16Zm-24,2.38a0.5,0.5,0,0,1,.5-0.5h7.17v5.75H20.51V18.41Zm15.33,11H28.17v5.75H21a0.5,0.5,0,0,1-.5-0.5V29.41h7.67V23.67h7.67v5.75Zm7.67,5.25a0.5,0.5,0,0,1-.5.5H35.84V29.41h7.67v5.25Zm0-11H35.84V17.91H43a0.5,0.5,0,0,1,.5.5v5.25Z"/><rect class="cls-3" x="28.17" y="29.41"/></svg>