<?xml version="1.0" encoding="UTF-8"?>
<svg width="60px" height="60px" viewBox="0 0 60 60" version="1.1" xmlns="http://www.w3.org/2000/svg" xmlns:xlink="http://www.w3.org/1999/xlink">
    <!-- Generator: Sketch 43.2 (39069) - http://www.bohemiancoding.com/sketch -->
    <title>personalized_progress_menu</title>
    <desc>Created with Sketch.</desc>
    <defs></defs>
    <g id="Page-1" stroke="none" stroke-width="1" fill="none" fill-rule="evenodd">
        <g id="OXT-icons" transform="translate(-86.000000, -500.000000)">
            <g id="personalized_progress_dropdown" transform="translate(86.000000, 500.000000)">
                <circle id="Oval-2" fill="#FFFFFF" cx="30" cy="30" r="30"></circle>
                <g id="personalized" stroke-width="1" transform="translate(12.000000, 20.000000)" fill="#007DA4">
                    <g id="Layer_2">
                        <g id="Layer_1-2">
                            <circle id="Oval" cx="3.8526699" cy="5.57069439" r="2.52120093"></circle>
                            <path d="M5.39459688,8.22933727 C4.47082039,8.88381922 3.23451942,8.88381922 2.31074293,8.22933727 C0.978795012,8.45697905 0.00366053606,9.60974025 0,10.9609962 L0,15.7757598 C5.80996152e-17,16.2501792 0.384592881,16.6347721 0.859012241,16.6347721 L6.84632756,16.6347721 C7.32074693,16.6347721 7.70533981,16.2501792 7.70533981,15.7757598 L7.70533981,10.9609962 C7.70167927,9.60974025 6.72654479,8.45697905 5.39459688,8.22933727 L5.39459688,8.22933727 Z" id="Shape"></path>
                            <circle id="Oval" cx="14.0448501" cy="3.65080203" r="3.65080203"></circle>
                            <path d="M16.278282,7.50776699 L16.278282,7.50776699 C15.6389837,7.99675114 14.8491207,8.24738076 14.0448501,8.21645209 C13.2452863,8.21502421 12.4655266,7.96760046 11.8114183,7.50776699 L11.8114183,7.50776699 C9.89831277,7.86571009 8.49932881,9.5175873 8.46127058,11.4635184 L8.46127058,18.8252533 C8.46127058,19.2996726 8.84586346,19.6842655 9.32028282,19.6842655 L18.7694175,19.6842655 C19.2438368,19.6842655 19.6284297,19.2996726 19.6284297,18.8252533 L19.6284297,11.4635184 C19.6226751,9.50553995 18.2085893,7.83583104 16.278282,7.50776699 L16.278282,7.50776699 Z" id="Shape"></path>
                            <circle id="Oval" cx="24.3401119" cy="5.57069439" r="2.52120093"></circle>
                            <path d="M25.8820388,8.22933727 C25.4406864,8.56697915 24.8954013,8.74013376 24.3401119,8.71897425 C23.7880575,8.71792933 23.2497052,8.54697625 22.7981849,8.22933727 C21.4780092,8.47739344 20.5131861,9.617965 20.487442,10.9609962 L20.487442,15.7757598 C20.487442,16.2501792 20.8720348,16.6347721 21.3464542,16.6347721 L27.3337695,16.6347721 C27.8081889,16.6347721 28.1927818,16.2501792 28.1927818,15.7757598 L28.1927818,10.9609962 C28.1891212,9.60974025 27.2139868,8.45697905 25.8820388,8.22933727 L25.8820388,8.22933727 Z" id="Shape"></path>
                            <circle id="Oval" cx="33.0676762" cy="5.57069439" r="2.52120093"></circle>
                            <path d="M33.0719713,8.71897425 C32.5201965,8.69984711 31.9815647,8.54697625 31.5300443,8.22933727 C30.2047594,8.47199273 29.2333779,9.61394947 29.2064162,10.9609962 L29.2064162,15.7757598 C29.2064162,16.2501792 29.5910091,16.6347721 30.0654285,16.6347721 L36.0785141,16.6347721 C36.5529335,16.6347721 36.9375264,16.2501792 36.9375264,15.7757598 L36.9375264,10.9609962 C36.9320947,9.60286898 35.9457874,8.44763609 34.6053081,8.22933727 C34.1662588,8.56507414 33.6243452,8.73812216 33.0719713,8.71897425 Z" id="Shape"></path>
                        </g>
                    </g>
                </g>
            </g>
        </g>
    </g>
</svg>