<svg xmlns="http://www.w3.org/2000/svg" height="109" width="95" viewBox="0 0 83.77 99.39"><defs><style>.cls-1{fill:#232e66;}.cls-2{fill:#222e65;}.cls-3{fill:#15c0dc;}.cls-4{fill:#0dc0dc;}</style></defs><title>individual review_1</title><g id="Layer_2" data-name="Layer 2"><g id="Layer_1-2" data-name="Layer 1"><path class="cls-1" d="M52.1,7.31H44.72a7.46,7.46,0,0,0-14.91,0H22.42A1.62,1.62,0,0,0,20.8,8.93v10.6a1.62,1.62,0,0,0,1.62,1.62H52.1a1.62,1.62,0,0,0,1.62-1.62V8.93A1.62,1.62,0,0,0,52.1,7.31ZM37.26,10.73a4,4,0,1,1,4-4A4,4,0,0,1,37.26,10.73Z"/><rect class="cls-2" x="23.06" y="31.26" width="40.83" height="4" rx="2" ry="2"/><rect class="cls-2" x="23.18" y="45.83" width="40.83" height="4" rx="2" ry="2"/><path class="cls-3" d="M19,43.07l-.46-.46a.86.86,0,0,0-1.24,0l-3.94,4.11-2-2a.86.86,0,0,0-1.24,0l-.45.47a.91.91,0,0,0,0,1.27l3.1,3.12a.86.86,0,0,0,1.24,0l5-5.21A.91.91,0,0,0,19,43.07Z"/><path class="cls-3" d="M19.34,57.64l-.46-.46a.86.86,0,0,0-1.24,0L13.71,61.3l-2-2a.86.86,0,0,0-1.24,0l-.45.47A.91.91,0,0,0,10,61l3.1,3.12a.86.86,0,0,0,1.24,0l5-5.21A.91.91,0,0,0,19.34,57.64Z"/><path class="cls-3" d="M18.58,72.21l-.46-.46a.86.86,0,0,0-1.24,0L13,75.87l-2-2a.86.86,0,0,0-1.24,0l-.45.47a.91.91,0,0,0,0,1.27l3.1,3.12a.86.86,0,0,0,1.24,0l5-5.21A.91.91,0,0,0,18.58,72.21Z"/><path class="cls-3" d="M19.07,28.5,18.62,28a.86.86,0,0,0-1.24,0l-3.94,4.11-2-2a.86.86,0,0,0-1.24,0l-.45.47a.91.91,0,0,0,0,1.27L12.84,35a.86.86,0,0,0,1.24,0l5-5.21A.91.91,0,0,0,19.07,28.5Z"/><circle class="cls-4" cx="70.47" cy="72.4" r="8.71"/><path class="cls-4" d="M83.77,99.39V91a9.6,9.6,0,0,0-8-9.43h0a8.25,8.25,0,0,1-5.32,1.69,9.29,9.29,0,0,1-5.32-1.69h0a9.79,9.79,0,0,0-8,9.43v8.36Z"/><path class="cls-2" d="M58,75H25.18a2,2,0,1,0,0,4H59.61A12.61,12.61,0,0,1,58,75Z"/><path class="cls-2" d="M63.9,61.55a2,2,0,0,0-1.8-1.15H25.26a2,2,0,0,0,0,4H60.62A12.79,12.79,0,0,1,63.9,61.55Z"/><path class="cls-2" d="M69.8,21.19V59.73c.22,0,.45,0,.67,0a12.65,12.65,0,0,1,3.56.52V19.84a5.51,5.51,0,0,0-5.51-5.51H56.73v4.24H67.18A2.62,2.62,0,0,1,69.8,21.19Z"/><path class="cls-2" d="M53.17,91a12.92,12.92,0,0,1,.18-2.12H6.86a2.62,2.62,0,0,1-2.62-2.62V21.19a2.62,2.62,0,0,1,2.62-2.62H17.8V14.33H5.51A5.51,5.51,0,0,0,0,19.84v67.8a5.51,5.51,0,0,0,5.51,5.51H53.17Z"/></g></g></svg>
