<?xml version="1.0" encoding="UTF-8"?>
<svg width="26px" height="20px" viewBox="0 0 26 20" version="1.1" xmlns="http://www.w3.org/2000/svg" xmlns:xlink="http://www.w3.org/1999/xlink">
    <title>noun_writing hand_2197476 copy@2x</title>
    <g id="PHASE-2-UPDATES" stroke="none" stroke-width="1" fill="none" fill-rule="evenodd">
        <g id="-1159-/-SS-/-WRQ-icona-and-label" transform="translate(-780.000000, -392.000000)" fill-rule="nonzero">
            <g id="noun_writing-hand_2197476-copy" transform="translate(780.000000, 392.000000)">
                <path d="M24.7338692,15.8839458 C24.7339295,15.6512805 24.6098387,15.4362631 24.4083547,15.3199131 C24.2068707,15.203563 23.9586148,15.203563 23.7571308,15.3199131 C23.5556469,15.4362631 23.4315561,15.6512805 23.4316164,15.8839458 C23.4315561,16.116611 23.5556469,16.3316284 23.7571308,16.4479784 C23.9586148,16.5643285 24.2068707,16.5643285 24.4083547,16.4479784 C24.6098387,16.3316284 24.7339295,16.116611 24.7338692,15.8839458 Z" id="Path" fill="#0C9372"></path>
                <path d="M2.75108268,13.2759405 L10.2338255,5.87171916 L8.30412292,4.94374453 L1.33246938,11.842301 C0.939242368,12.2345082 0.937153141,12.8708362 1.32779627,13.2656171 C1.7184394,13.660398 2.35475411,13.6650134 2.75108268,13.2759405 L2.75108268,13.2759405 Z" id="Path" fill="#222E65"></path>
                <path d="M17.0523736,0.526312336 L15.5086507,2.0537839 L17.6087822,4.17622485 L19.1525044,2.64875328 C19.7336491,2.06794897 19.7362734,1.12673077 19.1583765,0.542694791 C18.5804797,-0.0413411826 17.6392863,-0.0486626626 17.0523736,0.526312336 L17.0523736,0.526312336 Z" id="Path" fill="#15C0DC"></path>
                <polygon id="Path" fill="#15C0DC" points="0.718318023 17.2317585 2.3407371 18.8713692 0.0463145232 19.9701662"></polygon>
                <path d="M1.15517279,16.2568241 L14.8004921,2.75454943 L16.9006236,4.87699038 L7.98257896,13.7015967 L6.01350612,13.7015967 C5.17898435,13.7015943 4.42174936,14.1901583 4.07780028,14.9505041 C3.73385119,15.7108498 3.86689686,16.6021402 4.41790245,17.2288933 L3.25545713,18.3792432 L1.15517279,16.2568241 Z" id="Path" fill="#15C0DC"></path>
                <path d="M6.01350612,16.9543745 C5.39039798,16.9543745 4.88526903,16.4492455 4.88526903,15.8261374 C4.88526903,15.2030292 5.39039798,14.6979003 6.01350612,14.6979003 L13.5723644,14.6979003 C13.6407876,14.6978456 13.7043974,14.6626883 13.740845,14.6047806 C13.7772926,14.5468728 13.7814799,14.4743145 13.7519357,14.4125984 L12.1214239,11.007699 L15.1357942,8.02493438 L20.7090442,10.2882546 L20.7090442,16.9543745 L6.01350612,16.9543745 Z" id="Path" fill="#222E65"></path>
                <polygon id="Path" fill="#15C0DC" points="21.7069226 9.89735346 21.7069226 17.4657699 25.509241 17.4657699 25.509241 9.89735346"></polygon>
            </g>
        </g>
    </g>
</svg>