<svg xmlns="http://www.w3.org/2000/svg" width="87" height="82" viewBox="0 0 87.81 82.1"><defs><style>.cls-1{fill:#fff;}</style></defs><title>spaced practice all white</title><g id="Layer_2" data-name="Layer 2"><g id="Layer_1-2" data-name="Layer 1"><path class="cls-1" d="M44.66.05A41.19,41.19,0,0,0,5.81,38.16a41.79,41.79,0,0,0-.07,4.24H.86a.86.86,0,0,0-.6,1.47l7,6.88a.86.86,0,0,0,1.2,0l7-6.88a.86.86,0,0,0-.6-1.47H10c0-1,0-1.92,0-2.9A36.83,36.83,0,1,1,21.63,67.94h0a1.61,1.61,0,0,0-.13-.16l-.07-.07a1.63,1.63,0,0,0-2.3,0l-.7.7a1.63,1.63,0,0,0,0,2.3l.07.07.16.13,0,0A41,41,0,1,0,44.66.05Z"/><path class="cls-1" d="M46.76,13.5A27.55,27.55,0,1,0,74.31,41,27.55,27.55,0,0,0,46.76,13.5ZM59.69,52.86l-1.15,1.55a2,2,0,0,1-2.82.42L42.41,45l-.09-.09a2,2,0,0,1-.2-.19v0a2,2,0,0,1-.53-1.36v-18a2,2,0,0,1,2-2h1.59a2,2,0,0,1,2,2V41.08l12.08,9A2,2,0,0,1,59.69,52.86Z"/></g></g></svg>
