<?xml version="1.0" encoding="utf-8"?>
<!-- Generator: Adobe Illustrator 19.2.1, SVG Export Plug-In . SVG Version: 6.00 Build 0)  -->
<svg version="1.1" id="Layer_1" xmlns="http://www.w3.org/2000/svg" xmlns:xlink="http://www.w3.org/1999/xlink" x="0px" y="0px"
	 viewBox="0 0 60 60" style="enable-background:new 0 0 60 60;" xml:space="preserve">
<style type="text/css">
	.st0{fill:#77AF42;}
	.st1{fill:none;}
	.st2{fill:#FFFFFF;}
</style>
<g>
	<circle class="st0" cx="30" cy="30" r="30"/>
	<g>
		<rect x="25.5" y="34.8" class="st1" width="9" height="9"/>
		<rect x="15.4" y="24.6" class="st1" width="9" height="9"/>
		<rect x="25.5" y="24.6" class="st1" width="9" height="9"/>
		<rect x="15.4" y="34.8" class="st1" width="9" height="9"/>
		<rect x="35.6" y="24.6" class="st1" width="9" height="9"/>
		<rect x="35.6" y="34.8" class="st1" width="9" height="9"/>
		<path class="st2" d="M45.7,19h-5.6v-4.2c0-0.6-0.5-1.1-1.1-1.1h-3.4c-0.6,0-1.1,0.5-1.1,1.1V19h-9.1v-4.2c0-0.6-0.5-1.1-1.1-1.1
			h-3.4c-0.6,0-1.1,0.5-1.1,1.1V19h-5.5c-0.6,0-1.1,0.5-1.1,1.1v24.8c0,0.6,0.5,1.1,1.1,1.1h31.5c0.6,0,1.1-0.5,1.1-1.1V20.1
			C46.9,19.5,46.4,19,45.7,19z M21.7,16.8c0-0.3,0.3-0.6,0.6-0.6h0.6c0.3,0,0.6,0.3,0.6,0.6v3.9c-0.1,0.3-0.3,0.6-0.6,0.6h-0.6
			c-0.3,0-0.6-0.3-0.6-0.6V16.8z M24.4,43.8h-9v-9h9V43.8z M24.4,33.6h-9v-9h9V33.6z M34.5,43.8h-9v-9h9V43.8z M34.5,33.6h-9v-9h9
			V33.6z M36.4,16.8c0-0.3,0.3-0.6,0.6-0.6h0.6c0.3,0,0.6,0.3,0.6,0.6v3.9c0,0.3-0.3,0.6-0.6,0.6H37c-0.3,0-0.6-0.3-0.6-0.6V16.8z
			 M44.6,43.8h-9v-9h9V43.8z M44.6,33.6h-9v-9h9V33.6z"/>
	</g>
</g>
</svg>
