<?xml version="1.0" encoding="utf-8"?>
<!-- Generator: Adobe Illustrator 19.2.1, SVG Export Plug-In . SVG Version: 6.00 Build 0)  -->
<svg version="1.1" id="Layer_1" xmlns="http://www.w3.org/2000/svg" xmlns:xlink="http://www.w3.org/1999/xlink" x="0px" y="0px"
	 viewBox="0 0 60 60" style="enable-background:new 0 0 60 60;" xml:space="preserve">
<style type="text/css">
	.st0{fill:#0DC0DC;}
	.st1{fill:#FFFFFF;}
</style>
<g>
	<g>
		<circle class="st0" cx="30" cy="30" r="30"/>
	</g>
	<g>
		<g>
			<g>
				<path class="st1" d="M45.1,14.9H14.9c-1.1,0-2.1,0.9-2.1,2.1v18.2c0,1.1,0.9,2.1,2.1,2.1h30.2c1.2,0,2.1-0.9,2.1-2.1V17
					C47.2,15.9,46.3,14.9,45.1,14.9z M45,33.8c0,0.7-0.6,1.3-1.3,1.3H16.3c-0.7,0-1.3-0.6-1.3-1.3V18.4c0-0.7,0.6-1.3,1.3-1.3h27.4
					c0.7,0,1.3,0.6,1.3,1.3V33.8z"/>
			</g>
			<path class="st1" d="M28.4,38.1c0,2.2-0.2,4.4-1.8,6h-6.5c-0.3,0-0.6,0.2-0.6,0.6c0,0.3,0.3,0.6,0.6,0.6h19.8
				c0.3,0,0.6-0.2,0.6-0.6c0-0.3-0.3-0.6-0.6-0.6h-6.7c-1.6-1.5-1.8-3.8-1.8-6H28.4z"/>
		</g>
		<g>
			<path class="st1" d="M40.3,24l-0.7-0.3c0.1-0.5,0.1-0.9,0-1.4l0.7-0.3c0.1-0.1,0.2-0.2,0.1-0.4L40,20.8c-0.1-0.1-0.2-0.2-0.4-0.1
				L38.9,21c-0.3-0.4-0.6-0.7-1-1l0.3-0.7c0.1-0.2,0-0.3-0.2-0.4l-0.8-0.3c-0.2-0.1-0.3,0-0.4,0.2l-0.3,0.7c-0.5-0.1-0.9-0.1-1.4,0
				l-0.3-0.7c-0.1-0.1-0.2-0.2-0.4-0.1l-0.8,0.4c-0.1,0.1-0.2,0.2-0.1,0.4l0.3,0.7c-0.4,0.3-0.7,0.6-1,1l-0.7-0.3
				c-0.2-0.1-0.3,0-0.4,0.2l-0.3,0.8c-0.1,0.2,0,0.3,0.2,0.4l0.7,0.3c-0.1,0.5-0.1,0.9,0,1.4l-0.7,0.3c-0.1,0.1-0.2,0.2-0.1,0.4
				l0.4,0.8c0.1,0.1,0.2,0.2,0.4,0.1l0.7-0.3c0.3,0.4,0.6,0.7,1,1L33.7,27c-0.1,0.2,0,0.3,0.2,0.4l0.8,0.3c0.2,0.1,0.3,0,0.4-0.2
				l0.3-0.7c0.5,0.1,0.9,0.1,1.4,0l0.3,0.7c0.1,0.1,0.2,0.2,0.4,0.1l0.8-0.4c0.1-0.1,0.2-0.2,0.1-0.4l-0.3-0.7c0.4-0.3,0.7-0.6,1-1
				l0.7,0.3c0.2,0.1,0.3,0,0.4-0.2l0.3-0.8C40.5,24.2,40.5,24,40.3,24z M35.2,25.1c-1.1-0.4-1.6-1.6-1.2-2.7s1.6-1.6,2.7-1.2
				s1.6,1.6,1.2,2.7S36.3,25.5,35.2,25.1z"/>
		</g>
		<g>
			<path class="st1" d="M32.2,26.3h-1.1c-0.1-0.6-0.4-1.2-0.7-1.7l0.8-0.8c0.2-0.2,0.2-0.4,0-0.6l-0.8-0.8c-0.2-0.2-0.4-0.2-0.6,0
				L29,23.2c-0.5-0.3-1.1-0.6-1.7-0.7v-1.1c0-0.2-0.2-0.4-0.4-0.4h-1.2c-0.2,0-0.4,0.2-0.4,0.4v1.1c-0.6,0.1-1.2,0.4-1.7,0.7
				l-0.8-0.8c-0.2-0.2-0.4-0.2-0.6,0l-0.8,0.8c-0.2,0.2-0.2,0.4,0,0.6l0.8,0.8c-0.3,0.5-0.6,1.1-0.7,1.7h-1.1
				c-0.2,0-0.4,0.2-0.4,0.4v1.2c0,0.2,0.2,0.4,0.4,0.4h1.1c0.1,0.6,0.4,1.2,0.7,1.7l-0.8,0.8c-0.2,0.2-0.2,0.4,0,0.6l0.8,0.8
				c0.2,0.2,0.4,0.2,0.6,0l0.8-0.8c0.5,0.3,1.1,0.6,1.7,0.7v1.1c0,0.2,0.2,0.4,0.4,0.4h1.2c0.2,0,0.4-0.2,0.4-0.4v-1.1
				c0.6-0.1,1.2-0.4,1.7-0.7l0.8,0.8c0.2,0.2,0.4,0.2,0.6,0l0.8-0.8c0.2-0.2,0.2-0.4,0-0.6L30.4,30c0.3-0.5,0.6-1.1,0.7-1.7h1.1
				c0.2,0,0.4-0.2,0.4-0.4v-1.2C32.6,26.5,32.4,26.3,32.2,26.3z M26.3,30.1c-1.5,0-2.8-1.3-2.8-2.8s1.3-2.8,2.8-2.8s2.8,1.3,2.8,2.8
				C29.1,28.9,27.8,30.1,26.3,30.1z"/>
		</g>
	</g>
</g>
</svg>
