<?xml version="1.0" encoding="utf-8"?>
<!-- Generator: Adobe Illustrator 20.0.0, SVG Export Plug-In . SVG Version: 6.00 Build 0)  -->
<svg version="1.1" id="Layer_1" xmlns="http://www.w3.org/2000/svg" xmlns:xlink="http://www.w3.org/1999/xlink" x="0px" y="0px"
	 viewBox="0 0 20.9 22" style="enable-background:new 0 0 20.9 22;" xml:space="preserve">
<style type="text/css">
	.st0{fill:#F47641;}
	.st1{fill:#606364;}
	.st2{fill:#73B450;}
	.st3{fill:#FFFFFF;}
</style>
<g>
	<path class="st0" d="M6.5,7.9L5,6.4L5.4,6c2.6-2.6,6.9-2.6,9.5,0c1.7,1.7,2.3,4,1.8,6.3h4.1c0.5-3.3-0.6-6.8-3-9.2
		C13.5-1,6.8-1,2.5,3.2L2.2,3.5L0.6,2v5.9H6.5z"/>
	<path class="st1" d="M15.3,16.1L15,16.4l0,0c-2.6,2.3-6.6,2.1-9.1-0.4c-1.7-1.7-2.4-4.1-1.8-6.4H0c-0.5,3.4,0.6,6.9,3,9.2
		c4.2,4.2,11,4.2,15.2,0l0.4-0.4l1.2,1.1l0.4-5.5h-5.9l1.5,1.5L15.3,16.1C15.4,16,15.4,16,15.3,16.1z"/>
	<path class="st2" d="M15.3,16.1c-0.1,0.1-0.2,0.2-0.4,0.3l0,0L15.3,16.1z"/>
	<path class="st3" d="M15.5,16l0.4-0.4L15.5,16C15.4,16,15.4,16,15.5,16z"/>
</g>
</svg>
