<svg id="Layer_1" data-name="Layer 1" xmlns="http://www.w3.org/2000/svg" viewBox="0 0 40 40"><defs><style>.cls-1{fill:#fff;}.cls-2{fill:#e5e5e5;}.cls-3{fill:#5e6162;}</style></defs><title>icon-fa-sim</title><path class="cls-1" d="M20,39.5A19.5,19.5,0,1,1,39.5,20,19.52,19.52,0,0,1,20,39.5Z"/><path class="cls-2" d="M20,1A19,19,0,1,1,1,20,19,19,0,0,1,20,1m0-1A20,20,0,1,0,40,20,20,20,0,0,0,20,0h0Z"/><path class="cls-3" d="M29,23.9a1.5,1.5,0,0,1-1.5,1.5H22.4a7.88,7.88,0,0,0,.6,1.8,0.6,0.6,0,0,1-.6.6H17.6a0.6,0.6,0,0,1-.6-0.6,7.88,7.88,0,0,0,.6-1.8H12.5A1.5,1.5,0,0,1,11,23.9V13.7a1.5,1.5,0,0,1,1.5-1.5h15A1.5,1.5,0,0,1,29,13.7V23.9ZM27.8,13.7a0.31,0.31,0,0,0-.3-0.3h-15a0.31,0.31,0,0,0-.3.3v7.8a0.31,0.31,0,0,0,.3.3h15a0.31,0.31,0,0,0,.3-0.3V13.7Z"/></svg>